<svg width="1398" height="933" viewBox="0 0 1398 933" fill="none" xmlns="http://www.w3.org/2000/svg">
<g clip-path="url(#clip0_37_2)">
<rect width="924.748" height="1392.19" transform="matrix(0.00549031 0.999985 0.999985 -0.00549031 0 7.64355)" fill="#B7924E" fill-opacity="0.57"/>
<path d="M793.122 550.375C790.409 550.52 788.781 550.55 788.238 550.467C786.543 550.206 786.547 550.043 788.251 549.98C789.901 549.917 791.523 549.686 793.116 549.288C823.447 547.477 851.245 538.007 876.509 520.876C897.318 506.777 914.079 489.131 926.794 467.937C941.876 442.805 949.683 414.462 950.215 382.909C950.22 382.707 950.185 382.506 950.111 382.317C950.037 382.129 949.925 381.958 949.783 381.813C949.641 381.669 949.471 381.554 949.284 381.476C949.096 381.398 948.895 381.359 948.692 381.36L797.083 382.03C795.652 382.503 794.247 382.641 792.868 382.443C792.02 382.318 792.014 382.188 792.849 382.054L797.079 381.349C809.253 380.341 820.639 378.094 831.237 374.607C879.446 358.767 913.983 328.261 934.849 283.087C943.249 264.87 948.078 244.866 949.337 223.076C949.571 216.218 949.798 215.946 950.017 222.261C952.226 256.925 963.439 287.386 983.655 313.644C1014.66 353.893 1056.27 376.119 1108.49 380.321C1109.02 380.361 1109.02 380.404 1108.49 380.45C1058.63 385.299 1018.61 406.35 988.439 443.604C981.495 452.187 975.553 461.218 970.611 470.698C955.841 499.052 949.683 529.3 952.14 561.443C952.958 572.168 954.868 582.789 957.867 593.307C969.833 635.402 994.725 668.097 1032.54 691.393C1058.62 707.441 1087.64 715.523 1119.6 715.64C1119.7 715.641 1119.81 715.622 1119.91 715.582C1120 715.543 1120.09 715.484 1120.17 715.41C1120.24 715.335 1120.3 715.247 1120.35 715.149C1120.39 715.051 1120.41 714.946 1120.41 714.84L1119.59 549.053C1119.59 548.838 1119.67 548.631 1119.82 548.478C1119.97 548.325 1120.17 548.239 1120.39 548.237L1286.44 547.326C1286.64 547.325 1286.85 547.283 1287.04 547.202C1287.23 547.122 1287.4 547.004 1287.54 546.857C1287.68 546.709 1287.8 546.535 1287.87 546.344C1287.95 546.153 1287.98 545.949 1287.98 545.744C1286.78 503.427 1272.38 466.922 1244.78 436.226C1237.42 428.057 1229.44 420.746 1220.85 414.293C1194.2 394.278 1163.7 383.057 1129.37 380.628C1128.19 380.548 1127.88 380.29 1128.42 379.854C1128.58 379.713 1128.95 379.684 1129.52 379.767C1129.95 379.83 1130.31 379.849 1130.62 379.826C1150.28 378.333 1169.06 373.498 1186.96 365.321C1223.91 348.44 1251.34 321.812 1269.22 285.437C1280.48 262.553 1286 238.344 1285.77 212.809C1285.77 212.594 1285.69 212.388 1285.54 212.237C1285.39 212.085 1285.18 212.001 1284.97 212.002L783.121 214.66C782.693 214.662 782.283 214.495 781.979 214.196C781.675 213.896 781.503 213.489 781.5 213.063L780.593 47.8599C780.592 47.7286 780.566 47.5987 780.514 47.4778C780.462 47.357 780.387 47.2475 780.293 47.156C780.198 47.0644 780.086 46.9924 779.964 46.9443C779.841 46.8962 779.71 46.8729 779.578 46.8758C746.331 47.4802 716.155 56.6663 689.048 74.4343C680.081 80.3133 671.673 87.114 663.824 94.8365C633.181 124.965 616.272 162.275 613.097 206.768C613.057 207.298 613.013 207.298 612.967 206.769C607.756 147.407 580.328 102.536 530.682 72.1564C507.917 58.2315 482.12 50.564 453.291 49.154C420.445 47.5497 389.71 54.884 361.087 71.1569C360.769 71.3363 360.412 71.4317 360.05 71.4337C359.687 71.4356 359.332 71.3442 359.019 71.1682C333.528 56.9554 306.1 49.7728 276.735 49.6204C276.493 49.6217 276.262 49.7187 276.092 49.89C275.922 50.0613 275.827 50.293 275.828 50.5339L276.639 215.948C276.641 216.258 276.519 216.556 276.3 216.776C276.081 216.996 275.784 217.121 275.473 217.123L109.603 218.358C109.434 218.359 109.268 218.393 109.113 218.459C108.959 218.524 108.818 218.619 108.701 218.739C108.583 218.859 108.491 219.001 108.429 219.157C108.367 219.313 108.337 219.479 108.34 219.647C108.943 246.575 115.46 271.811 127.888 295.354C132.868 304.812 138.84 313.821 145.801 322.382C170.567 352.801 202.258 372.322 240.875 380.947C251.668 383.354 262.427 384.657 273.153 384.858C304.04 385.424 333.114 378.039 360.375 362.704C360.777 362.479 361.229 362.359 361.688 362.357C362.147 362.354 362.597 362.469 362.997 362.69C385.622 375.08 409.369 382.066 434.237 383.649C434.378 383.659 434.747 383.63 435.343 383.562C435.712 383.517 435.973 383.591 436.126 383.785C436.454 384.162 436.303 384.379 435.674 384.436C397.859 387.391 365.24 400.598 337.818 424.057C299.31 457.019 279.537 499.65 278.5 551.951C278.497 552.168 278.409 552.375 278.254 552.527C278.1 552.68 277.891 552.766 277.674 552.767C255.954 553.146 235.823 557.107 217.28 564.65C180.952 579.44 153.098 603.491 133.72 636.802C118.933 662.214 111.454 690.009 111.283 720.186C111.284 720.401 111.37 720.607 111.52 720.759C111.671 720.91 111.874 720.994 112.086 720.993L278.073 720.374C278.453 720.372 278.818 720.518 279.089 720.782C279.359 721.045 279.512 721.403 279.514 721.777L280.421 887.061C280.422 887.186 280.448 887.31 280.497 887.425C280.546 887.54 280.617 887.644 280.707 887.731C280.797 887.818 280.904 887.886 281.02 887.932C281.137 887.978 281.262 888 281.387 887.997C312.364 887.178 340.534 879.225 365.896 864.138C374.942 858.756 383.618 852.284 391.924 844.721C426.964 812.763 445.492 772.761 447.508 724.716C447.593 722.509 447.577 711.688 447.459 692.252C447.172 645.789 446.955 599.325 446.808 552.86C446.807 552.641 446.892 552.43 447.043 552.274C447.195 552.118 447.402 552.03 447.618 552.029L612.836 550.716C613.118 550.715 613.396 550.657 613.654 550.545C613.912 550.434 614.144 550.272 614.337 550.069C614.529 549.866 614.678 549.626 614.773 549.364C614.869 549.103 614.909 548.824 614.892 548.547C611.823 493.619 589.782 450.395 548.771 418.875C539.984 412.109 530.807 406.357 521.239 401.618C500.274 391.22 478.118 385.366 454.772 384.056C451.808 383.888 451.807 383.731 454.769 383.585C466.045 383.037 477 381.289 487.633 378.343C527.542 367.286 559.077 345.465 582.237 312.879C588.657 303.834 594.039 294.465 598.382 284.772C606.425 266.784 611.151 247.782 612.561 227.764C613.115 219.801 613.545 220.112 613.853 228.698C613.866 229.174 613.896 229.634 613.942 230.077C617.882 267.532 632.116 299.756 656.646 326.748C663.952 334.787 671.96 342.071 680.67 348.599C710.035 370.589 743.705 381.783 781.68 382.18C781.878 382.179 782.069 382.258 782.211 382.4C782.352 382.542 782.432 382.736 782.433 382.938L784.263 716.183C784.264 716.368 784.301 716.552 784.373 716.723C784.445 716.893 784.551 717.048 784.683 717.179C784.815 717.309 784.972 717.412 785.144 717.482C785.316 717.552 785.501 717.588 785.687 717.587L951.477 716.579C951.583 716.579 951.688 716.557 951.786 716.515C951.883 716.474 951.972 716.413 952.046 716.338C952.119 716.262 952.177 716.172 952.216 716.073C952.255 715.975 952.273 715.869 952.27 715.764C951.57 679.21 940.743 646.821 919.789 618.599C892.94 582.426 856.659 560.247 810.945 552.062C805.936 551.17 799.995 550.608 793.122 550.375ZM415.451 716.715L432.967 718.777C436.354 718.802 439.741 718.972 443.13 719.289C444.292 719.402 444.293 719.488 443.131 719.549C439.756 719.74 436.37 719.845 432.973 719.864L420.351 719.528L280.45 720.361C280.2 720.362 279.959 720.264 279.781 720.089C279.603 719.913 279.502 719.674 279.501 719.425L278.959 564.295C278.956 563.754 278.977 563.765 279.024 564.327C282.208 602.544 296.344 635.585 321.432 663.449C346.466 691.271 377.805 709.026 415.451 716.715Z" fill="#2F2527"/>
<path d="M949.338 223.076L950.017 222.261C949.798 215.946 949.572 216.218 949.338 223.076Z" fill="#637068"/>
</g>
<defs>
<clipPath id="clip0_37_2">
<rect width="924.748" height="1392.19" fill="white" transform="matrix(0.00549031 0.999985 0.999985 -0.00549031 0 7.64355)"/>
</clipPath>
</defs>
</svg>
