<svg width="1250" height="1875" viewBox="0 0 1250 1875" fill="none" xmlns="http://www.w3.org/2000/svg">
<g clip-path="url(#clip0_39_287)">
<path d="M0 0C416.667 0 833.333 0 1250 0C1250 625 1250 1250 1250 1875C833.333 1875 416.667 1875 0 1875C0 1250 0 625 0 0ZM297.149 1277.87L298.246 1276.95C327.69 1275.09 354.693 1268.44 379.254 1257C440.161 1228.56 481.14 1181.82 502.193 1116.78C506.827 1102.48 509.781 1087.13 511.053 1070.72H511.974L512.193 1274.91C512.193 1275.19 512.248 1275.46 512.354 1275.71C512.461 1275.96 512.617 1276.19 512.813 1276.38C513.01 1276.57 513.242 1276.72 513.498 1276.82C513.753 1276.91 514.025 1276.96 514.298 1276.95C556.944 1276 595.197 1265.28 629.057 1244.78C657.61 1227.5 681.338 1204.8 700.241 1176.67C723.209 1142.51 735.804 1105.01 738.026 1064.14H739.496C739.861 1073.4 740.665 1081.4 741.908 1088.14C753.311 1149.64 783.56 1198.34 832.654 1234.23C870.958 1262.24 914.817 1276.59 964.232 1277.26C964.375 1277.26 964.517 1277.24 964.65 1277.18C964.783 1277.13 964.904 1277.05 965.007 1276.95C965.109 1276.85 965.19 1276.73 965.245 1276.6C965.3 1276.47 965.329 1276.33 965.329 1276.18L965.461 1052.89C965.461 1052.64 965.411 1052.4 965.315 1052.16C965.219 1051.93 965.079 1051.72 964.902 1051.55C964.725 1051.37 964.514 1051.23 964.283 1051.13C964.051 1051.04 963.803 1050.99 963.553 1050.99H513.092C512.819 1050.99 512.557 1050.88 512.363 1050.69C512.17 1050.5 512.061 1050.25 512.061 1049.98C511.243 998.838 495.863 953.575 465.921 914.189C457.032 902.507 447.127 891.776 436.206 881.996C399.539 849.159 355.877 830.227 305.219 825.197C304.62 825.139 303.999 825.102 303.355 825.088C291.747 824.737 291.323 824.159 302.083 823.355C329.13 821.308 354.781 814.803 379.035 803.838C392.105 797.917 404.73 790.599 416.908 781.886C460.782 750.453 490.044 707.822 504.693 653.991C508.596 639.649 510.877 624.883 511.535 609.693C511.711 605.702 511.923 605.702 512.171 609.693C514.115 641.126 522.193 670.921 536.404 699.079C542.88 711.93 550.724 724.247 559.934 736.031C602.844 791.031 661.433 820.395 735.702 824.123C736.077 824.144 736.453 824.087 736.806 823.957C737.159 823.826 737.482 823.624 737.755 823.363C738.028 823.103 738.246 822.789 738.394 822.44C738.543 822.092 738.619 821.717 738.618 821.338L739.167 598.816C739.167 598.525 739.285 598.246 739.494 598.04C739.704 597.835 739.988 597.719 740.285 597.719C803.092 597.573 865.899 597.522 928.706 597.566C954.978 597.58 969.605 597.522 972.588 597.39C1037.51 594.32 1091.45 569.072 1134.39 521.645C1144.55 510.402 1153.23 498.67 1160.44 486.447C1180.64 452.178 1191.18 414.181 1192.06 372.456C1192.06 372.287 1192.03 372.12 1191.97 371.963C1191.91 371.806 1191.82 371.663 1191.7 371.543C1191.58 371.422 1191.44 371.326 1191.28 371.261C1191.13 371.196 1190.96 371.162 1190.79 371.162H967.368C966.862 371.162 966.377 370.959 966.019 370.597C965.662 370.235 965.461 369.744 965.461 369.232L965.066 145.68C965.066 145.395 964.95 145.122 964.745 144.92C964.539 144.718 964.26 144.605 963.969 144.605C923.18 145.058 885.665 155.336 851.425 175.439C806.542 201.784 774.24 239.474 754.518 288.509C744.459 313.538 739.254 340.68 738.904 369.934C738.904 370.227 738.789 370.508 738.584 370.717C738.379 370.927 738.1 371.047 737.807 371.053C667.12 372.836 609.642 399.781 565.373 451.886C533.867 488.991 516.257 533.019 512.544 583.969C512.471 584.817 512.178 585.022 511.667 584.583C511.404 584.379 511.301 584.028 511.36 583.531C511.447 582.727 511.484 582.23 511.469 582.039C509.145 548.56 499.525 516.63 482.61 486.25C482.308 485.714 482.15 485.108 482.15 484.49C482.15 483.872 482.308 483.262 482.61 482.719C503.136 445.892 512.902 406.681 511.908 365.088C511.557 350.643 509.715 336.162 506.382 321.645C494.437 269.7 467.814 227.164 426.513 194.035C414.89 184.722 402.668 176.747 389.846 170.11C357.931 153.545 323.772 144.956 287.368 144.342C287.142 144.339 286.917 144.381 286.707 144.466C286.497 144.551 286.306 144.676 286.145 144.835C285.984 144.994 285.856 145.184 285.768 145.393C285.681 145.602 285.636 145.826 285.636 146.053L285.197 369.452C285.197 369.871 285.031 370.272 284.735 370.568C284.439 370.864 284.037 371.031 283.618 371.031L60.0219 371.162C59.6962 371.162 59.3839 371.292 59.1536 371.522C58.9232 371.752 58.7939 372.065 58.7939 372.39C59.2178 411.937 69.1301 448.823 88.5307 483.048C88.7709 483.469 88.8971 483.947 88.8971 484.435C88.8971 484.923 88.7709 485.405 88.5307 485.833C66.7471 524.503 57.0614 565.95 59.4737 610.175C61.5936 648.991 72.1491 683.677 91.1404 714.232C132.573 780.87 193.428 817.478 273.706 824.057C274.423 824.115 274.423 824.174 273.706 824.232C213.589 828.838 163.282 851.886 122.785 893.377C112.405 904.006 103.275 915.38 95.3947 927.5C71.5789 964.137 59.386 1004.85 58.8158 1049.63C58.8129 1049.8 58.8453 1049.98 58.9113 1050.15C58.9772 1050.31 59.0752 1050.46 59.1998 1050.59C59.3243 1050.71 59.4727 1050.81 59.6365 1050.88C59.8002 1050.95 59.976 1050.99 60.1535 1050.99H283.465C284.041 1050.99 284.593 1051.22 285 1051.62C285.407 1052.03 285.636 1052.58 285.636 1053.16L285.768 1729.06C285.768 1729.34 285.883 1729.62 286.089 1729.82C286.294 1730.02 286.573 1730.13 286.864 1730.13C321.382 1730.25 354.064 1722.64 384.912 1707.3C433.947 1682.95 469.737 1645.82 492.281 1595.92C503.202 1571.75 509.598 1546.43 511.469 1519.93C511.499 1519.52 511.469 1519.04 511.382 1518.46C511.265 1517.69 511.301 1517.19 511.491 1516.97C512.076 1516.24 512.427 1516.67 512.544 1518.25C516.082 1564.47 531.477 1605.46 558.728 1641.21C567.515 1652.73 577.456 1663.41 588.553 1673.27C630.249 1710.21 679.7 1729.33 736.908 1730.64C737.185 1730.64 737.461 1730.59 737.719 1730.49C737.976 1730.39 738.211 1730.24 738.409 1730.04C738.608 1729.85 738.765 1729.62 738.872 1729.36C738.98 1729.1 739.035 1728.83 739.035 1728.55V1504.91C739.035 1504.63 739.151 1504.35 739.356 1504.15C739.562 1503.95 739.841 1503.84 740.132 1503.84L964.232 1503.71C964.375 1503.71 964.517 1503.68 964.649 1503.62C964.781 1503.57 964.9 1503.49 965 1503.38C965.1 1503.28 965.179 1503.16 965.232 1503.03C965.284 1502.89 965.31 1502.75 965.307 1502.61C964.912 1459.57 953.772 1420.55 931.886 1385.55C900.117 1334.79 855.738 1301.51 798.75 1285.7C784.51 1281.74 770.139 1279.25 755.636 1278.22C712.171 1275.15 671.33 1283.67 633.114 1303.77C620.336 1310.5 608.173 1318.57 596.623 1327.98C546.491 1368.89 518.333 1422.94 512.149 1490.13C512.091 1490.85 512.032 1490.85 511.974 1490.13C505.906 1419.84 475.556 1363.96 420.921 1322.5C385.278 1295.47 344.02 1280.59 297.149 1277.87ZM966.864 1050.57C1025.99 1049.34 1076.41 1029.57 1118.14 991.25C1129.06 981.221 1138.86 970.395 1147.54 958.772C1176.4 920.102 1191.24 875.556 1192.04 825.132C1192.04 824.985 1192.01 824.839 1191.95 824.704C1191.9 824.568 1191.82 824.445 1191.71 824.341C1191.61 824.237 1191.48 824.154 1191.35 824.098C1191.21 824.042 1191.07 824.013 1190.92 824.013H967.259C966.782 824.013 966.324 824.203 965.987 824.54C965.65 824.877 965.461 825.334 965.461 825.811V1049.21C965.46 1049.39 965.497 1049.57 965.568 1049.74C965.639 1049.91 965.743 1050.06 965.874 1050.19C966.005 1050.31 966.16 1050.41 966.33 1050.48C966.5 1050.55 966.682 1050.58 966.864 1050.57Z" fill="#EFEBE0"/>
<path d="M739.496 1064.14C739.671 1060.49 739.7 1058.3 739.583 1057.57C739.218 1055.29 738.999 1055.29 738.926 1057.59C738.852 1059.81 738.553 1062 738.026 1064.14C735.804 1105.01 723.209 1142.51 700.241 1176.67C681.338 1204.8 657.61 1227.5 629.057 1244.78C595.197 1265.28 556.945 1276 514.298 1276.95C514.025 1276.96 513.753 1276.91 513.498 1276.82C513.243 1276.72 513.01 1276.57 512.813 1276.38C512.617 1276.19 512.461 1275.96 512.354 1275.71C512.248 1275.46 512.193 1275.19 512.193 1274.91L511.974 1070.72C512.602 1068.79 512.778 1066.9 512.5 1065.04C512.325 1063.9 512.149 1063.9 511.974 1065.02L511.053 1070.72C509.781 1087.13 506.828 1102.48 502.193 1116.78C481.14 1181.82 440.161 1228.56 379.254 1257C354.693 1268.44 327.69 1275.09 298.246 1276.95C288.977 1277.32 288.611 1277.62 297.149 1277.87C344.021 1280.59 385.278 1295.47 420.921 1322.5C475.556 1363.96 505.907 1419.84 511.974 1490.13C512.032 1490.85 512.091 1490.85 512.149 1490.13C518.333 1422.94 546.491 1368.89 596.623 1327.98C608.173 1318.57 620.336 1310.5 633.114 1303.77C671.331 1283.67 712.171 1275.15 755.636 1278.22C770.139 1279.25 784.51 1281.74 798.75 1285.7C855.738 1301.51 900.117 1334.79 931.886 1385.55C953.772 1420.55 964.912 1459.57 965.307 1502.61C965.31 1502.75 965.284 1502.89 965.232 1503.03C965.179 1503.16 965.1 1503.28 965 1503.38C964.9 1503.49 964.781 1503.57 964.649 1503.62C964.517 1503.68 964.376 1503.71 964.233 1503.71L740.132 1503.84C739.841 1503.84 739.562 1503.95 739.356 1504.15C739.151 1504.35 739.035 1504.63 739.035 1504.91V1728.55C739.035 1728.83 738.98 1729.1 738.872 1729.36C738.765 1729.62 738.608 1729.85 738.41 1730.04C738.211 1730.24 737.977 1730.39 737.719 1730.49C737.461 1730.59 737.185 1730.64 736.908 1730.64C679.7 1729.33 630.249 1710.21 588.553 1673.27C577.456 1663.41 567.515 1652.73 558.728 1641.21C531.477 1605.46 516.082 1564.47 512.544 1518.25C512.427 1516.67 512.076 1516.24 511.491 1516.97C511.301 1517.19 511.265 1517.69 511.382 1518.46C511.469 1519.04 511.499 1519.52 511.469 1519.93C509.598 1546.43 503.202 1571.75 492.281 1595.92C469.737 1645.82 433.947 1682.95 384.912 1707.3C354.064 1722.64 321.382 1730.25 286.864 1730.13C286.573 1730.13 286.294 1730.02 286.089 1729.82C285.883 1729.62 285.768 1729.34 285.768 1729.06L285.636 1053.16C285.636 1052.58 285.407 1052.03 285 1051.62C284.593 1051.22 284.041 1050.99 283.465 1050.99H60.1536C59.9761 1050.99 59.8003 1050.95 59.6366 1050.88C59.4728 1050.81 59.3244 1050.71 59.1998 1050.59C59.0753 1050.46 58.9773 1050.31 58.9113 1050.15C58.8454 1049.98 58.813 1049.8 58.8159 1049.63C59.3861 1004.85 71.579 964.137 95.3948 927.5C103.275 915.38 112.405 904.006 122.785 893.377C163.282 851.886 213.589 828.838 273.706 824.232C274.423 824.174 274.423 824.115 273.706 824.057C193.428 817.478 132.573 780.87 91.1404 714.232C72.1492 683.677 61.5937 648.991 59.4738 610.175C57.0615 565.95 66.7472 524.503 88.5308 485.833C88.771 485.405 88.8972 484.923 88.8972 484.435C88.8972 483.947 88.771 483.469 88.5308 483.048C69.1302 448.823 59.2179 411.937 58.7939 372.39C58.7939 372.065 58.9233 371.752 59.1536 371.522C59.3839 371.292 59.6963 371.162 60.022 371.162L283.619 371.031C284.037 371.031 284.439 370.864 284.735 370.568C285.031 370.272 285.197 369.871 285.197 369.452L285.636 146.053C285.636 145.826 285.681 145.602 285.768 145.393C285.856 145.184 285.984 144.994 286.145 144.835C286.306 144.676 286.497 144.551 286.707 144.466C286.917 144.381 287.142 144.339 287.368 144.342C323.772 144.956 357.931 153.545 389.847 170.11C402.668 176.747 414.89 184.722 426.513 194.035C467.814 227.164 494.437 269.7 506.382 321.645C509.715 336.162 511.557 350.643 511.908 365.088C512.902 406.681 503.136 445.892 482.61 482.719C482.308 483.262 482.15 483.872 482.15 484.49C482.15 485.108 482.308 485.714 482.61 486.25C499.525 516.63 509.145 548.56 511.469 582.04C511.484 582.23 511.447 582.727 511.36 583.531C511.301 584.028 511.404 584.379 511.667 584.583C512.178 585.022 512.471 584.817 512.544 583.969C516.257 533.019 533.867 488.991 565.373 451.886C609.642 399.781 667.12 372.836 737.807 371.053C738.1 371.047 738.379 370.927 738.584 370.717C738.789 370.508 738.904 370.227 738.904 369.934C739.254 340.68 744.459 313.538 754.518 288.509C774.24 239.474 806.542 201.784 851.426 175.439C885.665 155.336 923.18 145.059 963.969 144.605C964.26 144.605 964.539 144.718 964.745 144.92C964.95 145.122 965.066 145.395 965.066 145.68L965.461 369.232C965.461 369.744 965.662 370.235 966.019 370.597C966.377 370.959 966.862 371.162 967.368 371.162H1190.79C1190.96 371.162 1191.13 371.196 1191.28 371.261C1191.44 371.326 1191.58 371.422 1191.7 371.543C1191.82 371.663 1191.91 371.806 1191.97 371.963C1192.03 372.12 1192.06 372.287 1192.06 372.456C1191.18 414.181 1180.64 452.178 1160.44 486.447C1153.23 498.67 1144.55 510.402 1134.39 521.645C1091.45 569.072 1037.51 594.32 972.588 597.39C969.605 597.522 954.978 597.58 928.706 597.566C865.899 597.522 803.092 597.573 740.285 597.719C739.989 597.719 739.704 597.835 739.494 598.04C739.285 598.246 739.167 598.525 739.167 598.816L738.619 821.338C738.619 821.717 738.543 822.092 738.394 822.44C738.246 822.789 738.028 823.103 737.755 823.363C737.482 823.624 737.159 823.826 736.806 823.957C736.453 824.087 736.077 824.144 735.702 824.123C661.433 820.395 602.844 791.031 559.934 736.031C550.724 724.247 542.88 711.93 536.404 699.079C522.193 670.921 514.116 641.126 512.171 609.693C511.923 605.702 511.711 605.702 511.535 609.693C510.877 624.883 508.597 639.649 504.693 653.991C490.044 707.822 460.782 750.453 416.908 781.886C404.73 790.599 392.105 797.917 379.035 803.838C354.781 814.803 329.13 821.308 302.083 823.355C291.323 824.159 291.747 824.737 303.355 825.088C303.999 825.102 304.62 825.139 305.219 825.197C355.877 830.227 399.54 849.159 436.206 881.996C447.127 891.776 457.032 902.507 465.921 914.189C495.863 953.575 511.243 998.838 512.061 1049.98C512.061 1050.25 512.17 1050.5 512.363 1050.69C512.557 1050.88 512.819 1050.99 513.092 1050.99H963.553C963.803 1050.99 964.051 1051.04 964.283 1051.13C964.514 1051.23 964.725 1051.37 964.902 1051.55C965.079 1051.72 965.22 1051.93 965.315 1052.16C965.411 1052.4 965.461 1052.64 965.461 1052.89L965.329 1276.18C965.329 1276.33 965.301 1276.47 965.245 1276.6C965.19 1276.73 965.109 1276.85 965.007 1276.95C964.904 1277.05 964.783 1277.13 964.65 1277.18C964.518 1277.24 964.375 1277.26 964.233 1277.26C914.817 1276.59 870.958 1262.24 832.654 1234.23C783.56 1198.34 753.311 1149.64 741.908 1088.14C740.665 1081.4 739.861 1073.4 739.496 1064.14ZM961.535 554.276L964.452 577.851C964.51 582.412 964.766 586.974 965.219 591.535C965.38 593.099 965.497 593.099 965.57 591.535C965.804 586.988 965.921 582.427 965.921 577.851L965.373 560.855L965.461 372.434C965.461 372.097 965.327 371.773 965.088 371.535C964.85 371.296 964.526 371.162 964.189 371.162L754.496 371.579C753.765 371.579 753.779 371.608 754.54 371.667C806.221 375.673 850.987 394.466 888.838 428.048C926.63 461.557 950.863 503.633 961.535 554.276Z" fill="#2F2527"/>
<path d="M965.373 560.855C964.832 560.051 964.664 559.137 964.868 558.114C965.702 554.006 964.591 552.727 961.535 554.276C950.862 503.633 926.63 461.557 888.838 428.048C850.987 394.466 806.221 375.673 754.539 371.667C753.779 371.608 753.764 371.579 754.495 371.579L964.189 371.162C964.356 371.162 964.521 371.195 964.675 371.259C964.83 371.323 964.97 371.417 965.088 371.535C965.206 371.653 965.3 371.793 965.364 371.947C965.427 372.102 965.46 372.267 965.46 372.434L965.373 560.855Z" fill="#EFEBE0"/>
<path d="M965.373 560.855L965.921 577.851H964.452L961.535 554.276C964.591 552.727 965.702 554.006 964.869 558.114C964.664 559.137 964.832 560.051 965.373 560.855Z" fill="#EFEBE0"/>
<path d="M964.452 577.851H965.921C965.921 582.427 965.804 586.988 965.571 591.535C965.497 593.099 965.381 593.099 965.22 591.535C964.766 586.974 964.511 582.412 964.452 577.851Z" fill="#637068"/>
<path d="M966.864 1050.57C966.682 1050.58 966.501 1050.55 966.331 1050.48C966.161 1050.41 966.005 1050.31 965.875 1050.19C965.744 1050.06 965.64 1049.91 965.568 1049.74C965.497 1049.57 965.461 1049.39 965.461 1049.21V825.811C965.461 825.335 965.65 824.877 965.988 824.54C966.325 824.203 966.782 824.013 967.259 824.013H1190.92C1191.07 824.013 1191.21 824.042 1191.35 824.098C1191.49 824.155 1191.61 824.237 1191.71 824.341C1191.82 824.445 1191.9 824.568 1191.95 824.704C1192.01 824.839 1192.04 824.985 1192.04 825.132C1191.24 875.556 1176.4 920.102 1147.54 958.772C1138.86 970.395 1129.06 981.221 1118.14 991.25C1076.41 1029.57 1025.99 1049.34 966.864 1050.57Z" fill="#2F2527"/>
<path d="M739.496 1064.14H738.026C738.553 1062 738.852 1059.81 738.925 1057.59C738.999 1055.29 739.218 1055.29 739.583 1057.57C739.7 1058.3 739.671 1060.49 739.496 1064.14Z" fill="#637068"/>
<path d="M511.974 1070.72H511.053L511.974 1065.02C512.149 1063.9 512.325 1063.9 512.5 1065.04C512.778 1066.9 512.602 1068.79 511.974 1070.72Z" fill="#637068"/>
<path d="M298.246 1276.95L297.149 1277.87C288.611 1277.62 288.977 1277.32 298.246 1276.95Z" fill="#637068"/>
</g>
<defs>
<clipPath id="clip0_39_287">
<rect width="1250" height="1875" fill="white"/>
</clipPath>
</defs>
</svg>
