<svg width="6544" height="4175" viewBox="0 0 6544 4175" fill="none" xmlns="http://www.w3.org/2000/svg">
<g clip-path="url(#clip0_38_21)">
<rect width="4171.13" height="6541.67" transform="matrix(-0.000504151 1 1 0.000504151 2.10254 0)" fill="#E5DED4"/>
<path d="M2287.5 1204.73C2296.72 1206.68 2297.72 1211.15 2290.52 1218.12C2602.29 1046.71 2932.59 963.635 3281.42 968.894C3283.5 968.927 3285.49 968.435 3287.13 967.481C3288.78 966.526 3290.01 965.151 3290.68 963.527C3292.83 958.614 3292.19 954.329 3288.74 950.671C3286.57 948.352 3283.36 947.239 3279.12 947.333C3233.99 947.827 3174.88 950.924 3101.79 956.626C2812.7 978.985 2541.27 1061.69 2287.5 1204.73Z" fill="white"/>
<path d="M2371.72 1268.27C2379.26 1267.01 2382.27 1270.35 2380.75 1278.3C2666.34 1132.81 2966.56 1062.05 3281.41 1066C3283.61 1066.04 3285.72 1065.5 3287.39 1064.48C3289.06 1063.46 3290.21 1062.02 3290.66 1060.37C3291.3 1058.05 3291.21 1055.72 3290.41 1053.4C3289.92 1051.74 3288.81 1050.28 3287.23 1049.25C3285.65 1048.21 3283.69 1047.66 3281.63 1047.65C2962.62 1043.79 2659.31 1117.33 2371.72 1268.27Z" fill="white"/>
<path d="M2404.86 1341.89C2408.24 1345.55 2409.24 1350.01 2407.88 1355.28C2678.98 1217.4 2963.97 1148.08 3262.86 1147.32C3265.02 1147.32 3269.95 1147.85 3277.65 1148.91C3287.99 1150.33 3292.03 1146.58 3289.78 1137.65C3289.32 1135.84 3288.29 1134.25 3286.83 1133.11C3285.38 1131.97 3283.58 1131.36 3281.71 1131.36C2974.4 1126.33 2682.12 1196.5 2404.86 1341.89Z" fill="white"/>
<path d="M2287.5 1204.73C1815.51 1469.17 1472.12 1870.41 1257.31 2408.44C1258.29 2417.54 1262.3 2419.77 1269.34 2415.12C1482.15 1880.93 1822.54 1481.93 2290.52 1218.12C2297.72 1211.15 2296.72 1206.69 2287.5 1204.73Z" fill="white"/>
<path d="M2416.99 1435.64C2420.84 1438.05 2423.85 1441.39 2426.01 1445.67C2696.94 1304.76 2982.41 1235.43 3282.43 1237.71C3284.42 1237.7 3286.33 1237.1 3287.85 1235.98C3289.38 1234.86 3290.43 1233.3 3290.84 1231.54C3292.59 1224.04 3287.78 1220.2 3276.4 1220.04C2974.22 1217.67 2687.75 1289.54 2416.99 1435.64Z" fill="white"/>
<path d="M2371.72 1268.26C1916.47 1508.67 1580.06 1881.99 1362.49 2388.23C1362.26 2398.5 1365.43 2400.91 1372 2395.46C1590.69 1891.35 1926.94 1518.97 2380.75 1278.3C2382.27 1270.35 2379.26 1267 2371.72 1268.26Z" fill="white"/>
<path d="M2405.08 1549.5C2411.34 1552.97 2411.5 1557.62 2405.58 1563.43C2679.22 1408.49 2970.01 1332.28 3277.96 1334.82C3281.25 1334.82 3284.05 1333.96 3286.37 1332.27C3296.22 1325.2 3292.93 1321.5 3276.5 1321.16C2967.99 1315.59 2677.52 1391.7 2405.08 1549.5Z" fill="white"/>
<path d="M2404.86 1341.89C1921.57 1598.13 1579.18 2002.72 1377.7 2555.64C1377.54 2563.41 1380.56 2568.99 1386.73 2572.38C1585.01 2018.47 1925.39 1612.77 2407.88 1355.29C2409.24 1350.02 2408.23 1345.55 2404.86 1341.89Z" fill="white"/>
<path d="M2561.4 1569.43C2564.77 1573.08 2565.78 1577.55 2564.42 1582.82C2793.7 1476.23 3032.83 1424.5 3281.78 1427.63C3283.83 1427.68 3285.8 1427.16 3287.41 1426.15C3289.03 1425.14 3290.21 1423.69 3290.79 1422C3293.35 1415.03 3289.62 1411.46 3279.6 1411.3C3029.6 1406.83 2790.2 1459.54 2561.4 1569.43Z" fill="white"/>
<path d="M2416.99 1435.64C1981.36 1672.99 1666.99 2039.59 1473.86 2535.45C1474.83 2541.7 1477.84 2546.16 1482.89 2548.84C1675.3 2051.64 1989.67 1683.92 2426.01 1445.67C2423.84 1441.39 2420.84 1438.05 2416.99 1435.64Z" fill="white"/>
<path d="M2609.58 1649.73C2613.43 1652.14 2616.44 1655.49 2618.61 1659.77C2829.95 1565.61 3049.64 1519.76 3277.68 1522.19C3281.36 1522.28 3284.53 1521.34 3287.17 1519.37C3294.86 1513.47 3293.93 1509.23 3284.39 1506.65C3281.91 1505.94 3278.74 1505.54 3274.89 1505.46C3043.65 1501.32 2821.88 1549.42 2609.58 1649.73Z" fill="white"/>
<path d="M2405.08 1549.5C2057.19 1751.84 1792.84 2046.96 1612.02 2434.85C1610.9 2443.25 1613.91 2446.59 1621.04 2444.89C1800.83 2060.92 2062.34 1767.1 2405.58 1563.43C2411.5 1557.62 2411.34 1552.97 2405.08 1549.5Z" fill="white"/>
<path d="M2561.4 1569.42C2149.55 1770.14 1847.15 2096.55 1654.22 2548.66C1654.46 2555.35 1657.47 2558.7 1663.24 2558.69C1855.22 2109.35 2155.61 1784.06 2564.42 1582.81C2565.78 1577.55 2564.77 1573.08 2561.4 1569.42Z" fill="white"/>
<path d="M2829.01 1660.62L2835.03 1674.01C2981.67 1630.91 3130.89 1610.44 3282.7 1612.6C3284.88 1612.64 3286.96 1612.25 3288.79 1611.46C3290.63 1610.67 3292.16 1609.5 3293.28 1608.04C3298.08 1601.69 3294.59 1598.3 3282.81 1597.87C3128.51 1592.85 2977.24 1613.77 2829.01 1660.62Z" fill="white"/>
<path d="M2609.58 1649.74C2245.54 1821.29 1968.15 2099.68 1777.39 2484.9C1776.27 2493.21 1779.44 2496.73 1786.9 2495.48C1977.5 2110.34 2254.73 1831.77 2618.61 1659.77C2616.44 1655.49 2613.43 1652.14 2609.58 1649.74Z" fill="white"/>
<path d="M2829.01 1660.62C2412.43 1793.83 2093.95 2067.44 1873.56 2481.45C1872.45 2489.85 1875.46 2493.19 1882.59 2491.49C2102.1 2078.91 2419.58 1806.42 2835.03 1674.01L2829.01 1660.62Z" fill="white"/>
<path d="M1954.75 2511.51C1955 2518.2 1958.01 2521.55 1963.78 2521.54C2106.18 2258.7 2294.24 2056.21 2527.98 1914.08C2762.6 1771.41 3014.24 1702.22 3282.92 1706.49C3291.74 1706.66 3294.7 1702.99 3291.8 1695.5C3291.17 1693.78 3289.99 1692.31 3288.43 1691.27C3286.87 1690.22 3284.99 1689.65 3283.02 1689.61C3159.34 1688.23 3048.1 1699.55 2949.3 1723.58C2519.55 1828.24 2188.04 2090.88 1954.75 2511.51Z" fill="white"/>
<path d="M2600.87 1951.1C2611.53 1948.95 2614.54 1952.29 2609.9 1961.14C2821.54 1843.86 3045.91 1786.83 3283.01 1790.06C3284.99 1790.09 3286.9 1789.51 3288.43 1788.42C3289.95 1787.32 3291.01 1785.78 3291.42 1784.03C3293.17 1776.53 3288.36 1772.69 3276.98 1772.52C3037.88 1770.72 2812.51 1830.25 2600.87 1951.1Z" fill="white"/>
<path d="M2634.02 2032.5C2640.2 2035.53 2641.37 2039.82 2637.52 2045.36C2838.99 1933.98 3052.58 1879.06 3278.29 1880.61C3282.14 1880.61 3285.27 1880.07 3287.67 1879C3293.28 1876.31 3294.16 1872.92 3290.3 1868.81C3289.09 1867.5 3287.48 1866.46 3285.58 1865.75C3283.68 1865.04 3281.52 1864.67 3279.24 1864.67C3051.28 1861.34 2836.21 1917.28 2634.02 2032.5Z" fill="white"/>
<path d="M2600.87 1951.11C2301.36 2123.66 2081.37 2380.79 1940.9 2722.48L1952.45 2729.7C2092.36 2389.26 2311.51 2133.07 2609.9 1961.14C2614.54 1952.3 2611.53 1948.95 2600.87 1951.11Z" fill="white"/>
<path d="M2682.21 2118.44C2686.46 2120.58 2688.62 2124.1 2688.71 2129.01C2876.96 2027.83 3075.93 1978.2 3285.61 1980.12C3287.5 1980.16 3289.32 1979.55 3290.72 1978.41C3292.12 1977.27 3293 1975.68 3293.18 1973.95C3293.74 1969.4 3291.65 1967.03 3286.92 1966.86C3076.03 1958.86 2874.46 2009.39 2682.21 2118.44Z" fill="white"/>
<path d="M2634.02 2032.5C2364.39 2189.67 2163.09 2420.75 2030.12 2725.73C2029.01 2734.12 2032.01 2737.47 2039.15 2735.76C2171.72 2433.73 2371.18 2203.59 2637.52 2045.36C2641.37 2039.82 2640.2 2035.53 2634.02 2032.5Z" fill="white"/>
<path d="M2655.28 2239.01C2659.53 2241.15 2661.7 2244.68 2661.78 2249.59C2850.58 2129.56 3054.06 2070.19 3272.24 2071.48C3276.08 2071.48 3279.41 2071.16 3282.22 2070.53C3296.48 2067.21 3296.39 2062.57 3281.96 2056.6C3279.07 2055.36 3275.87 2054.73 3272.34 2054.74C3050.72 2053.19 2845.03 2114.61 2655.28 2239.01Z" fill="white"/>
<path d="M2682.2 2118.44C2412.01 2273.56 2215.72 2506.1 2093.33 2816.07C2096.62 2819.82 2100.63 2820.93 2105.36 2819.41C2227.99 2513.99 2422.44 2283.86 2688.71 2129.02C2688.62 2124.1 2686.45 2120.58 2682.2 2118.44Z" fill="white"/>
<path d="M2757.52 2279.09L2764.02 2289.66C2926.48 2202.7 3098.08 2160.37 3278.83 2162.69C3282.75 2162.68 3286.16 2161.83 3289.04 2160.13C3298.42 2154.67 3297.25 2150.12 3285.54 2146.47C3282.58 2145.58 3279.05 2145.09 3274.96 2145.01C3092.37 2143.24 2919.89 2187.93 2757.52 2279.09Z" fill="white"/>
<path d="M2655.28 2239.02C2391.92 2413.23 2213.84 2663.43 2121.05 2989.63L2132.6 3000.19C2223.55 2674.63 2399.95 2424.43 2661.78 2249.59C2661.7 2244.68 2659.53 2241.15 2655.28 2239.02Z" fill="white"/>
<path d="M2778.66 2376.17C2784.91 2378.49 2785.92 2382.95 2781.68 2389.56C2938.6 2298.59 3105.88 2255.02 3283.5 2258.85C3285.37 2258.89 3287.18 2258.3 3288.61 2257.17C3290.04 2256.04 3290.99 2254.45 3291.31 2252.68C3292.74 2244.28 3288.53 2240.45 3278.67 2241.17C3269.13 2241.81 3264.24 2242.13 3264 2242.13C3091.67 2240.88 2929.89 2285.56 2778.66 2376.17Z" fill="white"/>
<path d="M2757.52 2279.09C2534.34 2405.85 2368.06 2594.83 2258.68 2846.03C2258.93 2852.73 2261.93 2856.08 2267.71 2856.07C2377.33 2606.56 2542.77 2417.76 2764.02 2289.66L2757.52 2279.09Z" fill="white"/>
<path d="M2853.86 2433.01C2858.11 2435.15 2860.28 2438.68 2860.37 2443.59C2994.55 2375.5 3135.38 2343.74 3282.87 2348.32C3285.17 2348.39 3287.36 2347.96 3289.1 2347.09C3290.83 2346.22 3292.02 2344.95 3292.48 2343.49C3293.12 2341.61 3292.96 2339.69 3292 2337.73C3291.37 2336.47 3290.3 2335.38 3288.89 2334.59C3287.47 2333.79 3285.77 2333.31 3283.94 2333.18C3132.68 2326.02 2989.32 2359.3 2853.86 2433.01Z" fill="white"/>
<path d="M2778.66 2376.17C2565.02 2503.28 2410.77 2691.13 2315.89 2939.73C2314.77 2948.13 2317.78 2951.47 2324.91 2949.77C2419.24 2704.2 2571.49 2517.47 2781.68 2389.56C2785.92 2382.95 2784.91 2378.49 2778.66 2376.17Z" fill="white"/>
<path d="M1362.49 2388.24C1231.12 2695.98 1165.26 3020.81 1164.9 3362.71C1164.9 3363.24 1164.58 3367.26 1163.95 3374.76C1163.23 3382.8 1165.88 3386.23 1171.89 3385.07C1173.52 3384.72 1174.99 3383.66 1176.06 3382.07C1177.13 3380.49 1177.74 3378.47 1177.78 3376.35C1181.66 3034.01 1246.41 2707.04 1372 2395.46C1365.43 2400.91 1362.26 2398.51 1362.49 2388.24Z" fill="white"/>
<path d="M1257.31 2408.44C1143.8 2696.7 1083.28 2998.39 1075.76 3313.51C1075.76 3313.96 1074.68 3324.49 1072.54 3345.12C1071.19 3357.71 1072.33 3370.35 1075.95 3383.02L1087.49 3383.55C1091.01 3378.72 1092.77 3374.92 1092.77 3372.16C1092.42 3039.19 1151.28 2720.18 1269.34 2415.12C1262.3 2419.77 1258.29 2417.54 1257.31 2408.44Z" fill="white"/>
<path d="M2694.07 2650.56C2501.01 2838.1 2400.95 3076.21 2393.88 3364.9C2393.5 3383.74 2396.55 3389.85 2403.04 3383.24C2404.29 3381.97 2405.29 3380.28 2406 3378.27C2406.7 3376.26 2407.08 3373.98 2407.11 3371.58C2410.4 3139.24 2476.51 2938.53 2605.46 2769.46C2776.51 2545.16 2998.9 2433.04 3272.62 2433.11C3276.39 2433.11 3279.75 2432.75 3282.72 2432.03C3297.3 2428.26 3297.22 2423.62 3282.46 2418.1C3279.5 2416.94 3276.25 2416.36 3272.72 2416.37C3048.29 2415.71 2855.41 2493.77 2694.07 2650.56Z" fill="white"/>
<path d="M2853.86 2433.02C2570.28 2588.95 2395.98 2840.4 2330.93 3187.37C2318.82 3251.76 2315.12 3316.72 2319.84 3382.26L2328.37 3381.71C2330.37 3375.73 2331.52 3363.45 2331.82 3344.88C2334.36 3165.93 2379.35 2997.3 2466.79 2838.99C2563.19 2664.41 2694.38 2532.61 2860.36 2443.59C2860.28 2438.68 2858.11 2435.16 2853.86 2433.02Z" fill="white"/>
<path d="M1612.02 2434.85C1475.18 2726.18 1406.54 3036.9 1406.08 3367.01C1406.08 3371.2 1406.49 3374.91 1407.29 3378.12C1410.92 3392.41 1415 3392.31 1419.56 3377.84C1420.6 3374.72 1421.11 3371.14 1421.11 3367.13C1423.89 3042.01 1490.54 2734.6 1621.04 2444.89C1613.91 2446.59 1610.9 2443.25 1612.02 2434.85Z" fill="white"/>
<path d="M1873.56 2481.46C1728.77 2752.88 1656.11 3049.85 1655.56 3372.37C1655.57 3377.91 1656.57 3381.43 1658.58 3382.95C1661.62 3382.14 1664.63 3382.14 1667.6 3382.94C1670.07 3369.27 1672.04 3340.07 1673.52 3295.34C1682.6 3012.81 1752.29 2744.86 1882.59 2491.49C1875.46 2493.2 1872.45 2489.85 1873.56 2481.46Z" fill="white"/>
<path d="M1777.38 2484.9C1640.77 2762.03 1573.12 3059.26 1574.41 3376.61C1574.41 3380.85 1575.44 3384.63 1577.31 3387.32L1580.44 3392C1582.44 3392.71 1584.45 3392.71 1586.45 3392C1589.37 3350.92 1591.85 3309.84 1593.9 3268.77C1607.55 2994.89 1671.89 2737.13 1786.89 2495.48C1779.44 2496.73 1776.27 2493.21 1777.38 2484.9Z" fill="white"/>
<path d="M1954.75 2511.51C1816.91 2766.67 1745.23 3046.9 1739.7 3352.19C1739.4 3367.46 1740.57 3378.62 1743.22 3385.67L1751.28 3385.66C1752.24 3384.32 1753.04 3382.89 1753.68 3381.38C1754.4 3379.95 1754.76 3378.25 1754.75 3376.28C1757.16 3070.19 1826.83 2785.28 1963.78 2521.54C1958.01 2521.55 1955 2518.2 1954.75 2511.51Z" fill="white"/>
<path d="M2482.63 3381.55L2488.16 3382.08C2491.52 3375.74 2493.51 3363.28 2494.13 3344.7C2501.66 3114.14 2581.85 2917.89 2734.69 2755.93C2883.45 2598.35 3066.2 2522.75 3282.94 2529.13C3285.18 2529.21 3287.32 2528.68 3288.98 2527.64C3290.64 2526.6 3291.69 2525.13 3291.95 2523.5C3292.43 2520.46 3290.94 2517.79 3287.49 2515.47C3285.49 2514.13 3282.88 2513.42 3279.68 2513.33C3042.1 2509.74 2844.42 2601.79 2686.64 2789.46C2551.51 2950.24 2482.34 3144.48 2479.13 3372.18C2479.13 3374.14 2479.45 3375.84 2480.1 3377.27C2480.82 3378.69 2481.66 3380.12 2482.63 3381.55Z" fill="white"/>
<path d="M1473.86 2535.45C1370.18 2802.36 1318.77 3081.63 1319.64 3373.26C1319.65 3377.63 1320.37 3380.98 1321.82 3383.3C1324.22 3387.23 1326.99 3387.67 1330.11 3384.63C1331.31 3383.46 1332.28 3381.78 1332.94 3379.72C1333.61 3377.65 1333.95 3375.25 1333.95 3372.71C1336.37 3087.15 1386.02 2812.53 1482.89 2548.84C1477.84 2546.16 1474.83 2541.7 1473.86 2535.45Z" fill="white"/>
<path d="M1654.22 2548.65C1543.64 2807.09 1488.98 3079.89 1490.24 3367.05C1490.24 3371.16 1490.61 3374.82 1491.33 3378.03C1494.64 3393.39 1498.76 3393.34 1503.72 3377.88C1504.76 3374.58 1505.27 3371.01 1505.27 3367.17C1507.06 3085 1559.72 2815.51 1663.24 2558.69C1657.47 2558.69 1654.46 2555.35 1654.22 2548.65Z" fill="white"/>
<path d="M1377.7 2555.64C1283.95 2817.81 1237.55 3090.33 1238.49 3373.21C1238.49 3377.41 1239.14 3380.89 1240.42 3383.65C1243.72 3390.88 1247.2 3390.92 1250.88 3383.78C1252.16 3381.37 1252.8 3378.28 1252.8 3374.53C1254.75 3098.08 1299.4 2830.7 1386.73 2572.37C1380.56 2568.99 1377.55 2563.41 1377.7 2555.64Z" fill="white"/>
<path d="M2563.3 3382L2571.84 3381.45C2578.3 3128.93 2665.66 2928.2 2833.91 2779.26C2955.78 2671.45 3100.84 2617.45 3269.08 2617.28C3271.33 2617.28 3275.14 2617.54 3280.51 2618.07C3292.05 2619.22 3295.49 2616.18 3290.84 2608.95C3289.83 2607.38 3288.39 2606.09 3286.63 2605.18C3284.88 2604.27 3282.85 2603.78 3280.73 2603.74C3064.16 2599.77 2886.7 2681.21 2748.37 2848.06C2631.42 2989 2568.72 3157.87 2560.27 3354.68C2559.72 3366.73 2560.73 3375.84 2563.3 3382Z" fill="white"/>
<path d="M2653.96 3384.72L2659 3381.36C2663.68 3178.49 2729.55 3012.96 2856.62 2884.78C2974.16 2766.17 3117.37 2710.12 3286.26 2716.64C3287.11 2716.67 3287.96 2716.51 3288.75 2716.19C3289.53 2715.86 3290.23 2715.37 3290.79 2714.76C3291.35 2714.15 3291.75 2713.44 3291.96 2712.67C3292.18 2711.9 3292.2 2711.11 3292.03 2710.34C3290.5 2704.18 3284.8 2701.06 3274.94 2700.99C3187.66 2700.54 3106.44 2716.57 3031.29 2749.06C2957.18 2781.01 2890.39 2829.21 2830.9 2893.65C2720.65 3012.97 2659.5 3165.5 2647.43 3351.24C2646.48 3365.26 2648.66 3376.42 2653.96 3384.72Z" fill="white"/>
<path d="M1940.9 2722.47C1857.84 2928.82 1815.83 3145.4 1814.86 3372.2C1814.87 3376.94 1816.16 3381.23 1818.48 3384.25C1825.71 3393.62 1829.47 3388.21 1829.77 3368.03C1832.74 3145.96 1873.64 2933.18 1952.45 2729.69L1940.9 2722.47Z" fill="white"/>
<path d="M2030.12 2725.73C1941.6 2928.16 1897.14 3142.32 1896.74 3368.23C1896.74 3372.44 1897.74 3376.51 1899.63 3380.02L1902.53 3385.5L1908.06 3386.03C1911.73 3376.92 1913.72 3360 1914.02 3335.27C1916.29 3132.39 1958 2932.56 2039.15 2735.76C2032.01 2737.47 2029.01 2734.12 2030.12 2725.73Z" fill="white"/>
<path d="M2735.11 3384.63L2740.16 3384.63C2747.69 3154.43 2837.09 2984.95 3008.34 2876.19C3085.64 2827.17 3175.02 2804.45 3276.5 2808C3279.79 2808.09 3282.75 2807.55 3285.39 2806.38C3299.25 2800.3 3295.04 2796.73 3272.76 2795.68C3132.41 2789.31 3010.14 2837.25 2905.97 2939.51C2836.31 3007.98 2785.9 3094.69 2754.76 3199.64C2735.59 3264.04 2729.04 3325.71 2735.11 3384.63Z" fill="white"/>
<path d="M2093.33 2816.07C2021.54 2994.37 1986.07 3181.65 1986.92 3377.92C1986.92 3380.24 1988.69 3384.03 1992.22 3389.3C1995.43 3388.93 1998.27 3387.64 2000.75 3385.4C2002.47 3188.78 2037.34 3000.11 2105.36 2819.41C2100.63 2820.93 2096.62 2819.82 2093.33 2816.07Z" fill="white"/>
<path d="M2258.68 2846.03C2183.03 3017.64 2147.32 3199.43 2151.53 3391.41L2163.55 3391.39C2164.56 3204.5 2199.27 3026.06 2267.71 2856.07C2261.94 2856.08 2258.93 2852.73 2258.68 2846.03Z" fill="white"/>
<path d="M2810.25 3381.2C2812.58 3383.52 2815.26 3384.64 2818.31 3384.54C2820.3 3375.52 2822.45 3356.55 2824.74 3327.61C2829.8 3263.32 2846.09 3202.89 2873.6 3146.34C2899.92 3092.03 2935.42 3044.62 2980.1 3004.12C3065.78 2926.53 3167.9 2889.86 3286.45 2894.11C3287.33 2894.14 3288.2 2893.98 3289.02 2893.66C3289.83 2893.34 3290.56 2892.85 3291.16 2892.24C3291.75 2891.62 3292.2 2890.9 3292.46 2890.11C3292.73 2889.32 3292.81 2888.49 3292.69 2887.67C3291.96 2881.78 3288.07 2879.33 3281.02 2880.32C3275.25 2881.22 3271.25 2881.58 3269 2881.4C3221.71 2878.86 3178.91 2883.77 3140.61 2896.14C2981.72 2947.65 2877.24 3061.11 2827.17 3236.53C2813.75 3283.6 2808.11 3331.83 2810.25 3381.2Z" fill="white"/>
<path d="M2315.89 2939.73C2266.49 3066.57 2240.54 3199.16 2238.04 3337.47C2238.04 3338.27 2237.2 3344.84 2235.53 3357.16C2234.18 3367.08 2236.39 3376.4 2242.17 3385.15L2244.7 3385.68C2249.89 3369.78 2252.87 3348.39 2253.65 3321.52C2257.13 3197.58 2280.88 3073.66 2324.91 2949.76C2317.78 2951.47 2314.77 2948.12 2315.89 2939.73Z" fill="white"/>
<path d="M2894.41 3384.46L2902.47 3384.45C2906.79 3225.24 2968.19 3108.25 3086.65 3033.48C3144.65 2996.99 3210.52 2981.96 3284.26 2988.4C3286.25 2988.55 3288.19 2988.06 3289.72 2987.02C3291.25 2985.98 3292.25 2984.47 3292.55 2982.77C3293.75 2975.98 3288.97 2972.46 3278.23 2972.2C3182.29 2969.62 3098.92 2999.67 3028.13 3062.34C2952.14 3129.65 2907.15 3220.02 2893.16 3333.43C2890.46 3355.31 2890.87 3372.32 2894.41 3384.46Z" fill="white"/>
<path d="M2121.05 2989.62C2091.1 3091.09 2074.19 3208.48 2070.32 3341.8C2069.7 3364.12 2070.88 3378.63 2073.85 3385.32L2078.9 3385.32C2082.66 3373.26 2084.8 3350.93 2085.32 3318.34C2086.82 3221.91 2102.58 3115.86 2132.6 3000.19L2121.05 2989.62Z" fill="white"/>
<path d="M3062.75 3164.1C3121.91 3099.3 3195.78 3070.87 3284.36 3078.81C3286.65 3079 3288.85 3078.64 3290.59 3077.78C3292.33 3076.92 3293.48 3075.62 3293.85 3074.12C3294.25 3072.51 3294.01 3070.9 3293.12 3069.3C3292.56 3068.3 3291.65 3067.43 3290.48 3066.75C3289.31 3066.08 3287.91 3065.62 3286.39 3065.42C3216.81 3056.03 3153.38 3073.46 3096.12 3117.72C3018.84 3177.36 2977.56 3259.91 2972.3 3365.37C2972.07 3369.47 2972.47 3373.13 2973.52 3376.35C2977.06 3388.13 2981.02 3387.99 2985.42 3375.93C2986.54 3373.07 2987.14 3369.64 2987.21 3365.62C2989.53 3284 3014.71 3216.83 3062.75 3164.1Z" fill="white"/>
<path d="M3059.72 3380.94C3062.61 3384.06 3065.3 3384.06 3067.78 3380.93C3070.77 3329.77 3085.43 3285.46 3111.76 3248.02C3131.77 3219.52 3156.12 3199 3184.8 3186.47C3214.28 3173.58 3245.82 3169.48 3279.41 3174.18C3296.32 3176.48 3300.48 3173.09 3291.9 3163.99C3289.35 3161.23 3285.62 3159.56 3281.43 3159.31C3160.8 3152.38 3086.72 3213.98 3059.2 3344.11C3057.13 3354.11 3057.3 3366.39 3059.72 3380.94Z" fill="white"/>
<path d="M3143.41 3383.67C3146.61 3384.47 3149.46 3383.53 3151.94 3380.85C3161.87 3294.22 3205.75 3257.12 3283.6 3269.54C3286.64 3269.98 3289.29 3269.85 3291.53 3269.13C3298.34 3266.8 3298.18 3263.36 3291.04 3258.82C3288.95 3257.48 3286.51 3256.5 3283.7 3255.88C3231.03 3242.99 3189.49 3260.35 3159.08 3307.98C3144.43 3330.85 3139.21 3356.08 3143.41 3383.67Z" fill="white"/>
<path d="M3259.21 -1615.18C3260.63 -1260.42 3261.88 -905.667 3262.97 -550.912C3263.36 -409.118 3262.47 -267.366 3260.29 -125.658C3263.08 12.1165 3262.71 149.849 3259.16 287.541C3259.01 293.613 3257.73 299.597 3255.34 305.493C3252.94 311.299 3250.74 317.15 3248.74 323.045C3256.77 332.77 3260.95 347.275 3261.29 366.562C3264.47 568.358 3265.68 770.2 3264.93 972.09C3270.94 970.476 3276.95 970.47 3282.97 972.071C3286.71 487.57 3286.44 3.07358 3282.16 -481.419C3282.07 -490.169 3282.98 -508.877 3284.87 -537.542C3281.8 -713.264 3281.5 -843.853 3283.98 -929.308C3284.29 -940.113 3290.29 -949.227 3301.98 -956.65C3300.7 -961.739 3298.33 -965.933 3294.88 -969.233C3291.56 -972.322 3289.44 -975.978 3288.98 -979.406C3285.67 -1002.08 3283.95 -1028.91 3283.84 -1059.9C3283.41 -1245.18 3283.37 -1430.46 3283.74 -1615.74C3275.15 -1628.23 3266.97 -1628.04 3259.21 -1615.18Z" fill="#E5DED4"/>
<path d="M2355.64 3629.76C2367.15 3645.39 2381.97 3652.58 2400.1 3651.3C2400.92 3651.24 2401.72 3651.01 2402.43 3650.62C2403.13 3650.23 2403.73 3649.7 2404.17 3649.08C2404.61 3648.45 2404.89 3647.73 2404.97 3646.99C2405.05 3646.26 2404.95 3645.51 2404.65 3644.81C2397.25 3625.73 2383.82 3611.34 2364.36 3601.63C2363.82 3601.39 2356.55 3599.5 2342.53 3595.97C2336.64 3594.44 2331.51 3591.63 2327.13 3587.54C2323.7 3584.16 2319.91 3582 2316.55 3581.53C2300.3 3579.2 2309.05 3590.94 2342.79 3616.77C2347.79 3620.54 2352.07 3624.87 2355.64 3629.76Z" fill="#E5DED4"/>
<path d="M2581.82 3174.09C2595.74 3189.48 2613.02 3193.62 2633.65 3186.49C2639.54 3184.49 2653.07 3184.42 2674.23 3186.27C2675.16 3186.36 2676.09 3186.25 2676.95 3185.97C2677.82 3185.68 2678.61 3185.23 2679.24 3184.63C2679.88 3184.04 2680.35 3183.33 2680.62 3182.55C2680.89 3181.77 2680.95 3180.95 2680.8 3180.15C2673.23 3137.34 2651.64 3112.16 2616.01 3104.61C2594.67 3100.03 2578.38 3103.43 2567.12 3114.8C2553.63 3128.58 2558.53 3148.34 2581.82 3174.09Z" fill="#E5DED4"/>
<path d="M2728.07 3721.44C2721.11 3722 2717.13 3724.48 2716.15 3728.89C2715.78 3730.51 2716.26 3732.24 2717.51 3733.72C2718.75 3735.19 2720.66 3736.31 2722.84 3736.83C2734.72 3739.72 2745.7 3737.32 2755.8 3729.63C2770.62 3718.18 2768.66 3714.41 2749.91 3718.33C2742.67 3719.84 2735.4 3720.88 2728.07 3721.44Z" fill="#E5DED4"/>
<path d="M3213.5 738.444C3210.83 719.687 3225.12 709.755 3256.37 708.649C3273.07 708.096 3276.6 701.686 3266.96 689.418C3261.25 682.201 3252.37 680.954 3240.31 685.677C3228.88 690.16 3221.15 692.801 3217.13 693.601C3204.63 695.999 3192 697.916 3179.23 699.352C3174.62 699.893 3170.52 701.58 3167.57 704.156C3143.1 725.865 3147.24 745.304 3180 762.473C3206.6 776.353 3217.77 768.343 3213.5 738.444Z" fill="#E5DED4"/>
<path d="M3302.9 874.95C3310.3 878.961 3316.11 884.374 3320.3 891.189C3338.23 920.214 3356.45 917.377 3374.95 882.68C3375.71 881.223 3376.07 879.626 3376 878.009C3375.94 876.391 3375.45 874.796 3374.58 873.34C3373.7 871.884 3372.47 870.605 3370.95 869.599C3369.44 868.592 3367.7 867.884 3365.85 867.527L3319.38 858.487C3313.49 857.361 3309.2 857.119 3306.52 857.759C3290.45 861.758 3289.24 867.488 3302.9 874.95Z" fill="#E5DED4"/>
<path d="M3302.32 2284.63C3322.04 2303.16 3331.14 2325.04 3329.61 2350.29C3329.35 2354.31 3330.63 2358.14 3333.22 2360.99C3392.21 2428.11 3430.71 2478.91 3448.73 2513.38C3456.49 2528.38 3461.08 2550.86 3462.49 2580.84C3462.93 2588.93 3461.36 2611.58 3457.77 2648.77C3450.05 2729.47 3475.42 2802.11 3533.87 2866.66C3539.58 2872.91 3542.88 2880.93 3543.77 2890.71C3544.13 2894.88 3545.33 2898.56 3547.38 2901.77C3567.1 2932.8 3575.12 2966.15 3571.44 3001.81C3571.23 3003.69 3571.58 3005.55 3572.43 3007.21C3573.28 3008.87 3574.6 3010.25 3576.26 3011.19C3604.2 3027.08 3635.58 3038.84 3670.4 3046.47C3689.86 3050.81 3702.1 3044.28 3707.11 3026.89C3721.33 2977.52 3724.88 2927.39 3717.76 2876.49C3712.78 2840.82 3727.08 2815.38 3760.66 2800.17C3762.6 2799.27 3764.27 2798.04 3765.5 2796.58C3766.74 2795.11 3767.52 2793.45 3767.76 2791.75C3769.73 2779.49 3768.36 2767.63 3763.63 2756.16C3755.96 2737.48 3751.55 2726.62 3750.39 2723.57C3743.61 2704.74 3730.32 2683.37 3710.5 2659.47C3708.8 2657.46 3707.63 2655.11 3707.1 2652.6C3706.56 2650.1 3706.68 2647.51 3707.43 2645.04C3711.99 2630.46 3715.35 2615.99 3717.5 2601.65C3719.11 2591.15 3717.73 2576.72 3713.37 2558.36C3707.58 2533.75 3709.19 2512.79 3718.22 2495.48C3726.53 2479.7 3731.77 2465.63 3733.91 2453.29C3735.35 2444.8 3732.01 2430.97 3723.89 2411.81C3706.32 2370.52 3715.36 2332.21 3751 2296.88C3745.11 2294.88 3739.26 2292.67 3733.46 2290.26C3727.57 2287.85 3721.59 2286.57 3715.51 2286.4C3577.83 2282.65 3440.1 2282.06 3302.32 2284.63Z" fill="#E5DED4"/>
<path d="M3443.04 3175.12C3442.78 3173.94 3442.09 3172.88 3441.1 3172.09C3440.11 3171.31 3438.86 3170.85 3437.55 3170.79C3399.69 3169.33 3373.92 3184.26 3360.25 3215.6C3358.64 3219.12 3356.18 3222.29 3352.87 3225.09C3344.3 3232.3 3345.28 3236.43 3355.81 3237.48C3359.74 3237.88 3363.31 3238.56 3366.53 3239.52C3386.97 3245.31 3403.5 3240.42 3416.09 3224.88C3418.68 3221.68 3421.9 3218.95 3425.74 3216.71C3441.64 3207.42 3447.41 3193.56 3443.04 3175.12Z" fill="#E5DED4"/>
<path d="M3444.33 3546.99C3468.87 3568.64 3496.9 3578.52 3528.42 3576.61C3530.68 3576.46 3532.84 3575.86 3534.68 3574.88C3536.53 3573.89 3538.02 3572.55 3539.01 3570.96C3544.19 3562.55 3542.72 3554.73 3534.6 3547.52C3531.46 3544.77 3529.32 3541.34 3528.44 3537.65L3520.29 3502.06C3519.89 3500.32 3518.92 3498.69 3517.48 3497.36C3516.04 3496.02 3514.19 3495.03 3512.12 3494.48C3488.29 3488.14 3467.48 3490.09 3449.71 3500.34C3426.22 3513.8 3424.42 3529.35 3444.33 3546.99Z" fill="#E5DED4"/>
<path d="M3446.37 816.59C3445.61 817.103 3445 817.782 3444.61 818.564C3444.22 819.345 3444.06 820.203 3444.14 821.057C3444.22 821.911 3444.54 822.733 3445.07 823.444C3445.6 824.156 3446.32 824.735 3447.17 825.127C3468.15 834.435 3484 834.122 3494.72 824.189C3514.82 805.684 3511.21 798.428 3483.88 802.422C3469.95 804.419 3457.45 809.141 3446.37 816.59Z" fill="#E5DED4"/>
<path d="M3760.88 972.642C3756.63 974.075 3752.62 974.08 3748.85 972.655C3747.06 1101.33 3710.91 1209.94 3640.39 1298.5C3597.32 1352.75 3546.63 1393.25 3488.3 1420.01C3429.18 1447.22 3365.95 1459.21 3298.62 1455.97C3284.51 1455.27 3279.27 1458.63 3282.88 1466.03C3283.68 1467.7 3284.99 1469.12 3286.68 1470.16C3288.37 1471.19 3290.38 1471.79 3292.51 1471.92C3427.57 1480.7 3541.98 1432.72 3635.73 1327.98C3722.51 1231.09 3764.23 1112.65 3760.88 972.642Z" fill="white"/>
<path d="M4247.8 975.481L4236.27 981.654C4232.11 1139.97 4200.2 1290.69 4140.56 1433.79C4145.77 1432.27 4149.78 1433.38 4152.59 1437.13C4218.16 1292.32 4249.9 1138.44 4247.8 975.481Z" fill="white"/>
<path d="M4158.12 978.384C4156.11 1132.24 4125.13 1275.49 4065.15 1408.15C4029.48 1487.13 3983.27 1559.68 3926.51 1625.81C3759.04 1820.73 3546.09 1916.95 3287.68 1914.45C3285.65 1914.42 3283.71 1915.02 3282.22 1916.14C3280.73 1917.25 3279.81 1918.8 3279.63 1920.49C3278.99 1926.11 3283.45 1929.05 3292.98 1929.31C3493.77 1934.73 3673.25 1870.16 3831.41 1735.61C4046.99 1552.16 4160.91 1307.56 4173.17 1001.81C4173.56 993.592 4172.23 985.781 4169.18 978.373C4165.49 974.359 4161.8 974.362 4158.12 978.384Z" fill="white"/>
<path d="M3598.57 976.158C3595.6 975.357 3592.6 975.361 3589.55 976.167C3587.24 991.707 3585.14 1007.25 3583.23 1022.78C3581.08 1040.82 3578.09 1056.05 3574.26 1068.47C3530.89 1211.11 3438.9 1280.72 3298.31 1277.3C3285.09 1276.95 3280.2 1280.48 3283.66 1287.89C3284.4 1289.49 3285.65 1290.86 3287.3 1291.9C3288.94 1292.93 3290.92 1293.57 3293.04 1293.78C3344.66 1298.28 3391.74 1289.65 3434.28 1267.91C3544.03 1211.9 3598.8 1114.65 3598.57 976.158Z" fill="white"/>
<path d="M3424.24 976.342C3413.58 1060.2 3368.74 1096.63 3289.69 1085.64C3277.19 1083.96 3275.43 1088.02 3284.42 1097.84C3291.32 1105.51 3301.9 1109.29 3316.17 1109.19C3370.19 1108.77 3407.47 1080.21 3428.01 1023.48C3433.93 1007.23 3434.83 992.448 3430.73 979.148C3429.93 975.934 3427.76 974.999 3424.24 976.342Z" fill="white"/>
<path d="M5138.9 1851.3C5144.11 1849.78 5148.12 1850.89 5150.93 1854.64C5257.89 1582.1 5312.37 1296.57 5314.38 998.07C5314.52 978.872 5310.07 973.698 5301.02 982.547C5299.7 983.846 5298.64 985.523 5297.92 987.464C5297.2 989.406 5296.82 991.567 5296.82 993.802C5294.81 1291.5 5242.17 1577.34 5138.9 1851.3Z" fill="white"/>
<path d="M5063.25 1824.06L5072.27 1831.82C5179.88 1563.74 5232.68 1282.55 5230.69 988.246C5230.69 984.853 5230 982.13 5228.64 980.077C5225.91 975.973 5223.14 976.154 5220.34 980.622C5219.22 982.498 5218.67 984.91 5218.67 987.856C5214.64 1277.88 5162.84 1556.61 5063.25 1824.06Z" fill="white"/>
<path d="M4913.35 1737.69C4918.24 1738.04 4922.25 1740.27 4925.38 1744.37C5017.54 1503.9 5063.97 1252.59 5064.66 990.427C5064.65 986.32 5063.77 983.017 5062 980.519C5058.07 975.165 5054.7 975.972 5051.9 982.94C5050.87 985.441 5050.31 988.612 5050.23 992.451C5046.9 1250.78 5001.27 1499.19 4913.35 1737.69Z" fill="white"/>
<path d="M4828.69 1723.85L4838.2 1731.07C4932.29 1497.83 4979.97 1252.99 4981.22 996.541C4981.22 992.077 4980.85 988.371 4980.13 985.425C4977.63 975.784 4973.83 975.03 4968.71 983.16C4967.02 985.752 4966.15 988.967 4966.07 992.807C4962.89 1246.67 4917.1 1490.35 4828.69 1723.85Z" fill="white"/>
<path d="M4896.56 977.614C4894.96 979.045 4893.12 979.984 4891.03 980.433C4887.59 985.169 4885.83 988.966 4885.76 991.823C4882.9 1245.24 4834.98 1487.22 4742 1717.78C4747.21 1716.26 4751.22 1717.37 4754.03 1721.12C4849.49 1495.56 4898.17 1254.42 4900.07 997.701C4900.14 988.326 4898.97 981.63 4896.56 977.614Z" fill="white"/>
<path d="M3573.23 2609.15C3582.13 2610.48 3584.13 2614.95 3579.25 2622.54C3592.48 2621.99 3605.54 2620.1 3618.44 2616.87C4038.01 2513.21 4361.57 2262.95 4589.11 1866.07C4739.68 1603.49 4815.28 1311.78 4815.9 990.955C4815.9 988.428 4815.51 986.05 4814.77 984.055C4814.03 982.059 4812.97 980.516 4811.68 979.575C4807.99 976.811 4804.91 978.912 4802.43 985.879C4801.39 988.738 4800.87 992.31 4800.88 996.596C4799.91 1139.46 4784.78 1272.44 4755.49 1395.51C4662.2 1786.44 4470.64 2097.46 4180.81 2328.59C4001.66 2471.46 3799.13 2564.98 3573.23 2609.15Z" fill="white"/>
<path d="M4384.29 1691.37C4388.86 1690.65 4392.71 1691.94 4395.84 1695.24C4512.48 1479.3 4571.34 1244.67 4572.44 991.347C4572.44 988.849 4572.04 986.486 4571.28 984.475C4570.52 982.463 4569.43 980.868 4568.1 979.833C4564.17 976.891 4561.08 978.948 4558.85 986.004C4557.89 988.773 4557.37 992.39 4557.3 996.854C4553.71 1245.54 4496.04 1477.04 4384.29 1691.37Z" fill="white"/>
<path d="M3702.79 2215.24C3930.97 2126.61 4117.16 1974.61 4261.37 1759.27C4412.79 1533.11 4489.42 1278.06 4491.29 994.112C4491.29 989.468 4490.36 985.719 4488.51 982.863C4484.26 976.617 4480.65 978.675 4477.7 989.036C4476.74 992.252 4476.22 996.225 4476.15 1000.96C4464.1 1436.54 4305.44 1778.69 4000.16 2027.42C3795.3 2194.43 3558.66 2275.93 3290.22 2271.93C3289.27 2271.92 3288.34 2272.08 3287.46 2272.41C3286.59 2272.73 3285.8 2273.21 3285.15 2273.82C3284.49 2274.42 3283.99 2275.14 3283.66 2275.92C3283.33 2276.7 3283.2 2277.54 3283.25 2278.37C3283.66 2285.24 3290.04 2288.63 3302.38 2288.53C3447.54 2287.03 3581 2262.61 3702.79 2215.24Z" fill="white"/>
<path d="M4319.94 977.68L4314.41 978.222C4313.45 979.562 4312.65 980.992 4312.01 982.51C4311.29 983.94 4310.93 985.592 4310.94 987.467C4310.53 1132.75 4285.79 1272.56 4236.71 1406.9C4241.6 1407.26 4245.61 1409.48 4248.74 1413.59C4296.71 1289.87 4322.45 1153.67 4325.98 1005C4326.29 991.425 4324.28 982.319 4319.94 977.68Z" fill="white"/>
<path d="M3702.27 1723.02C3947.52 1558.02 4076.28 1315.41 4088.52 995.201C4089.07 980.11 4085.58 975.381 4078.05 981.014C4076.64 982.054 4075.48 983.588 4074.67 985.481C4073.85 987.375 4073.41 989.569 4073.37 991.868C4066.34 1244.04 3982.2 1450.34 3820.94 1610.79C3676.65 1754.26 3502.27 1823.95 3297.8 1819.88C3294.03 1819.79 3290.79 1820.2 3288.06 1821.1C3277.33 1824.68 3277.41 1829.14 3288.32 1834.49C3291.12 1835.83 3294.29 1836.54 3297.82 1836.62C3449.63 1840.21 3584.45 1802.35 3702.27 1723.02Z" fill="white"/>
<path d="M4003.86 978.55L3995.81 978.558C3988.06 1229.39 3896.93 1431.33 3722.44 1584.38C3729.89 1583.12 3733.06 1586.64 3731.95 1594.95C3904.52 1447.44 3996.33 1249.78 4007.37 1001.99C4007.84 991.627 4006.67 983.815 4003.86 978.55Z" fill="white"/>
<path d="M3617.2 1547.65C3620.57 1551.31 3621.58 1555.77 3620.22 1561.04C3809.09 1436.28 3909.53 1250 3921.53 1002.21C3922.47 981.848 3919.14 975.467 3911.53 983.065C3910.24 984.338 3909.18 986.03 3908.42 988.035C3907.66 990.04 3907.21 992.316 3907.09 994.722C3896.13 1236.27 3799.49 1420.58 3617.2 1547.65Z" fill="white"/>
<path d="M3838.55 978.722C3834.46 978.012 3830.77 979.132 3827.49 982.082C3825.41 1065.66 3809.63 1143.94 3780.13 1216.92C3750.79 1289.46 3708.89 1352.32 3654.44 1405.51C3556.6 1500.97 3436.98 1547.53 3295.59 1545.18C3281.56 1544.92 3277.4 1548.63 3283.1 1556.31C3284.19 1557.81 3285.68 1559.04 3287.47 1559.89C3289.26 1560.75 3291.3 1561.21 3293.44 1561.25C3463.93 1566.25 3604.09 1499.63 3713.91 1361.38C3799 1254.41 3840.55 1126.85 3838.55 978.722Z" fill="white"/>
<path d="M3578.79 1261.34C3644.36 1187.24 3678.73 1097.83 3681.9 993.084C3681.97 990.572 3681.7 988.189 3681.09 986.106C3680.49 984.022 3679.57 982.291 3678.4 981.034C3674.55 976.93 3670.95 978.139 3667.59 984.661C3666.23 987.431 3665.47 991.003 3665.31 995.379C3664.01 1051.46 3653.6 1101.51 3634.09 1145.56C3565.56 1299.66 3451.86 1372.99 3292.99 1365.57C3290.81 1365.45 3288.73 1365.74 3286.93 1366.42C3285.13 1367.1 3283.66 1368.14 3282.66 1369.47C3279.22 1373.84 3280.22 1377.77 3285.68 1381.25C3288.08 1382.85 3291.25 1383.74 3295.18 1383.92C3406.67 1389.78 3501.21 1348.92 3578.79 1261.34Z" fill="white"/>
<path d="M3513.93 979.062L3508.4 978.532L3505.51 980.544C3504.81 981.049 3504.19 981.899 3503.71 983.02C3503.23 984.142 3502.9 985.5 3502.76 986.976C3489.19 1118.07 3422.93 1183.59 3303.98 1183.54C3301.18 1183.54 3297.45 1183.05 3292.8 1182.08C3282.46 1179.77 3279.22 1182.85 3283.07 1191.33C3283.89 1193.05 3285.15 1194.51 3286.75 1195.59C3288.35 1196.67 3290.23 1197.32 3292.22 1197.48C3418.79 1206.01 3493.62 1140.75 3516.72 1001.7C3518.23 992.318 3517.3 984.774 3513.93 979.062Z" fill="white"/>
<path d="M5343.19 1753.98C5352.32 1751.47 5356.33 1754.82 5355.22 1764.02C5434.23 1514.45 5472.87 1257.21 5471.15 992.28C5471.15 988.083 5470.3 984.869 5468.62 982.639C5465.57 978.624 5462.4 979.029 5459.12 983.854C5457.6 986.088 5456.84 988.991 5456.85 992.562C5456 1253.38 5418.11 1507.19 5343.19 1753.98Z" fill="white"/>
<path d="M5187.08 1931.61C5192.28 1930.09 5196.29 1931.2 5199.1 1934.95C5321.91 1638.01 5384.3 1325.56 5386.28 997.591C5386.27 992.412 5385.71 988.305 5384.58 985.27C5382.01 978.665 5378.36 977.91 5373.64 983.005C5372.4 984.26 5371.4 985.964 5370.72 988C5370.03 990.035 5369.68 992.354 5369.68 994.795C5367.7 1321.69 5306.83 1633.97 5187.08 1931.61Z" fill="white"/>
<path d="M4994.53 1757.7C5000.7 1761.62 5002.71 1768.31 5000.56 1777.78C5097.36 1527.75 5146.26 1266.21 5147.26 993.156C5147.25 990.544 5146.91 988.107 5146.26 986.054C5145.61 984.001 5144.67 982.394 5143.52 981.373C5140.87 979.054 5138.11 979.37 5135.22 982.319C5134.06 983.5 5133.12 985.172 5132.48 987.212C5131.84 989.251 5131.51 991.608 5131.51 994.11C5129.14 1258.51 5083.48 1513.03 4994.53 1757.7Z" fill="white"/>
<path d="M4573.66 1697.86C4578.87 1696.34 4582.88 1697.45 4585.69 1701.2C4690.29 1479.29 4741.99 1242.61 4740.76 991.168C4740.76 988.741 4740.27 986.436 4739.36 984.601C4738.44 982.766 4737.16 981.5 4735.7 980.994C4732.65 979.926 4730.13 981.179 4728.13 984.753C4727.01 986.718 4726.45 989.442 4726.45 992.925C4724.31 1241.34 4673.38 1476.32 4573.66 1697.86Z" fill="white"/>
<path d="M4659.11 981.209L4650.58 980.682C4648.26 991.132 4646.29 1016.98 4644.65 1058.24C4632.77 1351.22 4547.13 1619.45 4387.72 1862.94C4216.55 2124.56 3986.06 2303.3 3696.24 2399.14C3694.01 2406.91 3696.02 2411.38 3702.27 2412.53C4013.07 2307.82 4258.37 2105.5 4438.16 1805.56C4586.02 1558.96 4660.6 1286.45 4661.89 988.037C4661.89 987.323 4661.32 985.806 4660.2 983.485L4659.11 981.209Z" fill="white"/>
<path d="M4412.65 988.163L4395.58 988.181C4395.21 1172.75 4359.33 1348.02 4287.92 1514C4293.7 1513.99 4296.71 1517.34 4296.95 1524.03C4373.8 1356.09 4412.37 1177.46 4412.65 988.163Z" fill="white"/>
<path d="M4236.72 1406.91C4129.92 1685.34 3951.63 1884.38 3701.84 2004.02C3697.2 2012.87 3700.21 2016.21 3710.87 2014.06C3961.78 1893.52 4141.07 1693.37 4248.75 1413.59C4245.62 1409.49 4241.61 1407.26 4236.72 1406.91Z" fill="white"/>
<path d="M4140.56 1433.79C4047.48 1639.8 3908.21 1794.15 3722.77 1896.85C3718.29 1904.71 3719.29 1909.18 3725.79 1910.24C3916.52 1806.82 4058.79 1649.12 4152.59 1437.13C4149.78 1433.38 4145.77 1432.27 4140.56 1433.79Z" fill="white"/>
<path d="M4287.93 1514C4145.26 1824.62 3923.89 2031.51 3623.83 2134.69C3622.47 2140.5 3623.48 2144.96 3626.85 2148.08C3929.72 2045.26 4153.09 1837.24 4296.95 1524.03C4296.71 1517.34 4293.7 1513.99 4287.93 1514Z" fill="white"/>
<path d="M3617.2 1547.65C3519 1608.3 3413.51 1637.65 3300.73 1635.72C3296.81 1635.63 3293.4 1635.9 3290.51 1636.53C3277.13 1639.4 3276.37 1643.96 3288.24 1650.19C3290.97 1651.62 3294.06 1652.38 3297.5 1652.46C3412.85 1654.75 3520.42 1624.28 3620.22 1561.05C3621.58 1555.78 3620.57 1551.31 3617.2 1547.65Z" fill="white"/>
<path d="M3722.44 1584.37C3594.15 1688.27 3452.93 1736.59 3298.79 1729.34C3286.92 1728.81 3281.48 1732.08 3282.45 1739.13C3282.73 1740.84 3283.69 1742.41 3285.18 1743.58C3286.67 1744.75 3288.59 1745.44 3290.63 1745.55C3453.99 1752.35 3601.09 1702.14 3731.95 1594.95C3733.06 1586.64 3729.9 1583.12 3722.44 1584.37Z" fill="white"/>
<path d="M4384.29 1691.37C4227.01 1976.64 4006.48 2175.55 3722.7 2288.08C3721.74 2295.32 3723.91 2298.84 3729.2 2298.66C4016.67 2186.47 4238.88 1985.33 4395.84 1695.24C4392.71 1691.94 4388.86 1690.65 4384.29 1691.37Z" fill="white"/>
<path d="M4573.66 1697.86C4382.76 2100.5 4090.32 2365.51 3696.34 2492.9C3693.38 2497.46 3692.38 2502.68 3693.35 2508.57C4094.86 2380.91 4392.31 2111.79 4585.69 1701.2C4582.88 1697.45 4578.87 1696.34 4573.66 1697.86Z" fill="white"/>
<path d="M4742 1717.78C4579.37 2097.71 4327.86 2379.24 3987.49 2562.37C3989.98 2567.91 3994.15 2570.31 4000 2569.59C4341.26 2385.92 4592.6 2103.09 4754.03 1721.11C4751.22 1717.37 4747.21 1716.25 4742 1717.78Z" fill="white"/>
<path d="M4828.69 1723.85C4646.49 2167.11 4354.27 2484.76 3952.02 2676.8L3958.04 2689.12C4362.45 2496.27 4655.84 2176.92 4838.2 1731.07L4828.69 1723.85Z" fill="white"/>
<path d="M4913.35 1737.69C4723.09 2218.64 4410.69 2561.8 3976.16 2767.18C3974.65 2775.13 3977.65 2778.47 3985.19 2777.22C4420.52 2570.76 4733.92 2226.48 4925.38 1744.37C4922.25 1740.27 4918.24 1738.04 4913.35 1737.69Z" fill="white"/>
<path d="M5343.18 1753.98L5283.25 1928.16C5291.35 1927.53 5294.36 1931.99 5292.28 1941.55L5355.22 1764.01C5356.33 1754.81 5352.32 1751.47 5343.18 1753.98Z" fill="white"/>
<path d="M4994.53 1757.69C4796.05 2271.06 4465.48 2636.39 4002.82 2853.67C4001.87 2860.91 4004.04 2864.43 4009.33 2864.25C4265.21 2749.06 4487.7 2574.8 4676.77 2341.46C4815.82 2169.96 4923.75 1982.07 5000.56 1777.78C5002.71 1768.31 5000.7 1761.62 4994.53 1757.69Z" fill="white"/>
<path d="M5063.25 1824.06C4859.71 2328.68 4531.46 2694.36 4078.52 2921.1C4073.88 2929.95 4076.89 2933.29 4087.55 2931.14C4541.61 2704.49 4869.86 2338.05 5072.27 1831.82L5063.25 1824.06Z" fill="white"/>
<path d="M5138.9 1851.3C4923.29 2393.98 4570.71 2782.76 4081.14 3017.67C4081.39 3022.85 4083.56 3026.37 4087.65 3028.24C4580.74 2792.89 4935.17 2401.69 5150.92 1854.64C5148.11 1850.89 5144.11 1849.78 5138.9 1851.3Z" fill="white"/>
<path d="M3722.77 1896.85C3588.75 1967.8 3447.27 2002.5 3298.35 2000.96C3278.39 2000.72 3274.27 2004.25 3285.98 2011.56C3288.46 2013.16 3291.39 2014.05 3294.76 2014.23C3446.81 2020.5 3590.49 1985.83 3725.79 1910.24C3719.29 1909.18 3718.29 1904.71 3722.77 1896.85Z" fill="white"/>
<path d="M5283.25 1928.16C5207.23 2125.22 5111.84 2303.64 4997.07 2463.41C4744.63 2814.5 4426.53 3068.65 4042.77 3225.85C4043.98 3231.47 4046.99 3234.81 4051.8 3235.88C4278.05 3145.19 4484.63 3015.68 4671.53 2847.35C4944.27 2601.69 5151.19 2299.76 5292.28 1941.55C5294.36 1931.99 5291.35 1927.53 5283.25 1928.16Z" fill="white"/>
<path d="M5187.08 1931.62C4958.97 2471.89 4598.37 2859.57 4105.27 3094.66L4112.26 3104.7C4608.88 2869.61 4971.16 2479.69 5199.1 1934.95C5196.29 1931.2 5192.28 1930.09 5187.08 1931.62Z" fill="white"/>
<path d="M3701.84 2004.03C3571.49 2060.33 3436.26 2089.22 3296.16 2090.71C3274.12 2090.91 3271.8 2094.88 3289.2 2102.63C3291.76 2103.79 3294.49 2104.41 3297.38 2104.5C3441.25 2107.21 3579.08 2077.06 3710.87 2014.06C3700.21 2016.22 3697.2 2012.87 3701.84 2004.03Z" fill="white"/>
<path d="M3623.83 2134.69C3516.54 2167.22 3407.35 2182.82 3296.25 2181.51C3292.04 2181.43 3288.16 2182.61 3285.2 2184.87C3272.46 2194.44 3278.16 2199.39 3302.28 2199.72C3413.06 2201.48 3521.24 2184.27 3626.85 2148.08C3623.48 2144.96 3622.47 2140.5 3623.83 2134.69Z" fill="white"/>
<path d="M3722.7 2288.08C3583.37 2337.43 3440.56 2361.33 3294.28 2359.79C3289.96 2359.7 3286.07 2361.15 3283.46 2363.82C3275.38 2372.31 3280.71 2376.81 3299.47 2377.33C3447.43 2381.46 3590.68 2355.24 3729.2 2298.66C3723.91 2298.84 3721.74 2295.32 3722.7 2288.08Z" fill="white"/>
<path d="M3696.25 2399.14C3568.85 2439.82 3438.86 2459.87 3306.29 2459.29C3305.24 2459.29 3300.79 2458.85 3292.94 2457.96C3284.52 2456.9 3280.24 2459.9 3280.08 2466.95C3280.04 2468.7 3280.7 2470.41 3281.94 2471.71C3283.17 2473.01 3284.88 2473.8 3286.7 2473.91C3428.58 2480.73 3567.1 2460.27 3702.27 2412.53C3696.02 2411.38 3694.01 2406.92 3696.25 2399.14Z" fill="white"/>
<path d="M3696.34 2492.9C3565.57 2531.52 3432.54 2549.65 3297.24 2547.3C3293.07 2547.21 3289.38 2548.2 3286.18 2550.25C3272.96 2558.93 3277.46 2563.57 3299.66 2564.17C3433.6 2567.78 3564.83 2549.25 3693.35 2508.57C3692.38 2502.68 3693.38 2497.46 3696.34 2492.9Z" fill="white"/>
<path d="M3987.49 2562.38C3765.66 2674.14 3532.72 2728.27 3288.65 2724.77C3286.7 2724.73 3284.82 2725.3 3283.32 2726.4C3281.81 2727.49 3280.77 2729.05 3280.36 2730.81C3278.13 2740.37 3283.62 2745.18 3296.85 2745.26C3543.8 2746.25 3778.18 2687.69 4000 2569.6C3994.15 2570.32 3989.98 2567.91 3987.49 2562.38Z" fill="white"/>
<path d="M3573.23 2609.16C3479.87 2625.06 3385.94 2632.34 3291.44 2631.01C3289.38 2630.98 3287.41 2631.38 3285.66 2632.2C3283.9 2633.01 3282.43 2634.21 3281.34 2635.71C3274.7 2644.83 3278.83 2649.64 3293.74 2650.16C3383.83 2653.2 3479.01 2643.99 3579.25 2622.54C3584.14 2614.95 3582.13 2610.49 3573.23 2609.16Z" fill="white"/>
<path d="M3952.02 2676.8C3741.64 2770.69 3522.95 2816.5 3295.96 2814.24C3292.43 2814.24 3289.3 2815 3286.58 2816.52C3272.72 2824.49 3276.17 2828.72 3296.93 2829.24C3526.74 2835.07 3747.11 2788.36 3958.05 2689.12L3952.02 2676.8Z" fill="white"/>
<path d="M3976.16 2767.18C3755.28 2862.78 3526.13 2909.98 3288.72 2908.81C3286.78 2908.81 3284.92 2909.44 3283.43 2910.58C3281.95 2911.72 3280.94 2913.32 3280.55 2915.11C3278.8 2923.06 3282.97 2926.63 3293.07 2925.81C3301.32 2925.18 3306.01 2924.86 3307.13 2924.86C3542.46 2927.11 3768.48 2877.9 3985.19 2777.22C3977.66 2778.48 3974.65 2775.13 3976.16 2767.18Z" fill="white"/>
<path d="M4002.82 2853.67C3773.45 2953.21 3535.45 3001.76 3288.81 2999.34C3286.49 2999.3 3284.29 2999.77 3282.56 3000.66C3280.82 3001.56 3279.64 3002.84 3279.2 3004.31C3278.56 3006.18 3278.72 3008.1 3279.69 3010.07C3280.3 3011.33 3281.36 3012.4 3282.76 3013.18C3284.16 3013.95 3285.84 3014.4 3287.63 3014.48C3538.19 3021.72 3778.76 2971.64 4009.33 2864.25C4004.04 2864.43 4001.87 2860.91 4002.82 2853.67Z" fill="white"/>
<path d="M4078.52 2921.1C3826.08 3038.96 3562.68 3097.1 3288.32 3095.51C3287.34 3095.51 3286.37 3095.68 3285.47 3096.01C3284.57 3096.34 3283.76 3096.83 3283.08 3097.45C3282.41 3098.07 3281.88 3098.8 3281.54 3099.59C3281.2 3100.39 3281.06 3101.24 3281.11 3102.08C3281.52 3108.87 3287.89 3112.25 3300.24 3112.24C3581.01 3111.41 3843.45 3051.04 4087.55 2931.14C4076.89 2933.29 4073.88 2929.94 4078.52 2921.1Z" fill="white"/>
<path d="M4081.14 3017.67C3827.18 3131.07 3563.17 3186.35 3289.13 3183.51C3286.78 3183.47 3284.55 3183.93 3282.79 3184.83C3281.04 3185.72 3279.84 3187 3279.4 3188.47C3278.76 3190.35 3278.92 3192.27 3279.88 3194.23C3280.51 3195.49 3281.58 3196.56 3283 3197.33C3284.41 3198.11 3286.12 3198.56 3287.94 3198.64C3565.92 3206.03 3832.49 3149.23 4087.65 3028.24C4083.56 3026.37 4081.39 3022.85 4081.14 3017.67Z" fill="white"/>
<path d="M4105.27 3094.65C3838.41 3212.71 3568.11 3269.92 3294.39 3266.28C3284.93 3266.11 3280.24 3268.48 3280.33 3273.39C3280.4 3275.09 3281.27 3276.7 3282.74 3277.89C3284.22 3279.08 3286.19 3279.77 3288.27 3279.81C3574.66 3287.72 3849.32 3229.35 4112.25 3104.69L4105.27 3094.65Z" fill="white"/>
<path d="M4042.77 3225.85C3800.4 3317.71 3550.98 3364.14 3294.49 3365.12C3273.49 3365.15 3271.45 3369.25 3288.37 3377.45C3290.86 3378.7 3293.54 3379.32 3296.43 3379.32C3556.29 3382.35 3808.08 3334.54 4051.8 3235.88C4046.99 3234.82 4043.98 3231.47 4042.77 3225.85Z" fill="white"/>
</g>
<defs>
<clipPath id="clip0_38_21">
<rect width="4171.13" height="6541.67" fill="white" transform="matrix(-0.000504151 1 1 0.000504151 2.10254 0)"/>
</clipPath>
</defs>
</svg>
