<svg width="6544" height="4175" viewBox="0 0 6544 4175" fill="none" xmlns="http://www.w3.org/2000/svg">
<g clip-path="url(#clip0_38_21)">
<rect width="4171.13" height="6541.67" transform="matrix(-0.000504151 1 1 0.000504151 2.10254 0)" fill="#E5DED4"/>
<path d="M1095.36 4607.83C1100.08 4585.74 1110.78 4583.34 1127.46 4600.64C717.846 3852.84 519.988 3060.98 533.89 2225.04C533.975 2220.05 532.804 2215.29 530.524 2211.35C528.243 2207.4 524.952 2204.44 521.062 2202.84C509.296 2197.65 499.024 2199.18 490.246 2207.44C484.68 2212.62 482.001 2220.3 482.21 2230.48C483.226 2338.63 490.43 2480.29 503.823 2655.48C556.327 3348.35 753.508 3999.13 1095.36 4607.83Z" fill="white"/>
<path d="M1247.92 4406.22C1244.94 4388.16 1252.96 4380.96 1272.01 4384.62C924.413 3699.67 755.941 2979.94 766.593 2225.44C766.678 2220.15 765.404 2215.1 762.97 2211.09C760.535 2207.08 757.074 2204.32 753.123 2203.25C747.56 2201.71 741.996 2201.9 736.432 2203.82C732.438 2204.98 728.946 2207.64 726.463 2211.43C723.979 2215.21 722.632 2219.91 722.619 2224.84C712.176 2989.33 887.278 3716.45 1247.92 4406.22Z" fill="white"/>
<path d="M1424.5 4327.07C1433.28 4319.01 1443.98 4316.61 1456.6 4319.88C1127.18 3669.71 962.113 2986.48 961.405 2270.2C961.407 2265.01 962.697 2253.2 965.274 2234.76C968.71 2209.99 959.728 2200.28 938.327 2205.65C933.99 2206.73 930.166 2209.2 927.439 2212.69C924.713 2216.17 923.235 2220.48 923.231 2224.94C910.021 2961.39 1077.11 3662.1 1424.5 4327.07Z" fill="white"/>
<path d="M1649.2 4298.37C1654.98 4289.16 1663.01 4281.96 1673.28 4276.78C1336.58 3626.98 1171.52 2942.6 1178.08 2223.63C1178.08 2218.85 1176.63 2214.28 1173.96 2210.62C1171.28 2206.97 1167.55 2204.45 1163.33 2203.46C1145.36 2199.22 1136.15 2210.74 1135.71 2238.02C1128.92 2962.17 1300.09 3648.95 1649.2 4298.37Z" fill="white"/>
<path d="M1922.02 4327.32C1930.37 4312.35 1941.5 4311.97 1955.4 4326.19C1585.11 3669.84 1403.58 2972.68 1410.8 2234.7C1410.8 2226.82 1408.77 2220.1 1404.71 2214.53C1387.81 2190.89 1378.93 2198.76 1378.05 2238.14C1363.56 2977.46 1544.88 3673.86 1922.02 4327.32Z" fill="white"/>
<path d="M1970.35 3952.78C1979.13 3944.72 1989.83 3942.32 2002.45 3945.6C1747.87 3395.72 1624.8 2822.49 1633.23 2225.88C1633.34 2220.97 1632.11 2216.25 1629.69 2212.38C1627.28 2208.51 1623.81 2205.68 1619.76 2204.26C1603.07 2198.11 1594.51 2207.03 1594.07 2231.04C1582.42 2830.15 1707.85 3404.06 1970.35 3952.78Z" fill="white"/>
<path d="M2163 3837.63C2168.78 3828.41 2176.81 3821.22 2187.09 3816.03C1962.23 3309.2 1853.15 2782.55 1859.84 2236.08C1860.06 2227.24 1857.82 2219.65 1853.11 2213.31C1839 2194.87 1828.84 2197.07 1822.62 2219.92C1820.9 2225.88 1819.94 2233.46 1819.72 2242.68C1808.95 2796.84 1923.38 3328.49 2163 3837.63Z" fill="white"/>
<path d="M1970.35 3952.78C2449.82 4940.53 3230.93 5666.42 4313.68 6130.46C4329.72 6129.9 4337.75 6122.7 4337.76 6108.87C3261.65 5647.13 2483.21 4926.04 2002.46 3945.6C1989.83 3942.33 1979.13 3944.72 1970.35 3952.78Z" fill="white"/>
<path d="M2189.9 3311.82L2222 3297.42C2119.26 2945.86 2070.75 2588.18 2076.5 2224.37C2076.61 2219.15 2075.68 2214.16 2073.79 2209.76C2071.9 2205.37 2069.1 2201.7 2065.6 2199.01C2050.41 2187.48 2042.28 2195.83 2041.19 2224.07C2028.6 2593.82 2078.16 2956.4 2189.9 3311.82Z" fill="white"/>
<path d="M2163 3837.63C2572.77 4710.66 3238.89 5376.47 4161.36 5835.06C4181.26 5837.76 4189.71 5830.17 4186.73 5812.31C3264.47 5354.11 2597.92 4688.68 2187.08 3816.03C2176.81 3821.21 2168.78 3828.41 2163 3837.63Z" fill="white"/>
<path d="M2189.9 3311.82C2507.59 4310.62 3162.11 5074.87 4153.45 5604.56C4173.56 5607.25 4181.59 5600.06 4177.53 5582.96C3189.61 5055.38 2537.77 4293.54 2222 3297.43L2189.9 3311.82Z" fill="white"/>
<path d="M4225.77 5410.11C4241.82 5409.54 4249.85 5402.34 4249.85 5388.51C3620.48 5046.28 3135.93 4594.83 2796.19 4034.16C2455.16 3471.38 2290.27 2868.06 2301.51 2224.2C2301.95 2203.07 2293.18 2195.96 2275.2 2202.86C2271.09 2204.39 2267.57 2207.19 2265.05 2210.93C2262.54 2214.67 2261.15 2219.17 2261.07 2223.89C2257.28 2520.27 2284 2786.9 2341.23 3023.77C2590.43 4054.04 3218.61 4849.48 4225.77 5410.11Z" fill="white"/>
<path d="M2885.18 3859.6C2880.06 3834.06 2888.09 3826.86 2909.27 3838.01C2628.99 3330.38 2493.16 2792.48 2501.8 2224.3C2501.87 2219.54 2500.49 2214.96 2497.87 2211.3C2495.25 2207.64 2491.55 2205.11 2487.36 2204.12C2469.39 2199.89 2460.18 2211.41 2459.74 2238.69C2454.53 2811.67 2596.34 3351.97 2885.18 3859.6Z" fill="white"/>
<path d="M3080.38 3780.47C3087.66 3765.68 3097.93 3762.9 3111.2 3772.13C2845.03 3288.9 2714.22 2776.84 2718.77 2235.93C2718.78 2226.71 2717.5 2219.22 2714.93 2213.46C2708.52 2200.01 2700.39 2197.89 2690.54 2207.11C2687.4 2210.01 2684.89 2213.86 2683.18 2218.42C2681.46 2222.98 2680.58 2228.15 2680.58 2233.61C2671.74 2779.89 2805.01 3295.51 3080.38 3780.47Z" fill="white"/>
<path d="M2885.18 3859.6C3297.6 4578.01 3912.97 5106.17 4731.29 5444.07L4748.63 5416.42C3933.31 5079.86 3320.18 4553.73 2909.27 3838.01C2888.09 3826.86 2880.06 3834.05 2885.18 3859.6Z" fill="white"/>
<path d="M3286.5 3665.32C3291.64 3655.14 3300.1 3649.96 3311.87 3649.77C3070.08 3198.26 2951.88 2721.25 2957.27 2218.77C2957.37 2214.24 2955.92 2209.87 2953.19 2206.51C2950.46 2203.15 2946.65 2201.04 2942.51 2200.61C2931.6 2199.26 2925.93 2204.25 2925.49 2215.58C2905.55 2720.94 3025.89 3204.19 3286.5 3665.32Z" fill="white"/>
<path d="M3080.38 3780.47C3456.03 4427.21 4009.04 4910.48 4739.43 5230.29C4759.54 5232.99 4767.57 5225.79 4763.51 5208.69C4040.19 4889.85 3489.42 4411 3111.2 3772.13C3097.94 3762.9 3087.67 3765.68 3080.38 3780.47Z" fill="white"/>
<path d="M3575.35 3730.3C3580.49 3720.12 3588.94 3714.94 3600.71 3714.75C3313.77 3261.86 3172.25 2774 3176.15 2251.15C3176.16 2241.93 3175.41 2233.96 3173.92 2227.23C3166.02 2193.04 3154.89 2193.22 3140.54 2227.79C3137.54 2234.71 3136.04 2242.39 3136.03 2250.84C3131.48 2781.95 3277.92 3275.1 3575.35 3730.3Z" fill="white"/>
<path d="M3286.5 3665.32C3657.23 4313.41 4213.78 4784.68 4956.16 5079.13C4965.15 5071.26 4967.83 5061.66 4964.2 5050.32C4232.73 4755.3 3681.96 4288.45 3311.87 3649.78C3300.1 3649.96 3291.65 3655.14 3286.5 3665.32Z" fill="white"/>
<path d="M3671.77 3485.44L3697.14 3469.89C3489.34 3080.24 3388.54 2668.84 3394.75 2235.7C3394.76 2226.29 3392.73 2218.12 3388.67 2211.2C3375.63 2188.72 3364.71 2191.5 3355.93 2219.54C3353.78 2226.65 3352.6 2235.1 3352.38 2244.9C3347.45 2682.46 3453.92 3095.97 3671.77 3485.44Z" fill="white"/>
<path d="M3575.36 3730.3C3991.88 4362.08 4590.82 4789.77 5372.18 5013.36L5397.55 4985.71C4617.69 4766.54 4018.75 4342.88 3600.72 3714.75C3588.95 3714.94 3580.5 3720.12 3575.36 3730.3Z" fill="white"/>
<path d="M3904.5 3435.13C3910.07 3420.15 3920.77 3417.76 3936.6 3427.95C3719.16 3051.55 3615.37 2650.52 3625.21 2224.87C3625.33 2220.38 3623.91 2216.04 3621.21 2212.61C3618.51 2209.18 3614.7 2206.89 3610.46 2206.13C3590.35 2202.66 3581.14 2212.74 3582.84 2236.37C3584.33 2259.23 3585.07 2270.95 3585.07 2271.52C3581.44 2684.5 3687.91 3072.37 3904.5 3435.13Z" fill="white"/>
<path d="M3671.76 3485.44C3974.71 4020.74 4426.98 4419.92 5028.57 4683C5044.62 4682.43 5052.65 4675.23 5052.66 4661.4C4455.13 4397.75 4003.29 4000.58 3697.13 3469.89L3671.76 3485.44Z" fill="white"/>
<path d="M4041.01 3255.12C4046.15 3244.95 4054.6 3239.76 4066.37 3239.58C3903.69 2917.76 3828.11 2580.13 3839.63 2226.7C3839.82 2221.19 3838.79 2215.94 3836.71 2211.78C3834.62 2207.61 3831.59 2204.76 3828.09 2203.65C3823.6 2202.11 3818.99 2202.49 3814.29 2204.79C3811.26 2206.28 3808.67 2208.85 3806.75 2212.23C3804.83 2215.62 3803.67 2219.71 3803.36 2224.09C3785.63 2586.54 3864.85 2930.22 4041.01 3255.12Z" fill="white"/>
<path d="M3904.5 3435.13C4208.31 3947.57 4657.92 4317.95 5253.33 4546.25C5273.44 4548.95 5281.47 4541.75 5277.41 4524.65C4689.28 4297.7 4242.34 3932.13 3936.6 3427.95C3920.77 3417.76 3910.07 3420.15 3904.5 3435.13Z" fill="white"/>
<path d="M4561.76 3638.88C5010.46 4102.22 5580.72 4342.9 6272.52 4360.92C6317.67 4361.9 6332.34 4354.61 6316.51 4339.05C6313.48 4336.05 6309.42 4333.63 6304.61 4331.94C6299.8 4330.25 6294.34 4329.33 6288.59 4329.24C5731.8 4320.5 5251.06 4161.31 4846.36 3851.66C4309.46 3440.91 4041.61 2907.55 4042.79 2251.59C4042.8 2242.56 4041.95 2234.49 4040.24 2227.38C4031.27 2192.42 4020.14 2192.6 4006.86 2227.94C4004.07 2235.05 4002.68 2242.82 4002.67 2251.28C4000.26 2789.11 4186.62 3251.64 4561.76 3638.88Z" fill="white"/>
<path d="M4041.01 3255.12C4413.64 3935.29 5015.58 4353.95 5846.83 4511.11C6001.1 4540.38 6156.77 4549.49 6313.84 4538.43L6312.57 4517.97C6298.23 4513.16 6268.81 4510.36 6224.3 4509.57C5795.48 4502.82 5391.53 4394.38 5012.46 4184.24C4594.45 3952.57 4279.09 3637.68 4066.37 3239.58C4054.6 3239.76 4046.15 3244.95 4041.01 3255.12Z" fill="white"/>
<path d="M6312.76 4148.3L6314.05 4135.05C6298.86 4126.98 6269.01 4122.16 6224.5 4120.6C5672 4101.69 5201.98 3908.79 4814.42 3541.91C4437.35 3184.83 4256.86 2746.6 4272.95 2227.21C4273.14 2221.85 4271.87 2216.7 4269.4 2212.73C4266.92 2208.75 4263.4 2206.22 4259.48 2205.59C4252.21 2204.44 4245.79 2207.99 4240.22 2216.24C4237.01 2221.05 4235.29 2227.29 4235.07 2234.97C4225.59 2804.3 4445.43 3278.38 4894.61 3657.2C5279.4 3981.63 5744.63 4148.11 6290.29 4156.65C6294.99 4156.65 6299.06 4155.89 6302.48 4154.35C6305.91 4152.62 6309.33 4150.61 6312.76 4148.3Z" fill="white"/>
<path d="M6314.14 3954.97L6312.86 3934.52C5707.72 3918.08 5227 3707.98 4870.71 3304.24C4612.79 3011.75 4483.93 2663.92 4484.14 2260.74C4484.14 2255.36 4484.79 2246.24 4486.08 2233.37C4488.87 2205.71 4481.6 2197.45 4464.26 2208.58C4460.49 2210.98 4457.39 2214.43 4455.21 2218.64C4453.03 2222.85 4451.84 2227.69 4451.73 2232.77C4441.41 2751.78 4635.92 3177.34 5035.27 3509.46C5372.58 3790.27 5777.04 3941.16 6248.65 3962.14C6277.54 3963.5 6299.37 3961.11 6314.14 3954.97Z" fill="white"/>
<path d="M6320.99 3737.73L6312.97 3725.63C5826.81 3713.66 5430.37 3555.19 5123.67 3250.2C4839.86 2968.07 4706.07 2624.66 4722.33 2219.95C4722.39 2217.91 4722.02 2215.87 4721.24 2213.99C4720.46 2212.1 4719.29 2210.43 4717.83 2209.09C4716.37 2207.75 4714.66 2206.78 4712.82 2206.26C4710.99 2205.75 4709.08 2205.69 4707.25 2206.11C4692.48 2209.75 4684.99 2223.38 4684.76 2247.01C4683.37 2456.19 4721.47 2650.88 4799.05 2831.1C4875.36 3008.81 4990.61 3169.07 5144.83 3311.87C5430.36 3576.51 5795.67 3723.64 6240.74 3753.25C6274.34 3755.57 6301.09 3750.4 6320.99 3737.73Z" fill="white"/>
<path d="M6321.08 3543.24L6321.09 3531.14C5769.45 3512.23 5363.62 3297.38 5103.63 2886.57C4986.45 2701.15 4932.32 2486.85 4941.21 2243.68C4941.43 2235.81 4940.15 2228.7 4937.37 2222.36C4922.84 2189.12 4914.27 2199.2 4911.68 2252.6C4895.89 2588.93 5010.33 2882.1 5255 3132.13C5418.83 3299.32 5626.44 3420.44 5877.84 3495.48C6032.1 3541.66 6179.85 3557.58 6321.08 3543.24Z" fill="white"/>
<path d="M6313.15 3363.16C6318.72 3357.6 6321.39 3351.16 6321.18 3343.86C6299.57 3339.05 6254.1 3333.84 6184.78 3328.24C6030.71 3315.87 5885.97 3276.61 5750.55 3210.46C5620.48 3147.2 5507 3061.95 5410.12 2954.72C5224.49 2749.1 5136.99 2504.25 5147.61 2220.16C5147.68 2218.05 5147.32 2215.95 5146.55 2214C5145.78 2212.05 5144.62 2210.3 5143.15 2208.87C5141.68 2207.44 5139.94 2206.36 5138.05 2205.72C5136.16 2205.09 5134.17 2204.9 5132.21 2205.17C5118.09 2206.89 5112.2 2216.2 5114.55 2233.11C5116.68 2246.94 5117.53 2256.54 5117.1 2261.92C5110.84 2375.25 5122.45 2477.83 5151.93 2569.66C5274.78 2950.62 5546.31 3201.43 5966.51 3322.08C6079.27 3354.4 6194.81 3368.1 6313.15 3363.16Z" fill="white"/>
<path d="M6321.28 3161.48L6321.29 3142.18C5939.76 3131.23 5659.62 2983.66 5480.87 2699.48C5393.63 2560.37 5357.87 2402.46 5373.58 2225.75C5373.94 2220.98 5372.77 2216.33 5370.29 2212.67C5367.81 2209 5364.19 2206.58 5360.11 2205.86C5343.85 2202.97 5335.39 2214.4 5334.74 2240.14C5328.2 2470.06 5399.89 2669.96 5549.81 2839.83C5710.85 3022.2 5927.24 3130.36 6198.98 3164.3C6251.41 3170.86 6292.17 3169.92 6321.28 3161.48Z" fill="white"/>
<path d="M5793.8 2757.26C5638.73 2615.23 5570.88 2438.1 5590.25 2225.86C5590.71 2220.37 5589.84 2215.08 5587.79 2210.91C5585.73 2206.75 5582.63 2203.98 5579.03 2203.09C5575.17 2202.13 5571.32 2202.7 5567.47 2204.81C5565.08 2206.16 5562.98 2208.33 5561.37 2211.14C5559.75 2213.94 5558.65 2217.3 5558.15 2220.94C5535.39 2387.66 5576.93 2539.71 5682.78 2677.11C5825.42 2862.54 6023.09 2961.75 6275.8 2974.75C6285.64 2975.33 6294.42 2974.38 6302.12 2971.88C6330.37 2963.45 6330.06 2953.94 6301.17 2943.36C6294.33 2940.67 6286.09 2939.22 6276.46 2939.02C6080.88 2933.16 5919.99 2872.58 5793.8 2757.26Z" fill="white"/>
<path d="M6313.46 2765.3C6320.95 2758.39 6320.96 2751.96 6313.47 2746C6190.86 2738.64 6084.74 2703.34 5995.11 2640.1C5926.88 2592.04 5877.8 2533.62 5847.87 2464.84C5817.1 2394.14 5807.4 2318.55 5818.78 2238.07C5824.36 2197.55 5816.24 2187.55 5794.4 2208.1C5787.77 2214.2 5783.77 2223.13 5783.15 2233.16C5766.1 2522.23 5913.45 2699.99 6225.19 2766.41C6249.16 2771.42 6278.58 2771.05 6313.46 2765.3Z" fill="white"/>
<path d="M6320.3 2564.77C6322.23 2557.09 6319.99 2550.27 6313.57 2544.31C6106.02 2520.2 6017.27 2414.89 6047.32 2228.39C6048.39 2221.09 6048.07 2214.75 6046.36 2209.37C6040.81 2193.04 6032.57 2193.42 6021.65 2210.51C6018.43 2215.51 6016.08 2221.36 6014.58 2228.09C5983.49 2354.27 6024.95 2453.89 6138.97 2526.94C6193.73 2562.11 6254.17 2574.73 6320.3 2564.77Z" fill="white"/>
<path d="M489.366 978.663C492.785 988.845 492.78 998.449 489.351 1007.48C797.701 1012.24 1057.86 1099.29 1269.84 1268.62C1399.67 1372.03 1496.55 1493.67 1560.46 1633.54C1625.44 1775.33 1653.93 1926.89 1645.93 2088.24C1644.2 2122.05 1652.22 2134.63 1669.99 2126C1673.99 2124.09 1677.4 2120.95 1679.88 2116.91C1682.36 2112.87 1683.82 2108.06 1684.12 2102.95C1705.68 1779.3 1591.12 1504.95 1340.45 1279.9C1108.59 1071.56 824.898 971.149 489.366 978.663Z" fill="white"/>
<path d="M497.979 -188.238L512.73 -160.571C892.12 -150.007 1253.18 -72.9915 1595.91 70.4756C1592.28 57.9883 1594.96 48.3855 1603.95 41.6671C1257.16 -116.016 888.504 -192.652 497.979 -188.238Z" fill="white"/>
<path d="M504.605 26.7054C873.299 32.0775 1216.49 106.875 1534.19 251.097C1723.31 336.862 1897.01 447.878 2055.29 584.145C2521.79 986.219 2751.56 1496.89 2744.62 2116.17C2744.54 2121.02 2745.97 2125.68 2748.64 2129.25C2751.31 2132.82 2755.02 2135.04 2759.05 2135.48C2772.53 2137.02 2779.6 2126.36 2780.25 2103.51C2793.98 1622.34 2639.91 1192 2318.05 812.473C1879.22 295.162 1293.46 21.2445 560.794 -9.28196C541.108 -10.2523 522.383 -7.09275 504.618 0.19747C494.985 9.02845 494.98 17.8647 504.605 26.7054Z" fill="white"/>
<path d="M497.187 1367.64C495.257 1374.74 495.254 1381.95 497.176 1389.25C534.406 1394.84 571.636 1399.94 608.868 1404.57C652.09 1409.78 688.571 1417 718.31 1426.24C1059.99 1530.71 1226.47 1751.4 1217.74 2088.31C1216.87 2120.01 1225.31 2131.73 1243.08 2123.48C1246.9 2121.7 1250.21 2118.7 1252.69 2114.76C1255.16 2110.83 1256.72 2106.09 1257.21 2101.01C1268.19 1977.31 1247.7 1864.46 1195.76 1762.43C1061.93 1499.21 829.077 1367.61 497.187 1367.64Z" fill="white"/>
<path d="M496.98 1785.42C697.899 1811.26 785.044 1918.87 758.414 2108.25C754.333 2138.21 764.068 2142.45 787.617 2120.94C806.028 2104.43 815.135 2079.08 814.938 2044.89C814.148 1915.43 745.824 1825.98 609.969 1776.54C571.031 1762.31 535.617 1760.08 503.729 1769.86C496.024 1771.78 493.775 1776.97 496.98 1785.42Z" fill="white"/>
<path d="M4410.51 1434.44C4413.73 1413.12 4424.44 1408.32 4442.62 1420.05C4441.35 1388.35 4436.87 1357.04 4429.18 1326.11C4182.32 320.238 3583.77 -456.081 2633.53 -1002.85C2004.81 -1364.66 1306.02 -1546.92 537.178 -1549.61C531.123 -1549.62 525.422 -1548.69 520.638 -1546.93C515.853 -1545.16 512.15 -1542.62 509.89 -1539.54C503.252 -1530.71 508.276 -1523.31 524.964 -1517.35C531.811 -1514.85 540.37 -1513.59 550.641 -1513.59C893.016 -1510.73 1211.62 -1473.98 1506.46 -1403.33C2442.96 -1178.31 3187.6 -718.09 3740.41 -22.6613C4082.14 407.202 4305.51 892.902 4410.51 1434.44Z" fill="white"/>
<path d="M3467 1122.5C3255.44 575.338 2891.89 128.56 2376.36 -217.834C1834.94 -581.529 1224 -766.141 543.534 -771.671C532.407 -771.676 523.417 -769.472 516.568 -765.057C501.583 -754.885 506.501 -746.238 531.32 -739.118C539.022 -736.81 548.544 -735.557 559.885 -735.359C1603.69 -704.867 2423.06 -323.36 3018 409.162C3417.47 900.713 3611.91 1468.13 3601.32 2111.41C3601.29 2113.68 3601.68 2115.93 3602.45 2118.02C3603.23 2120.12 3604.37 2122.01 3605.82 2123.58C3607.26 2125.15 3608.98 2126.36 3610.86 2127.15C3612.73 2127.93 3614.73 2128.27 3616.71 2128.13C3633.19 2127.18 3641.33 2111.91 3641.13 2082.33C3638.1 1734.47 3580.06 1414.52 3467 1122.5Z" fill="white"/>
<path d="M2287.41 1121.9C1892.9 533.545 1311.98 224.094 544.647 193.55C508.485 192.187 497.139 200.537 510.611 218.599C513.097 221.97 516.769 224.761 521.304 226.723C525.838 228.686 531.094 229.759 536.605 229.849C1140.89 247.634 1634.99 450.051 2018.89 837.101C2362.17 1183.41 2528.54 1601.56 2518.02 2091.56C2517.81 2100.59 2518.76 2108.37 2520.9 2114.9C2529.45 2140.64 2540.15 2140.46 2553 2114.34C2556.21 2107.62 2557.93 2100.03 2558.15 2091.58C2567.32 1727.78 2477.07 1404.55 2287.41 1121.9Z" fill="white"/>
<path d="M504.428 396.371L504.419 415.675C1105.49 435.187 1589.1 654.31 1955.23 1073.04C1952.24 1055.18 1960.7 1047.6 1980.6 1050.3C1627.73 636.177 1154.4 415.427 560.604 388.044C535.782 386.879 517.057 389.654 504.428 396.371Z" fill="white"/>
<path d="M1866.83 1325.11C1875.6 1317.05 1886.3 1314.65 1898.93 1317.92C1600.65 864.838 1154.61 623.453 560.816 593.764C512.029 591.435 496.724 599.399 514.904 617.656C517.951 620.746 522.001 623.288 526.803 625.124C531.605 626.96 537.058 628.051 542.824 628.33C1121.64 655.514 1562.97 887.773 1866.83 1325.11Z" fill="white"/>
<path d="M504.226 792.542C502.509 802.337 505.179 811.175 512.237 819.054C712.524 824.341 900.063 862.468 1074.85 933.435C1248.57 1004.02 1399.06 1104.65 1526.31 1235.33C1754.73 1470.17 1865.86 1757.01 1859.7 2095.84C1859.04 2129.45 1867.92 2139.45 1886.32 2125.82C1889.93 2123.21 1892.87 2119.63 1894.93 2115.34C1896.99 2111.06 1898.11 2106.17 1898.21 2101.05C1910.83 1692.49 1751.69 1356.36 1420.79 1092.65C1164.75 888.341 859.229 788.303 504.226 792.542Z" fill="white"/>
<path d="M1180.53 1416.1C1003.22 1258.69 789.061 1175.99 538.061 1167.99C532.04 1167.81 526.328 1168.46 521.333 1169.9C516.339 1171.35 512.186 1173.54 509.169 1176.33C499.321 1185.54 502.205 1194.19 517.822 1202.26C524.454 1205.53 533.013 1207.36 543.498 1207.75C677.879 1211.08 797.805 1236.21 903.276 1283.13C1272.32 1447.93 1447.65 1720.69 1429.27 2101.39C1428.97 2106.62 1429.65 2111.61 1431.27 2115.92C1432.89 2120.24 1435.39 2123.75 1438.56 2126.17C1449.04 2134.43 1458.46 2132.04 1466.81 2118.98C1470.67 2113.22 1472.81 2105.63 1473.24 2096.22C1487.71 1829.04 1390.14 1602.33 1180.53 1416.1Z" fill="white"/>
<path d="M503.833 1570.48L502.542 1583.73L507.353 1590.65C508.56 1592.34 510.595 1593.83 513.28 1594.99C515.965 1596.15 519.218 1596.93 522.757 1597.29C836.87 1630.29 993.641 1789.32 993.069 2074.37C993.066 2081.09 991.885 2090.03 989.526 2101.17C983.949 2125.94 991.327 2133.72 1011.66 2124.51C1015.78 2122.57 1019.3 2119.54 1021.89 2115.71C1024.47 2111.88 1026.04 2107.37 1026.44 2102.62C1047.35 1799.34 891.228 1619.75 558.081 1563.88C535.615 1560.22 517.532 1562.42 503.833 1570.48Z" fill="white"/>
<path d="M513.239 -1173.91L511.944 -1153.45C536.978 -1147.87 598.924 -1143.04 697.783 -1138.95C1399.85 -1109.4 2042.35 -903.164 2625.26 -520.239C3251.6 -109.057 3679.08 443.975 3907.69 1138.86C3926.31 1144.24 3937.01 1139.45 3939.8 1124.47C3690.03 379.248 3206.08 -209.347 2487.95 -641.321C1897.53 -996.589 1244.75 -1176.32 529.612 -1180.53C527.9 -1180.53 524.262 -1179.18 518.697 -1176.5L513.239 -1173.91Z" fill="white"/>
<path d="M1531.84 -160.058C2198.7 96.9015 2675.03 524.911 2960.82 1123.97C2982 1135.12 2990.03 1127.92 2984.91 1102.37C2696.97 500.624 2217.97 70.2116 1547.9 -188.863C1538.05 -181.376 1532.7 -171.775 1531.84 -160.058Z" fill="white"/>
<path d="M1595.91 70.4749C2089.25 294.309 2458.63 628.624 2704.06 1073.42C2722.89 1084.19 2733.59 1081.79 2736.16 1066.23C2489.03 608.759 2111.62 267.236 1603.95 41.6665C1594.96 48.3849 1592.28 57.9877 1595.91 70.4749Z" fill="white"/>
<path d="M1788.67 -282.383C2532.52 60.6695 3027.52 591.934 3273.67 1311.41C3287.58 1314.68 3298.28 1312.29 3305.77 1304.22C3060.48 578.024 2562.81 41.9566 1812.76 -303.98C1796.71 -303.412 1788.68 -296.213 1788.67 -282.383Z" fill="white"/>
<path d="M1866.83 1325.11C2011.79 1560.68 2081.75 1813.59 2076.69 2083.85C2076.47 2093.26 2077.11 2101.42 2078.6 2108.34C2085.43 2140.42 2096.35 2142.25 2111.34 2113.83C2114.77 2107.3 2116.59 2099.91 2116.81 2091.65C2122.72 1815.24 2050.1 1557.33 1898.93 1317.92C1886.31 1314.65 1875.61 1317.05 1866.83 1325.11Z" fill="white"/>
<path d="M1955.22 1073.04C2203.72 1380.89 2318.99 1719.49 2301.04 2088.86C2299.75 2117.29 2307.55 2130.35 2324.45 2128.06C2328.56 2127.38 2332.32 2125.08 2335.12 2121.52C2337.92 2117.96 2339.6 2113.36 2339.87 2108.47C2356.76 1717.01 2237 1364.29 1980.59 1050.3C1960.69 1047.6 1952.23 1055.18 1955.22 1073.04Z" fill="white"/>
<path d="M2214.09 -512.667C2897.15 -134.687 3373 394.551 3641.64 1075.05C3658.97 1077.36 3667.42 1072.18 3667 1059.5C3399.23 370.17 2918.03 -163.105 2223.41 -540.323C2215.49 -532.836 2212.38 -523.617 2214.09 -512.667Z" fill="white"/>
<path d="M2230.36 -966.456C3194.56 -507.467 3828.56 194.342 4132.37 1138.97C4143.28 1146.08 4155.8 1148.49 4169.93 1146.19C3865.48 183.508 3221.64 -530.311 2238.4 -995.265C2229.41 -988.546 2226.73 -978.943 2230.36 -966.456Z" fill="white"/>
<path d="M2278.71 -1369.81C3188.59 -978.651 3862.34 -374.882 4299.95 441.502C4313.22 435.554 4319.01 425.569 4317.3 411.546C3878.4 -406.951 3201.55 -1010.34 2286.75 -1398.62C2277.76 -1391.9 2275.08 -1382.3 2278.71 -1369.81Z" fill="white"/>
<path d="M2293.59 -1577.54C3355.16 -1139.24 4115.31 -437.757 4574.04 526.926L4603.58 512.535C4142.93 -457.335 3378.71 -1161.61 2310.93 -1600.29L2293.59 -1577.54Z" fill="white"/>
<path d="M2327.07 -1780.36C3478.93 -1322.62 4300.15 -572.697 4790.72 469.411C4809.76 473.07 4817.79 465.871 4814.8 447.814C4321.67 -596.217 3497.78 -1348.54 2343.13 -1809.17C2333.28 -1801.68 2327.93 -1792.08 2327.07 -1780.36Z" fill="white"/>
<path d="M2375.31 -1974.82C3604.84 -1497.26 4479.1 -703.706 4998.1 405.838C5015.43 408.152 5023.89 402.97 5023.46 390.292C4748.37 -223.362 4331.59 -757.18 3773.1 -1211.16C3362.63 -1545.02 2912.75 -1804.37 2423.46 -1989.21C2400.78 -1994.4 2384.73 -1989.61 2375.31 -1974.82Z" fill="white"/>
<path d="M2534.6 -2139.26C3743.16 -1649.61 4618.28 -861.623 5159.97 224.69C5181.15 235.842 5189.18 228.643 5184.05 203.093C4642.58 -885.909 3765.64 -1673.89 2553.23 -2160.86L2534.6 -2139.26Z" fill="white"/>
<path d="M2600.17 -2320.46C3899.87 -1801.75 4830.28 -955.35 5391.4 218.755C5403.81 218.185 5412.26 213.004 5416.76 203.21C4854.58 -979.348 3918.4 -1830.17 2608.21 -2349.27C2599.22 -2342.55 2596.54 -2332.95 2600.17 -2320.46Z" fill="white"/>
<path d="M2704.06 1073.42C2873.59 1394.86 2956.23 1734.03 2951.99 2090.92C2951.32 2138.75 2959.77 2148.64 2977.33 2120.61C2981.18 2114.65 2983.33 2107.64 2983.76 2099.58C2999.35 1735.2 2916.81 1390.76 2736.16 1066.23C2733.59 1081.79 2722.89 1084.19 2704.06 1073.42Z" fill="white"/>
<path d="M2784.91 -2666.12C3256.87 -2483.21 3684.08 -2253.93 4066.54 -1978.29C4906.99 -1372.04 5514.85 -608.773 5890.15 311.496C5903.63 308.622 5911.66 301.423 5914.23 289.899C5697.74 -252.654 5388.14 -748.194 4985.43 -1196.72C4397.73 -1851.25 3674.92 -2348.25 2817.02 -2687.71C2794.12 -2692.71 2783.42 -2685.52 2784.91 -2666.12Z" fill="white"/>
<path d="M2792.82 -2435.61C4086.73 -1886.95 5014.45 -1021.33 5575.99 161.223L5600.07 144.524C5038.54 -1046.48 4105.47 -1916.13 2800.86 -2464.42C2791.87 -2457.7 2789.19 -2448.1 2792.82 -2435.61Z" fill="white"/>
<path d="M2960.82 1123.97C3095.26 1436.56 3164 1760.74 3167.04 2096.5C3167.44 2149.32 3176.96 2154.9 3195.6 2113.22C3198.39 2107.08 3199.89 2100.55 3200.11 2093.63C3207.13 1748.85 3135.39 1418.43 2984.91 1102.37C2990.03 1127.92 2982 1135.12 2960.82 1123.97Z" fill="white"/>
<path d="M3273.67 1311.41C3351.22 1568.65 3388.22 1830.38 3384.66 2096.61C3384.45 2106.71 3387.26 2116 3392.67 2123.12C3415.55 2153.67 3427.43 2140.04 3428.32 2082.22C3432.94 1816.77 3392.1 1557.43 3305.77 1304.22C3298.28 1312.29 3287.58 1314.68 3273.67 1311.41Z" fill="white"/>
<path d="M3641.64 1075.05C3759.38 1409.14 3816.12 1751.46 3811.88 2102.01C3811.66 2112.36 3815.11 2121.68 3821.5 2127.95C3841.82 2147.36 3852.63 2134.59 3853.94 2089.64C3864.39 1735.06 3802.08 1391.68 3667 1059.5C3667.43 1072.18 3658.97 1077.36 3641.64 1075.05Z" fill="white"/>
<path d="M3907.69 1138.86C4004.69 1444.32 4052.25 1755.9 4050.38 2073.61C4050.38 2076.1 4049.3 2086.76 4047.16 2105.59C4044.58 2125.75 4051.74 2136.03 4068.64 2136.43C4072.83 2136.55 4076.93 2134.96 4080.05 2132C4083.17 2129.04 4085.07 2124.95 4085.34 2120.59C4102.21 1780.61 4053.69 1448.57 3939.8 1124.47C3937.01 1139.45 3926.31 1144.24 3907.69 1138.86Z" fill="white"/>
<path d="M4132.38 1138.97C4224.45 1452.5 4267.4 1771.38 4261.25 2095.61C4261.03 2105.6 4263.38 2114.44 4268.3 2122.12C4289.04 2153.83 4300.17 2143.07 4301.69 2089.87C4310.84 1768.9 4266.92 1454.34 4169.93 1146.19C4155.8 1148.49 4143.29 1146.08 4132.38 1138.97Z" fill="white"/>
<path d="M4299.96 441.501C4566.96 973.515 4695.82 1531.97 4686.54 2116.86C4686.43 2121.53 4687.79 2126.03 4690.41 2129.64C4693.03 2133.25 4696.75 2135.76 4700.97 2136.74C4723.86 2142.13 4735.42 2128.98 4735.65 2097.29C4738.95 1505.48 4599.5 943.567 4317.31 411.545C4319.01 425.568 4313.23 435.554 4299.96 441.501Z" fill="white"/>
<path d="M4410.52 1434.44C4448.28 1658.24 4465.39 1883.37 4461.86 2109.83C4461.76 2114.75 4462.72 2119.49 4464.67 2123.69C4466.62 2127.88 4469.49 2131.43 4473.08 2134.04C4494.9 2149.99 4506.46 2140.11 4507.76 2104.38C4515.36 1888.48 4493.65 1660.37 4442.62 1420.05C4424.44 1408.32 4413.74 1413.12 4410.52 1434.44Z" fill="white"/>
<path d="M4574.03 526.926C4798.25 1031.45 4907.23 1555.7 4900.96 2099.68C4900.96 2108.13 4902.77 2115.62 4906.41 2122.15C4925.43 2155.39 4935.6 2147.14 4936.91 2097.39C4951.74 1546.7 4840.63 1018.41 4603.57 512.535L4574.03 526.926Z" fill="white"/>
<path d="M4790.72 469.41C5018.99 999.099 5131.27 1548.42 5127.56 2117.37C5127.57 2122.02 5129.06 2126.48 5131.8 2130.04C5134.53 2133.59 5138.35 2136.04 5142.64 2136.97C5161.68 2141.2 5170.25 2131.22 5168.33 2107.02C5166.84 2087.23 5166.1 2075.99 5166.1 2073.3C5172.38 1509.35 5055.28 967.52 4814.81 447.812C4817.79 465.87 4809.77 473.069 4790.72 469.41Z" fill="white"/>
<path d="M4998.1 405.839C5235.78 955.894 5351.25 1526.44 5344.54 2117.48C5344.43 2123.04 5345.54 2128.31 5347.68 2132.48C5349.82 2136.64 5352.89 2139.47 5356.4 2140.53C5360.89 2142.07 5365.49 2141.69 5370.2 2139.39C5373.23 2137.92 5375.8 2135.38 5377.67 2132.04C5379.53 2128.69 5380.61 2124.67 5380.81 2120.38C5399.08 1519.93 5279.97 943.239 5023.47 390.294C5023.89 402.971 5015.43 408.153 4998.1 405.839Z" fill="white"/>
<path d="M5159.97 224.69C5441.48 830.087 5579.82 1461.53 5575 2119.03C5574.98 2121.37 5575.39 2123.69 5576.18 2125.85C5576.98 2128.01 5578.15 2129.96 5579.62 2131.58C5581.1 2133.2 5582.85 2134.46 5584.75 2135.28C5586.66 2136.1 5588.69 2136.45 5590.72 2136.33C5606.98 2135.38 5615.12 2120.11 5615.13 2090.53C5614.19 1417.66 5470.49 788.515 5184.05 203.092C5189.17 228.642 5181.14 235.841 5159.97 224.69Z" fill="white"/>
<path d="M5391.39 218.755C5662.21 827.796 5793.7 1460.68 5785.88 2117.41C5785.77 2123.05 5786.88 2128.38 5789.02 2132.6C5791.16 2136.81 5794.23 2139.68 5797.75 2140.76C5802.24 2142.29 5806.84 2141.91 5811.55 2139.61C5814.56 2138.12 5817.13 2135.55 5818.99 2132.16C5820.85 2128.77 5821.94 2124.68 5822.15 2120.31C5840.89 1454.17 5705.76 815.141 5416.76 203.209C5412.26 213.003 5403.81 218.185 5391.39 218.755Z" fill="white"/>
<path d="M5575.99 161.224C5857.91 801.196 5994 1449.16 5984.25 2105.12C5983.81 2127.79 5989.48 2139.03 6001.25 2138.84C6005.32 2138.66 6009.18 2136.6 6012.04 2133.07C6014.9 2129.54 6016.56 2124.81 6016.66 2119.83C6036.7 1433.53 5897.83 775.093 5600.07 144.525L5575.99 161.224Z" fill="white"/>
</g>
<defs>
<clipPath id="clip0_38_21">
<rect width="4171.13" height="6541.67" fill="white" transform="matrix(-0.000504151 1 1 0.000504151 2.10254 0)"/>
</clipPath>
</defs>
</svg>
