<svg width="6544" height="4175" viewBox="0 0 6544 4175" fill="none" xmlns="http://www.w3.org/2000/svg">
<g clip-path="url(#clip0_38_21)">
<rect width="4171.13" height="6541.67" transform="matrix(-0.000504151 1 1 0.000504151 2.10254 0)" fill="#E5DED4"/>
<path d="M1521.49 415.032C1537.45 418.252 1539.27 425.948 1526.93 438.118C2062.73 136.634 2632.04 -12.5319 3234.87 -9.38018C3238.47 -9.35998 3241.89 -10.2433 3244.72 -11.9203C3247.54 -13.5972 3249.65 -15.9938 3250.77 -18.8116C3254.42 -27.338 3253.23 -34.7316 3247.2 -40.9924C3243.42 -44.963 3237.86 -46.8312 3230.52 -46.597C3152.56 -44.9758 3050.48 -38.6171 2924.27 -27.5207C2425.14 16.0315 1957.55 163.549 1521.49 415.032Z" fill="white"/>
<path d="M1668.11 523.371C1681.1 521.069 1686.36 526.798 1683.88 540.558C2174.87 284.311 2692.41 156.925 3236.5 158.403C3240.31 158.42 3243.94 157.461 3246.81 155.672C3249.68 153.884 3251.64 151.366 3252.39 148.509C3253.45 144.485 3253.27 140.475 3251.84 136.479C3250.97 133.609 3249.02 131.113 3246.27 129.353C3243.52 127.594 3240.13 126.662 3236.57 126.693C2685.28 125.448 2162.46 257.674 1668.11 523.371Z" fill="white"/>
<path d="M1726.62 650.034C1732.51 656.296 1734.32 663.992 1732.07 673.12C2198.14 430.26 2689.39 305.63 3205.83 299.23C3209.56 299.19 3218.09 300.023 3231.41 301.729C3249.3 304.003 3256.22 297.447 3252.18 282.061C3251.36 278.943 3249.55 276.206 3247.01 274.269C3244.48 272.332 3241.36 271.301 3238.14 271.335C2707.05 267.865 2203.21 394.098 1726.62 650.034Z" fill="white"/>
<path d="M1521.49 415.028C710.453 879.987 123.932 1579.12 -238.074 2512.43C-236.24 2528.15 -229.273 2531.94 -217.173 2523.78C141.442 1597.14 722.812 901.917 1526.93 438.114C1539.27 425.944 1537.45 418.249 1521.49 415.028Z" fill="white"/>
<path d="M1749.16 811.803C1755.85 815.897 1761.11 821.626 1764.93 828.991C2230.67 580.888 2722.75 456.249 3241.18 455.074C3244.63 455.031 3247.92 453.947 3250.53 451.991C3253.14 450.035 3254.93 447.319 3255.61 444.27C3258.51 431.276 3250.13 424.733 3230.46 424.638C2708.29 425.7 2214.52 554.755 1749.16 811.803Z" fill="white"/>
<path d="M1668.11 523.375C885.564 946.515 310.637 1597.3 -56.6766 2475.74C-56.8987 2493.49 -51.3827 2497.6 -40.1287 2488.06C329.164 1613.3 903.832 964.138 1683.88 540.562C1686.36 526.802 1681.1 521.073 1668.11 523.375Z" fill="white"/>
<path d="M1730.53 1008.75C1741.39 1014.65 1741.76 1022.67 1731.62 1032.81C2201.8 760.432 2702.97 623.813 3235.11 622.951C3240.79 622.89 3245.62 621.371 3249.61 618.396C3266.51 606.022 3260.76 599.681 3232.36 599.373C2699.19 594.999 2198.58 731.458 1730.53 1008.75Z" fill="white"/>
<path d="M1726.62 650.035C895.903 1101.01 311.176 1805.91 -27.5588 2764.74C-27.6895 2778.17 -22.3909 2787.75 -11.663 2793.5C321.514 1833.04 902.757 1126.24 1732.07 673.121C1734.32 663.993 1732.51 656.298 1726.62 650.035Z" fill="white"/>
<path d="M2000.97 1040.51C2006.86 1046.78 2008.67 1054.47 2006.42 1063.6C2400.78 875.528 2813.08 782.079 3243.3 783.254C3246.84 783.295 3250.23 782.366 3253 780.595C3255.78 778.824 3257.79 776.298 3258.78 773.365C3263.08 761.282 3256.57 755.181 3239.26 755.061C2807.21 751.591 2394.44 846.743 2000.97 1040.51Z" fill="white"/>
<path d="M1749.16 811.808C1000.49 1229.33 463.522 1868.14 138.255 2728.22C140.034 2739 145.312 2746.66 154.087 2751.19C478.083 1888.81 1015.03 1248.08 1764.93 828.996C1761.11 821.631 1755.85 815.902 1749.16 811.808Z" fill="white"/>
<path d="M2085.58 1178.47C2092.27 1182.57 2097.53 1188.3 2101.35 1195.66C2464.93 1029.37 2843.75 946.394 3237.81 946.729C3244.19 946.813 3249.64 945.134 3254.17 941.69C3267.36 931.362 3265.68 924.051 3249.15 919.756C3244.85 918.569 3239.37 917.934 3232.72 917.852C2833.08 914.646 2450.7 1001.52 2085.58 1178.47Z" fill="white"/>
<path d="M1730.53 1008.74C1132.85 1364.29 681.1 1878.72 375.266 2552.04C373.485 2566.56 378.742 2572.29 391.036 2569.23C695.143 1902.72 1142.01 1390.58 1731.62 1032.8C1741.76 1022.66 1741.4 1014.64 1730.53 1008.74Z" fill="white"/>
<path d="M2000.97 1040.52C1292.75 1394.34 775.795 1963.49 450.119 2747.96C450.66 2759.53 455.917 2765.26 465.889 2765.15C789.955 1985.48 1303.46 1418.29 2006.42 1063.6C2008.67 1054.48 2006.86 1046.78 2000.97 1040.52Z" fill="white"/>
<path d="M2464.92 1193.54L2475.56 1216.57C2728.19 1139.6 2985.68 1101.69 3248.03 1102.84C3251.8 1102.87 3255.39 1102.17 3258.54 1100.77C3261.7 1099.37 3264.32 1097.32 3266.23 1094.77C3274.42 1083.73 3268.33 1077.93 3247.96 1077.38C2981.27 1071.34 2720.25 1110.06 2464.92 1193.54Z" fill="white"/>
<path d="M2085.58 1178.47C1459.49 1481.09 984.913 1966.84 661.855 2635.71C660.073 2650.08 665.61 2656.12 678.466 2653.82C1001.25 1985.1 1475.54 1499.05 2101.35 1195.66C2097.53 1188.29 2092.27 1182.56 2085.58 1178.47Z" fill="white"/>
<path d="M2464.91 1193.54C1747.39 1430.81 1201.74 1909 827.983 2628.12C826.203 2642.64 831.459 2648.37 843.753 2645.3C1216.02 1928.67 1759.95 1452.43 2475.55 1216.57L2464.91 1193.54Z" fill="white"/>
<path d="M968.779 2678.66C969.32 2690.23 974.577 2695.96 984.548 2695.85C1226.12 2239.26 1547.63 1886.18 1949.09 1636.62C2352.05 1386.11 2785.69 1262.26 3250.01 1265.07C3265.25 1265.22 3270.3 1258.84 3265.18 1245.93C3264.04 1242.98 3261.99 1240.46 3259.28 1238.68C3256.56 1236.9 3253.3 1235.94 3249.9 1235.91C3036.18 1235.62 2844.16 1257.08 2673.85 1300.28C1933.07 1488.43 1364.71 1947.89 968.779 2678.66Z" fill="white"/>
<path d="M2075.67 1699.35C2094.05 1695.44 2099.31 1701.17 2091.44 1716.53C2455.14 1510.28 2841.85 1407.93 3251.58 1409.48C3255.02 1409.49 3258.31 1408.46 3260.92 1406.54C3263.54 1404.63 3265.33 1401.94 3266.01 1398.91C3268.92 1385.92 3260.53 1379.37 3240.86 1379.28C2827.7 1380.23 2439.3 1486.92 2075.67 1699.35Z" fill="white"/>
<path d="M2134.34 1839.43C2145.06 1844.56 2147.15 1851.95 2140.6 1861.59C2486.82 1665.71 2854.95 1567.18 3244.98 1566.02C3251.63 1565.95 3257.02 1564.96 3261.15 1563.07C3270.8 1558.33 3272.26 1552.45 3265.53 1545.43C3263.41 1543.18 3260.61 1541.41 3257.31 1540.21C3254.01 1539.01 3250.28 1538.42 3246.34 1538.46C2852.4 1536.58 2481.73 1636.91 2134.34 1839.43Z" fill="white"/>
<path d="M2075.67 1699.35C1561.09 2002.61 1185.35 2450.63 948.444 3043.42L968.523 3055.7C1204.48 2465.08 1578.79 2018.69 2091.44 1716.53C2099.31 1701.17 2094.05 1695.44 2075.67 1699.35Z" fill="white"/>
<path d="M2219.05 1987.1C2226.43 1990.73 2230.24 1996.78 2230.47 2005.26C2554.03 1827.22 2896.98 1738.08 3259.32 1737.83C3262.58 1737.87 3265.72 1736.79 3268.12 1734.79C3270.52 1732.8 3272.01 1730.03 3272.29 1727.04C3273.17 1719.16 3269.53 1715.12 3261.35 1714.9C2896.82 1704.67 2549.39 1795.41 2219.05 1987.1Z" fill="white"/>
<path d="M2134.33 1839.44C1671.12 2115.6 1327.22 2518.29 1102.65 3047.53C1100.87 3062.06 1106.12 3067.79 1118.42 3064.72C1342.36 2540.58 1683.08 2139.54 2140.6 1861.59C2147.15 1851.95 2145.06 1844.57 2134.33 1839.44Z" fill="white"/>
<path d="M2174.58 2195.9C2181.96 2199.52 2185.76 2205.57 2186 2214.06C2510.17 2003.45 2860.76 1897.4 3237.77 1895.92C3244.42 1895.84 3250.16 1895.24 3254.99 1894.11C3279.58 1888.13 3279.36 1880.11 3254.32 1870.04C3249.31 1867.94 3243.75 1866.92 3237.66 1866.99C2854.69 1868.07 2500.33 1977.71 2174.58 2195.9Z" fill="white"/>
<path d="M2219.05 1987.11C1754.83 2259.73 1419.61 2664.88 1213.41 3202.55C1219.16 3208.97 1226.11 3210.83 1234.25 3208.11C1440.95 2678.3 1773.02 2277.35 2230.47 2005.27C2230.24 1996.78 2226.43 1990.73 2219.05 1987.11Z" fill="white"/>
<path d="M2351.91 2263.4L2363.33 2281.56C2642.56 2128.54 2938.35 2052.48 3250.7 2053.4C3257.49 2053.33 3263.36 2051.8 3268.31 2048.81C3284.42 2039.22 3282.32 2031.38 3262.03 2025.27C3256.89 2023.78 3250.79 2023 3243.72 2022.93C2928.2 2022.97 2630.93 2103.13 2351.91 2263.4Z" fill="white"/>
<path d="M2174.58 2195.9C1722.49 2501.41 1419.04 2936.77 1264.26 3501.97L1284.4 3520.03C1436.01 2955.95 1736.55 2520.62 2186 2214.06C2185.76 2205.58 2181.96 2199.53 2174.58 2195.9Z" fill="white"/>
<path d="M2390.1 2430.79C2400.94 2434.68 2402.76 2442.38 2395.54 2453.87C2665.14 2294.01 2953.43 2215.88 3260.41 2219.47C3263.64 2219.52 3266.76 2218.46 3269.21 2216.49C3271.66 2214.51 3273.29 2211.75 3273.8 2208.68C3276.13 2194.15 3268.79 2187.6 3251.77 2189.02C3235.3 2190.28 3226.86 2190.91 3226.44 2190.91C2928.65 2191.69 2649.87 2271.65 2390.1 2430.79Z" fill="white"/>
<path d="M2351.91 2263.4C1968.45 2486.23 1684.36 2815.6 1499.63 3251.51C1500.17 3263.08 1505.42 3268.81 1515.4 3268.7C1700.57 2835.71 1983.22 2506.67 2363.33 2281.56L2351.91 2263.4Z" fill="white"/>
<path d="M2521.01 2527.73C2528.39 2531.36 2532.19 2537.41 2532.43 2545.89C2763.12 2425.95 3005.93 2368.69 3260.85 2374.09C3264.83 2374.18 3268.6 2373.39 3271.59 2371.86C3274.57 2370.32 3276.61 2368.11 3277.38 2365.57C3278.45 2362.32 3278.14 2359.01 3276.44 2355.63C3275.34 2353.46 3273.47 2351.61 3271.01 2350.26C3268.55 2348.9 3265.6 2348.1 3262.43 2347.91C3000.96 2338.11 2753.82 2398.05 2521.01 2527.73Z" fill="white"/>
<path d="M2390.1 2430.79C2023.13 2654.05 1759.78 2981.27 1600.07 3412.43C1598.29 3426.96 1603.55 3432.69 1615.84 3429.62C1774.64 3003.71 2034.54 2678.46 2395.55 2453.87C2402.76 2442.38 2400.95 2434.68 2390.1 2430.79Z" fill="white"/>
<path d="M2248.6 2906.35C1918.22 3233.68 1749.37 3646.81 1742.07 4145.75C1741.73 4178.32 1747.11 4188.83 1758.2 4177.29C1760.34 4175.08 1762.05 4172.13 1763.23 4168.65C1764.41 4165.17 1765.03 4161.22 1765.05 4157.08C1766.76 3755.56 1877.59 3407.63 2097.52 3113.3C2389.26 2722.82 2771.61 2525.31 3244.58 2520.77C3251.09 2520.7 3256.9 2520.02 3262.01 2518.73C3287.14 2511.97 3286.92 2503.95 3261.33 2494.67C3256.18 2492.72 3250.56 2491.77 3244.47 2491.84C2856.67 2494.52 2524.71 2632.69 2248.6 2906.35Z" fill="white"/>
<path d="M2521.01 2527.73C2033.67 2801.99 1736.76 3239.44 1630.28 3840.07C1610.44 3951.53 1605.16 4063.85 1614.43 4177.01L1629.16 4175.92C1632.51 4165.54 1634.29 4144.31 1634.5 4112.21C1635.83 3802.97 1710.7 3510.83 1859.1 3235.79C2022.7 2932.5 2247.14 2702.53 2532.42 2545.89C2532.19 2537.41 2528.39 2531.35 2521.01 2527.73Z" fill="white"/>
<path d="M375.264 2552.04C143.784 3057.75 30.4599 3595.8 35.2909 4166.21C35.3699 4173.46 36.1323 4179.85 37.5777 4185.39C44.079 4210.01 51.1402 4209.78 58.762 4184.7C60.5036 4179.28 61.3366 4173.1 61.261 4166.16C60.5405 3604.35 170.465 3072.04 391.034 2569.23C378.74 2572.29 373.483 2566.57 375.264 2552.04Z" fill="white"/>
<path d="M827.984 2628.12C582.418 3099.57 461.91 3613.94 466.46 4171.23C466.564 4180.8 468.362 4186.87 471.853 4189.46C477.1 4188.01 482.294 4187.96 487.433 4189.29C491.469 4165.64 494.382 4115.15 496.171 4037.82C507.055 3549.49 622.916 3085.32 843.754 2645.31C831.46 2648.37 826.203 2642.64 827.984 2628.12Z" fill="white"/>
<path d="M661.856 2635.72C430.524 3116.89 318.677 3631.63 326.314 4179.94C326.392 4187.27 328.226 4193.79 331.502 4198.4L336.992 4206.44C340.467 4207.64 343.93 4207.6 347.379 4206.33C351.729 4135.3 355.319 4064.28 358.146 3993.27C377.087 3519.82 483.861 3073.33 678.467 2653.82C665.61 2656.12 660.073 2650.09 661.856 2635.72Z" fill="white"/>
<path d="M968.776 2678.66C734.953 3121.9 615.861 3607.32 611.5 4134.93C611.233 4161.32 613.452 4180.59 618.155 4192.73L632.073 4192.57C633.71 4190.24 635.068 4187.76 636.147 4185.12C637.367 4182.64 637.958 4179.7 637.921 4176.31C636.866 3647.37 752.408 3153.88 984.546 2695.85C974.574 2695.96 969.317 2690.23 968.776 2678.66Z" fill="white"/>
<path d="M1895.7 4173.02L1905.26 4173.84C1910.96 4162.82 1914.19 4141.26 1914.95 4109.16C1924.04 3710.65 2059.25 3370.17 2320.59 3087.72C2574.95 2812.92 2889.43 2679.18 3264.05 2686.52C3267.91 2686.6 3271.61 2685.65 3274.46 2683.83C3277.3 2682.01 3279.1 2679.45 3279.52 2676.63C3280.29 2671.37 3277.68 2666.77 3271.68 2662.82C3268.19 2660.55 3263.68 2659.36 3258.14 2659.27C2847.57 2657.11 2507.57 2819.51 2238.13 3146.49C2007.37 3426.59 1891.16 3763.39 1889.5 4156.88C1889.53 4160.28 1890.12 4163.2 1891.25 4165.66C1892.53 4168.11 1894.01 4170.57 1895.7 4173.02Z" fill="white"/>
<path d="M138.253 2728.22C-36.349 3191.18 -120.42 3674.6 -113.959 4178.49C-113.877 4186.05 -112.567 4191.82 -110.031 4195.8C-105.802 4202.55 -101.016 4203.26 -95.6714 4197.96C-93.6226 4195.92 -91.9798 4193 -90.8671 4189.42C-89.7545 4185.84 -89.201 4181.69 -89.2481 4177.29C-89.9162 3683.84 -8.80487 3208.47 154.086 2751.19C145.311 2746.66 140.033 2739 138.253 2728.22Z" fill="white"/>
<path d="M450.118 2747.96C263.445 3196.39 173.643 3668.69 180.712 4164.85C180.79 4171.95 181.482 4178.27 182.789 4183.81C188.756 4210.29 195.888 4210.13 204.184 4183.35C205.922 4177.62 206.755 4171.44 206.683 4164.8C204.97 3677.22 291.372 3210.67 465.887 2765.15C455.916 2765.26 450.659 2759.53 450.118 2747.96Z" fill="white"/>
<path d="M-27.5591 2764.74C-185.077 3219.34 -260.619 3691.02 -254.185 4179.78C-254.106 4187.03 -252.932 4193.04 -250.664 4197.8C-244.85 4210.23 -238.825 4210.24 -232.588 4197.83C-230.418 4193.64 -229.368 4188.31 -229.439 4181.83C-230.766 3704.12 -158.174 3241.34 -11.6633 2793.5C-22.3912 2787.75 -27.6898 2778.17 -27.5591 2764.74Z" fill="white"/>
<path d="M2035.1 4172.42L2049.84 4171.33C2056.72 3734.89 2204.24 3386.56 2492.42 3126.35C2701.18 2937.99 2950.91 2842.22 3241.61 2839.06C3245.48 2839.01 3252.07 2839.4 3261.36 2840.23C3281.32 2842.02 3287.22 2836.71 3279.05 2824.3C3277.29 2821.6 3274.77 2819.39 3271.72 2817.85C3268.67 2816.31 3265.17 2815.5 3261.5 2815.46C2887.21 2812.29 2581.98 2956.03 2345.8 3246.69C2146.11 3492.2 2040.64 3785.06 2029.39 4125.27C2028.65 4146.11 2030.55 4161.82 2035.1 4172.42Z" fill="white"/>
<path d="M2191.79 4175.58L2200.45 4169.7C2205.08 3819.07 2316.08 3531.94 2533.46 3308.3C2734.54 3101.35 2981.04 3002.07 3272.98 3010.46C3274.45 3010.49 3275.91 3010.2 3277.26 3009.62C3278.62 3009.04 3279.82 3008.19 3280.77 3007.13C3281.72 3006.06 3282.41 3004.82 3282.76 3003.49C3283.12 3002.16 3283.14 3000.79 3282.83 2999.47C3280.08 2988.85 3270.19 2983.56 3253.15 2983.59C3102.32 2984.31 2962.26 3013.38 2832.96 3070.8C2705.46 3127.28 2590.86 3211.69 2489.17 3324.06C2300.71 3532.1 2197.63 3796.7 2179.94 4117.84C2178.54 4142.08 2182.49 4161.33 2191.79 4175.58Z" fill="white"/>
<path d="M948.442 3043.42C808.431 3401.39 739.522 3776.32 741.715 4168.23C741.806 4176.42 744.103 4183.8 748.174 4188.99C760.815 4205.05 767.222 4195.65 767.396 4160.77C768.755 3777.01 835.796 3408.65 968.521 3055.7L948.442 3043.42Z" fill="white"/>
<path d="M1102.65 3047.53C953.146 3398.81 879.968 3769.63 883.114 4159.98C883.191 4167.24 884.991 4174.26 888.321 4180.29L893.411 4189.73L902.977 4190.55C909.176 4174.74 912.32 4145.47 912.408 4102.72C912.881 3752.14 981.551 3406.14 1118.42 3064.72C1106.12 3067.78 1100.87 3062.05 1102.65 3047.53Z" fill="white"/>
<path d="M2332.02 4174.04L2340.74 4173.95C2349.84 3776.06 2501.42 3481.69 2795.47 3290.85C2928.2 3204.85 3082.26 3164.05 3257.66 3168.47C3263.34 3168.56 3268.46 3167.58 3273 3165.53C3296.85 3154.77 3289.51 3148.68 3250.99 3147.25C3008.37 3138.63 2797.92 3223.55 2619.67 3402.02C2500.47 3521.51 2414.85 3672.2 2362.81 3854.07C2330.78 3965.67 2320.52 4072.33 2332.02 4174.04Z" fill="white"/>
<path d="M1213.42 3202.56C1092.41 3511.86 1034.3 3836.07 1039.11 4175.18C1039.15 4179.19 1042.27 4185.71 1048.46 4194.75C1053.99 4194.07 1058.89 4191.78 1063.14 4187.88C1062.76 3848.1 1119.8 3521.52 1234.25 3208.11C1226.11 3210.83 1219.17 3208.97 1213.42 3202.56Z" fill="white"/>
<path d="M1499.63 3251.51C1371.84 3549.32 1313.22 3864.04 1323.76 4195.68L1344.53 4195.46C1343.09 3872.51 1400.05 3563.6 1515.4 3268.7C1505.42 3268.81 1500.17 3263.08 1499.63 3251.51Z" fill="white"/>
<path d="M2461.79 4166.84C2465.85 4170.81 2470.51 4172.69 2475.77 4172.48C2479.06 4156.86 2482.45 4124.03 2485.92 4074C2493.57 3962.82 2520.69 3858.14 2567.26 3759.95C2611.81 3665.65 2672.34 3583.14 2748.85 3512.4C2895.58 3376.87 3071.4 3311.77 3276.32 3317.09C3277.84 3317.13 3279.35 3316.85 3280.75 3316.28C3282.15 3315.7 3283.41 3314.85 3284.43 3313.78C3285.44 3312.71 3286.2 3311.45 3286.65 3310.08C3287.09 3308.71 3287.21 3307.27 3287 3305.87C3285.64 3295.7 3278.88 3291.53 3266.71 3293.36C3256.76 3295.01 3249.84 3295.7 3245.96 3295.44C3164.2 3291.85 3090.33 3301.07 3024.36 3323.08C2750.7 3414.79 2572.1 3612.62 2488.57 3916.58C2466.18 3998.14 2457.26 4081.56 2461.79 4166.84Z" fill="white"/>
<path d="M1600.07 3412.44C1516.87 3632.45 1474.29 3861.98 1472.32 4101.02C1472.34 4102.41 1471 4113.76 1468.33 4135.08C1466.16 4152.24 1470.14 4168.32 1480.28 4183.33L1484.65 4184.21C1493.36 4156.65 1498.15 4119.64 1499.03 4073.18C1502.92 3858.97 1541.86 3644.45 1615.84 3429.62C1603.55 3432.69 1598.29 3426.96 1600.07 3412.44Z" fill="white"/>
<path d="M2607.27 4171.05L2621.19 4170.89C2625.95 3895.72 2730.04 3692.53 2933.47 3561.31C3033.05 3497.27 3146.61 3470.19 3274.15 3480.06C3277.59 3480.28 3280.93 3479.4 3283.55 3477.58C3286.17 3475.76 3287.89 3473.13 3288.37 3470.19C3290.32 3458.44 3282.02 3452.43 3263.45 3452.17C3097.63 3449.35 2954.09 3502.68 2832.84 3612.17C2702.67 3729.78 2626.47 3886.69 2604.23 4082.9C2599.94 4120.75 2600.95 4150.13 2607.27 4171.05Z" fill="white"/>
<path d="M1264.26 3501.96C1214.23 3677.8 1187.01 3880.93 1182.6 4111.35C1181.91 4149.93 1184.19 4174.98 1189.44 4186.5L1198.17 4186.4C1204.45 4165.5 1207.77 4126.89 1208.12 4070.57C1209.08 3903.91 1234.5 3720.4 1284.4 3520.03L1264.26 3501.96Z" fill="white"/>
<path d="M2894.38 3787.41C2995.5 3674.44 3122.66 3624.06 3275.85 3636.28C3279.81 3636.57 3283.61 3635.9 3286.6 3634.38C3289.59 3632.87 3291.56 3630.61 3292.17 3628C3292.83 3625.22 3292.39 3622.44 3290.84 3619.68C3289.84 3617.97 3288.26 3616.48 3286.22 3615.33C3284.19 3614.19 3281.76 3613.42 3279.13 3613.1C3158.74 3598.05 3049.45 3629.26 2951.26 3706.71C2818.73 3811.07 2748.82 3954.41 2741.53 4136.72C2741.19 4143.82 2741.95 4150.14 2743.81 4155.68C2750.13 4175.98 2756.98 4175.67 2764.37 4154.76C2766.26 4149.8 2767.23 4143.85 2767.29 4136.9C2769.91 3995.84 2812.27 3879.34 2894.38 3787.41Z" fill="white"/>
<path d="M2892.85 4162.15C2897.9 4167.5 2902.54 4167.45 2906.77 4162C2911.07 4073.54 2935.65 3996.74 2980.51 3931.59C3014.6 3882 3056.31 3846.13 3105.66 3823.99C3156.38 3801.22 3210.8 3793.61 3268.92 3801.15C3298.19 3804.84 3305.32 3798.9 3290.33 3783.33C3285.88 3778.6 3279.41 3775.78 3272.17 3775.43C3063.61 3765.51 2936.66 3873.21 2891.33 4098.52C2887.91 4115.84 2888.42 4137.05 2892.85 4162.15Z" fill="white"/>
<path d="M3037.49 4165.44C3043.05 4166.76 3047.95 4165.09 3052.19 4160.41C3067.87 4010.57 3143.07 3945.71 3277.78 3965.85C3283.05 3966.56 3287.62 3966.28 3291.48 3965.01C3303.21 3960.87 3302.87 3954.93 3290.46 3947.19C3286.83 3944.92 3282.59 3943.27 3277.73 3942.24C3186.5 3920.86 3115.01 3951.58 3063.28 4034.38C3038.37 4074.16 3029.77 4117.84 3037.49 4165.44Z" fill="white"/>
<path d="M4133.15 -51.7285C4125.83 -49.1799 4118.91 -49.1045 4112.37 -51.5021C4111.47 170.859 4050.85 359.151 3930.5 513.377C3857.01 607.84 3770.11 678.686 3669.79 725.916C3568.09 773.933 3459.04 795.721 3342.65 791.281C3318.26 790.312 3309.25 796.197 3315.62 808.934C3317.03 811.803 3319.32 814.236 3322.25 815.99C3325.19 817.745 3328.67 818.761 3332.35 818.936C3565.88 831.821 3762.75 746.969 3922.95 564.38C4071.26 395.499 4141.32 190.13 4133.15 -51.7285Z" fill="white"/>
<path d="M4974.56 -55.1108L4954.73 -44.248C4950.23 229.38 4897.67 490.34 4797.05 738.63C4806.02 735.909 4812.97 737.762 4817.89 744.189C4928.73 492.856 4980.95 226.423 4974.56 -55.1108Z" fill="white"/>
<path d="M4819.64 -48.5672C4818.8 217.306 4767.69 465.366 4666.32 695.611C4606.03 832.672 4527.42 958.822 4430.47 1074.06C4144.41 1413.72 3778.1 1583.58 3331.55 1583.67C3328.05 1583.65 3324.69 1584.72 3322.14 1586.67C3319.59 1588.63 3318.02 1591.32 3317.74 1594.23C3316.74 1603.96 3324.48 1608.97 3340.97 1609.25C3688 1615.19 3997.01 1500.57 4268.01 1265.4C4637.38 944.74 4830.06 520.158 4846.05 -8.3504C4846.59 -22.5521 4844.15 -36.0272 4838.75 -48.7755C4832.31 -55.6489 4825.94 -55.5794 4819.64 -48.5672Z" fill="white"/>
<path d="M3852.76 -42.8922C3847.62 -44.2249 3842.43 -44.1683 3837.18 -42.7224C3833.45 -15.8331 3830.08 11.052 3827.05 37.9338C3823.65 69.1401 3818.74 95.5024 3812.32 117.02C3739.81 364.233 3582.06 486.077 3339.07 482.553C3316.21 482.185 3307.83 488.371 3313.93 501.111C3315.24 503.85 3317.43 506.213 3320.29 507.967C3323.15 509.721 3326.58 510.806 3330.24 511.118C3419.52 518.014 3500.72 502.317 3573.85 464.024C3762.54 365.374 3855.5 196.402 3852.76 -42.8922Z" fill="white"/>
<path d="M3551.54 -39.6065C3534.56 105.469 3457.68 169.185 3320.92 151.542C3299.28 148.846 3296.31 155.899 3312.01 172.702C3324.07 185.84 3342.42 192.198 3367.07 191.775C3460.41 190.141 3524.34 140.144 3558.86 41.7855C3568.81 13.594 3570.12 -11.9575 3562.81 -34.869C3561.36 -40.4081 3557.6 -41.9872 3551.54 -39.6065Z" fill="white"/>
<path d="M6529.18 1443.05C6538.15 1440.33 6545.1 1442.18 6550.02 1448.61C6730.19 975.868 6819.48 481.588 6817.87 -34.2302C6817.79 -67.4045 6810.01 -76.2693 6794.52 -60.8246C6792.26 -58.5577 6790.47 -55.6425 6789.25 -52.2755C6788.03 -48.9084 6787.42 -45.1679 6787.46 -41.3055C6789.05 473.124 6702.96 967.91 6529.18 1443.05Z" fill="white"/>
<path d="M6398 1397.26L6413.72 1410.52C6595.09 945.475 6681.55 458.71 6673.1 -49.7809C6673.04 -55.6437 6671.81 -60.3369 6669.41 -63.8598C6664.63 -70.9056 6659.85 -70.5448 6655.09 -62.7777C6653.19 -59.5166 6652.26 -55.3402 6652.32 -50.2488C6650.3 450.95 6565.53 933.454 6398 1397.26Z" fill="white"/>
<path d="M6137.52 1250.58C6145.98 1251.1 6152.94 1254.89 6158.42 1261.92C6313.58 844.85 6389.52 409.813 6386.24 -43.185C6386.17 -50.2821 6384.58 -55.9738 6381.49 -60.2606C6374.6 -69.4437 6368.8 -67.9919 6364.08 -55.9049C6362.33 -51.5653 6361.42 -46.0778 6361.35 -39.442C6359.99 406.972 6285.37 836.979 6137.52 1250.58Z" fill="white"/>
<path d="M5991.01 1228.1L6007.56 1240.42C6166.17 835.807 6244.38 411.933 6242.19 -31.2013C6242.1 -38.9156 6241.41 -45.312 6240.11 -50.3898C6235.63 -67.0058 6229.04 -68.2451 6220.33 -54.1086C6217.47 -49.6026 6216.01 -44.0318 6215.94 -37.396C6214.77 401.301 6139.79 823.134 5991.01 1228.1Z" fill="white"/>
<path d="M6095.58 -62.4633C6092.84 -59.9646 6089.67 -58.3101 6086.08 -57.4994C6080.21 -49.2574 6077.24 -42.667 6077.15 -37.7284C6076.53 400.191 5997.85 819.133 5841.12 1219.1C5850.09 1216.38 5857.04 1218.23 5861.95 1224.66C6023.07 833.285 6103.08 415.795 6101.99 -27.8149C6101.95 -44.0163 6099.81 -55.5658 6095.58 -62.4633Z" fill="white"/>
<path d="M3836.77 2779.18C3852.17 2781.33 3855.71 2789 3847.41 2802.21C3870.25 2801.04 3892.79 2797.55 3915.03 2791.75C4638.23 2605.5 5193.04 2167.56 5579.45 1477.93C5835.15 1021.65 5960.82 516.323 5956.44 -38.0404C5956.39 -42.4063 5955.68 -46.5085 5954.37 -49.9438C5953.05 -53.379 5951.19 -56.0284 5948.95 -57.632C5942.53 -62.3454 5937.24 -58.6622 5933.08 -46.5812C5931.33 -41.6245 5930.5 -35.4429 5930.58 -28.0372C5931.33 218.84 5907.45 448.857 5858.94 662.016C5704.4 1339.08 5378.7 1879.76 4881.83 2284.05C4574.71 2533.97 4226.36 2699.02 3836.77 2779.18Z" fill="white"/>
<path d="M5222.58 1179.54C5230.46 1178.22 5237.13 1180.39 5242.6 1186.04C5440.46 810.931 5538.18 404.513 5535.76 -33.2192C5535.72 -37.5355 5534.99 -41.6113 5533.64 -45.074C5532.3 -48.5366 5530.38 -51.2752 5528.07 -53.0401C5521.23 -58.0575 5515.93 -54.4511 5512.19 -42.2203C5510.58 -37.4194 5509.75 -31.1611 5509.69 -23.4453C5507.73 406.31 5412.02 807.307 5222.58 1179.54Z" fill="white"/>
<path d="M4053.92 2096.34C4446.68 1939.3 4765.82 1673.51 5011.34 1298.96C5269.11 905.612 5397.2 463.604 5395.59 -27.0623C5395.5 -35.0851 5393.84 -41.5483 5390.6 -46.4507C5383.14 -57.1707 5376.95 -53.5537 5372.02 -35.6008C5370.42 -30.0284 5369.59 -23.1533 5369.54 -14.9747C5356.14 737.862 5087.81 1331.77 4564.55 1766.74C4213.42 2058.81 3805.91 2203.66 3342.01 2201.31C3340.38 2201.31 3338.76 2201.61 3337.26 2202.18C3335.75 2202.76 3334.4 2203.6 3333.28 2204.66C3332.16 2205.71 3331.3 2206.96 3330.75 2208.32C3330.2 2209.68 3329.97 2211.12 3330.08 2212.55C3330.91 2224.42 3341.98 2230.17 3363.31 2229.78C3614.09 2224.73 3844.3 2180.25 4053.92 2096.34Z" fill="white"/>
<path d="M5099.25 -52.5375L5089.7 -51.5075C5088.06 -49.1751 5086.71 -46.6913 5085.63 -44.0564C5084.41 -41.5742 5083.82 -38.7133 5083.85 -35.4733C5085.62 215.559 5045.25 457.56 4962.74 690.531C4971.19 691.056 4978.16 694.838 4983.64 701.876C5064.41 487.286 5106.58 251.514 5110.15 -5.43938C5110.45 -28.8967 5106.81 -44.5962 5099.25 -52.5375Z" fill="white"/>
<path d="M4044.65 1245.84C4465.62 956.567 4683.96 535.178 4699.67 -18.3246C4700.35 -44.4093 4694.24 -52.5207 4681.33 -42.6589C4678.92 -40.8392 4676.94 -38.1683 4675.56 -34.8827C4674.18 -31.5972 4673.45 -27.7988 4673.43 -23.8251C4665.58 412.013 4523.69 769.922 4247.79 1049.9C4000.92 1300.25 3700.8 1423.65 3347.42 1420.09C3340.91 1420.01 3335.31 1420.76 3330.61 1422.36C3312.12 1428.73 3312.35 1436.44 3331.28 1445.49C3336.15 1447.76 3341.64 1448.93 3347.73 1449.02C3610.11 1452.64 3842.42 1384.91 4044.65 1245.84Z" fill="white"/>
<path d="M4553.11 -45.6555L4539.19 -45.5038C4530.06 388.033 4376.05 738.514 4077.15 1005.94C4090 1003.64 4095.54 1009.67 4093.76 1024.04C4389.44 766.22 4544.71 423.132 4559.57 -5.22139C4560.21 -23.1275 4558.05 -36.6055 4553.11 -45.6555Z" fill="white"/>
<path d="M3894.68 944.274C3900.57 950.536 3902.39 958.231 3900.13 967.36C4224.35 748.574 4394.73 424.995 4411.25 -3.37677C4412.53 -38.5718 4406.66 -49.5411 4393.65 -36.2835C4391.44 -34.061 4389.64 -31.1198 4388.36 -27.6424C4387.08 -24.165 4386.33 -20.2246 4386.18 -16.065C4371.34 401.487 4207.51 721.6 3894.68 944.274Z" fill="white"/>
<path d="M4267.46 -42.5449C4260.39 -43.7022 4254.04 -41.7042 4248.41 -36.5509C4246.25 107.9 4220.3 243.431 4170.57 370.038C4121.11 495.871 4049.79 605.2 3956.61 698.025C3789.17 864.646 3583.27 947.128 3338.92 945.47C3314.68 945.271 3307.55 951.753 3317.53 964.914C3319.44 967.494 3322.04 969.584 3325.15 971.032C3328.26 972.48 3331.79 973.249 3335.49 973.282C3630.16 979.021 3871.2 861.515 4058.62 620.766C4203.82 434.482 4273.44 213.379 4267.46 -42.5449Z" fill="white"/>
<path d="M3823.44 450.202C3935.47 321.064 3993.34 165.975 3997.04 -15.0629C3997.12 -19.4057 3996.6 -23.5187 3995.52 -27.1078C3994.44 -30.6969 3992.83 -33.6734 3990.79 -35.8255C3984.07 -42.8502 3977.86 -40.6997 3972.16 -29.3735C3969.86 -24.565 3968.61 -18.3788 3968.42 -10.8159C3967.12 86.1007 3949.99 172.774 3917.03 249.205C3801.24 516.639 3606.02 645.296 3331.39 635.173C3327.61 634.999 3324.02 635.536 3320.92 636.738C3317.82 637.94 3315.31 639.772 3313.59 642.079C3307.72 649.703 3309.53 656.473 3319.01 662.388C3323.19 665.12 3328.68 666.603 3335.47 666.838C3528.23 675.075 3690.88 602.863 3823.44 450.202Z" fill="white"/>
<path d="M3706.56 -36.4325L3697 -37.2542L3692.05 -33.7286C3690.84 -32.8445 3689.78 -31.3649 3688.97 -29.4196C3688.16 -27.4742 3687.62 -25.1219 3687.39 -22.5678C3666.18 204.18 3552.81 318.52 3347.28 320.451C3342.43 320.504 3335.98 319.726 3327.93 318.117C3310.02 314.3 3304.47 319.683 3311.28 334.268C3312.71 337.222 3314.93 339.735 3317.71 341.568C3320.5 343.401 3323.76 344.493 3327.18 344.742C3546.03 357.324 3674.22 243.286 3711.77 2.62674C3714.22 -13.6018 3712.49 -26.6216 3706.56 -36.4325Z" fill="white"/>
<path d="M6278.12 1283.77C6288.86 1290.44 6292.45 1301.97 6288.89 1318.37C6451.9 884.699 6531.94 431.949 6529.02 -39.8778C6528.96 -44.3901 6528.33 -48.5957 6527.17 -52.1318C6526.01 -55.6679 6524.36 -58.4282 6522.35 -60.1733C6517.74 -64.1349 6512.97 -63.5427 6508.04 -58.3969C6506.05 -56.3362 6504.46 -53.4322 6503.38 -49.8969C6502.31 -46.3617 6501.77 -42.2841 6501.82 -37.961C6502.23 418.926 6427.66 859.503 6278.12 1283.77Z" fill="white"/>
<path d="M5549.9 1187.55C5558.87 1184.82 5565.82 1186.68 5570.74 1193.1C5747.71 807.887 5833 398.054 5826.6 -36.3937C5826.56 -40.5881 5825.67 -44.5624 5824.06 -47.7177C5822.45 -50.873 5820.22 -53.0385 5817.69 -53.8873C5812.4 -55.6814 5808.06 -53.4739 5804.67 -47.2648C5802.77 -43.8494 5801.85 -39.1328 5801.91 -33.1156C5802.44 396.15 5718.43 803.037 5549.9 1187.55Z" fill="white"/>
<path d="M5685.36 -52.2122L5670.6 -52.9774C5666.78 -34.8823 5663.8 9.82108 5661.67 81.1324C5646.14 587.57 5502.72 1052.51 5231.42 1475.94C4940.11 1930.91 4544.88 2243.67 4045.75 2414.21C4042.02 2427.68 4045.57 2435.36 4056.39 2437.24C4591.64 2251.03 5012.04 1897.26 5317.59 1375.94C5568.89 947.322 5693.11 475.189 5690.26 -40.4613C5690.25 -41.6955 5689.25 -44.3077 5687.27 -48.298L5685.36 -52.2122Z" fill="white"/>
<path d="M5259.61 -36.0012L5230.11 -35.6797C5232.62 283.238 5173.6 586.701 5053.04 874.71C5063.02 874.601 5068.27 880.33 5068.81 891.897C5198.75 600.391 5262.34 291.092 5259.61 -36.0012Z" fill="white"/>
<path d="M4962.74 690.535C4782.95 1173.46 4478.27 1520.41 4048.7 1731.4C4040.83 1746.76 4046.09 1752.49 4064.47 1748.58C4495.97 1536.03 4802.36 1187.13 4983.64 701.88C4978.16 694.842 4971.2 691.061 4962.74 690.535Z" fill="white"/>
<path d="M4797.05 738.628C4639.72 1096.17 4401.72 1365.24 4083.03 1545.85C4075.42 1559.51 4077.24 1567.21 4088.48 1568.94C4416.29 1386.99 4659.42 1112.08 4817.89 744.187C4812.97 737.76 4806.02 735.907 4797.05 738.628Z" fill="white"/>
<path d="M5053.05 874.709C4811.82 1413.85 4432.85 1775.11 3916.12 1958.5C3913.88 1968.56 3915.69 1976.25 3921.57 1981.59C4443.15 1798.76 4825.56 1435.53 5068.82 891.897C5068.27 880.33 5063.02 874.601 5053.05 874.709Z" fill="white"/>
<path d="M3894.68 944.278C3726.03 1050.73 3544.25 1103.25 3349.35 1101.82C3342.57 1101.74 3336.69 1102.27 3331.71 1103.4C3308.64 1108.59 3307.41 1116.48 3328.02 1127.05C3332.76 1129.47 3338.1 1130.72 3344.06 1130.81C3543.4 1132.81 3728.75 1078.32 3900.13 967.364C3902.38 958.236 3900.57 950.54 3894.68 944.278Z" fill="white"/>
<path d="M4077.15 1005.93C3857.24 1187.63 3614.05 1273.53 3347.58 1263.62C3327.08 1262.92 3317.72 1268.66 3319.52 1280.83C3320.04 1283.78 3321.73 1286.47 3324.32 1288.46C3326.91 1290.45 3330.24 1291.62 3333.76 1291.78C3616.14 1300.74 3869.48 1211.49 4093.76 1024.04C4095.54 1009.67 4090 1003.63 4077.15 1005.93Z" fill="white"/>
<path d="M5222.58 1179.54C4955.67 1675.14 4578 2022.58 4089.57 2221.86C4088.04 2234.38 4091.85 2240.43 4100.99 2240.02C4595.8 2041.29 4976.33 1689.96 5242.6 1186.04C5237.13 1180.39 5230.46 1178.22 5222.58 1179.54Z" fill="white"/>
<path d="M5549.9 1187.55C5226.89 1886.51 4726.1 2349.4 4047.51 2576.21C4042.48 2584.14 4040.84 2593.18 4042.62 2603.35C4734.21 2375.93 5243.59 1905.85 5570.74 1193.1C5565.82 1186.68 5558.87 1184.82 5549.9 1187.55Z" fill="white"/>
<path d="M5841.11 1219.09C5566.57 1878.33 5136.79 2369.07 4551.77 2691.3C4556.17 2700.82 4563.41 2704.91 4573.51 2703.56C5160.04 2380.39 5589.52 1887.42 5861.95 1224.65C5857.03 1218.22 5850.09 1216.37 5841.11 1219.09Z" fill="white"/>
<path d="M5991.01 1228.11C5683.72 1997.11 5184.2 2550.95 4492.43 2889.62L4503.05 2910.8C5198.54 2570.7 5700.04 2013.91 6007.56 1240.43L5991.01 1228.11Z" fill="white"/>
<path d="M6137.52 1250.58C5816.96 2084.84 5283.01 2683.11 4535.68 3045.38C4533.2 3059.14 4538.46 3064.87 4551.45 3062.56C5300.15 2698.43 5835.8 2098.22 6158.42 1261.93C6152.94 1254.89 6145.98 1251.11 6137.52 1250.58Z" fill="white"/>
<path d="M6278.13 1283.76C5943.91 2174.19 5378.94 2811.06 4583.22 3194.38C4581.7 3206.89 4585.5 3212.94 4594.64 3212.54C5034.82 3009.15 5416.28 2704.26 5739.01 2297.85C5976.35 1999.16 6159.64 1672.66 6288.89 1318.36C6292.45 1301.97 6288.86 1290.44 6278.13 1283.76Z" fill="white"/>
<path d="M6398 1397.26C6054.89 2272.66 5493.95 2910.11 4715.16 3309.6C4707.3 3324.96 4712.55 3330.69 4730.93 3326.78C5511.66 2927.43 6072.59 2288.67 6413.72 1410.52L6398 1397.26Z" fill="white"/>
<path d="M6529.18 1443.05C6165.88 2384.4 5563.26 3062.19 4721.34 3476.41C4721.86 3485.35 4725.66 3491.4 4732.76 3494.57C5580.77 3079.51 6186.52 2397.52 6550.02 1448.61C6545.1 1442.18 6538.15 1440.33 6529.18 1443.05Z" fill="white"/>
<path d="M4083.03 1545.85C3852.66 1670.73 3608.8 1733.1 3351.45 1732.97C3316.96 1732.89 3309.9 1739.06 3330.25 1751.49C3334.58 1754.22 3339.65 1755.71 3345.47 1755.95C3608.31 1764.2 3855.98 1701.86 4088.48 1568.94C4077.24 1567.21 4075.42 1559.52 4083.03 1545.85Z" fill="white"/>
<path d="M6779.92 1573.4C6651.92 1915.19 6490.12 2225.1 6294.53 2503.12C5864.33 3114.07 5319.01 3558.62 4658.58 3836.77C4660.76 3846.47 4666.02 3852.2 4674.35 3853.96C5063.75 3693.4 5418.49 3466.11 5738.57 3172.07C6205.66 2742.95 6558.05 2217.72 6795.75 1596.37C6799.17 1579.83 6793.89 1572.17 6779.92 1573.4Z" fill="white"/>
<path d="M6613.79 1581C6228.84 2518.42 5612.35 3194.43 4764.34 3609.03L4776.58 3626.25C5630.69 3211.59 6250.04 2531.7 6634.63 1586.56C6629.71 1580.14 6622.76 1578.28 6613.79 1581Z" fill="white"/>
<path d="M4048.7 1731.4C3824.42 1830.9 3591.26 1883.12 3349.2 1888.08C3311.11 1888.8 3307.17 1895.71 3337.37 1908.81C3341.82 1910.76 3346.55 1911.79 3351.53 1911.89C3600.18 1914.12 3837.83 1859.68 4064.47 1748.58C4046.09 1752.49 4040.83 1746.76 4048.7 1731.4Z" fill="white"/>
<path d="M3916.12 1958.5C3731.29 2016.53 3542.88 2045.35 3350.9 2044.98C3343.62 2044.91 3336.95 2047.01 3331.86 2050.97C3310.01 2067.72 3319.94 2076.18 3361.63 2076.34C3553.07 2077.49 3739.71 2045.91 3921.57 1981.59C3915.69 1976.25 3913.88 1968.56 3916.12 1958.5Z" fill="white"/>
<path d="M4089.57 2221.86C3849.65 2309.5 3603.31 2353.23 3350.52 2353.05C3343.06 2352.98 3336.37 2355.54 3331.9 2360.2C3318.07 2375.01 3327.37 2382.7 3359.79 2383.27C3615.53 2387.89 3862.59 2340.14 4100.99 2240.02C4091.85 2240.43 4088.04 2234.38 4089.57 2221.86Z" fill="white"/>
<path d="M4045.75 2414.22C3826.31 2486.66 3602.05 2523.52 3372.96 2524.78C3371.16 2524.8 3363.47 2524.11 3349.88 2522.72C3335.32 2521.02 3327.96 2526.27 3327.82 2538.46C3327.77 2541.48 3328.95 2544.42 3331.1 2546.65C3333.26 2548.87 3336.23 2550.21 3339.38 2550.37C3584.64 2559.74 3823.65 2522.03 4056.39 2437.25C4045.56 2435.36 4042.02 2427.68 4045.75 2414.22Z" fill="white"/>
<path d="M4047.51 2576.21C3822.22 2645.17 3592.66 2678.77 3358.83 2677C3351.63 2676.92 3345.28 2678.69 3339.77 2682.29C3317.09 2697.51 3324.93 2705.45 3363.3 2706.11C3594.8 2710.07 3821.23 2675.81 4042.62 2603.35C4040.84 2593.18 4042.48 2584.14 4047.51 2576.21Z" fill="white"/>
<path d="M4551.77 2691.31C4170.38 2888.19 3768.79 2985.69 3347.01 2983.8C3343.64 2983.76 3340.4 2984.78 3337.82 2986.7C3335.24 2988.62 3333.47 2991.33 3332.79 2994.37C3329.09 3010.92 3338.67 3019.15 3361.52 3019.06C3788.25 3016.57 4192.24 2911.4 4573.51 2703.57C4563.41 2704.91 4556.17 2700.83 4551.77 2691.31Z" fill="white"/>
<path d="M3836.77 2779.18C3675.72 2808.25 3513.54 2822.44 3350.23 2821.75C3346.68 2821.72 3343.27 2822.46 3340.26 2823.89C3337.25 2825.33 3334.72 2827.43 3332.87 2830.04C3321.54 2845.9 3328.77 2854.16 3354.54 2854.8C3510.26 2858.51 3674.55 2840.98 3847.41 2802.21C3855.71 2789.01 3852.16 2781.33 3836.77 2779.18Z" fill="white"/>
<path d="M4492.43 2889.62C4130.51 3055.43 3753.42 3138.31 3361.16 3138.26C3355.06 3138.33 3349.68 3139.7 3345 3142.37C3321.19 3156.37 3327.22 3163.63 3363.1 3164.17C3760.28 3170.33 4140.26 3085.87 4503.05 2910.8L4492.43 2889.62Z" fill="white"/>
<path d="M4535.68 3045.38C4155.65 3214.32 3760.51 3299.79 3350.27 3301.79C3346.91 3301.83 3343.71 3302.95 3341.17 3304.95C3338.62 3306.95 3336.9 3309.72 3336.26 3312.82C3333.36 3326.59 3340.63 3332.68 3358.07 3331.1C3372.32 3329.86 3380.41 3329.24 3382.35 3329.21C3789.02 3329.1 4178.72 3240.22 4551.45 3062.57C4538.46 3064.87 4533.2 3059.14 4535.68 3045.38Z" fill="white"/>
<path d="M4583.22 3194.38C4188.58 3370.26 3778.17 3458.21 3351.97 3458.23C3347.96 3458.2 3344.17 3459.04 3341.18 3460.62C3338.2 3462.2 3336.18 3464.43 3335.44 3466.97C3334.37 3470.23 3334.68 3473.54 3336.38 3476.92C3337.47 3479.08 3339.32 3480.92 3341.75 3482.24C3344.17 3483.55 3347.08 3484.3 3350.18 3484.4C3783.25 3492.65 4198.07 3402.02 4594.64 3212.54C4585.5 3212.95 4581.69 3206.89 4583.22 3194.38Z" fill="white"/>
<path d="M4715.16 3309.59C4280.98 3517.54 3826.84 3622.48 3352.74 3624.41C3351.06 3624.41 3349.39 3624.72 3347.84 3625.32C3346.29 3625.91 3344.89 3626.77 3343.74 3627.84C3342.58 3628.92 3341.68 3630.19 3341.11 3631.57C3340.54 3632.96 3340.3 3634.42 3340.4 3635.88C3341.22 3647.6 3352.3 3653.34 3373.63 3653.11C3858.76 3646.9 4311.19 3538.12 4730.93 3326.78C4712.55 3330.68 4707.3 3324.96 4715.16 3309.59Z" fill="white"/>
<path d="M4721.34 3476.41C4284.45 3676.67 3829.22 3776.68 3355.65 3776.44C3351.58 3776.41 3347.75 3777.25 3344.73 3778.83C3341.7 3780.41 3339.66 3782.64 3338.92 3785.19C3337.84 3788.44 3338.16 3791.75 3339.85 3795.13C3340.95 3797.29 3342.83 3799.12 3345.29 3800.43C3347.75 3801.75 3350.71 3802.5 3353.86 3802.61C3834.3 3810.65 4293.93 3707.97 4732.76 3494.57C4725.66 3491.4 4721.86 3485.35 4721.34 3476.41Z" fill="white"/>
<path d="M4764.34 3609.02C4305.24 3817.55 3839.17 3921 3366.14 3919.36C3349.79 3919.23 3341.73 3923.41 3341.97 3931.9C3342.13 3934.83 3343.65 3937.6 3346.22 3939.63C3348.79 3941.67 3352.21 3942.82 3355.8 3942.85C3850.79 3951.66 4324.38 3846.12 4776.58 3626.25L4764.34 3609.02Z" fill="white"/>
</g>
<defs>
<clipPath id="clip0_38_21">
<rect width="4171.13" height="6541.67" fill="white" transform="matrix(-0.000504151 1 1 0.000504151 2.10254 0)"/>
</clipPath>
</defs>
</svg>
