<svg width="6544" height="4175" viewBox="0 0 6544 4175" fill="none" xmlns="http://www.w3.org/2000/svg">
<g clip-path="url(#clip0_38_21)">
<rect width="4171.13" height="6541.67" transform="matrix(-0.000504151 1 1 0.000504151 2.10254 0)" fill="#E5DED4"/>
<path d="M811.308 2516.87C666.498 2884.61 589.293 3269.47 579.694 3671.47C579.695 3672.04 578.329 3685.48 575.596 3711.8C573.874 3727.86 575.323 3743.98 579.941 3760.15L594.665 3760.82C599.158 3754.66 601.402 3749.82 601.399 3746.29C600.953 3321.52 676.039 2914.56 826.654 2525.4C817.663 2531.33 812.547 2528.49 811.308 2516.87Z" fill="white"/>
<path d="M2173.83 1011.95C2184.82 1014.17 2186.07 1019.47 2177.58 1027.85C2546.58 820.216 2938.67 717.485 3353.84 719.655C3356.32 719.669 3358.67 719.061 3360.62 717.906C3362.57 716.751 3364.02 715.1 3364.79 713.16C3367.3 707.288 3366.48 702.196 3362.33 697.884C3359.73 695.149 3355.9 693.863 3350.84 694.024C3297.15 695.14 3226.85 699.52 3139.93 707.162C2796.18 737.156 2474.14 838.753 2173.83 1011.95Z" fill="white"/>
<path d="M2274.8 1086.56C2283.75 1084.98 2287.37 1088.92 2285.66 1098.4C2623.81 921.922 2980.25 834.191 3354.96 835.208C3357.59 835.221 3360.08 834.56 3362.06 833.328C3364.04 832.096 3365.39 830.362 3365.9 828.394C3366.64 825.623 3366.51 822.861 3365.53 820.109C3364.93 818.133 3363.58 816.414 3361.69 815.202C3359.8 813.99 3357.46 813.348 3355.01 813.369C2975.34 812.512 2615.27 903.577 2274.8 1086.56Z" fill="white"/>
<path d="M2315.1 1173.8C2319.15 1178.11 2320.4 1183.41 2318.85 1189.7C2639.84 1022.44 2978.17 936.604 3333.84 932.197C3336.41 932.169 3342.28 932.742 3351.46 933.917C3363.78 935.483 3368.55 930.968 3365.76 920.372C3365.2 918.224 3363.95 916.339 3362.2 915.005C3360.46 913.671 3358.31 912.962 3356.09 912.985C2990.33 910.595 2643.33 997.532 2315.1 1173.8Z" fill="white"/>
<path d="M2173.82 1011.95C1615.26 1332.17 1211.32 1813.66 962.006 2456.44C963.269 2467.27 968.067 2469.87 976.4 2464.26C1223.38 1826.07 1623.77 1347.27 2177.58 1027.85C2186.07 1019.47 2184.82 1014.17 2173.82 1011.95Z" fill="white"/>
<path d="M2330.62 1285.21C2335.23 1288.03 2338.85 1291.97 2341.48 1297.05C2662.24 1126.18 3001.14 1040.34 3358.19 1039.53C3360.56 1039.5 3362.83 1038.75 3364.62 1037.4C3366.42 1036.06 3367.65 1034.19 3368.12 1032.09C3370.12 1023.14 3364.35 1018.63 3350.8 1018.57C2991.18 1019.3 2651.12 1108.18 2330.62 1285.21Z" fill="white"/>
<path d="M2274.8 1086.57C1735.86 1377.99 1339.91 1826.19 1086.94 2431.17C1086.78 2443.4 1090.58 2446.22 1098.33 2439.66C1352.67 1837.21 1748.44 1390.12 2285.66 1098.4C2287.37 1088.93 2283.75 1084.98 2274.8 1086.57Z" fill="white"/>
<path d="M2317.79 1420.85C2325.28 1424.91 2325.53 1430.43 2318.54 1437.42C2642.36 1249.83 2987.52 1155.74 3354.01 1155.15C3357.92 1155.1 3361.25 1154.06 3363.99 1152.01C3375.63 1143.49 3371.67 1139.12 3352.11 1138.91C2984.91 1135.89 2640.14 1229.87 2317.79 1420.85Z" fill="white"/>
<path d="M2315.1 1173.8C1742.98 1484.39 1340.28 1969.86 1106.99 2630.21C1106.9 2639.45 1110.55 2646.06 1117.94 2650.01C1347.4 1988.54 1747.7 1501.76 2318.85 1189.7C2320.4 1183.41 2319.15 1178.11 2315.1 1173.8Z" fill="white"/>
<path d="M2504.05 1442.72C2508.1 1447.04 2509.35 1452.34 2507.8 1458.62C2779.4 1329.1 3063.35 1264.74 3359.65 1265.55C3362.09 1265.57 3364.42 1264.93 3366.33 1263.72C3368.24 1262.5 3369.63 1260.76 3370.31 1258.74C3373.27 1250.41 3368.79 1246.21 3356.86 1246.13C3059.31 1243.74 2775.03 1309.27 2504.05 1442.72Z" fill="white"/>
<path d="M2330.62 1285.21C1815.01 1572.76 1445.2 2012.71 1221.19 2605.05C1222.41 2612.48 1226.05 2617.75 1232.09 2620.87C1455.23 2026.95 1825.03 1585.67 2341.48 1297.05C2338.85 1291.98 2335.23 1288.03 2330.62 1285.21Z" fill="white"/>
<path d="M2562.32 1537.74C2566.93 1540.56 2570.55 1544.5 2573.18 1549.57C2823.58 1435.05 3084.47 1377.9 3355.87 1378.13C3360.26 1378.19 3364.01 1377.03 3367.13 1374.66C3376.21 1367.55 3375.06 1362.51 3363.68 1359.56C3360.71 1358.74 3356.94 1358.3 3352.36 1358.25C3077.13 1356.04 2813.78 1415.87 2562.32 1537.74Z" fill="white"/>
<path d="M2317.79 1420.84C1906.17 1665.71 1595.05 2020 1384.42 2483.72C1383.19 2493.72 1386.81 2497.67 1395.28 2495.55C1604.72 2036.53 1912.47 1683.81 2318.55 1437.41C2325.53 1430.43 2325.28 1424.9 2317.79 1420.84Z" fill="white"/>
<path d="M2504.05 1442.73C2016.29 1686.4 1660.26 2078.38 1435.97 2618.65C1436.34 2626.62 1439.96 2630.56 1446.83 2630.49C1670.01 2093.52 2023.67 1702.9 2507.8 1458.63C2509.35 1452.34 2508.1 1447.04 2504.05 1442.73Z" fill="white"/>
<path d="M2823.57 1548.11L2830.9 1563.98C3004.89 1510.96 3182.22 1484.85 3362.91 1485.65C3365.5 1485.67 3367.97 1485.18 3370.14 1484.22C3372.32 1483.26 3374.12 1481.85 3375.44 1480.09C3381.08 1472.49 3376.88 1468.49 3362.86 1468.11C3179.18 1463.95 2999.42 1490.62 2823.57 1548.11Z" fill="white"/>
<path d="M2562.32 1537.73C2131.13 1746.15 1804.28 2080.69 1581.79 2541.34C1580.56 2551.24 1584.38 2555.4 1593.23 2553.81C1815.53 2093.26 2142.18 1758.52 2573.18 1549.57C2570.55 1544.5 2566.93 1540.55 2562.32 1537.73Z" fill="white"/>
<path d="M2823.57 1548.11C2329.4 1711.52 1953.61 2040.85 1696.21 2536.11C1694.98 2546.11 1698.6 2550.06 1707.07 2547.95C1963.44 2054.4 2338.05 1726.41 2830.9 1563.97L2823.57 1548.11Z" fill="white"/>
<path d="M1793.17 2570.92C1793.54 2578.89 1797.16 2582.84 1804.03 2582.76C1970.4 2268.3 2191.83 2025.14 2468.31 1853.26C2745.84 1680.74 3044.49 1595.44 3364.27 1597.38C3374.76 1597.48 3378.24 1593.08 3374.71 1584.19C3373.93 1582.16 3372.52 1580.43 3370.65 1579.2C3368.78 1577.97 3366.53 1577.31 3364.19 1577.29C3217 1577.09 3084.75 1591.87 2967.46 1621.63C2457.28 1751.2 2065.85 2067.64 1793.17 2570.92Z" fill="white"/>
<path d="M2555.5 1896.47C2568.15 1893.78 2571.77 1897.72 2566.36 1908.3C2816.84 1766.25 3083.17 1695.76 3365.35 1696.83C3367.72 1696.84 3369.98 1696.13 3371.78 1694.81C3373.59 1693.49 3374.82 1691.64 3375.29 1689.55C3377.29 1680.6 3371.51 1676.1 3357.97 1676.03C3073.42 1676.69 2805.93 1750.17 2555.5 1896.47Z" fill="white"/>
<path d="M2595.9 1992.94C2603.28 1996.48 2604.72 2001.56 2600.21 2008.2C2838.65 1873.3 3092.18 1805.44 3360.8 1804.64C3365.38 1804.59 3369.09 1803.91 3371.94 1802.61C3378.58 1799.35 3379.59 1795.3 3374.96 1790.46C3373.5 1788.91 3371.57 1787.69 3369.3 1786.87C3367.02 1786.04 3364.45 1785.63 3361.74 1785.66C3090.43 1784.37 2835.15 1853.46 2595.9 1992.94Z" fill="white"/>
<path d="M2555.5 1896.47C2201.1 2105.32 1942.32 2413.88 1779.17 2822.14L1793 2830.59C1955.5 2423.83 2213.29 2116.4 2566.36 1908.3C2571.77 1897.72 2568.15 1893.78 2555.5 1896.47Z" fill="white"/>
<path d="M2654.24 2094.64C2659.32 2097.14 2661.94 2101.31 2662.1 2107.15C2884.94 1984.53 3121.13 1923.14 3370.68 1922.97C3372.92 1923 3375.09 1922.25 3376.74 1920.87C3378.39 1919.5 3379.42 1917.6 3379.61 1915.54C3380.22 1910.11 3377.71 1907.32 3372.08 1907.17C3121.02 1900.13 2881.74 1962.62 2654.24 2094.64Z" fill="white"/>
<path d="M2595.9 1992.95C2276.88 2183.14 2040.03 2460.48 1885.37 2824.97C1884.14 2834.97 1887.76 2838.92 1896.23 2836.8C2050.46 2475.83 2285.12 2199.63 2600.21 2008.2C2604.72 2001.56 2603.28 1996.48 2595.9 1992.95Z" fill="white"/>
<path d="M2623.61 2238.44C2628.69 2240.94 2631.32 2245.1 2631.47 2250.95C2854.73 2105.9 3096.19 2032.87 3355.84 2031.84C3360.41 2031.79 3364.37 2031.38 3367.7 2030.6C3384.63 2026.48 3384.48 2020.96 3367.23 2014.03C3363.78 2012.57 3359.96 2011.87 3355.76 2011.92C3092.01 2012.67 2847.96 2088.17 2623.61 2238.44Z" fill="white"/>
<path d="M2654.24 2094.64C2334.53 2282.4 2103.66 2561.43 1961.65 2931.73C1965.61 2936.15 1970.4 2937.43 1976 2935.56C2118.36 2570.67 2347.06 2294.54 2662.1 2107.15C2661.94 2101.31 2659.32 2097.14 2654.24 2094.64Z" fill="white"/>
<path d="M2745.74 2284.93L2753.61 2297.44C2945.92 2192.05 3149.63 2139.67 3364.75 2140.3C3369.42 2140.25 3373.46 2139.2 3376.87 2137.14C3387.96 2130.54 3386.52 2125.14 3372.55 2120.93C3369.01 2119.91 3364.8 2119.37 3359.94 2119.32C3142.63 2119.35 2937.9 2174.55 2745.74 2284.93Z" fill="white"/>
<path d="M2623.61 2238.44C2312.25 2448.85 2103.27 2748.68 1996.67 3137.94L2010.54 3150.38C2114.96 2761.89 2321.94 2462.08 2631.47 2250.95C2631.32 2245.11 2628.69 2240.94 2623.61 2238.44Z" fill="white"/>
<path d="M2772.04 2400.21C2779.51 2402.89 2780.76 2408.19 2775.79 2416.11C2961.47 2306.01 3160.01 2252.2 3371.43 2254.68C3373.66 2254.71 3375.81 2253.98 3377.49 2252.62C3379.18 2251.26 3380.3 2249.36 3380.65 2247.25C3382.26 2237.24 3377.2 2232.72 3365.48 2233.7C3354.13 2234.57 3348.32 2235 3348.03 2235.01C3142.95 2235.54 2950.95 2290.61 2772.04 2400.21Z" fill="white"/>
<path d="M2745.74 2284.93C2481.65 2438.39 2285.99 2665.23 2158.77 2965.45C2159.14 2973.41 2162.76 2977.36 2169.63 2977.28C2297.16 2679.08 2491.82 2452.47 2753.61 2297.44L2745.74 2284.93Z" fill="white"/>
<path d="M2862.2 2466.98C2867.28 2469.47 2869.9 2473.64 2870.06 2479.49C3028.95 2396.88 3196.17 2357.44 3371.73 2361.16C3374.47 2361.22 3377.07 2360.68 3379.13 2359.62C3381.18 2358.56 3382.58 2357.05 3383.11 2355.3C3383.85 2353.06 3383.64 2350.78 3382.47 2348.45C3381.71 2346.96 3380.42 2345.68 3378.73 2344.75C3377.04 2343.82 3375 2343.26 3372.82 2343.14C3192.74 2336.38 3022.54 2377.66 2862.2 2466.98Z" fill="white"/>
<path d="M2772.04 2400.21C2519.31 2553.98 2337.94 2779.33 2227.95 3076.28C2226.72 3086.28 2230.34 3090.22 2238.81 3088.11C2348.17 2794.79 2527.17 2570.79 2775.79 2416.11C2780.76 2408.19 2779.51 2402.89 2772.04 2400.21Z" fill="white"/>
<path d="M1086.93 2431.17C934.203 2798.93 859.63 3186.25 863.205 3593.11C863.212 3593.75 862.883 3598.54 862.217 3607.47C861.463 3617.04 864.655 3621.1 871.793 3619.64C873.724 3619.21 875.463 3617.93 876.719 3616.03C877.975 3614.13 878.671 3611.72 878.691 3609.21C879.307 3201.76 952.517 2811.91 1098.32 2439.66C1090.57 2446.22 1086.77 2443.39 1086.93 2431.17Z" fill="white"/>
<path d="M962.007 2456.44C830.302 2800.81 761.82 3160.53 756.559 3535.62C756.565 3536.15 755.414 3548.7 753.106 3573.27C751.648 3588.27 753.147 3603.29 757.603 3618.33L771.345 3618.82C775.479 3613.04 777.529 3608.5 777.493 3605.21C773.175 3208.97 839.477 2828.66 976.401 2464.26C968.068 2469.87 963.27 2467.27 962.007 2456.44Z" fill="white"/>
<path d="M2674.59 2727.73C2447.05 2953.17 2330.77 3237.69 2325.74 3581.32C2325.51 3603.74 2329.21 3610.98 2336.85 3603.04C2338.32 3601.51 2339.5 3599.49 2340.31 3597.09C2341.13 3594.69 2341.55 3591.97 2341.56 3589.12C2342.75 3312.59 2419.07 3072.97 2570.54 2870.26C2771.47 2601.33 3034.79 2465.31 3360.53 2462.18C3365.01 2462.13 3369.01 2461.67 3372.53 2460.78C3389.84 2456.13 3389.69 2450.6 3372.06 2444.2C3368.52 2442.86 3364.65 2442.21 3360.45 2442.26C3093.37 2444.11 2864.75 2539.27 2674.59 2727.73Z" fill="white"/>
<path d="M2862.2 2466.98C2526.57 2655.86 2322.09 2957.13 2248.75 3370.79C2235.09 3447.56 2231.45 3524.91 2237.83 3602.84L2247.98 3602.09C2250.29 3594.95 2251.51 3580.32 2251.65 3558.22C2252.58 3345.24 2304.14 3144.04 2406.34 2954.62C2519.01 2745.74 2673.59 2587.36 2870.06 2479.48C2869.9 2473.64 2867.28 2469.47 2862.2 2466.98Z" fill="white"/>
<path d="M1384.41 2483.72C1224.99 2832 1146.94 3202.56 1150.27 3595.4C1150.32 3600.4 1150.85 3604.8 1151.84 3608.62C1156.32 3625.57 1161.18 3625.41 1166.43 3608.14C1167.63 3604.41 1168.2 3600.15 1168.15 3595.37C1167.66 3208.45 1243.36 2841.84 1395.27 2495.56C1386.8 2497.67 1383.18 2493.72 1384.41 2483.72Z" fill="white"/>
<path d="M1696.21 2536.11C1527.08 2860.8 1444.09 3215.05 1447.22 3598.87C1447.29 3605.45 1448.53 3609.64 1450.94 3611.42C1454.55 3610.42 1458.13 3610.38 1461.67 3611.3C1464.45 3595.01 1466.45 3560.24 1467.68 3506.98C1475.18 3170.67 1554.97 2850.99 1707.07 2547.95C1698.6 2550.06 1694.98 2546.12 1696.21 2536.11Z" fill="white"/>
<path d="M1581.78 2541.35C1422.46 2872.73 1345.44 3227.24 1350.7 3604.86C1350.75 3609.91 1352.01 3614.4 1354.27 3617.57L1358.05 3623.11C1360.44 3623.94 1362.83 3623.91 1365.2 3623.03C1368.2 3574.12 1370.67 3525.21 1372.62 3476.3C1385.66 3150.23 1459.2 2842.74 1593.22 2553.82C1584.37 2555.4 1580.56 2551.25 1581.78 2541.35Z" fill="white"/>
<path d="M1793.17 2570.92C1632.14 2876.18 1550.12 3210.5 1547.11 3573.87C1546.93 3592.04 1548.46 3605.31 1551.7 3613.67L1561.28 3613.56C1562.41 3611.96 1563.34 3610.24 1564.09 3608.43C1564.93 3606.72 1565.33 3604.7 1565.31 3602.36C1564.58 3238.08 1644.16 2898.21 1804.03 2582.76C1797.16 2582.84 1793.54 2578.89 1793.17 2570.92Z" fill="white"/>
<path d="M2431.55 3600.09L2438.13 3600.66C2442.06 3593.07 2444.28 3578.22 2444.8 3556.11C2451.06 3281.66 2544.19 3047.17 2724.17 2852.65C2899.35 2663.39 3115.94 2571.28 3373.93 2576.33C3376.6 2576.39 3379.15 2575.74 3381.11 2574.49C3383.07 2573.23 3384.3 2571.47 3384.59 2569.52C3385.12 2565.9 3383.32 2562.73 3379.19 2560.02C3376.79 2558.45 3373.68 2557.63 3369.87 2557.57C3087.11 2556.08 2852.94 2667.93 2667.38 2893.12C2508.46 3086.03 2428.42 3317.98 2427.27 3588.98C2427.3 3591.32 2427.7 3593.33 2428.48 3595.03C2429.36 3596.72 2430.38 3598.41 2431.55 3600.09Z" fill="white"/>
<path d="M1221.18 2605.05C1100.93 2923.9 1043.03 3256.83 1047.48 3603.86C1047.53 3609.07 1048.43 3613.04 1050.18 3615.79C1053.09 3620.43 1056.39 3620.92 1060.07 3617.27C1061.48 3615.87 1062.61 3613.85 1063.38 3611.39C1064.15 3608.92 1064.53 3606.07 1064.49 3603.04C1064.03 3263.19 1119.9 2935.8 1232.08 2620.88C1226.04 2617.75 1222.4 2612.48 1221.18 2605.05Z" fill="white"/>
<path d="M1435.96 2618.65C1307.4 2927.49 1245.55 3252.76 1250.42 3594.47C1250.47 3599.36 1250.95 3603.71 1251.85 3607.53C1255.96 3625.76 1260.87 3625.65 1266.58 3607.21C1267.78 3603.26 1268.35 3599 1268.3 3594.44C1267.12 3258.64 1326.63 2937.32 1446.82 2630.49C1439.95 2630.56 1436.33 2626.62 1435.96 2618.65Z" fill="white"/>
<path d="M1106.98 2630.21C998.497 2943.29 946.471 3268.14 950.902 3604.75C950.957 3609.75 951.765 3613.88 953.327 3617.16C957.331 3625.72 961.481 3625.73 965.776 3617.18C967.271 3614.3 967.994 3610.62 967.945 3606.16C967.031 3277.16 1017.03 2958.44 1117.93 2650.01C1110.54 2646.06 1106.89 2639.45 1106.98 2630.21Z" fill="white"/>
<path d="M2527.55 3599.68L2537.7 3598.94C2542.44 3298.35 2644.04 3058.46 2842.51 2879.25C2986.28 2749.52 3158.27 2683.57 3358.48 2681.39C3361.15 2681.36 3365.68 2681.63 3372.08 2682.2C3385.83 2683.43 3389.89 2679.77 3384.27 2671.22C3383.05 2669.36 3381.32 2667.84 3379.22 2666.78C3377.12 2665.73 3374.71 2665.16 3372.18 2665.14C3114.41 2662.95 2904.19 2761.95 2741.53 2962.13C2604.01 3131.21 2531.37 3332.91 2523.62 3567.21C2523.11 3581.56 2524.42 3592.38 2527.55 3599.68Z" fill="white"/>
<path d="M2635.47 3601.86L2641.43 3597.81C2644.62 3356.33 2721.07 3158.58 2870.78 3004.56C3009.26 2862.03 3179.03 2793.65 3380.08 2799.43C3381.1 2799.45 3382.11 2799.26 3383.04 2798.86C3383.97 2798.46 3384.79 2797.87 3385.45 2797.14C3386.11 2796.41 3386.58 2795.55 3386.82 2794.64C3387.07 2793.72 3387.09 2792.77 3386.87 2791.87C3384.98 2784.55 3378.17 2780.91 3366.43 2780.93C3262.56 2781.43 3166.09 2801.45 3077.05 2840.99C2989.23 2879.89 2910.31 2938.03 2840.27 3015.41C2710.48 3158.69 2639.49 3340.92 2627.31 3562.1C2626.34 3578.79 2629.06 3592.04 2635.47 3601.86Z" fill="white"/>
<path d="M1779.17 2822.14C1682.74 3068.67 1635.28 3326.89 1636.79 3596.8C1636.85 3602.44 1638.44 3607.52 1641.24 3611.09C1649.95 3622.16 1654.36 3615.68 1654.48 3591.66C1655.41 3327.36 1701.59 3073.67 1792.99 2830.59L1779.17 2822.14Z" fill="white"/>
<path d="M1885.37 2824.97C1782.41 3066.89 1732.01 3322.28 1734.17 3591.11C1734.23 3596.12 1735.47 3600.95 1737.76 3605.1L1741.26 3611.6L1747.85 3612.17C1752.12 3601.28 1754.29 3581.12 1754.35 3551.68C1754.67 3310.23 1801.97 3071.94 1896.23 2836.8C1887.76 2838.91 1884.14 2834.97 1885.37 2824.97Z" fill="white"/>
<path d="M2732.04 3600.8L2738.05 3600.74C2744.32 3326.7 2848.71 3123.97 3051.22 2992.54C3142.63 2933.31 3248.74 2905.22 3369.54 2908.26C3373.45 2908.32 3376.97 2907.64 3380.1 2906.23C3396.53 2898.82 3391.47 2894.63 3364.94 2893.64C3197.85 2887.71 3052.91 2946.19 2930.15 3069.1C2848.05 3151.4 2789.09 3255.18 2753.25 3380.43C2731.19 3457.29 2724.12 3530.75 2732.04 3600.8Z" fill="white"/>
<path d="M1961.66 2931.73C1878.31 3144.75 1838.3 3368.04 1841.61 3601.58C1841.64 3604.34 1843.78 3608.84 1848.05 3615.06C1851.86 3614.59 1855.23 3613.02 1858.16 3610.33C1857.9 3376.32 1897.18 3151.4 1976.01 2935.56C1970.4 2937.43 1965.61 2936.15 1961.66 2931.73Z" fill="white"/>
<path d="M2158.77 2965.45C2070.76 3170.55 2030.39 3387.3 2037.65 3615.7L2051.95 3615.55C2050.96 3393.14 2090.19 3180.38 2169.63 2977.29C2162.76 2977.36 2159.14 2973.42 2158.77 2965.45Z" fill="white"/>
<path d="M2821.42 3595.84C2824.21 3598.58 2827.42 3599.87 2831.05 3599.72C2833.31 3588.97 2835.64 3566.36 2838.03 3531.9C2843.3 3455.33 2861.98 3383.23 2894.06 3315.62C2924.73 3250.67 2966.42 3193.84 3019.12 3145.13C3120.17 3051.78 3241.26 3006.95 3382.39 3010.62C3383.43 3010.64 3384.48 3010.45 3385.44 3010.05C3386.4 3009.66 3387.27 3009.07 3387.97 3008.33C3388.67 3007.6 3389.19 3006.73 3389.5 3005.78C3389.81 3004.84 3389.89 3003.85 3389.74 3002.88C3388.81 2995.88 3384.15 2993.01 3375.77 2994.27C3368.91 2995.41 3364.15 2995.88 3361.48 2995.7C3305.17 2993.23 3254.3 2999.58 3208.86 3014.74C3020.39 3077.9 2897.39 3214.15 2839.86 3423.49C2824.44 3479.66 2818.3 3537.11 2821.42 3595.84Z" fill="white"/>
<path d="M2227.95 3076.28C2170.64 3227.8 2141.32 3385.88 2139.96 3550.51C2139.97 3551.46 2139.06 3559.28 2137.21 3573.97C2135.72 3585.78 2138.46 3596.86 2145.45 3607.19L2148.46 3607.8C2154.45 3588.82 2157.75 3563.33 2158.36 3531.34C2161.04 3383.81 2187.86 3236.06 2238.81 3088.11C2230.34 3090.23 2226.72 3086.28 2227.95 3076.28Z" fill="white"/>
<path d="M2921.61 3598.74L2931.19 3598.63C2934.47 3409.12 3006.16 3269.18 3146.26 3178.81C3214.85 3134.7 3293.05 3116.05 3380.89 3122.85C3383.26 3123 3385.56 3122.4 3387.37 3121.14C3389.17 3119.89 3390.35 3118.08 3390.69 3116.05C3392.03 3107.96 3386.31 3103.82 3373.53 3103.64C3259.32 3101.7 3160.46 3138.43 3076.96 3213.84C2987.31 3294.83 2934.83 3402.9 2919.52 3538.03C2916.56 3564.09 2917.26 3584.33 2921.61 3598.74Z" fill="white"/>
<path d="M1996.67 3137.94C1962.22 3259.03 1943.47 3398.93 1940.43 3557.62C1939.96 3584.2 1941.53 3601.45 1945.14 3609.38L1951.15 3609.31C1955.48 3594.92 1957.76 3568.33 1958.01 3529.54C1958.67 3414.76 1976.18 3288.37 2010.54 3150.38L1996.67 3137.94Z" fill="white"/>
<path d="M3119.34 3334.53C3188.99 3256.72 3276.56 3222.03 3382.06 3230.44C3384.79 3230.64 3387.41 3230.18 3389.47 3229.13C3391.53 3228.09 3392.88 3226.53 3393.3 3224.74C3393.76 3222.82 3393.45 3220.91 3392.38 3219.01C3391.7 3217.83 3390.61 3216.8 3389.21 3216.01C3387.81 3215.23 3386.13 3214.7 3384.32 3214.48C3301.41 3204.11 3226.14 3225.6 3158.51 3278.94C3067.24 3350.82 3019.1 3449.54 3014.07 3575.1C3013.84 3579.99 3014.36 3584.34 3015.65 3588.15C3020 3602.13 3024.72 3601.92 3029.81 3587.52C3031.1 3584.1 3031.77 3580.01 3031.82 3575.22C3033.62 3478.07 3062.8 3397.84 3119.34 3334.53Z" fill="white"/>
<path d="M3118.29 3592.61C3121.76 3596.29 3124.96 3596.26 3127.88 3592.51C3130.84 3531.58 3147.77 3478.69 3178.66 3433.82C3202.14 3399.67 3230.87 3374.97 3264.85 3359.72C3299.78 3344.04 3337.26 3338.79 3377.29 3343.99C3397.45 3346.53 3402.36 3342.44 3392.04 3331.71C3388.97 3328.46 3384.51 3326.52 3379.53 3326.27C3235.89 3319.44 3148.46 3393.61 3117.24 3548.79C3114.89 3560.71 3115.24 3575.32 3118.29 3592.61Z" fill="white"/>
<path d="M3217.91 3594.87C3221.73 3595.79 3225.11 3594.63 3228.03 3591.41C3238.83 3488.22 3290.62 3443.55 3383.39 3457.42C3387.02 3457.91 3390.17 3457.71 3392.83 3456.84C3400.91 3453.98 3400.67 3449.9 3392.12 3444.57C3389.63 3443 3386.7 3441.86 3383.36 3441.16C3320.52 3426.43 3271.29 3447.59 3235.67 3504.62C3218.51 3532.01 3212.59 3562.09 3217.91 3594.87Z" fill="white"/>
<path d="M3972.49 690.49C3967.45 692.245 3962.68 692.297 3958.18 690.646C3957.56 843.787 3915.81 973.465 3832.92 1079.68C3782.31 1144.74 3722.46 1193.53 3653.37 1226.06C3583.33 1259.13 3508.23 1274.13 3428.07 1271.07C3411.27 1270.41 3405.07 1274.46 3409.45 1283.23C3410.42 1285.21 3412 1286.88 3414.02 1288.09C3416.04 1289.3 3418.44 1290 3420.98 1290.12C3581.81 1299 3717.39 1240.56 3827.73 1114.81C3929.87 998.498 3978.12 857.059 3972.49 690.49Z" fill="white"/>
<path d="M4551.97 688.161L4538.32 695.642C4535.22 884.091 4499.02 1063.82 4429.72 1234.81C4435.9 1232.94 4440.69 1234.22 4444.07 1238.64C4520.41 1065.55 4556.38 882.054 4551.97 688.161Z" fill="white"/>
<path d="M4445.28 692.667C4444.7 875.776 4409.5 1046.62 4339.69 1205.19C4298.17 1299.58 4244.03 1386.46 4177.26 1465.83C3980.25 1699.75 3727.97 1816.74 3420.42 1816.79C3418.01 1816.78 3415.7 1817.52 3413.95 1818.87C3412.19 1820.21 3411.11 1822.07 3410.91 1824.07C3410.22 1830.77 3415.56 1834.22 3426.91 1834.42C3665.91 1838.51 3878.73 1759.57 4065.37 1597.6C4319.76 1376.76 4452.46 1084.35 4463.47 720.365C4463.84 710.584 4462.16 701.304 4458.44 692.524C4454 687.79 4449.62 687.838 4445.28 692.667Z" fill="white"/>
<path d="M3779.38 696.576C3775.84 695.658 3772.27 695.697 3768.65 696.693C3766.09 715.211 3763.76 733.727 3761.67 752.241C3759.33 773.733 3755.95 791.889 3751.54 806.708C3701.59 976.965 3592.95 1060.88 3425.6 1058.45C3409.86 1058.2 3404.09 1062.46 3408.29 1071.23C3409.19 1073.12 3410.7 1074.75 3412.67 1075.96C3414.64 1077.16 3417 1077.91 3419.52 1078.12C3481.01 1082.87 3536.93 1072.06 3587.3 1045.69C3717.25 977.751 3781.27 861.379 3779.38 696.576Z" fill="white"/>
<path d="M3571.93 698.838C3560.24 798.753 3507.29 842.634 3413.1 830.483C3398.2 828.627 3396.16 833.484 3406.97 845.056C3415.27 854.105 3427.91 858.484 3444.89 858.192C3509.17 857.067 3553.2 822.634 3576.98 754.893C3583.82 735.478 3584.73 717.88 3579.69 702.101C3578.7 698.286 3576.11 697.199 3571.93 698.838Z" fill="white"/>
<path d="M5622.65 1719.95C5628.83 1718.08 5633.61 1719.35 5637 1723.78C5761.09 1398.2 5822.58 1057.79 5821.47 702.541C5821.42 679.694 5816.05 673.589 5805.39 684.226C5803.84 685.787 5802.6 687.795 5801.76 690.114C5800.92 692.432 5800.5 695.009 5800.53 697.669C5801.62 1051.96 5742.33 1392.72 5622.65 1719.95Z" fill="white"/>
<path d="M5532.3 1688.42L5543.13 1697.54C5668.04 1377.27 5727.59 1042.03 5721.77 691.831C5721.72 687.793 5720.88 684.561 5719.23 682.135C5715.93 677.282 5712.64 677.531 5709.36 682.88C5708.05 685.126 5707.42 688.002 5707.45 691.509C5706.06 1036.69 5647.68 1368.99 5532.3 1688.42Z" fill="white"/>
<path d="M5352.91 1587.4C5358.73 1587.76 5363.53 1590.36 5367.3 1595.21C5474.16 1307.97 5526.46 1008.36 5524.21 696.374C5524.15 691.486 5523.06 687.566 5520.93 684.614C5516.19 678.289 5512.19 679.289 5508.94 687.613C5507.74 690.602 5507.11 694.381 5507.06 698.951C5506.12 1006.4 5454.74 1302.55 5352.91 1587.4Z" fill="white"/>
<path d="M5252.01 1571.92L5263.4 1580.4C5372.64 1301.74 5426.51 1009.82 5424.99 704.627C5424.94 699.314 5424.46 694.909 5423.56 691.412C5420.48 679.969 5415.94 679.115 5409.94 688.851C5407.97 691.954 5406.96 695.791 5406.92 700.361C5406.11 1002.49 5354.47 1293.01 5252.01 1571.92Z" fill="white"/>
<path d="M5324.03 683.097C5322.14 684.817 5319.96 685.957 5317.48 686.515C5313.44 692.192 5311.39 696.73 5311.34 700.132C5310.9 1001.73 5256.72 1290.26 5148.78 1565.71C5154.96 1563.84 5159.74 1565.12 5163.13 1569.54C5274.09 1300 5329.19 1012.48 5328.44 706.959C5328.41 695.801 5326.94 687.847 5324.03 683.097Z" fill="white"/>
<path d="M3768.37 2640.15C3778.98 2641.63 3781.42 2646.92 3775.7 2656.01C3791.43 2655.2 3806.95 2652.8 3822.27 2648.81C4320.35 2520.53 4702.44 2218.92 4968.57 1743.97C5144.67 1429.73 5231.21 1081.71 5228.2 699.917C5228.17 696.91 5227.68 694.085 5226.77 691.719C5225.87 689.353 5224.58 687.528 5223.04 686.424C5218.62 683.178 5214.97 685.714 5212.11 694.034C5210.91 697.448 5210.33 701.705 5210.39 706.806C5210.9 876.831 5194.46 1035.25 5161.05 1182.05C5054.62 1648.35 4830.3 2020.72 4488.11 2299.15C4276.6 2471.28 4036.68 2584.94 3768.37 2640.15Z" fill="white"/>
<path d="M4722.79 1538.47C4728.21 1537.56 4732.81 1539.05 4736.57 1542.95C4872.84 1284.61 4940.14 1004.71 4938.48 703.237C4938.45 700.264 4937.94 697.457 4937.02 695.073C4936.09 692.688 4934.77 690.802 4933.18 689.586C4928.46 686.131 4924.82 688.615 4922.24 697.038C4921.13 700.344 4920.56 704.655 4920.52 709.968C4919.17 1005.94 4853.26 1282.11 4722.79 1538.47Z" fill="white"/>
<path d="M3917.92 2169.88C4188.42 2061.72 4408.22 1878.67 4577.3 1620.72C4754.83 1349.82 4843.04 1045.4 4841.94 707.478C4841.88 701.952 4840.73 697.501 4838.5 694.125C4833.36 686.742 4829.1 689.233 4825.7 701.597C4824.6 705.435 4824.03 710.17 4824 715.802C4814.77 1234.28 4629.97 1643.31 4269.59 1942.88C4027.77 2144.03 3747.12 2243.79 3427.63 2242.17C3426.5 2242.17 3425.39 2242.37 3424.35 2242.77C3423.32 2243.17 3422.39 2243.75 3421.61 2244.47C3420.84 2245.2 3420.25 2246.06 3419.87 2247C3419.49 2247.93 3419.34 2248.92 3419.41 2249.91C3419.98 2258.09 3427.61 2262.04 3442.3 2261.78C3615.01 2258.3 3773.56 2227.67 3917.92 2169.88Z" fill="white"/>
<path d="M4637.85 689.933L4631.27 690.642C4630.14 692.249 4629.21 693.959 4628.47 695.774C4627.63 697.483 4627.22 699.454 4627.24 701.685C4628.46 874.572 4600.66 1041.24 4543.83 1201.69C4549.66 1202.05 4554.45 1204.65 4558.23 1209.5C4613.85 1061.71 4642.89 899.335 4645.35 722.37C4645.56 706.214 4643.06 695.402 4637.85 689.933Z" fill="white"/>
<path d="M3911.54 1584.13C4201.46 1384.91 4351.83 1094.7 4362.66 713.495C4363.13 695.531 4358.92 689.944 4350.02 696.736C4348.36 697.989 4347 699.829 4346.05 702.092C4345.1 704.354 4344.6 706.97 4344.58 709.707C4339.18 1009.87 4241.46 1256.36 4051.44 1449.19C3881.42 1621.6 3674.73 1706.59 3431.35 1704.14C3426.87 1704.08 3423.01 1704.6 3419.78 1705.7C3407.05 1710.09 3407.2 1715.4 3420.24 1721.63C3423.6 1723.19 3427.37 1724 3431.57 1724.06C3612.27 1726.56 3772.26 1679.91 3911.54 1584.13Z" fill="white"/>
<path d="M4261.72 694.673L4252.13 694.777C4245.84 993.356 4139.77 1234.73 3933.92 1418.91C3942.78 1417.33 3946.59 1421.48 3945.36 1431.38C4149 1253.81 4255.93 1017.53 4266.17 722.52C4266.61 710.188 4265.12 700.905 4261.72 694.673Z" fill="white"/>
<path d="M3808.26 1376.44C3812.31 1380.75 3813.56 1386.05 3812.01 1392.34C4035.3 1241.66 4152.64 1018.81 4164.02 723.79C4164.9 699.551 4160.86 691.996 4151.9 701.127C4150.38 702.658 4149.14 704.683 4148.25 707.078C4147.37 709.473 4146.86 712.187 4146.75 715.052C4136.53 1002.62 4023.7 1223.08 3808.26 1376.44Z" fill="white"/>
<path d="M4064.99 696.814C4060.12 696.017 4055.75 697.393 4051.87 700.943C4050.38 800.427 4032.51 893.767 3998.26 980.962C3964.2 1067.62 3915.08 1142.92 3850.91 1206.85C3735.59 1321.6 3593.79 1378.41 3425.5 1377.27C3408.81 1377.13 3403.9 1381.59 3410.77 1390.66C3412.08 1392.43 3413.88 1393.87 3416.02 1394.87C3418.16 1395.87 3420.59 1396.4 3423.14 1396.42C3626.08 1400.37 3792.09 1319.44 3921.16 1153.64C4021.16 1025.35 4069.11 873.07 4064.99 696.814Z" fill="white"/>
<path d="M3759.19 1036.17C3836.35 947.234 3876.2 840.424 3878.75 715.742C3878.81 712.751 3878.45 709.918 3877.71 707.446C3876.96 704.975 3875.85 702.925 3874.45 701.443C3869.82 696.605 3865.54 698.086 3861.62 705.886C3860.03 709.198 3859.17 713.458 3859.04 718.667C3858.14 785.414 3846.35 845.106 3823.64 897.744C3743.9 1081.93 3609.46 1170.53 3420.31 1163.56C3417.71 1163.44 3415.24 1163.81 3413.1 1164.64C3410.97 1165.47 3409.24 1166.73 3408.06 1168.32C3404.01 1173.57 3405.26 1178.23 3411.79 1182.31C3414.67 1184.19 3418.45 1185.21 3423.13 1185.37C3555.88 1191.04 3667.9 1141.31 3759.19 1036.17Z" fill="white"/>
<path d="M3678.7 701.025L3672.11 700.459L3668.7 702.887C3667.87 703.496 3667.14 704.515 3666.58 705.854C3666.02 707.194 3665.65 708.814 3665.49 710.573C3650.88 866.736 3572.81 945.482 3431.26 946.812C3427.92 946.849 3423.48 946.313 3417.93 945.204C3405.6 942.576 3401.77 946.283 3406.46 956.328C3407.45 958.362 3408.98 960.093 3410.89 961.355C3412.81 962.617 3415.06 963.37 3417.42 963.541C3568.14 972.207 3656.42 893.668 3682.28 727.925C3683.97 716.748 3682.78 707.781 3678.7 701.025Z" fill="white"/>
<path d="M5449.75 1610.25C5457.14 1614.85 5459.61 1622.79 5457.16 1634.08C5569.43 1335.41 5624.55 1023.6 5622.54 698.651C5622.5 695.544 5622.06 692.647 5621.26 690.212C5620.47 687.777 5619.33 685.876 5617.95 684.674C5614.77 681.945 5611.48 682.353 5608.09 685.897C5606.72 687.316 5605.62 689.316 5604.88 691.751C5604.14 694.186 5603.77 696.994 5603.81 699.971C5604.09 1014.63 5552.73 1318.06 5449.75 1610.25Z" fill="white"/>
<path d="M4948.21 1543.98C4954.39 1542.11 4959.18 1543.39 4962.56 1547.81C5084.45 1282.51 5143.18 1000.26 5138.78 701.051C5138.75 698.162 5138.14 695.425 5137.03 693.252C5135.92 691.079 5134.38 689.588 5132.64 689.003C5129 687.768 5126.01 689.288 5123.67 693.564C5122.36 695.916 5121.73 699.165 5121.78 703.309C5122.14 998.946 5064.28 1279.17 4948.21 1543.98Z" fill="white"/>
<path d="M5041.5 690.157L5031.34 689.63C5028.71 702.092 5026.66 732.88 5025.19 781.992C5014.49 1130.78 4915.72 1450.98 4728.87 1742.6C4528.24 2055.94 4256.05 2271.34 3912.3 2388.8C3909.73 2398.07 3912.17 2403.36 3919.62 2404.66C4288.25 2276.41 4577.79 2032.77 4788.22 1673.73C4961.29 1378.54 5046.84 1053.38 5044.88 698.25C5044.87 697.4 5044.19 695.601 5042.82 692.853L5041.5 690.157Z" fill="white"/>
<path d="M4748.29 701.321L4727.97 701.543C4729.7 921.183 4689.05 1130.18 4606.03 1328.53C4612.89 1328.46 4616.51 1332.4 4616.89 1340.37C4706.37 1139.61 4750.17 926.592 4748.29 701.321Z" fill="white"/>
<path d="M4543.83 1201.69C4420.01 1534.28 4210.18 1773.23 3914.33 1918.54C3908.91 1929.12 3912.53 1933.06 3925.19 1930.37C4222.36 1783.99 4433.38 1543.7 4558.23 1209.5C4554.45 1204.66 4549.66 1202.05 4543.83 1201.69Z" fill="white"/>
<path d="M4429.72 1234.81C4321.37 1481.05 4157.45 1666.36 3937.97 1790.75C3932.73 1800.16 3933.98 1805.46 3941.72 1806.65C4167.49 1681.34 4334.94 1492.01 4444.07 1238.64C4440.69 1234.21 4435.9 1232.94 4429.72 1234.81Z" fill="white"/>
<path d="M4606.03 1328.53C4439.89 1699.84 4178.89 1948.65 3823.02 2074.95C3821.48 2081.87 3822.73 2087.17 3826.77 2090.85C4185.99 1964.93 4449.36 1714.78 4616.89 1340.37C4616.52 1332.4 4612.89 1328.46 4606.03 1328.53Z" fill="white"/>
<path d="M3808.26 1376.45C3692.11 1449.76 3566.92 1485.93 3432.69 1484.95C3428.01 1484.89 3423.96 1485.25 3420.54 1486.04C3404.64 1489.61 3403.8 1495.04 3417.99 1502.32C3421.26 1503.99 3424.94 1504.85 3429.04 1504.91C3566.33 1506.29 3693.98 1468.76 3812.01 1392.34C3813.56 1386.06 3812.31 1380.76 3808.26 1376.45Z" fill="white"/>
<path d="M3933.92 1418.91C3782.47 1544.04 3614.98 1603.2 3431.47 1596.38C3417.34 1595.9 3410.9 1599.84 3412.14 1608.23C3412.49 1610.26 3413.66 1612.11 3415.44 1613.49C3417.23 1614.86 3419.52 1615.66 3421.95 1615.77C3616.43 1621.94 3790.9 1560.48 3945.36 1431.38C3946.59 1421.48 3942.78 1417.32 3933.92 1418.91Z" fill="white"/>
<path d="M4722.79 1538.47C4538.97 1879.79 4278.86 2119.08 3942.48 2256.32C3941.43 2264.94 3944.05 2269.11 3950.34 2268.83C4291.12 2131.96 4553.2 1890 4736.57 1542.95C4732.81 1539.05 4728.22 1537.56 4722.79 1538.47Z" fill="white"/>
<path d="M4948.21 1543.98C4725.75 2025.36 4380.85 2344.16 3913.51 2500.37C3910.04 2505.82 3908.92 2512.05 3910.14 2519.05C4386.44 2362.43 4737.25 2038.68 4962.56 1547.81C4959.17 1543.39 4954.39 1542.11 4948.21 1543.98Z" fill="white"/>
<path d="M5148.77 1565.71C4959.69 2019.73 4663.7 2357.71 4260.79 2579.63C4263.82 2586.19 4268.81 2589 4275.77 2588.07C4679.71 2365.5 4975.5 2025.99 5163.12 1569.54C5159.74 1565.11 5154.95 1563.83 5148.77 1565.71Z" fill="white"/>
<path d="M5252.01 1571.92C5040.38 2101.54 4696.35 2482.97 4219.93 2716.21L4227.24 2730.8C4706.23 2496.57 5051.62 2113.1 5263.4 1580.4L5252.01 1571.92Z" fill="white"/>
<path d="M5352.91 1587.4C5132.14 2161.96 4764.41 2573.99 4249.72 2823.48C4248.01 2832.96 4251.63 2836.9 4260.58 2835.32C4776.21 2584.54 5145.12 2171.17 5367.31 1595.21C5363.53 1590.36 5358.73 1587.76 5352.91 1587.4Z" fill="white"/>
<path d="M5449.74 1610.25C5219.57 2223.49 4830.47 2662.1 4282.46 2926.1C4281.41 2934.72 4284.03 2938.89 4290.32 2938.61C4593.48 2798.53 4856.19 2588.55 5078.46 2308.66C5241.91 2102.95 5368.15 1878.09 5457.16 1634.08C5459.61 1622.79 5457.14 1614.85 5449.74 1610.25Z" fill="white"/>
<path d="M5532.3 1688.42C5296 2291.31 4909.68 2730.32 4373.33 3005.45C4367.91 3016.03 4371.53 3019.98 4384.19 3017.29C4921.87 2742.25 5308.19 2302.33 5543.13 1697.55L5532.3 1688.42Z" fill="white"/>
<path d="M5622.65 1719.95C5372.44 2368.27 4957.42 2835.06 4377.58 3120.34C4377.94 3126.5 4380.56 3130.66 4385.44 3132.84C4969.47 2846.99 5386.66 2377.3 5637 1723.78C5633.61 1719.35 5628.83 1718.08 5622.65 1719.95Z" fill="white"/>
<path d="M3937.97 1790.75C3779.32 1876.75 3611.37 1919.71 3434.13 1919.62C3410.38 1919.56 3405.51 1923.81 3419.53 1932.37C3422.51 1934.26 3426 1935.28 3430.01 1935.45C3611.03 1941.13 3781.6 1898.19 3941.72 1806.65C3933.98 1805.46 3932.73 1800.16 3937.97 1790.75Z" fill="white"/>
<path d="M5795.33 1809.73C5707.18 2045.12 5595.75 2258.55 5461.04 2450.03C5164.76 2870.79 4789.2 3176.95 4334.35 3368.52C4335.86 3375.2 4339.48 3379.14 4345.21 3380.36C4613.4 3269.78 4857.71 3113.24 5078.15 2910.73C5399.84 2615.2 5642.53 2253.47 5806.24 1825.55C5808.59 1814.15 5804.96 1808.88 5795.33 1809.73Z" fill="white"/>
<path d="M5680.92 1814.96C5415.8 2460.57 4991.23 2926.14 4407.2 3211.67L4415.62 3223.54C5003.85 2937.96 5430.4 2469.71 5695.27 1818.79C5691.88 1814.36 5687.1 1813.09 5680.92 1814.96Z" fill="white"/>
<path d="M3914.33 1918.54C3759.87 1987.06 3599.29 2023.03 3432.58 2026.44C3406.35 2026.94 3403.64 2031.7 3424.43 2040.72C3427.5 2042.07 3430.75 2042.78 3434.19 2042.84C3605.43 2044.38 3769.1 2006.89 3925.19 1930.37C3912.53 1933.06 3908.91 1929.12 3914.33 1918.54Z" fill="white"/>
<path d="M3823.02 2074.95C3695.73 2114.91 3565.97 2134.76 3433.75 2134.5C3428.74 2134.46 3424.14 2135.9 3420.63 2138.63C3405.59 2150.16 3412.43 2155.99 3441.14 2156.1C3572.99 2156.9 3701.53 2135.14 3826.77 2090.85C3822.73 2087.17 3821.48 2081.87 3823.02 2074.95Z" fill="white"/>
<path d="M3942.48 2256.33C3777.25 2316.68 3607.58 2346.8 3433.49 2346.68C3428.35 2346.62 3423.74 2348.39 3420.67 2351.6C3411.14 2361.8 3417.54 2367.09 3439.87 2367.49C3616 2370.67 3786.16 2337.78 3950.34 2268.83C3944.05 2269.11 3941.42 2264.94 3942.48 2256.33Z" fill="white"/>
<path d="M3912.3 2388.8C3761.17 2438.69 3606.72 2464.07 3448.95 2464.94C3447.71 2464.96 3442.41 2464.48 3433.05 2463.52C3423.02 2462.36 3417.95 2465.97 3417.86 2474.37C3417.82 2476.45 3418.63 2478.47 3420.12 2480C3421.6 2481.54 3423.65 2482.46 3425.81 2482.57C3594.73 2489.02 3759.33 2463.05 3919.62 2404.66C3912.17 2403.36 3909.73 2398.07 3912.3 2388.8Z" fill="white"/>
<path d="M3913.51 2500.37C3758.35 2547.86 3600.25 2571 3439.21 2569.78C3434.25 2569.72 3429.88 2570.94 3426.09 2573.43C3410.46 2583.9 3415.87 2589.37 3442.29 2589.83C3601.72 2592.55 3757.67 2568.96 3910.14 2519.05C3908.92 2512.05 3910.04 2505.82 3913.51 2500.37Z" fill="white"/>
<path d="M4260.8 2579.63C3998.13 2715.23 3721.56 2782.37 3431.07 2781.08C3428.75 2781.05 3426.52 2781.75 3424.74 2783.07C3422.97 2784.4 3421.74 2786.26 3421.28 2788.36C3418.73 2799.76 3425.33 2805.42 3441.07 2805.36C3734.95 2803.64 4013.19 2731.22 4275.77 2588.08C4268.82 2589 4263.82 2586.19 4260.8 2579.63Z" fill="white"/>
<path d="M3768.37 2640.15C3657.46 2660.17 3545.76 2669.94 3433.29 2669.47C3430.85 2669.45 3428.5 2669.96 3426.42 2670.95C3424.35 2671.94 3422.61 2673.38 3421.33 2675.18C3413.53 2686.1 3418.51 2691.79 3436.26 2692.23C3543.5 2694.78 3656.65 2682.71 3775.7 2656.02C3781.42 2646.92 3778.97 2641.63 3768.37 2640.15Z" fill="white"/>
<path d="M4219.93 2716.21C3970.67 2830.4 3710.97 2887.48 3440.82 2887.45C3436.62 2887.5 3432.91 2888.44 3429.69 2890.28C3413.29 2899.92 3417.44 2904.92 3442.15 2905.29C3715.69 2909.54 3977.39 2851.37 4227.24 2730.8L4219.93 2716.21Z" fill="white"/>
<path d="M4249.72 2823.48C3987.99 2939.83 3715.85 2998.7 3433.31 3000.07C3431 3000.1 3428.8 3000.87 3427.05 3002.25C3425.3 3003.63 3424.11 3005.54 3423.67 3007.67C3421.67 3017.15 3426.68 3021.35 3438.69 3020.26C3448.5 3019.41 3454.08 3018.98 3455.41 3018.96C3735.48 3018.89 4003.87 2957.67 4260.58 2835.32C4251.63 2836.91 4248.01 2832.96 4249.72 2823.48Z" fill="white"/>
<path d="M4282.46 2926.1C4010.67 3047.23 3728.01 3107.81 3434.49 3107.82C3431.72 3107.8 3429.11 3108.37 3427.06 3109.46C3425 3110.55 3423.62 3112.09 3423.11 3113.84C3422.37 3116.08 3422.58 3118.36 3423.75 3120.68C3424.5 3122.18 3425.78 3123.44 3427.45 3124.35C3429.12 3125.26 3431.12 3125.77 3433.25 3125.84C3731.51 3131.52 4017.2 3069.11 4290.32 2938.61C4284.03 2938.89 4281.41 2934.72 4282.46 2926.1Z" fill="white"/>
<path d="M4373.33 3005.45C4074.3 3148.67 3761.54 3220.94 3435.02 3222.26C3433.86 3222.27 3432.71 3222.48 3431.64 3222.89C3430.58 3223.3 3429.62 3223.89 3428.82 3224.63C3428.02 3225.37 3427.4 3226.25 3427.01 3227.2C3426.61 3228.15 3426.45 3229.16 3426.52 3230.17C3427.09 3238.24 3434.71 3242.19 3449.4 3242.03C3783.52 3237.75 4095.11 3162.84 4384.19 3017.29C4371.53 3019.98 4367.91 3016.03 4373.33 3005.45Z" fill="white"/>
<path d="M4377.58 3120.33C4076.69 3258.26 3763.17 3327.13 3437.02 3326.97C3434.22 3326.95 3431.58 3327.52 3429.5 3328.61C3427.42 3329.7 3426.01 3331.24 3425.5 3332.99C3424.76 3335.23 3424.97 3337.51 3426.14 3339.84C3426.9 3341.33 3428.19 3342.59 3429.89 3343.49C3431.58 3344.4 3433.62 3344.92 3435.79 3345C3766.67 3350.53 4083.22 3279.81 4385.45 3132.84C4380.56 3130.66 4377.94 3126.49 4377.58 3120.33Z" fill="white"/>
<path d="M4407.19 3211.67C4091.01 3355.28 3770.02 3426.53 3444.25 3425.4C3432.99 3425.31 3427.44 3428.19 3427.6 3434.03C3427.71 3436.05 3428.76 3437.96 3430.53 3439.36C3432.3 3440.76 3434.65 3441.55 3437.12 3441.58C3778.03 3447.64 4104.19 3374.96 4415.62 3223.53L4407.19 3211.67Z" fill="white"/>
</g>
<defs>
<clipPath id="clip0_38_21">
<rect width="4171.13" height="6541.67" fill="white" transform="matrix(-0.000504151 1 1 0.000504151 2.10254 0)"/>
</clipPath>
</defs>
</svg>
