<svg width="564" height="789" viewBox="0 0 564 789" fill="none" xmlns="http://www.w3.org/2000/svg">
<g clip-path="url(#clip0_3_590)">
<path d="M0 0C188 0 376 0 564 0C564 263 564 526 564 789C376 789 188 789 0 789C0 526 0 263 0 0ZM129.21 613C129.483 614.767 129.577 616.533 129.49 618.3C129.33 621.493 129.25 623.133 129.25 623.22C129.25 638.353 129.25 653.853 129.25 669.72C129.25 669.855 129.277 669.989 129.328 670.114C129.38 670.239 129.456 670.353 129.552 670.448C129.647 670.544 129.761 670.62 129.886 670.672C130.011 670.723 130.145 670.75 130.28 670.75L328.55 670.69C328.642 670.69 328.733 670.672 328.818 670.636C328.903 670.6 328.98 670.548 329.045 670.482C329.11 670.416 329.162 670.338 329.197 670.252C329.232 670.166 329.25 670.073 329.25 669.98C329.25 655.907 329.263 642.163 329.29 628.75C329.297 626.337 329.45 623.933 329.75 621.54L466.37 621.5C466.603 621.5 466.827 621.408 466.992 621.245C467.157 621.082 467.25 620.861 467.25 620.63L467.19 415.06C467.19 415.027 467.184 414.995 467.171 414.964C467.158 414.934 467.14 414.906 467.117 414.883C467.094 414.86 467.066 414.842 467.036 414.829C467.005 414.816 466.973 414.81 466.94 414.81L406.63 415C406.462 415.003 406.302 415.071 406.184 415.191C406.066 415.311 406 415.472 406 415.64V478.59C406 478.765 405.93 478.933 405.807 479.057C405.683 479.18 405.515 479.25 405.34 479.25H346.94C346.757 479.25 346.581 479.323 346.452 479.452C346.323 479.581 346.25 479.757 346.25 479.94L346.07 544.07C346.07 544.137 346.057 544.202 346.031 544.264C346.005 544.325 345.968 544.381 345.92 544.427C345.873 544.474 345.816 544.51 345.754 544.535C345.693 544.559 345.626 544.571 345.56 544.57L329.5 544.46C329.333 543.533 329.25 542.297 329.25 540.75C329.25 499.617 329.25 458.48 329.25 417.34C329.25 416.98 329.313 416.6 329.44 416.2C329.567 415.82 329.67 415.433 329.75 415.04C352.243 414.527 371.18 406.7 386.56 391.56C402.613 375.767 410.417 356.733 409.97 334.46C409.837 327.587 408.877 321.017 407.09 314.75C403.663 302.697 397.653 292.177 389.06 283.19C370.58 263.843 347.56 255.363 320 257.75C312.28 258.417 303.543 260.833 293.79 265L288.71 261.25L288.75 119.18C288.75 118.933 288.652 118.697 288.478 118.522C288.303 118.348 288.067 118.25 287.82 118.25L97.44 118.43C97.3065 118.433 97.1794 118.486 97.0859 118.58C96.9924 118.673 96.94 118.799 96.94 118.93L97.06 612.44C97.06 612.573 97.1137 612.7 97.2094 612.794C97.305 612.887 97.4347 612.94 97.57 612.94L129.21 613Z" fill="#C49F86"/>
<path d="M288.71 261.25C275.09 251.777 260.853 245.943 246 243.75C215.987 239.317 189.447 246.247 166.38 264.54C160.987 268.82 156.217 273.457 152.07 278.45C138.73 294.517 131.35 313.367 129.93 335C129.783 337.247 129.64 342.663 129.5 351.25C129.313 362.93 129.23 378.263 129.25 397.25C129.297 434.883 129.283 506.8 129.21 613L97.57 612.94C97.4347 612.94 97.305 612.887 97.2094 612.794C97.1137 612.7 97.06 612.573 97.06 612.44L96.94 118.93C96.94 118.799 96.9924 118.673 97.0859 118.58C97.1794 118.486 97.3065 118.433 97.44 118.43L287.82 118.25C288.067 118.25 288.303 118.348 288.478 118.522C288.652 118.697 288.75 118.933 288.75 119.18L288.71 261.25Z" fill="#323336"/>
<path d="M288.71 261.25L293.79 265C274.55 274.7 261.163 289.203 253.63 308.51C251.157 314.837 249.547 321.287 248.8 327.86C247.387 340.273 248.87 352.07 253.25 363.25C258.497 376.637 266.35 387.617 276.81 396.19C291.857 408.517 309.503 414.8 329.75 415.04C329.67 415.433 329.567 415.82 329.44 416.2C329.313 416.6 329.25 416.98 329.25 417.34C329.25 458.48 329.25 499.617 329.25 540.75C329.25 542.297 329.333 543.533 329.5 544.46L282.05 544.82C281.92 544.82 281.795 544.872 281.704 544.964C281.612 545.055 281.56 545.18 281.56 545.31L281.5 620.69C281.5 620.905 281.585 621.111 281.737 621.263C281.889 621.415 282.095 621.5 282.31 621.5L329.75 621.54C329.45 623.933 329.297 626.337 329.29 628.75C329.263 642.163 329.25 655.907 329.25 669.98C329.25 670.073 329.232 670.166 329.197 670.252C329.162 670.338 329.11 670.416 329.045 670.482C328.98 670.548 328.903 670.6 328.818 670.636C328.733 670.672 328.642 670.69 328.55 670.69L130.28 670.75C130.007 670.75 129.745 670.641 129.552 670.448C129.359 670.255 129.25 669.993 129.25 669.72C129.25 653.853 129.25 638.353 129.25 623.22C129.25 623.133 129.33 621.493 129.49 618.3C129.577 616.533 129.483 614.767 129.21 613C129.283 506.8 129.297 434.883 129.25 397.25C129.23 378.263 129.313 362.93 129.5 351.25C129.64 342.663 129.783 337.247 129.93 335C131.35 313.367 138.73 294.517 152.07 278.45C156.217 273.457 160.987 268.82 166.38 264.54C189.447 246.247 215.987 239.317 246 243.75C260.853 245.943 275.09 251.777 288.71 261.25Z" fill="#DACDC9"/>
<path d="M329.75 415.04C309.503 414.8 291.857 408.517 276.81 396.19C266.35 387.617 258.497 376.637 253.25 363.25C248.87 352.07 247.387 340.273 248.8 327.86C249.547 321.287 251.157 314.837 253.63 308.51C261.163 289.203 274.55 274.7 293.79 265C303.543 260.833 312.28 258.417 320 257.75C347.56 255.363 370.58 263.843 389.06 283.19C397.653 292.177 403.663 302.697 407.09 314.75C408.877 321.017 409.837 327.587 409.97 334.46C410.417 356.733 402.613 375.767 386.56 391.56C371.18 406.7 352.243 414.527 329.75 415.04Z" fill="#9B4E2A"/>
<path d="M329.75 621.54L282.31 621.5C282.095 621.5 281.889 621.415 281.737 621.263C281.585 621.111 281.5 620.905 281.5 620.69L281.56 545.31C281.56 545.18 281.612 545.055 281.704 544.964C281.795 544.872 281.92 544.82 282.05 544.82L329.5 544.46L345.56 544.57C345.626 544.571 345.693 544.559 345.754 544.535C345.816 544.51 345.873 544.474 345.92 544.427C345.968 544.381 346.005 544.325 346.031 544.264C346.057 544.202 346.07 544.137 346.07 544.07L346.25 479.94C346.25 479.757 346.323 479.581 346.452 479.452C346.581 479.323 346.757 479.25 346.94 479.25H405.34C405.515 479.25 405.683 479.18 405.807 479.057C405.93 478.933 406 478.765 406 478.59V415.64C406 415.472 406.066 415.311 406.184 415.191C406.302 415.071 406.462 415.003 406.63 415L466.94 414.81C466.973 414.81 467.005 414.816 467.036 414.829C467.066 414.842 467.094 414.86 467.117 414.883C467.14 414.906 467.158 414.934 467.171 414.964C467.184 414.995 467.19 415.027 467.19 415.06L467.25 620.63C467.25 620.861 467.157 621.082 466.992 621.245C466.827 621.408 466.603 621.5 466.37 621.5L329.75 621.54Z" fill="#7E321B"/>
</g>
<defs>
<clipPath id="clip0_3_590">
<rect width="564" height="789" fill="white"/>
</clipPath>
</defs>
</svg>
