<svg width="929" height="1396" viewBox="0 0 929 1396" fill="none" xmlns="http://www.w3.org/2000/svg">
<g clip-path="url(#clip0_37_2)">
<path d="M4.17383 1395.41C312.422 1394.56 620.67 1393.71 928.918 1392.86C927.639 928.799 926.36 464.736 925.081 0.673859C616.833 1.52341 308.585 2.37296 0.336869 3.22251C1.61586 467.285 2.89484 931.348 4.17383 1395.41ZM221.388 445.984L222.202 446.665C243.988 447.984 263.978 452.868 282.172 461.318C327.289 482.307 357.701 516.928 373.409 565.18C376.866 575.787 379.083 587.179 380.057 599.356L380.739 599.354L380.483 447.743C380.482 447.54 380.522 447.339 380.601 447.152C380.679 446.965 380.794 446.795 380.939 446.654C381.084 446.512 381.256 446.401 381.444 446.327C381.633 446.254 381.834 446.219 382.036 446.225C413.588 446.844 441.909 454.728 467 469.878C488.159 482.651 505.759 499.46 519.801 520.307C536.863 545.618 546.257 573.442 547.985 603.778L549.072 603.775C549.323 596.903 549.902 590.963 550.807 585.957C559.118 540.265 581.396 504.045 617.642 477.295C645.921 456.418 678.339 445.68 714.895 445.08C715.001 445.077 715.106 445.096 715.204 445.135C715.303 445.173 715.393 445.232 715.468 445.306C715.544 445.38 715.604 445.468 715.646 445.566C715.687 445.664 715.708 445.769 715.708 445.875L716.263 611.667C716.263 611.853 716.227 612.038 716.157 612.21C716.086 612.382 715.983 612.538 715.852 612.67C715.721 612.802 715.566 612.907 715.395 612.979C715.224 613.05 715.04 613.087 714.855 613.088L381.606 614.006C381.404 614.007 381.21 614.086 381.068 614.227C380.925 614.368 380.845 614.559 380.846 614.757C380.345 652.731 369.059 686.37 346.989 715.675C340.437 724.367 333.132 732.355 325.072 739.639C298.014 764.095 265.751 778.241 228.285 782.079C227.842 782.123 227.382 782.152 226.906 782.164C218.319 782.448 218.007 782.878 225.969 783.453C245.982 784.918 264.972 789.696 282.937 797.788C292.619 802.158 301.973 807.565 311 814.01C343.523 837.259 365.258 868.854 376.205 908.793C379.122 919.434 380.84 930.393 381.358 941.67C381.496 944.633 381.652 944.633 381.828 941.669C383.202 918.326 389.117 896.187 399.572 875.25C404.337 865.695 410.115 856.534 416.905 847.766C448.536 806.841 491.82 784.919 546.756 781.999C547.034 781.983 547.312 782.024 547.574 782.12C547.835 782.216 548.074 782.366 548.277 782.559C548.479 782.752 548.641 782.985 548.752 783.243C548.862 783.501 548.919 783.78 548.92 784.061L549.781 949.282C549.781 949.498 549.869 949.705 550.025 949.857C550.18 950.01 550.391 950.095 550.61 950.094C597.075 950.075 643.539 949.985 690.004 949.824C709.44 949.76 720.261 949.773 722.467 949.865C770.506 952.012 810.457 970.649 842.32 1005.78C849.86 1014.1 856.309 1022.8 861.666 1031.86C876.683 1057.26 884.559 1085.45 885.293 1116.43C885.296 1116.56 885.274 1116.68 885.228 1116.8C885.182 1116.91 885.113 1117.02 885.026 1117.11C884.938 1117.2 884.834 1117.27 884.719 1117.32C884.604 1117.37 884.48 1117.39 884.355 1117.39L719.069 1117.85C718.695 1117.85 718.336 1118 718.072 1118.27C717.808 1118.54 717.661 1118.91 717.662 1119.29L717.827 1285.28C717.828 1285.49 717.743 1285.69 717.591 1285.84C717.439 1285.99 717.233 1286.07 717.018 1286.08C686.841 1285.82 659.067 1278.27 633.696 1263.41C600.437 1243.94 576.463 1216.02 561.772 1179.65C554.28 1161.09 550.374 1140.95 550.054 1119.23C550.054 1119.01 549.968 1118.8 549.816 1118.65C549.664 1118.49 549.458 1118.4 549.241 1118.4C496.943 1117.22 454.366 1097.33 421.509 1058.73C398.126 1031.25 385.008 998.591 382.157 960.768C382.101 960.139 381.884 959.987 381.506 960.314C381.312 960.466 381.237 960.727 381.281 961.096C381.348 961.693 381.376 962.062 381.365 962.203C379.714 987.066 372.663 1010.79 360.211 1033.39C359.989 1033.78 359.873 1034.23 359.875 1034.69C359.876 1035.15 359.994 1035.6 360.219 1036.01C375.479 1063.31 382.784 1092.4 382.134 1123.29C381.904 1134.01 380.571 1144.77 378.134 1155.56C369.404 1194.15 349.796 1225.79 319.309 1250.47C310.73 1257.41 301.704 1263.35 292.232 1268.31C268.656 1280.67 243.402 1287.12 216.472 1287.65C216.305 1287.65 216.138 1287.62 215.983 1287.56C215.827 1287.5 215.686 1287.4 215.566 1287.29C215.446 1287.17 215.351 1287.03 215.286 1286.87C215.221 1286.72 215.188 1286.55 215.187 1286.38L214.406 1120.51C214.405 1120.2 214.281 1119.9 214.061 1119.68C213.841 1119.46 213.544 1119.34 213.234 1119.34L47.8183 1119.7C47.5773 1119.7 47.3459 1119.61 47.1751 1119.43C47.0042 1119.26 46.9079 1119.03 46.9072 1118.79C47.1399 1089.43 54.3975 1062.02 68.68 1036.57C68.8568 1036.25 68.9492 1035.9 68.9482 1035.54C68.9472 1035.17 68.8528 1034.82 68.6743 1034.5C52.4797 1005.83 45.2295 975.076 46.9236 942.234C48.4124 913.409 56.1504 887.633 70.1375 864.907C100.653 815.344 145.598 788.038 204.974 782.99C205.504 782.945 205.504 782.902 204.974 782.86C160.49 779.563 123.226 762.552 93.1815 731.827C85.4806 723.957 78.7029 715.53 72.8484 706.547C55.1546 679.392 46.051 649.191 45.5376 615.942C45.535 615.81 45.5587 615.679 45.6071 615.557C45.6556 615.434 45.7278 615.323 45.8197 615.228C45.9115 615.134 46.0211 615.059 46.1421 615.008C46.2631 614.957 46.3931 614.93 46.5244 614.93L211.729 614.474C212.155 614.473 212.563 614.302 212.864 613.999C213.164 613.696 213.332 613.286 213.331 612.858L212.045 111.003C212.045 110.791 212.129 110.588 212.281 110.438C212.433 110.288 212.639 110.203 212.854 110.202C238.39 110.045 262.584 115.629 285.436 126.953C321.762 144.938 348.315 172.432 365.095 209.435C373.224 227.356 378.008 246.15 379.446 265.816C379.469 266.12 379.448 266.484 379.384 266.907C379.299 267.483 379.327 267.852 379.469 268.014C379.903 268.556 380.161 268.24 380.245 267.068C382.767 232.736 394.073 202.272 414.16 175.675C420.637 167.103 427.969 159.148 436.158 151.809C466.929 124.293 503.474 109.993 545.794 108.91C545.999 108.905 546.203 108.942 546.394 109.017C546.585 109.092 546.759 109.205 546.906 109.349C547.053 109.492 547.169 109.664 547.249 109.854C547.329 110.043 547.371 110.247 547.371 110.453L547.829 276.506C547.83 276.718 547.916 276.92 548.068 277.069C548.221 277.219 548.427 277.302 548.643 277.302L714.432 276.942C714.537 276.942 714.642 276.963 714.74 277.004C714.837 277.044 714.926 277.105 715 277.18C715.074 277.256 715.133 277.345 715.172 277.444C715.211 277.543 715.231 277.648 715.229 277.754C715.025 309.713 706.863 338.708 690.744 364.741C667.345 402.495 634.582 427.297 592.455 439.148C581.928 442.119 571.301 443.999 560.574 444.788C528.425 447.157 498.194 440.917 469.881 426.069C460.414 421.101 451.399 415.134 442.835 408.167C405.664 377.896 384.723 337.821 380.01 287.943C379.965 287.411 379.922 287.411 379.88 287.944C375.536 340.148 353.197 381.699 312.863 412.596C286.55 432.74 256.058 443.869 221.388 445.984ZM717.306 613.39C761.047 614.182 798.391 628.761 829.337 657.127C837.437 664.552 844.711 672.57 851.16 681.182C872.589 709.836 883.653 742.881 884.351 780.32C884.351 780.429 884.33 780.537 884.289 780.638C884.247 780.738 884.187 780.83 884.11 780.907C884.034 780.985 883.943 781.046 883.842 781.088C883.742 781.13 883.634 781.152 883.526 781.152L718.061 781.608C717.709 781.609 717.37 781.47 717.12 781.22C716.869 780.97 716.728 780.631 716.727 780.277L716.27 614.403C716.27 614.268 716.296 614.133 716.349 614.009C716.401 613.884 716.478 613.771 716.574 613.676C716.671 613.582 716.785 613.508 716.911 613.459C717.037 613.41 717.171 613.386 717.306 613.39Z" fill="#F8E5CA"/>
<path d="M549.072 603.775C549.209 606.489 549.235 608.117 549.15 608.66C548.885 610.354 548.722 610.349 548.664 608.645C548.605 606.995 548.379 605.373 547.985 603.778C546.257 573.442 536.863 545.619 519.801 520.308C505.759 499.461 488.159 482.651 467 469.878C441.909 454.728 413.588 446.844 382.036 446.225C381.834 446.219 381.633 446.254 381.444 446.328C381.256 446.401 381.084 446.512 380.939 446.654C380.794 446.796 380.679 446.965 380.601 447.152C380.522 447.339 380.482 447.541 380.483 447.744L380.739 599.354C381.208 600.786 381.341 602.191 381.14 603.57C381.012 604.417 380.883 604.423 380.75 603.588L380.057 599.356C379.083 587.179 376.867 575.787 373.409 565.18C357.701 516.928 327.289 482.307 282.172 461.318C263.979 452.868 243.988 447.984 222.202 446.666C215.344 446.413 215.073 446.186 221.389 445.984C256.058 443.869 286.55 432.74 312.863 412.596C353.197 381.699 375.536 340.148 379.88 287.944C379.922 287.412 379.966 287.412 380.01 287.943C384.723 337.821 405.665 377.896 442.835 408.167C451.399 415.134 460.414 421.101 469.881 426.069C498.194 440.917 528.426 447.157 560.574 444.789C571.302 443.999 581.928 442.119 592.455 439.148C634.582 427.297 667.345 402.495 690.744 364.741C706.863 338.709 715.025 309.713 715.229 277.754C715.231 277.648 715.212 277.543 715.172 277.444C715.133 277.346 715.075 277.256 715 277.18C714.926 277.105 714.838 277.045 714.74 277.004C714.642 276.963 714.538 276.942 714.432 276.942L548.643 277.302C548.428 277.302 548.221 277.219 548.068 277.07C547.916 276.92 547.83 276.718 547.829 276.506L547.372 110.453C547.371 110.247 547.33 110.043 547.25 109.854C547.17 109.664 547.053 109.492 546.906 109.349C546.759 109.205 546.585 109.092 546.394 109.017C546.203 108.942 545.999 108.906 545.794 108.91C503.474 109.993 466.929 124.293 436.158 151.809C427.97 159.148 420.637 167.104 414.16 175.675C394.073 202.272 382.768 232.736 380.245 267.068C380.161 268.24 379.903 268.556 379.469 268.014C379.328 267.852 379.3 267.483 379.384 266.907C379.448 266.484 379.469 266.12 379.446 265.816C378.008 246.15 373.224 227.357 365.095 209.435C348.315 172.432 321.762 144.938 285.437 126.953C262.584 115.629 238.39 110.045 212.854 110.203C212.639 110.203 212.433 110.288 212.281 110.438C212.13 110.588 212.045 110.791 212.045 111.003L213.331 612.858C213.332 613.286 213.164 613.696 212.864 613.999C212.563 614.302 212.155 614.473 211.729 614.475L46.5245 614.93C46.3932 614.93 46.2633 614.957 46.1423 615.008C46.0213 615.059 45.9116 615.134 45.8198 615.229C45.7279 615.323 45.6557 615.434 45.6073 615.557C45.5588 615.679 45.5352 615.81 45.5377 615.942C46.0511 649.191 55.1548 679.392 72.8486 706.547C78.703 715.53 85.4807 723.957 93.1816 731.827C123.226 762.552 160.49 779.563 204.974 782.86C205.504 782.902 205.504 782.945 204.974 782.99C145.599 788.039 100.653 815.344 70.1376 864.907C56.1505 887.633 48.4125 913.409 46.9237 942.234C45.2296 975.076 52.4798 1005.83 68.6744 1034.5C68.853 1034.82 68.9473 1035.17 68.9483 1035.54C68.9493 1035.9 68.8569 1036.25 68.6801 1036.57C54.3977 1062.02 47.1401 1089.43 46.9074 1118.79C46.908 1119.03 47.0044 1119.26 47.1752 1119.43C47.3461 1119.61 47.5774 1119.7 47.8184 1119.7L213.234 1119.34C213.544 1119.34 213.842 1119.46 214.061 1119.68C214.281 1119.9 214.405 1120.2 214.406 1120.51L215.187 1286.38C215.188 1286.55 215.221 1286.72 215.287 1286.87C215.352 1287.03 215.447 1287.17 215.566 1287.29C215.686 1287.4 215.827 1287.5 215.983 1287.56C216.139 1287.62 216.305 1287.65 216.472 1287.65C243.402 1287.12 268.656 1280.67 292.233 1268.31C301.704 1263.35 310.73 1257.41 319.309 1250.47C349.796 1225.79 369.404 1194.15 378.135 1155.56C380.571 1144.77 381.904 1134.01 382.134 1123.29C382.784 1092.4 375.479 1063.31 360.219 1036.01C359.994 1035.6 359.876 1035.15 359.875 1034.69C359.874 1034.23 359.989 1033.78 360.211 1033.39C372.663 1010.79 379.714 987.067 381.366 962.203C381.376 962.062 381.348 961.693 381.281 961.096C381.237 960.727 381.312 960.467 381.506 960.314C381.884 959.987 382.101 960.139 382.157 960.768C385.008 998.591 398.126 1031.25 421.51 1058.73C454.366 1097.33 496.943 1117.22 549.241 1118.4C549.458 1118.4 549.664 1118.49 549.816 1118.65C549.968 1118.8 550.054 1119.01 550.055 1119.23C550.374 1140.95 554.28 1161.09 561.772 1179.65C576.463 1216.02 600.438 1243.94 633.696 1263.41C659.067 1278.27 686.842 1285.82 717.018 1286.08C717.233 1286.08 717.44 1285.99 717.591 1285.84C717.743 1285.69 717.828 1285.49 717.827 1285.28L717.662 1119.29C717.661 1118.91 717.809 1118.54 718.072 1118.27C718.336 1118 718.695 1117.85 719.069 1117.85L884.355 1117.39C884.48 1117.39 884.604 1117.37 884.719 1117.32C884.834 1117.27 884.938 1117.2 885.026 1117.11C885.113 1117.02 885.182 1116.91 885.228 1116.8C885.274 1116.68 885.296 1116.56 885.294 1116.43C884.559 1085.45 876.683 1057.26 861.666 1031.86C856.309 1022.8 849.86 1014.1 842.32 1005.78C810.457 970.649 770.507 952.012 722.468 949.865C720.261 949.773 709.44 949.76 690.004 949.824C643.54 949.985 597.075 950.075 550.61 950.094C550.391 950.095 550.18 950.01 550.025 949.858C549.869 949.705 549.781 949.498 549.781 949.283L548.92 784.061C548.919 783.78 548.862 783.501 548.752 783.243C548.641 782.985 548.48 782.752 548.277 782.559C548.075 782.366 547.835 782.217 547.574 782.12C547.312 782.024 547.034 781.983 546.756 781.999C491.82 784.919 448.536 806.841 416.905 847.766C410.115 856.534 404.337 865.696 399.572 875.251C389.117 896.187 383.202 918.326 381.828 941.669C381.653 944.633 381.496 944.634 381.358 941.67C380.84 930.393 379.122 919.434 376.205 908.793C365.258 868.854 343.523 837.259 311.001 814.01C301.973 807.565 292.619 802.158 282.938 797.788C264.972 789.696 245.982 784.918 225.969 783.453C218.007 782.878 218.319 782.448 226.906 782.164C227.382 782.152 227.842 782.124 228.285 782.079C265.751 778.241 298.014 764.095 325.072 739.639C333.132 732.355 340.437 724.367 346.99 715.675C369.06 686.37 380.345 652.731 380.846 614.758C380.846 614.559 380.925 614.368 381.068 614.227C381.211 614.086 381.404 614.007 381.607 614.006L714.855 613.088C715.041 613.087 715.224 613.05 715.395 612.979C715.566 612.907 715.721 612.802 715.852 612.67C715.983 612.538 716.086 612.382 716.157 612.21C716.227 612.038 716.263 611.854 716.263 611.667L715.709 445.875C715.708 445.769 715.687 445.664 715.646 445.566C715.604 445.468 715.544 445.38 715.468 445.306C715.393 445.232 715.303 445.174 715.205 445.135C715.106 445.096 715.001 445.077 714.895 445.08C678.339 445.68 645.922 456.418 617.642 477.295C581.396 504.045 559.118 540.265 550.807 585.957C549.902 590.963 549.323 596.903 549.072 603.775ZM714.379 981.9L716.489 964.39C716.523 961.003 716.703 957.615 717.028 954.228C717.144 953.066 717.231 953.066 717.288 954.227C717.47 957.602 717.566 960.989 717.576 964.387L717.205 977.007L717.655 1116.91C717.656 1117.16 717.557 1117.4 717.382 1117.58C717.206 1117.76 716.967 1117.86 716.717 1117.86L561.586 1117.97C561.045 1117.98 561.056 1117.95 561.618 1117.91C599.844 1114.83 632.923 1100.78 660.856 1075.77C688.746 1050.81 706.587 1019.52 714.379 981.9Z" fill="#2F2527"/>
<path d="M222.202 446.665L221.389 445.984C215.073 446.186 215.344 446.413 222.202 446.665Z" fill="#637068"/>
<g clip-path="url(#clip1_37_2)">
<path d="M717.205 977.007C716.806 977.605 716.684 978.284 716.837 979.043C717.462 982.092 716.643 983.044 714.379 981.899C706.587 1019.52 688.746 1050.81 660.856 1075.77C632.923 1100.78 599.844 1114.83 561.619 1117.91C561.056 1117.95 561.045 1117.98 561.586 1117.97L716.717 1117.86C716.841 1117.86 716.963 1117.83 717.077 1117.78C717.191 1117.74 717.294 1117.67 717.382 1117.58C717.469 1117.49 717.538 1117.39 717.585 1117.27C717.632 1117.16 717.656 1117.03 717.655 1116.91L717.205 977.007Z" fill="#F8E5CA"/>
<path d="M717.204 977.006L717.575 964.386L716.488 964.389L714.379 981.899C716.642 983.044 717.462 982.091 716.837 979.043C716.683 978.283 716.806 977.605 717.204 977.006Z" fill="#F8E5CA"/>
<path d="M716.488 964.389L717.575 964.386C717.566 960.988 717.47 957.602 717.288 954.226C717.23 953.065 717.144 953.065 717.028 954.227C716.702 957.615 716.522 961.002 716.488 964.389Z" fill="#637068"/>
<path d="M717.306 613.39C717.171 613.386 717.037 613.41 716.911 613.459C716.786 613.508 716.671 613.582 716.575 613.676C716.478 613.771 716.401 613.884 716.349 614.008C716.297 614.133 716.27 614.267 716.271 614.403L716.728 780.277C716.729 780.631 716.87 780.97 717.12 781.22C717.37 781.469 717.709 781.609 718.062 781.608L883.526 781.152C883.635 781.152 883.742 781.13 883.843 781.088C883.943 781.046 884.034 780.985 884.111 780.907C884.187 780.83 884.248 780.738 884.289 780.637C884.33 780.537 884.352 780.428 884.351 780.319C883.653 742.881 872.59 709.835 851.16 681.182C844.712 672.57 837.438 664.552 829.338 657.127C798.391 628.761 761.047 614.182 717.306 613.39Z" fill="#2F2527"/>
<path d="M549.072 603.775L547.985 603.778C548.379 605.372 548.605 606.995 548.664 608.645C548.722 610.349 548.885 610.354 549.15 608.66C549.235 608.117 549.209 606.488 549.072 603.775Z" fill="#637068"/>
<path d="M380.738 599.353L380.057 599.355L380.75 603.587C380.882 604.422 381.012 604.417 381.139 603.57C381.341 602.19 381.207 600.785 380.738 599.353Z" fill="#637068"/>
</g>
</g>
<defs>
<clipPath id="clip0_37_2">
<rect width="924.748" height="1392.19" fill="white" transform="matrix(0.999996 -0.00275605 -0.00275605 -0.999996 4.17383 1395.41)"/>
</clipPath>
<clipPath id="clip1_37_2">
<rect width="987" height="599" fill="white" transform="matrix(-0.00335376 -0.999994 -0.999994 0.00335376 903.829 1341.2)"/>
</clipPath>
</defs>
</svg>
