<svg width="1501" height="971" viewBox="0 0 1501 971" fill="none" xmlns="http://www.w3.org/2000/svg">
<g clip-path="url(#clip0_37_2)">
<path d="M0.833984 970.896C0.640763 647.625 0.447542 324.355 0.254321 1.08422C500.31 0.78533 1000.36 0.486443 1500.42 0.187557C1500.61 323.458 1500.81 646.729 1501 969.999C1000.94 970.298 500.889 970.597 0.833984 970.896ZM1023.11 739.742L1022.37 738.892C1020.87 716.048 1015.54 695.101 1006.37 676.051C983.586 628.81 946.172 597.038 894.121 580.736C882.679 577.147 870.395 574.863 857.271 573.884L857.27 573.169L1020.64 572.902C1020.86 572.902 1021.07 572.859 1021.28 572.776C1021.48 572.693 1021.66 572.572 1021.81 572.42C1021.96 572.267 1022.08 572.087 1022.16 571.889C1022.24 571.691 1022.28 571.479 1022.27 571.267C1021.49 538.181 1012.89 508.507 996.477 482.247C982.638 460.103 964.461 441.704 941.947 427.052C914.611 409.248 884.596 399.494 851.902 397.79L851.901 396.65C859.305 396.362 865.703 395.734 871.095 394.767C920.3 385.89 959.249 362.398 987.943 324.292C1010.34 294.56 1021.79 260.525 1022.31 222.186C1022.31 222.075 1022.29 221.965 1022.25 221.862C1022.2 221.759 1022.14 221.665 1022.06 221.586C1021.98 221.506 1021.89 221.444 1021.78 221.401C1021.67 221.358 1021.56 221.336 1021.45 221.336L842.795 221.34C842.595 221.341 842.396 221.379 842.211 221.454C842.026 221.528 841.858 221.637 841.716 221.775C841.574 221.912 841.462 222.075 841.385 222.255C841.309 222.435 841.269 222.627 841.27 222.822L841.478 572.311C841.479 572.523 841.394 572.727 841.242 572.877C841.091 573.027 840.886 573.111 840.672 573.111C799.755 573.771 763.548 585.725 732.05 608.974C722.708 615.876 714.127 623.566 706.306 632.044C680.051 660.507 664.924 694.392 660.923 733.697C660.877 734.162 660.848 734.644 660.836 735.143C660.561 744.15 660.099 744.479 659.451 736.131C657.801 715.148 652.584 695.25 643.799 676.437C639.056 666.3 633.196 656.509 626.219 647.064C601.049 613.04 566.927 590.357 523.851 579.017C512.374 575.996 500.559 574.233 488.405 573.73C485.212 573.596 485.212 573.432 488.405 573.237C513.553 571.713 537.388 565.432 559.91 554.393C570.189 549.362 580.04 543.271 589.464 536.119C633.449 502.802 656.916 457.331 659.864 399.708C659.88 399.417 659.835 399.125 659.73 398.851C659.626 398.577 659.464 398.327 659.255 398.115C659.047 397.904 658.795 397.735 658.517 397.62C658.238 397.505 657.938 397.446 657.634 397.447L479.597 397.128C479.364 397.128 479.141 397.036 478.976 396.874C478.812 396.711 478.719 396.491 478.719 396.26C478.573 347.532 478.503 298.803 478.509 250.074C478.508 229.691 478.455 218.343 478.348 216.029C475.862 165.657 455.635 123.825 417.67 90.5338C408.67 82.6559 399.279 75.924 389.497 70.3378C362.069 54.6784 331.663 46.5183 298.279 45.8577C298.144 45.8555 298.01 45.8795 297.884 45.9281C297.759 45.9768 297.645 46.0492 297.548 46.1411C297.452 46.233 297.375 46.3426 297.323 46.4635C297.271 46.5844 297.244 46.7141 297.244 46.8452L297.348 220.186C297.348 220.579 297.186 220.955 296.896 221.233C296.607 221.511 296.214 221.667 295.805 221.667L116.943 222.081C116.715 222.081 116.497 222.17 116.335 222.33C116.174 222.49 116.084 222.706 116.084 222.932C116.465 254.578 124.706 283.679 140.806 310.234C161.905 345.044 192.075 370.088 231.317 385.366C251.347 393.158 273.065 397.183 296.471 397.441C296.706 397.441 296.931 397.53 297.098 397.689C297.266 397.848 297.362 398.064 297.367 398.291C298.827 453.133 320.411 497.715 362.121 532.036C391.823 556.462 427.057 570.103 467.823 572.96C468.502 573.016 468.666 573.243 468.315 573.64C468.151 573.844 467.871 573.924 467.473 573.879C466.83 573.811 466.432 573.783 466.28 573.795C439.494 575.614 413.952 583.093 389.653 596.231C389.225 596.465 388.74 596.588 388.245 596.589C387.751 596.589 387.263 596.466 386.828 596.233C357.354 580.325 325.977 572.767 292.699 573.558C281.142 573.837 269.557 575.273 257.943 577.866C216.389 587.158 182.368 607.834 155.881 639.893C148.436 648.915 142.061 658.402 136.756 668.352C123.518 693.122 116.662 719.628 116.187 747.872C116.185 748.048 116.219 748.222 116.287 748.385C116.354 748.548 116.455 748.697 116.582 748.822C116.71 748.947 116.861 749.046 117.029 749.113C117.196 749.181 117.375 749.216 117.557 749.216L296.296 749.449C296.631 749.449 296.952 749.578 297.189 749.807C297.426 750.037 297.56 750.348 297.56 750.673L297.769 924.151C297.769 924.403 297.873 924.646 298.057 924.824C298.241 925.003 298.491 925.103 298.752 925.103C330.393 924.755 359.9 917.047 387.274 901.979C387.611 901.792 387.993 901.694 388.384 901.694C388.774 901.693 389.16 901.791 389.503 901.977C420.452 918.859 453.618 926.354 489.001 924.462C520.056 922.798 547.803 914.592 572.241 899.843C625.537 867.666 654.799 820.434 660.026 758.147C660.072 757.591 660.119 757.591 660.166 758.147C663.878 804.787 682.342 843.806 715.558 875.206C724.067 883.254 733.171 890.333 742.872 896.44C772.196 914.9 804.773 924.341 840.601 924.762C840.743 924.764 840.884 924.739 841.016 924.688C841.148 924.636 841.268 924.56 841.369 924.463C841.47 924.367 841.551 924.252 841.606 924.125C841.66 923.997 841.689 923.861 841.689 923.723L841.585 750.467C841.585 750.021 841.767 749.592 842.093 749.276C842.419 748.96 842.86 748.782 843.321 748.782L1384.1 748.357C1384.33 748.356 1384.55 748.267 1384.71 748.107C1384.87 747.947 1384.96 747.731 1384.96 747.505C1385.04 720.725 1378.93 695.372 1366.65 671.446C1347.14 633.413 1317.42 605.664 1277.48 588.197C1258.14 579.736 1237.87 574.785 1216.68 573.346C1216.35 573.323 1215.96 573.346 1215.5 573.415C1214.88 573.506 1214.49 573.478 1214.31 573.33C1213.72 572.877 1214.06 572.605 1215.33 572.513C1252.31 569.746 1285.1 557.782 1313.68 536.622C1322.9 529.8 1331.44 522.081 1339.32 513.468C1368.86 481.1 1384.14 442.724 1385.15 398.339C1385.16 398.124 1385.12 397.91 1385.04 397.71C1384.96 397.51 1384.83 397.328 1384.68 397.174C1384.52 397.02 1384.34 396.898 1384.13 396.815C1383.93 396.732 1383.71 396.689 1383.49 396.689L1204.55 396.796C1204.33 396.797 1204.11 396.707 1203.95 396.548C1203.78 396.388 1203.69 396.172 1203.69 395.946L1203.48 222.078C1203.48 221.967 1203.46 221.857 1203.42 221.755C1203.37 221.652 1203.31 221.56 1203.23 221.482C1203.14 221.405 1203.05 221.344 1202.94 221.303C1202.84 221.262 1202.72 221.242 1202.61 221.245C1168.17 221.571 1136.96 230.233 1108.96 247.23C1068.37 271.902 1041.76 306.35 1029.14 350.571C1025.98 361.621 1023.99 372.772 1023.18 384.025C1020.74 417.749 1027.57 449.431 1043.67 479.071C1049.06 488.982 1055.52 498.415 1063.06 507.371C1095.81 546.246 1139.07 568.067 1192.83 572.833C1193.41 572.878 1193.41 572.923 1192.83 572.969C1136.6 577.71 1091.9 601.284 1058.76 643.692C1037.14 671.359 1025.26 703.376 1023.11 739.742ZM840.935 220.253C839.925 174.383 824.081 135.271 793.403 102.917C785.374 94.4485 776.708 86.8483 767.404 80.1162C736.452 57.744 700.803 46.258 660.459 45.6583C660.342 45.6583 660.226 45.6808 660.117 45.7245C660.008 45.7682 659.91 45.8321 659.827 45.9127C659.744 45.9934 659.678 46.0891 659.633 46.1944C659.588 46.2997 659.565 46.4126 659.565 46.5265L659.669 220.055C659.669 220.425 659.821 220.78 660.091 221.041C660.361 221.303 660.727 221.449 661.108 221.449L839.848 221.342C839.993 221.342 840.138 221.314 840.272 221.259C840.406 221.203 840.528 221.123 840.629 221.021C840.731 220.919 840.81 220.799 840.862 220.667C840.915 220.535 840.939 220.394 840.935 220.253Z" fill="#F8E5CA"/>
<path d="M851.901 396.65C848.976 396.515 847.222 396.494 846.637 396.585C844.812 396.869 844.818 397.04 846.655 397.095C848.433 397.151 850.182 397.382 851.902 397.79C884.596 399.494 914.611 409.248 941.947 427.051C964.461 441.704 982.637 460.103 996.477 482.247C1012.89 508.507 1021.49 538.181 1022.27 571.267C1022.28 571.479 1022.24 571.691 1022.16 571.888C1022.08 572.086 1021.96 572.267 1021.81 572.419C1021.66 572.572 1021.48 572.693 1021.28 572.776C1021.07 572.859 1020.86 572.902 1020.64 572.902L857.27 573.169C855.726 572.682 854.211 572.547 852.726 572.764C851.813 572.9 851.807 573.036 852.708 573.172L857.271 573.884C870.395 574.863 882.679 577.147 894.121 580.736C946.171 597.038 983.586 628.81 1006.37 676.05C1015.54 695.101 1020.87 716.048 1022.37 738.892C1022.67 746.083 1022.91 746.366 1023.11 739.742C1025.26 703.375 1037.14 671.359 1058.76 643.692C1091.9 601.284 1136.6 577.71 1192.83 572.969C1193.41 572.923 1193.41 572.878 1192.83 572.833C1139.07 568.067 1095.81 546.246 1063.06 507.371C1055.52 498.415 1049.06 488.982 1043.67 479.071C1027.57 449.431 1020.74 417.749 1023.18 384.025C1023.99 372.772 1025.98 361.621 1029.14 350.571C1041.76 306.349 1068.36 271.902 1108.96 247.23C1136.96 230.233 1168.17 221.571 1202.61 221.244C1202.72 221.242 1202.83 221.262 1202.94 221.303C1203.05 221.344 1203.14 221.404 1203.23 221.482C1203.31 221.56 1203.37 221.652 1203.42 221.755C1203.46 221.857 1203.48 221.967 1203.48 222.078L1203.69 395.946C1203.69 396.172 1203.78 396.388 1203.95 396.547C1204.11 396.707 1204.33 396.796 1204.55 396.796L1383.49 396.689C1383.71 396.689 1383.93 396.732 1384.13 396.815C1384.34 396.898 1384.52 397.02 1384.68 397.174C1384.83 397.328 1384.96 397.51 1385.04 397.71C1385.12 397.91 1385.16 398.124 1385.15 398.339C1384.14 442.724 1368.86 481.1 1339.32 513.467C1331.44 522.081 1322.9 529.8 1313.68 536.622C1285.1 557.782 1252.31 569.746 1215.33 572.513C1214.06 572.604 1213.72 572.877 1214.31 573.33C1214.49 573.478 1214.88 573.506 1215.5 573.415C1215.96 573.346 1216.35 573.323 1216.68 573.346C1237.87 574.785 1258.14 579.735 1277.48 588.197C1317.42 605.664 1347.14 633.413 1366.65 671.445C1378.93 695.371 1385.04 720.725 1384.96 747.505C1384.96 747.731 1384.87 747.947 1384.71 748.107C1384.55 748.267 1384.33 748.356 1384.1 748.356L843.321 748.782C842.86 748.782 842.419 748.96 842.093 749.276C841.767 749.592 841.585 750.02 841.585 750.467L841.688 923.723C841.689 923.861 841.66 923.997 841.606 924.124C841.551 924.251 841.47 924.367 841.369 924.463C841.268 924.56 841.148 924.636 841.016 924.687C840.884 924.739 840.743 924.764 840.601 924.762C804.772 924.341 772.196 914.9 742.872 896.44C733.171 890.332 724.066 883.254 715.558 875.206C682.342 843.806 663.878 804.786 660.166 758.147C660.119 757.591 660.072 757.591 660.025 758.147C654.799 820.434 625.537 867.666 572.241 899.843C547.802 914.592 520.056 922.798 489.001 924.461C453.618 926.354 420.452 918.859 389.502 901.977C389.16 901.791 388.774 901.693 388.384 901.693C387.993 901.694 387.611 901.792 387.274 901.978C359.9 917.047 330.393 924.755 298.752 925.103C298.491 925.103 298.241 925.003 298.057 924.824C297.873 924.645 297.769 924.403 297.769 924.15L297.56 750.673C297.56 750.348 297.426 750.037 297.189 749.807C296.952 749.578 296.631 749.449 296.296 749.449L117.556 749.216C117.375 749.216 117.196 749.181 117.029 749.113C116.861 749.046 116.71 748.946 116.582 748.821C116.455 748.696 116.354 748.548 116.286 748.385C116.219 748.222 116.185 748.048 116.187 747.872C116.661 719.628 123.518 693.122 136.756 668.352C142.06 658.401 148.436 648.915 155.881 639.893C182.368 607.834 216.389 587.158 257.943 577.866C269.557 575.273 281.142 573.837 292.699 573.558C325.977 572.767 357.353 580.325 386.828 596.233C387.263 596.466 387.751 596.589 388.245 596.588C388.74 596.588 389.225 596.465 389.653 596.231C413.952 583.093 439.494 575.614 466.28 573.794C466.432 573.783 466.83 573.811 467.473 573.879C467.871 573.924 468.151 573.844 468.315 573.64C468.666 573.243 468.502 573.016 467.823 572.96C427.057 570.103 391.823 556.462 362.12 532.036C320.411 497.714 298.827 453.133 297.367 398.291C297.362 398.064 297.266 397.848 297.098 397.689C296.931 397.53 296.706 397.441 296.471 397.441C273.065 397.183 251.347 393.158 231.317 385.366C192.075 370.088 161.905 345.044 140.805 310.234C124.706 283.679 116.465 254.578 116.084 222.932C116.084 222.706 116.174 222.49 116.335 222.33C116.496 222.17 116.715 222.081 116.943 222.08L295.805 221.667C296.214 221.667 296.607 221.511 296.896 221.233C297.186 220.955 297.348 220.579 297.348 220.186L297.244 46.845C297.244 46.714 297.271 46.5842 297.323 46.4633C297.375 46.3424 297.452 46.2329 297.548 46.1409C297.644 46.049 297.759 45.9766 297.884 45.928C298.01 45.8793 298.144 45.8553 298.279 45.8575C331.663 46.5181 362.069 54.6782 389.497 70.3376C399.279 75.9238 408.67 82.6557 417.67 90.5336C455.635 123.825 475.861 165.656 478.348 216.029C478.455 218.342 478.508 229.691 478.509 250.074C478.503 298.803 478.573 347.532 478.719 396.26C478.719 396.49 478.812 396.711 478.976 396.874C479.141 397.036 479.364 397.128 479.597 397.127L657.634 397.446C657.937 397.446 658.238 397.505 658.516 397.62C658.795 397.735 659.047 397.903 659.255 398.115C659.464 398.327 659.626 398.577 659.73 398.851C659.835 399.125 659.88 399.417 659.864 399.708C656.915 457.331 633.449 502.802 589.464 536.119C580.04 543.271 570.189 549.362 559.91 554.393C537.388 565.432 513.553 571.713 488.405 573.237C485.211 573.431 485.212 573.596 488.405 573.73C500.559 574.233 512.374 575.996 523.851 579.017C566.927 590.357 601.049 613.039 626.218 647.064C633.196 656.509 639.056 666.3 643.799 676.437C652.584 695.25 657.801 715.148 659.451 736.131C660.099 744.479 660.561 744.15 660.836 735.143C660.848 734.644 660.877 734.162 660.923 733.697C664.924 694.392 680.051 660.507 706.306 632.044C714.126 623.566 722.708 615.876 732.05 608.974C763.548 585.725 799.755 573.771 840.672 573.111C840.886 573.111 841.091 573.027 841.242 572.877C841.394 572.727 841.479 572.523 841.478 572.311L841.269 222.821C841.269 222.627 841.309 222.435 841.385 222.255C841.462 222.075 841.574 221.912 841.716 221.775C841.858 221.637 842.026 221.528 842.211 221.453C842.396 221.379 842.595 221.34 842.795 221.34L1021.45 221.336C1021.56 221.336 1021.67 221.358 1021.78 221.4C1021.89 221.443 1021.98 221.506 1022.06 221.585C1022.14 221.665 1022.2 221.758 1022.25 221.862C1022.29 221.965 1022.31 222.075 1022.31 222.186C1021.79 260.525 1010.34 294.56 987.943 324.292C959.249 362.398 920.3 385.89 871.095 394.767C865.703 395.734 859.305 396.362 851.901 396.65ZM443.858 224.624L462.718 222.35C466.368 222.303 470.017 222.102 473.667 221.748C474.918 221.623 474.918 221.532 473.667 221.476C470.029 221.297 466.379 221.208 462.718 221.21L449.12 221.644L298.366 221.666C298.097 221.666 297.838 221.77 297.647 221.955C297.456 222.14 297.349 222.391 297.349 222.653L297.78 385.343C297.78 385.91 297.804 385.899 297.85 385.309C301.031 345.21 316.047 310.47 342.898 281.087C369.691 251.75 403.344 232.929 443.858 224.624Z" fill="#2F2527"/>
<path d="M449.12 221.644C448.477 222.064 447.746 222.195 446.927 222.036C443.64 221.392 442.617 222.255 443.858 224.624C403.344 232.929 369.691 251.75 342.899 281.087C316.048 310.47 301.032 345.21 297.851 385.309C297.804 385.899 297.781 385.91 297.78 385.343L297.35 222.653C297.35 222.524 297.376 222.395 297.427 222.276C297.478 222.156 297.553 222.047 297.647 221.955C297.742 221.864 297.854 221.791 297.977 221.741C298.101 221.692 298.233 221.666 298.367 221.666L449.12 221.644Z" fill="#F8E5CA"/>
<path d="M449.12 221.644L462.718 221.21L462.718 222.35L443.858 224.624C442.617 222.255 443.64 221.392 446.927 222.036C447.746 222.195 448.477 222.064 449.12 221.644Z" fill="#F8E5CA"/>
<path d="M462.719 222.35L462.718 221.21C466.379 221.208 470.029 221.297 473.667 221.476C474.918 221.532 474.918 221.623 473.667 221.748C470.018 222.102 466.368 222.303 462.719 222.35Z" fill="#637068"/>
<path d="M840.935 220.253C840.94 220.394 840.915 220.535 840.863 220.667C840.81 220.799 840.731 220.919 840.629 221.021C840.528 221.123 840.407 221.203 840.272 221.259C840.138 221.314 839.994 221.342 839.848 221.342L661.109 221.449C660.727 221.449 660.361 221.303 660.091 221.041C659.821 220.78 659.669 220.425 659.669 220.055L659.565 46.5265C659.565 46.4126 659.588 46.2997 659.633 46.1944C659.678 46.0891 659.744 45.9934 659.827 45.9128C659.91 45.8321 660.009 45.7682 660.117 45.7245C660.226 45.6808 660.342 45.6583 660.46 45.6583C700.804 46.258 736.452 57.744 767.404 80.1162C776.708 86.8483 785.374 94.4485 793.403 102.917C824.081 135.271 839.925 174.383 840.935 220.253Z" fill="#2F2527"/>
<path d="M851.901 396.65L851.901 397.79C850.182 397.382 848.433 397.151 846.655 397.095C844.818 397.04 844.812 396.87 846.637 396.585C847.222 396.494 848.976 396.515 851.901 396.65Z" fill="#637068"/>
<path d="M857.271 573.169L857.271 573.884L852.709 573.172C851.808 573.037 851.814 572.901 852.726 572.764C854.212 572.547 855.726 572.683 857.271 573.169Z" fill="#637068"/>
<path d="M1022.37 738.892L1023.11 739.742C1022.91 746.366 1022.67 746.083 1022.37 738.892Z" fill="#637068"/>
</g>
<defs>
<clipPath id="clip0_37_2">
<rect width="969.812" height="1500.17" fill="white" transform="translate(0.833984 970.896) rotate(-90.0342)"/>
</clipPath>
</defs>
</svg>
