<svg width="1176" height="785" viewBox="0 0 1176 785" fill="none" xmlns="http://www.w3.org/2000/svg">
<g clip-path="url(#clip0_37_2)">
<path d="M0.722656 784.398C0.566592 523.294 0.410529 262.189 0.254465 1.08487C391.911 0.850772 783.568 0.616676 1175.22 0.38258C1175.38 261.487 1175.54 522.591 1175.69 783.696C784.036 783.93 392.379 784.164 0.722656 784.398ZM801.391 597.711L800.813 597.024C799.639 578.573 795.46 561.654 788.277 546.267C770.435 508.111 741.131 482.448 700.363 469.28C691.401 466.381 681.78 464.536 671.501 463.746L671.5 463.168L799.455 462.954C799.627 462.954 799.796 462.92 799.954 462.853C800.112 462.786 800.254 462.688 800.374 462.565C800.493 462.442 800.586 462.296 800.648 462.136C800.709 461.976 800.738 461.806 800.732 461.634C800.121 434.911 793.387 410.943 780.529 389.733C769.69 371.847 755.453 356.986 737.819 345.151C716.409 330.771 692.9 322.892 667.293 321.515L667.292 320.594C673.092 320.362 678.103 319.855 682.326 319.073C720.864 311.904 751.37 292.931 773.843 262.153C791.382 238.139 800.353 210.649 800.756 179.683C800.758 179.593 800.742 179.504 800.709 179.421C800.676 179.338 800.626 179.262 800.564 179.198C800.501 179.134 800.426 179.083 800.343 179.049C800.261 179.014 800.172 178.996 800.083 178.996L660.158 178.997C660.001 178.997 659.846 179.028 659.701 179.089C659.556 179.149 659.424 179.237 659.313 179.348C659.202 179.459 659.114 179.591 659.054 179.736C658.994 179.881 658.963 180.037 658.963 180.194L659.132 462.475C659.132 462.646 659.065 462.811 658.947 462.932C658.829 463.053 658.668 463.121 658.5 463.121C626.453 463.653 598.095 473.308 573.425 492.086C566.108 497.66 559.387 503.871 553.262 510.719C532.699 533.708 520.851 561.076 517.719 592.823C517.682 593.199 517.66 593.588 517.651 593.991C517.435 601.266 517.073 601.532 516.565 594.789C515.273 577.841 511.186 561.769 504.306 546.574C500.591 538.386 496.001 530.478 490.536 522.85C470.822 495.368 444.096 477.047 410.358 467.887C401.369 465.446 392.115 464.022 382.595 463.616C380.094 463.507 380.094 463.375 382.595 463.217C402.292 461.987 420.96 456.914 438.6 447.999C446.65 443.935 454.366 439.015 461.747 433.239C496.197 406.329 514.576 369.604 516.884 323.061C516.897 322.826 516.861 322.591 516.779 322.369C516.697 322.148 516.571 321.946 516.407 321.775C516.244 321.604 516.047 321.468 515.829 321.375C515.61 321.282 515.375 321.234 515.138 321.235L375.694 320.975C375.512 320.975 375.337 320.901 375.208 320.77C375.079 320.638 375.007 320.46 375.006 320.274C374.891 280.916 374.836 241.558 374.84 202.2C374.839 185.737 374.797 176.571 374.713 174.702C372.765 134.016 356.923 100.229 327.187 73.339C320.138 66.976 312.782 61.5385 305.12 57.0264C283.638 44.378 259.823 37.7867 233.676 37.2526C233.57 37.2508 233.465 37.2702 233.367 37.3095C233.269 37.3488 233.179 37.4073 233.104 37.4815C233.028 37.5557 232.968 37.6442 232.927 37.7419C232.887 37.8395 232.866 37.9443 232.866 38.0502L232.949 178.057C232.95 178.374 232.822 178.678 232.596 178.903C232.369 179.127 232.061 179.253 231.741 179.253L91.6515 179.584C91.4729 179.585 91.3017 179.657 91.1755 179.786C91.0493 179.915 90.9784 180.09 90.9786 180.272C91.2778 205.833 97.7325 229.337 110.342 250.786C126.868 278.902 150.499 299.131 181.234 311.471C196.923 317.765 213.933 321.016 232.265 321.225C232.449 321.225 232.625 321.297 232.756 321.425C232.887 321.554 232.963 321.728 232.967 321.912C234.111 366.207 251.017 402.216 283.685 429.938C306.949 449.667 334.546 460.685 366.475 462.993C367.007 463.039 367.135 463.222 366.86 463.543C366.732 463.708 366.512 463.772 366.201 463.736C365.697 463.681 365.385 463.658 365.266 463.667C344.287 465.137 324.282 471.177 305.251 481.788C304.915 481.977 304.535 482.077 304.148 482.077C303.761 482.077 303.379 481.978 303.038 481.79C279.953 468.941 255.378 462.835 229.313 463.474C220.262 463.699 211.188 464.859 202.092 466.953C169.545 474.458 142.9 491.157 122.155 517.051C116.324 524.338 111.33 532 107.176 540.037C96.8078 560.043 91.4382 581.452 91.0671 604.264C91.0653 604.406 91.0918 604.547 91.1449 604.679C91.1981 604.81 91.2768 604.93 91.3766 605.031C91.4764 605.132 91.5952 605.212 91.7262 605.267C91.8572 605.321 91.9977 605.349 92.1396 605.349L232.133 605.541C232.395 605.54 232.647 605.644 232.833 605.83C233.018 606.015 233.123 606.267 233.123 606.529L233.289 746.646C233.289 746.85 233.371 747.046 233.515 747.19C233.659 747.334 233.855 747.415 234.059 747.415C258.841 747.135 281.952 740.909 303.392 728.739C303.656 728.589 303.955 728.509 304.261 728.509C304.567 728.509 304.869 728.588 305.137 728.738C329.378 742.374 355.354 748.428 383.067 746.9C407.39 745.557 429.122 738.93 448.263 727.017C490.005 701.028 512.923 662.88 517.016 612.571C517.052 612.122 517.089 612.122 517.126 612.571C520.034 650.242 534.496 681.758 560.512 707.12C567.176 713.621 574.307 719.338 581.905 724.271C604.873 739.182 630.388 746.807 658.45 747.148C658.561 747.15 658.672 747.129 658.775 747.088C658.878 747.046 658.972 746.985 659.052 746.907C659.131 746.829 659.194 746.736 659.237 746.633C659.28 746.53 659.302 746.42 659.302 746.309L659.218 606.371C659.218 606.01 659.361 605.664 659.616 605.409C659.871 605.153 660.217 605.01 660.578 605.01L1084.13 604.674C1084.31 604.674 1084.48 604.601 1084.61 604.472C1084.73 604.343 1084.8 604.169 1084.8 603.986C1084.86 582.356 1080.08 561.878 1070.46 542.553C1055.18 511.834 1031.9 489.421 1000.62 475.312C985.475 468.478 969.6 464.479 952.999 463.316C952.742 463.298 952.435 463.317 952.078 463.372C951.592 463.445 951.281 463.423 951.143 463.304C950.685 462.937 950.951 462.717 951.94 462.643C980.908 460.409 1006.59 450.747 1028.98 433.656C1036.19 428.146 1042.89 421.912 1049.06 414.954C1072.19 388.812 1084.16 357.816 1084.95 321.966C1084.95 321.792 1084.92 321.62 1084.86 321.458C1084.79 321.297 1084.7 321.149 1084.58 321.025C1084.46 320.901 1084.31 320.803 1084.15 320.735C1083.99 320.668 1083.82 320.634 1083.64 320.634L943.5 320.718C943.321 320.718 943.15 320.645 943.024 320.517C942.897 320.388 942.826 320.213 942.826 320.031L942.66 179.598C942.66 179.508 942.642 179.42 942.607 179.337C942.572 179.255 942.521 179.18 942.457 179.117C942.393 179.054 942.317 179.005 942.234 178.972C942.151 178.939 942.062 178.923 941.972 178.925C915.001 179.189 890.553 186.184 868.628 199.912C836.831 219.839 815.991 247.662 806.109 283.379C803.632 292.304 802.075 301.311 801.439 310.4C799.531 337.638 804.883 363.228 817.495 387.168C821.714 395.173 826.776 402.792 832.68 410.027C858.333 441.426 892.214 459.051 934.322 462.901C934.771 462.938 934.771 462.974 934.323 463.011C890.276 466.84 855.272 485.88 829.31 520.132C812.384 542.478 803.077 568.338 801.391 597.711ZM658.701 178.119C657.909 141.07 645.499 109.479 621.471 83.3463C615.182 76.5063 608.394 70.3675 601.108 64.9299C576.865 46.8595 548.944 37.5818 517.345 37.0968C517.253 37.0968 517.162 37.115 517.077 37.1503C516.992 37.1856 516.915 37.2372 516.85 37.3023C516.785 37.3675 516.733 37.4448 516.698 37.5298C516.663 37.6149 516.645 37.706 516.645 37.7981L516.729 177.956C516.729 178.255 516.848 178.542 517.059 178.753C517.271 178.964 517.557 179.083 517.856 179.082L657.849 178.999C657.964 178.999 658.077 178.976 658.182 178.931C658.287 178.886 658.382 178.821 658.462 178.739C658.541 178.657 658.603 178.56 658.644 178.453C658.685 178.347 658.705 178.233 658.701 178.119Z" fill="#F8E5CA"/>
<path d="M667.292 320.594C665.002 320.486 663.628 320.468 663.169 320.542C661.74 320.771 661.745 320.909 663.183 320.954C664.576 320.999 665.946 321.186 667.293 321.515C692.9 322.892 716.409 330.771 737.819 345.151C755.453 356.986 769.69 371.847 780.529 389.733C793.386 410.943 800.121 434.911 800.732 461.634C800.738 461.806 800.709 461.976 800.647 462.136C800.586 462.296 800.492 462.442 800.373 462.565C800.254 462.688 800.111 462.786 799.954 462.853C799.796 462.92 799.626 462.954 799.455 462.954L671.5 463.168C670.291 462.775 669.104 462.666 667.941 462.841C667.226 462.951 667.222 463.061 667.927 463.171L671.5 463.746C681.78 464.536 691.401 466.381 700.363 469.28C741.13 482.448 770.435 508.111 788.277 546.267C795.46 561.654 799.639 578.573 800.813 597.024C801.046 602.832 801.238 603.061 801.391 597.711C803.077 568.338 812.384 542.478 829.31 520.132C855.272 485.88 890.276 466.84 934.322 463.011C934.771 462.974 934.771 462.938 934.322 462.901C892.213 459.051 858.333 441.426 832.68 410.027C826.775 402.793 821.714 395.173 817.495 387.168C804.883 363.228 799.531 337.638 801.439 310.4C802.075 301.311 803.631 292.304 806.109 283.379C815.991 247.662 836.831 219.839 868.628 199.912C890.552 186.184 915 179.189 941.972 178.925C942.061 178.923 942.151 178.939 942.234 178.972C942.317 179.005 942.393 179.054 942.457 179.117C942.521 179.18 942.572 179.255 942.607 179.337C942.641 179.42 942.659 179.508 942.659 179.598L942.826 320.031C942.826 320.213 942.897 320.388 943.023 320.517C943.15 320.645 943.321 320.718 943.5 320.718L1083.64 320.634C1083.82 320.634 1083.99 320.668 1084.15 320.735C1084.31 320.803 1084.46 320.901 1084.58 321.025C1084.7 321.149 1084.79 321.297 1084.86 321.458C1084.92 321.62 1084.95 321.792 1084.95 321.966C1084.16 357.816 1072.19 388.812 1049.06 414.954C1042.89 421.912 1036.19 428.146 1028.98 433.656C1006.59 450.747 980.907 460.409 951.94 462.643C950.95 462.717 950.685 462.937 951.143 463.304C951.281 463.423 951.592 463.445 952.078 463.372C952.435 463.317 952.742 463.298 952.998 463.316C969.6 464.479 985.475 468.478 1000.62 475.312C1031.9 489.421 1055.18 511.834 1070.46 542.553C1080.08 561.878 1084.86 582.356 1084.8 603.986C1084.8 604.169 1084.73 604.344 1084.61 604.472C1084.48 604.601 1084.31 604.674 1084.13 604.674L660.577 605.01C660.216 605.01 659.871 605.153 659.616 605.409C659.361 605.664 659.217 606.01 659.218 606.371L659.301 746.309C659.301 746.42 659.279 746.531 659.236 746.633C659.193 746.736 659.13 746.829 659.051 746.907C658.972 746.985 658.878 747.047 658.775 747.088C658.671 747.129 658.561 747.15 658.45 747.148C630.388 746.807 604.873 739.182 581.905 724.271C574.307 719.338 567.176 713.621 560.512 707.12C534.496 681.758 520.034 650.242 517.126 612.571C517.089 612.122 517.052 612.122 517.016 612.571C512.923 662.88 490.005 701.029 448.262 727.017C429.122 738.93 407.39 745.557 383.067 746.9C355.354 748.428 329.377 742.374 305.137 728.738C304.868 728.588 304.566 728.509 304.261 728.509C303.955 728.509 303.655 728.589 303.392 728.739C281.952 740.909 258.841 747.135 234.059 747.415C233.855 747.415 233.659 747.334 233.515 747.19C233.37 747.046 233.289 746.85 233.289 746.646L233.123 606.529C233.123 606.267 233.018 606.015 232.833 605.83C232.647 605.644 232.395 605.54 232.133 605.541L92.1394 605.349C91.9974 605.349 91.8569 605.321 91.7259 605.267C91.5949 605.212 91.4761 605.132 91.3763 605.031C91.2766 604.93 91.1978 604.81 91.1447 604.679C91.0916 604.547 91.0651 604.406 91.0668 604.264C91.438 581.452 96.8076 560.043 107.176 540.037C111.33 532 116.323 524.338 122.155 517.051C142.899 491.157 169.545 474.458 202.092 466.953C211.188 464.859 220.262 463.699 229.313 463.474C255.377 462.835 279.952 468.941 303.038 481.79C303.378 481.978 303.761 482.077 304.148 482.077C304.535 482.077 304.915 481.977 305.25 481.788C324.282 471.177 344.287 465.137 365.266 463.667C365.385 463.658 365.697 463.681 366.201 463.736C366.512 463.772 366.732 463.708 366.86 463.543C367.135 463.222 367.006 463.039 366.475 462.993C334.546 460.685 306.949 449.667 283.685 429.938C251.017 402.216 234.111 366.207 232.966 321.912C232.963 321.728 232.887 321.554 232.756 321.425C232.625 321.297 232.449 321.225 232.265 321.225C213.933 321.016 196.922 317.765 181.234 311.471C150.499 299.131 126.868 278.902 110.342 250.786C97.7322 229.337 91.2776 205.833 90.9783 180.272C90.9782 180.09 91.049 179.915 91.1752 179.786C91.3014 179.657 91.4727 179.585 91.6513 179.584L231.74 179.253C232.061 179.253 232.369 179.127 232.595 178.903C232.822 178.678 232.949 178.374 232.949 178.057L232.865 38.0501C232.865 37.9443 232.886 37.8395 232.927 37.7418C232.968 37.6442 233.028 37.5557 233.103 37.4815C233.179 37.4072 233.268 37.3488 233.367 37.3095C233.465 37.2702 233.57 37.2508 233.676 37.2526C259.823 37.7866 283.638 44.3779 305.12 57.0264C312.782 61.5385 320.137 66.9759 327.186 73.339C356.923 100.229 372.765 134.016 374.713 174.702C374.797 176.571 374.839 185.737 374.839 202.2C374.835 241.558 374.891 280.916 375.006 320.274C375.006 320.46 375.079 320.638 375.208 320.77C375.337 320.901 375.512 320.975 375.694 320.975L515.137 321.235C515.375 321.234 515.61 321.282 515.828 321.375C516.047 321.468 516.244 321.604 516.407 321.775C516.571 321.946 516.697 322.148 516.779 322.369C516.861 322.591 516.897 322.826 516.884 323.061C514.575 369.604 496.196 406.329 461.747 433.239C454.366 439.015 446.65 443.935 438.6 447.999C420.96 456.914 402.292 461.987 382.595 463.217C380.094 463.375 380.094 463.507 382.595 463.616C392.114 464.022 401.368 465.446 410.357 467.887C444.096 477.047 470.822 495.368 490.535 522.85C496 530.478 500.59 538.386 504.306 546.574C511.186 561.769 515.272 577.841 516.565 594.789C517.073 601.532 517.435 601.266 517.65 593.991C517.659 593.588 517.682 593.199 517.718 592.823C520.851 561.076 532.699 533.708 553.262 510.719C559.387 503.871 566.108 497.661 573.425 492.086C598.095 473.308 626.453 463.653 658.5 463.121C658.668 463.121 658.828 463.053 658.947 462.932C659.065 462.811 659.132 462.646 659.132 462.475L658.963 180.194C658.963 180.037 658.994 179.881 659.054 179.736C659.114 179.591 659.202 179.459 659.313 179.348C659.424 179.237 659.555 179.149 659.7 179.089C659.845 179.028 660.001 178.997 660.158 178.997L800.082 178.996C800.172 178.996 800.261 179.014 800.343 179.048C800.426 179.083 800.501 179.134 800.563 179.198C800.626 179.262 800.676 179.338 800.709 179.421C800.742 179.504 800.758 179.593 800.756 179.683C800.353 210.649 791.382 238.139 773.843 262.153C751.37 292.931 720.864 311.904 682.325 319.073C678.102 319.855 673.091 320.362 667.292 320.594ZM347.7 181.644L362.472 179.807C365.33 179.769 368.188 179.607 371.047 179.321C372.027 179.22 372.027 179.147 371.046 179.101C368.197 178.957 365.339 178.885 362.471 178.887L351.821 179.237L233.747 179.252C233.535 179.252 233.333 179.336 233.183 179.486C233.034 179.636 232.95 179.838 232.95 180.05L233.29 311.454C233.29 311.912 233.309 311.903 233.345 311.426C235.836 279.039 247.596 250.979 268.626 227.247C289.61 203.552 315.968 188.351 347.7 181.644Z" fill="#2F2527"/>
<path d="M351.821 179.237C351.318 179.576 350.745 179.682 350.104 179.554C347.529 179.033 346.728 179.73 347.7 181.644C315.968 188.351 289.611 203.552 268.626 227.247C247.596 250.979 235.836 279.039 233.345 311.426C233.309 311.903 233.29 311.912 233.29 311.454L232.951 180.05C232.95 179.945 232.971 179.841 233.011 179.745C233.051 179.648 233.11 179.56 233.184 179.486C233.258 179.412 233.345 179.353 233.442 179.313C233.539 179.273 233.642 179.252 233.747 179.252L351.821 179.237Z" fill="#F8E5CA"/>
<path d="M351.821 179.237L362.471 178.887L362.472 179.807L347.7 181.644C346.728 179.73 347.529 179.033 350.103 179.554C350.745 179.682 351.317 179.576 351.821 179.237Z" fill="#F8E5CA"/>
<path d="M362.472 179.807L362.471 178.887C365.339 178.885 368.197 178.957 371.046 179.101C372.027 179.147 372.027 179.22 371.047 179.321C368.188 179.607 365.33 179.769 362.472 179.807Z" fill="#637068"/>
<path d="M658.701 178.119C658.705 178.233 658.686 178.347 658.644 178.453C658.603 178.56 658.541 178.657 658.462 178.739C658.382 178.821 658.287 178.886 658.182 178.931C658.077 178.976 657.964 178.999 657.85 178.999L517.856 179.082C517.558 179.083 517.271 178.964 517.059 178.753C516.848 178.542 516.729 178.255 516.729 177.956L516.645 37.7981C516.645 37.706 516.663 37.6149 516.698 37.5298C516.733 37.4447 516.785 37.3674 516.85 37.3023C516.915 37.2372 516.992 37.1856 517.077 37.1503C517.162 37.115 517.253 37.0968 517.345 37.0968C548.944 37.5818 576.865 46.8595 601.108 64.9299C608.395 70.3675 615.182 76.5063 621.471 83.3462C645.499 109.479 657.909 141.07 658.701 178.119Z" fill="#2F2527"/>
<path d="M667.292 320.594L667.293 321.515C665.946 321.186 664.576 320.999 663.183 320.954C661.745 320.909 661.74 320.771 663.169 320.541C663.627 320.468 665.002 320.485 667.292 320.594Z" fill="#637068"/>
<path d="M671.501 463.168L671.501 463.746L667.928 463.171C667.222 463.061 667.227 462.951 667.941 462.841C669.105 462.666 670.291 462.775 671.501 463.168Z" fill="#637068"/>
<path d="M800.814 597.024L801.391 597.711C801.239 603.061 801.046 602.832 800.814 597.024Z" fill="#637068"/>
</g>
<defs>
<clipPath id="clip0_37_2">
<rect width="783.313" height="1174.97" fill="white" transform="translate(0.722656 784.398) rotate(-90.0342)"/>
</clipPath>
</defs>
</svg>
