<svg width="570" height="855" viewBox="0 0 570 855" fill="none" xmlns="http://www.w3.org/2000/svg">
<g clip-path="url(#clip0_3_596)">
<path d="M0 0C190 0 380 0 570 0C570 285 570 570 570 855C380 855 190 855 0 855C0 570 0 285 0 0ZM135.5 582.71L136 582.29C149.427 581.443 161.74 578.41 172.94 573.19C200.713 560.223 219.4 538.91 229 509.25C231.113 502.73 232.46 495.73 233.04 488.25H233.46L233.56 581.36C233.56 581.485 233.585 581.608 233.634 581.723C233.682 581.838 233.753 581.942 233.843 582.028C233.932 582.115 234.039 582.183 234.155 582.228C234.271 582.273 234.395 582.294 234.52 582.29C253.967 581.857 271.41 576.967 286.85 567.62C299.87 559.74 310.69 549.387 319.31 536.56C329.783 520.987 335.527 503.883 336.54 485.25H337.21C337.377 489.47 337.743 493.117 338.31 496.19C343.51 524.237 357.303 546.443 379.69 562.81C397.157 575.583 417.157 582.123 439.69 582.43C439.755 582.431 439.82 582.42 439.881 582.396C439.941 582.372 439.996 582.336 440.043 582.29C440.09 582.244 440.127 582.19 440.152 582.13C440.177 582.07 440.19 582.005 440.19 581.94L440.25 480.12C440.25 480.006 440.228 479.893 440.184 479.787C440.14 479.682 440.076 479.586 439.995 479.505C439.914 479.424 439.818 479.36 439.713 479.316C439.607 479.272 439.494 479.25 439.38 479.25H233.97C233.845 479.25 233.726 479.202 233.638 479.115C233.55 479.029 233.5 478.912 233.5 478.79C233.127 455.47 226.113 434.83 212.46 416.87C208.407 411.543 203.89 406.65 198.91 402.19C182.19 387.217 162.28 378.583 139.18 376.29C138.907 376.263 138.623 376.247 138.33 376.24C133.037 376.08 132.843 375.817 137.75 375.45C150.083 374.517 161.78 371.55 172.84 366.55C178.8 363.85 184.557 360.513 190.11 356.54C210.117 342.207 223.46 322.767 230.14 298.22C231.92 291.68 232.96 284.947 233.26 278.02C233.34 276.2 233.437 276.2 233.55 278.02C234.437 292.353 238.12 305.94 244.6 318.78C247.553 324.64 251.13 330.257 255.33 335.63C274.897 360.71 301.613 374.1 335.48 375.8C335.651 375.81 335.823 375.784 335.984 375.724C336.145 375.665 336.292 375.573 336.416 375.454C336.541 375.335 336.64 375.192 336.708 375.033C336.775 374.874 336.81 374.703 336.81 374.53L337.06 273.06C337.06 272.927 337.114 272.8 337.209 272.706C337.305 272.613 337.435 272.56 337.57 272.56C366.21 272.493 394.85 272.47 423.49 272.49C435.47 272.497 442.14 272.47 443.5 272.41C473.107 271.01 497.7 259.497 517.28 237.87C521.913 232.743 525.873 227.393 529.16 221.82C538.373 206.193 543.18 188.867 543.58 169.84C543.581 169.763 543.567 169.687 543.539 169.615C543.51 169.543 543.468 169.478 543.414 169.423C543.36 169.368 543.295 169.325 543.224 169.295C543.153 169.265 543.077 169.25 543 169.25H441.12C440.889 169.25 440.668 169.157 440.505 168.992C440.342 168.827 440.25 168.603 440.25 168.37L440.07 66.43C440.07 66.3 440.017 66.1754 439.924 66.0835C439.83 65.9916 439.703 65.94 439.57 65.94C420.97 66.1467 403.863 70.8333 388.25 80C367.783 92.0133 353.053 109.2 344.06 131.56C339.473 142.973 337.1 155.35 336.94 168.69C336.94 168.824 336.888 168.952 336.794 169.047C336.701 169.143 336.574 169.197 336.44 169.2C304.207 170.013 277.997 182.3 257.81 206.06C243.443 222.98 235.413 243.057 233.72 266.29C233.687 266.677 233.553 266.77 233.32 266.57C233.2 266.477 233.153 266.317 233.18 266.09C233.22 265.723 233.237 265.497 233.23 265.41C232.17 250.143 227.783 235.583 220.07 221.73C219.933 221.486 219.86 221.209 219.86 220.928C219.86 220.646 219.933 220.368 220.07 220.12C229.43 203.327 233.883 185.447 233.43 166.48C233.27 159.893 232.43 153.29 230.91 146.67C225.463 122.983 213.323 103.587 194.49 88.48C189.19 84.2333 183.617 80.5967 177.77 77.57C163.217 70.0167 147.64 66.1 131.04 65.82C130.937 65.8187 130.834 65.8379 130.738 65.8765C130.643 65.9151 130.555 65.9723 130.482 66.0449C130.408 66.1175 130.35 66.2039 130.31 66.2992C130.27 66.3945 130.25 66.4967 130.25 66.6L130.05 168.47C130.05 168.661 129.974 168.844 129.839 168.979C129.704 169.114 129.521 169.19 129.33 169.19L27.37 169.25C27.2215 169.25 27.079 169.309 26.974 169.414C26.869 169.519 26.81 169.661 26.81 169.81C27.0033 187.843 31.5233 204.663 40.37 220.27C40.4795 220.462 40.5371 220.68 40.5371 220.902C40.5371 221.125 40.4795 221.345 40.37 221.54C30.4367 239.173 26.02 258.073 27.12 278.24C28.0867 295.94 32.9 311.757 41.56 325.69C60.4533 356.077 88.2033 372.77 124.81 375.77C125.137 375.797 125.137 375.823 124.81 375.85C97.3967 377.95 74.4567 388.46 55.99 407.38C51.2567 412.227 47.0933 417.413 43.5 422.94C32.64 439.647 27.08 458.21 26.82 478.63C26.8187 478.711 26.8335 478.791 26.8635 478.867C26.8936 478.942 26.9383 479.01 26.9951 479.068C27.0519 479.126 27.1196 479.171 27.1942 479.203C27.2689 479.234 27.349 479.25 27.43 479.25H129.26C129.523 479.25 129.774 479.354 129.96 479.54C130.146 479.726 130.25 479.977 130.25 480.24L130.31 788.45C130.31 788.58 130.363 788.705 130.456 788.797C130.55 788.888 130.677 788.94 130.81 788.94C146.55 788.993 161.453 785.523 175.52 778.53C197.88 767.423 214.2 750.493 224.48 727.74C229.46 716.72 232.377 705.17 233.23 693.09C233.243 692.903 233.23 692.68 233.19 692.42C233.137 692.067 233.153 691.84 233.24 691.74C233.507 691.407 233.667 691.6 233.72 692.32C235.333 713.4 242.353 732.09 254.78 748.39C258.787 753.643 263.32 758.517 268.38 763.01C287.393 779.857 309.943 788.577 336.03 789.17C336.156 789.173 336.282 789.15 336.4 789.104C336.517 789.057 336.624 788.987 336.715 788.899C336.805 788.81 336.877 788.705 336.926 788.588C336.975 788.472 337 788.346 337 788.22V686.24C337 686.11 337.053 685.985 337.146 685.893C337.24 685.802 337.367 685.75 337.5 685.75L439.69 685.69C439.755 685.69 439.82 685.677 439.88 685.652C439.94 685.627 439.994 685.59 440.04 685.543C440.086 685.496 440.122 685.441 440.146 685.381C440.17 685.32 440.181 685.255 440.18 685.19C440 665.563 434.92 647.77 424.94 631.81C410.453 608.663 390.217 593.487 364.23 586.28C357.737 584.473 351.183 583.337 344.57 582.87C324.75 581.47 306.127 585.353 288.7 594.52C282.873 597.587 277.327 601.267 272.06 605.56C249.2 624.213 236.36 648.86 233.54 679.5C233.513 679.827 233.487 679.827 233.46 679.5C230.693 647.447 216.853 621.967 191.94 603.06C175.687 590.733 156.873 583.95 135.5 582.71ZM440.89 479.06C467.85 478.5 490.843 469.483 509.87 452.01C514.85 447.437 519.32 442.5 523.28 437.2C536.44 419.567 543.203 399.253 543.57 376.26C543.57 376.193 543.557 376.127 543.531 376.065C543.506 376.003 543.468 375.947 543.421 375.899C543.373 375.852 543.317 375.814 543.255 375.789C543.193 375.763 543.127 375.75 543.06 375.75H441.07C440.853 375.75 440.644 375.836 440.49 375.99C440.336 376.144 440.25 376.353 440.25 376.57V478.44C440.25 478.523 440.267 478.605 440.299 478.682C440.331 478.759 440.379 478.828 440.439 478.886C440.498 478.943 440.569 478.989 440.647 479.019C440.724 479.049 440.807 479.063 440.89 479.06Z" fill="#EFEBE0"/>
<path d="M337.21 485.25C337.29 483.583 337.303 482.583 337.25 482.25C337.083 481.21 336.983 481.213 336.95 482.26C336.917 483.273 336.78 484.27 336.54 485.25C335.527 503.883 329.783 520.987 319.31 536.56C310.69 549.387 299.87 559.74 286.85 567.62C271.41 576.967 253.967 581.857 234.52 582.29C234.395 582.294 234.271 582.273 234.155 582.228C234.039 582.183 233.932 582.115 233.843 582.028C233.753 581.942 233.682 581.838 233.634 581.723C233.585 581.608 233.56 581.485 233.56 581.36L233.46 488.25C233.747 487.37 233.827 486.507 233.7 485.66C233.62 485.14 233.54 485.137 233.46 485.65L233.04 488.25C232.46 495.73 231.113 502.73 229 509.25C219.4 538.91 200.713 560.223 172.94 573.19C161.74 578.41 149.427 581.443 136 582.29C131.773 582.457 131.607 582.597 135.5 582.71C156.873 583.95 175.687 590.733 191.94 603.06C216.853 621.967 230.693 647.447 233.46 679.5C233.487 679.827 233.513 679.827 233.54 679.5C236.36 648.86 249.2 624.213 272.06 605.56C277.327 601.267 282.873 597.587 288.7 594.52C306.127 585.353 324.75 581.47 344.57 582.87C351.183 583.337 357.737 584.473 364.23 586.28C390.217 593.487 410.453 608.663 424.94 631.81C434.92 647.77 440 665.563 440.18 685.19C440.181 685.255 440.17 685.32 440.146 685.381C440.122 685.441 440.086 685.496 440.04 685.543C439.994 685.59 439.94 685.627 439.88 685.652C439.82 685.677 439.755 685.69 439.69 685.69L337.5 685.75C337.367 685.75 337.24 685.802 337.146 685.893C337.053 685.985 337 686.11 337 686.24V788.22C337 788.346 336.975 788.472 336.926 788.588C336.877 788.705 336.805 788.81 336.715 788.899C336.624 788.987 336.517 789.057 336.4 789.104C336.282 789.15 336.156 789.173 336.03 789.17C309.943 788.577 287.393 779.857 268.38 763.01C263.32 758.517 258.787 753.643 254.78 748.39C242.353 732.09 235.333 713.4 233.72 692.32C233.667 691.6 233.507 691.407 233.24 691.74C233.153 691.84 233.137 692.067 233.19 692.42C233.23 692.68 233.243 692.903 233.23 693.09C232.377 705.17 229.46 716.72 224.48 727.74C214.2 750.493 197.88 767.423 175.52 778.53C161.453 785.523 146.55 788.993 130.81 788.94C130.677 788.94 130.55 788.888 130.456 788.797C130.363 788.705 130.31 788.58 130.31 788.45L130.25 480.24C130.25 479.977 130.146 479.726 129.96 479.54C129.774 479.354 129.523 479.25 129.26 479.25H27.43C27.349 479.25 27.2689 479.234 27.1942 479.203C27.1196 479.171 27.0519 479.126 26.9951 479.068C26.9383 479.01 26.8936 478.942 26.8635 478.867C26.8335 478.791 26.8187 478.711 26.82 478.63C27.08 458.21 32.64 439.647 43.5 422.94C47.0933 417.413 51.2567 412.227 55.99 407.38C74.4567 388.46 97.3967 377.95 124.81 375.85C125.137 375.823 125.137 375.797 124.81 375.77C88.2033 372.77 60.4533 356.077 41.56 325.69C32.9 311.757 28.0867 295.94 27.12 278.24C26.02 258.073 30.4367 239.173 40.37 221.54C40.4795 221.345 40.5371 221.125 40.5371 220.902C40.5371 220.68 40.4795 220.462 40.37 220.27C31.5233 204.663 27.0033 187.843 26.81 169.81C26.81 169.661 26.869 169.519 26.974 169.414C27.079 169.309 27.2215 169.25 27.37 169.25L129.33 169.19C129.521 169.19 129.704 169.114 129.839 168.979C129.974 168.844 130.05 168.661 130.05 168.47L130.25 66.6C130.25 66.4967 130.27 66.3945 130.31 66.2992C130.35 66.2039 130.408 66.1175 130.482 66.0449C130.555 65.9723 130.643 65.9151 130.738 65.8765C130.834 65.8379 130.937 65.8187 131.04 65.82C147.64 66.1 163.217 70.0167 177.77 77.57C183.617 80.5967 189.19 84.2333 194.49 88.48C213.323 103.587 225.463 122.983 230.91 146.67C232.43 153.29 233.27 159.893 233.43 166.48C233.883 185.447 229.43 203.327 220.07 220.12C219.933 220.368 219.86 220.646 219.86 220.928C219.86 221.209 219.933 221.486 220.07 221.73C227.783 235.583 232.17 250.143 233.23 265.41C233.237 265.497 233.22 265.723 233.18 266.09C233.153 266.317 233.2 266.477 233.32 266.57C233.553 266.77 233.687 266.677 233.72 266.29C235.413 243.057 243.443 222.98 257.81 206.06C277.997 182.3 304.207 170.013 336.44 169.2C336.574 169.197 336.701 169.143 336.794 169.047C336.888 168.952 336.94 168.824 336.94 168.69C337.1 155.35 339.473 142.973 344.06 131.56C353.053 109.2 367.783 92.0133 388.25 80C403.863 70.8333 420.97 66.1467 439.57 65.94C439.703 65.94 439.83 65.9916 439.924 66.0835C440.017 66.1754 440.07 66.3001 440.07 66.43L440.25 168.37C440.25 168.603 440.342 168.827 440.505 168.992C440.668 169.157 440.889 169.25 441.12 169.25H543C543.077 169.25 543.153 169.265 543.224 169.295C543.295 169.325 543.36 169.368 543.414 169.423C543.468 169.478 543.51 169.543 543.539 169.615C543.567 169.687 543.581 169.763 543.58 169.84C543.18 188.867 538.373 206.193 529.16 221.82C525.873 227.393 521.913 232.743 517.28 237.87C497.7 259.497 473.107 271.01 443.5 272.41C442.14 272.47 435.47 272.497 423.49 272.49C394.85 272.47 366.21 272.493 337.57 272.56C337.435 272.56 337.305 272.613 337.209 272.706C337.114 272.8 337.06 272.927 337.06 273.06L336.81 374.53C336.81 374.703 336.775 374.874 336.708 375.033C336.64 375.192 336.541 375.335 336.416 375.454C336.292 375.573 336.145 375.665 335.984 375.724C335.823 375.784 335.651 375.81 335.48 375.8C301.613 374.1 274.897 360.71 255.33 335.63C251.13 330.257 247.553 324.64 244.6 318.78C238.12 305.94 234.437 292.353 233.55 278.02C233.437 276.2 233.34 276.2 233.26 278.02C232.96 284.947 231.92 291.68 230.14 298.22C223.46 322.767 210.117 342.207 190.11 356.54C184.557 360.513 178.8 363.85 172.84 366.55C161.78 371.55 150.083 374.517 137.75 375.45C132.843 375.817 133.037 376.08 138.33 376.24C138.623 376.247 138.907 376.263 139.18 376.29C162.28 378.583 182.19 387.217 198.91 402.19C203.89 406.65 208.407 411.543 212.46 416.87C226.113 434.83 233.127 455.47 233.5 478.79C233.5 478.912 233.55 479.029 233.638 479.115C233.726 479.202 233.845 479.25 233.97 479.25H439.38C439.494 479.25 439.607 479.272 439.713 479.316C439.818 479.36 439.914 479.424 439.995 479.505C440.076 479.586 440.14 479.682 440.184 479.787C440.228 479.893 440.25 480.006 440.25 480.12L440.19 581.94C440.19 582.005 440.177 582.07 440.152 582.13C440.127 582.19 440.09 582.244 440.043 582.29C439.996 582.336 439.941 582.372 439.881 582.396C439.82 582.42 439.755 582.431 439.69 582.43C417.157 582.123 397.157 575.583 379.69 562.81C357.303 546.443 343.51 524.237 338.31 496.19C337.743 493.117 337.377 489.47 337.21 485.25ZM438.46 252.75L439.79 263.5C439.817 265.58 439.933 267.66 440.14 269.74C440.213 270.453 440.267 270.453 440.3 269.74C440.407 267.667 440.46 265.587 440.46 263.5L440.21 255.75L440.25 169.83C440.25 169.676 440.189 169.529 440.08 169.42C439.971 169.311 439.824 169.25 439.67 169.25L344.05 169.44C343.717 169.44 343.723 169.453 344.07 169.48C367.637 171.307 388.05 179.877 405.31 195.19C422.543 210.47 433.593 229.657 438.46 252.75Z" fill="#2F2527"/>
<path d="M440.21 255.75C439.963 255.383 439.887 254.967 439.98 254.5C440.36 252.627 439.853 252.043 438.46 252.75C433.593 229.657 422.543 210.47 405.31 195.19C388.05 179.877 367.637 171.307 344.07 169.48C343.723 169.453 343.717 169.44 344.05 169.44L439.67 169.25C439.746 169.25 439.822 169.265 439.892 169.294C439.962 169.323 440.026 169.366 440.08 169.42C440.134 169.474 440.177 169.538 440.206 169.608C440.235 169.678 440.25 169.754 440.25 169.83L440.21 255.75Z" fill="#EFEBE0"/>
<path d="M440.21 255.75L440.46 263.5H439.79L438.46 252.75C439.853 252.043 440.36 252.627 439.98 254.5C439.887 254.967 439.963 255.383 440.21 255.75Z" fill="#EFEBE0"/>
<path d="M439.79 263.5H440.46C440.46 265.587 440.407 267.667 440.3 269.74C440.267 270.453 440.213 270.453 440.14 269.74C439.933 267.66 439.817 265.58 439.79 263.5Z" fill="#637068"/>
<path d="M440.89 479.06C440.807 479.063 440.724 479.049 440.647 479.019C440.569 478.989 440.498 478.943 440.439 478.886C440.379 478.828 440.331 478.759 440.299 478.682C440.267 478.605 440.25 478.523 440.25 478.44V376.57C440.25 376.353 440.336 376.144 440.49 375.99C440.644 375.836 440.853 375.75 441.07 375.75H543.06C543.127 375.75 543.193 375.763 543.255 375.789C543.317 375.814 543.373 375.852 543.421 375.899C543.468 375.947 543.506 376.003 543.531 376.065C543.557 376.127 543.57 376.193 543.57 376.26C543.203 399.253 536.44 419.567 523.28 437.2C519.32 442.5 514.85 447.437 509.87 452.01C490.843 469.483 467.85 478.5 440.89 479.06Z" fill="#2F2527"/>
<path d="M337.21 485.25H336.54C336.78 484.27 336.917 483.273 336.95 482.26C336.983 481.213 337.083 481.21 337.25 482.25C337.303 482.583 337.29 483.583 337.21 485.25Z" fill="#637068"/>
<path d="M233.46 488.25H233.04L233.46 485.65C233.54 485.137 233.62 485.14 233.7 485.66C233.827 486.507 233.747 487.37 233.46 488.25Z" fill="#637068"/>
<path d="M136 582.29L135.5 582.71C131.607 582.597 131.773 582.457 136 582.29Z" fill="#637068"/>
</g>
<defs>
<clipPath id="clip0_3_596">
<rect width="570" height="855" fill="white"/>
</clipPath>
</defs>
</svg>
