<svg width="599" height="935" viewBox="0 0 599 935" fill="none" xmlns="http://www.w3.org/2000/svg">
<g clip-path="url(#clip0_4_1450)">
<path d="M0 0C199.667 0 399.333 0 599 0C599 311.667 599 623.333 599 935C399.333 935 199.667 935 0 935C0 623.333 0 311.667 0 0ZM6.26759 40.541C6.17019 96.3001 6.26759 152.059 6.55978 207.818C6.81302 255.055 6.64257 302.292 6.04844 349.529C5.91208 359.639 5.87312 369.379 5.93156 378.748C6.30167 437.789 6.50621 496.836 6.54517 555.887C6.55491 559.783 6.5403 563.678 6.50134 567.574C6.16045 609.454 6.28707 651.335 6.8812 693.215L6.63283 864.51L6.66205 924.671C6.66207 925.37 6.94021 926.04 7.43571 926.536C7.9312 927.031 8.60376 927.312 9.30641 927.315L121.626 927.973C121.704 927.973 121.865 927.905 122.108 927.768L122.357 927.637H124.548C124.704 927.754 124.86 927.856 125.016 927.944C125.172 928.022 125.352 928.061 125.556 928.061C210.449 928.168 295.336 928.548 380.219 929.2C410.169 929.434 440.119 929.541 470.069 929.521C471.588 929.521 472.582 929.278 473.049 928.791H474.393C474.851 929.278 475.601 929.521 476.643 929.521C515.447 929.57 554.25 929.541 593.054 929.434C593.267 929.434 593.472 929.362 593.633 929.231C593.793 929.1 593.899 928.918 593.93 928.718C594.242 926.867 594.34 925.017 594.223 923.166C593.989 919.543 593.872 917.683 593.872 917.586C593.658 843.399 593.521 769.218 593.463 695.041C593.502 691.135 593.414 687.235 593.2 683.339C592.966 678.976 592.917 675.089 593.054 671.681C593.463 661.698 593.648 651.71 593.609 641.717C593.375 581.448 593.146 521.185 592.922 460.926C592.903 456.173 592.84 451.425 592.732 446.682C593.21 394.292 593.229 361.787 592.791 349.164C592.625 344.353 592.606 340.048 592.732 336.249C592.986 329.149 593.103 324.849 593.083 323.349C592.927 308.467 592.767 293.58 592.601 278.688C592.484 269.085 592.46 259.341 592.528 249.455C592.859 195.4 592.927 141.346 592.732 87.291V51.1328V23.375C593.122 18.1741 592.854 13.2702 591.929 8.66336C591.814 8.07419 591.497 7.5435 591.033 7.16232C590.569 6.78113 589.987 6.57321 589.387 6.57422C505.098 6.43786 420.883 6.21385 336.74 5.90219C327.624 5.86323 317.889 5.88758 307.535 5.97523C255.817 6.40378 204.098 6.37943 152.38 5.90219C149.224 5.87297 144.792 5.93628 139.085 6.09211C134.644 6.21872 130.202 6.24307 125.761 6.16516C113.459 5.97036 106.807 5.87297 105.804 5.87297C73.7208 5.95089 41.6183 5.97036 9.49634 5.93141C7.52889 5.93141 6.5403 6.88102 6.53056 8.78023L6.26759 40.541Z" fill="white"/>
<path d="M592.732 23.375C593.015 25.9462 592.211 27.3779 590.322 27.6701C586.114 28.3129 583.148 29.0775 581.424 29.9638C579.048 31.1812 576.53 31.6341 573.871 31.3225C571.017 30.9816 568.183 31.1179 565.368 31.7315C562.476 32.3646 559.32 32.7396 555.901 32.8564C552.336 32.9831 549.195 33.2752 546.478 33.733C537.176 35.2816 527.802 35.8855 518.354 35.5446C518.296 35.5446 516.543 35.5348 513.095 35.5153C510.962 35.5056 508.064 35.3546 504.402 35.0625C500.331 34.741 489.008 34.9845 470.434 35.7929C468.252 35.8903 466.29 35.8319 464.546 35.6176C461.206 35.2085 459.272 34.9991 458.746 34.9894C456.058 34.9797 452.937 35.0868 449.381 35.3108C448.885 35.3498 448.383 35.3546 447.877 35.3254C438.526 34.8092 429.8 34.3466 421.696 33.9375C419.495 33.8304 415 33.3385 408.211 32.462C403.711 31.8776 399.187 31.6682 394.639 31.8338C392.028 31.9312 389.574 31.7267 387.275 31.2202C384.84 30.6748 382.391 30.1878 379.927 29.7593C373.372 28.5905 369.68 27.9428 368.853 27.8162C362.687 26.9007 356.493 26.7595 350.269 27.3925C349.003 27.5191 345.745 27.1734 340.495 26.3553C337.67 25.917 334.422 25.766 330.75 25.9024C327.244 26.029 323.738 25.9267 320.231 25.5956C315.878 25.167 312.444 24.9382 309.931 24.9089C306.483 24.87 303.036 24.7677 299.588 24.6021C299.444 24.5924 299.26 24.5381 299.046 24.4425C298.832 24.347 298.594 24.2123 298.346 24.047C298.005 23.8132 297.698 23.8376 297.425 24.12C297.229 24.3261 297.028 24.497 296.836 24.6207C296.644 24.7444 296.466 24.8179 296.315 24.8359C279.699 26.7935 263.136 29.1262 246.627 31.8338C242.975 32.4376 239.181 32.8905 235.246 33.1925C231.448 33.4944 227.654 33.8304 223.865 34.2005C218.343 34.7557 213.001 34.8628 207.838 34.5219C203.251 34.2297 198.659 33.9473 194.061 33.6746C191.334 33.509 187.433 33.621 182.359 34.0106C178.444 34.3125 174.514 34.2979 170.569 33.9668C167.511 33.7135 158.993 34.2395 145.016 35.5446C142.007 35.827 138.983 35.7199 135.944 35.2232C132.632 34.6875 129.33 34.5803 126.038 34.9018C121.178 35.379 117.92 35.5835 116.264 35.5153C111.346 35.3108 106.437 35.0381 101.538 34.6972C97.8172 34.4343 93.517 35.4326 88.6374 37.6921C87.2251 38.3544 85.7739 38.8171 84.2837 39.08C82.7643 39.343 81.2546 39.6644 79.7547 40.0443C78.2645 40.4241 76.0097 40.8478 72.9903 41.3153C70.5359 41.6951 67.6334 42.411 64.2829 43.4628C62.1986 44.1154 59.6321 44.057 56.5836 43.2875C56.0966 43.1609 56.0674 42.9613 56.4959 42.6885C61.7749 39.2992 67.6237 37.6921 74.0422 37.8675C74.5292 37.8772 74.5438 37.809 74.0861 37.6629C73.1121 37.3707 72.1332 37.098 71.1495 36.8448C70.0489 36.5721 68.9142 36.0802 67.7454 35.3693C65.778 34.1518 63.6644 33.3239 61.4048 32.8857C59.5834 32.5253 57.4115 32.7639 54.8888 33.6015C51.3338 34.7897 47.7349 35.8611 44.0922 36.8156C42.8748 37.137 41.7644 37.5509 40.7612 38.0574C39.7093 38.5931 38.6623 39.1482 37.6201 39.7228C37.2147 39.9496 36.7393 40.0271 36.276 39.942C32.4385 39.192 28.5864 39.0313 24.7197 39.4599C24.5249 39.4794 22.8984 39.4988 19.84 39.5183C16.5577 39.5378 14.3273 41.4614 13.1488 45.289C12.2332 48.2888 10.4947 50.5971 7.93309 52.2139C7.7369 52.3413 7.57206 52.5072 7.4507 52.6993C7.32934 52.8915 7.25455 53.105 7.23182 53.3242C6.96885 55.837 6.83249 56.2022 6.82275 54.4199C6.81301 49.7838 6.62795 45.1575 6.26758 40.541L6.53055 8.78019C6.54029 6.88097 7.52889 5.93136 9.49633 5.93136C41.6183 5.97032 73.7208 5.95084 105.804 5.87292C106.807 5.87292 113.459 5.97032 125.761 6.16511C130.202 6.24303 134.644 6.21868 139.085 6.09207C144.792 5.93623 149.224 5.87292 152.38 5.90214C204.098 6.37938 255.817 6.40373 307.535 5.97519C317.889 5.88753 327.624 5.86319 336.74 5.90214C420.883 6.21381 505.098 6.43782 589.387 6.57417C589.987 6.57317 590.569 6.78109 591.033 7.16227C591.497 7.54345 591.814 8.07414 591.929 8.66332C592.854 13.2701 593.122 18.174 592.732 23.375Z" fill="#F1DDC4"/>
<path d="M592.732 23.375V51.1328C591.827 51.2886 591.422 51.7854 591.52 52.623C591.569 53.0418 591.53 53.4995 591.403 53.9962C591.091 55.126 591.13 57.2639 591.52 60.4098C591.54 60.5919 591.513 60.7761 591.441 60.9447C591.369 61.1132 591.254 61.2603 591.109 61.3719C590.964 61.4835 590.792 61.5558 590.611 61.5817C590.429 61.6077 590.244 61.5864 590.073 61.5201C586.928 60.2539 583.782 60.4487 580.636 62.1045C580.266 62.3031 579.948 62.6573 579.73 63.1125C578.756 65.1676 577.173 66.4045 574.982 66.8233C574.757 66.8645 574.544 66.9524 574.357 67.0809C574.171 67.2094 574.015 67.3756 573.901 67.5684C572.829 69.3897 571.548 70.4561 570.058 70.7678C564.74 71.8586 558.438 71.922 551.153 70.9577C550.696 70.8912 550.212 70.9727 549.765 71.1915C547.184 72.4089 544.506 72.6914 541.73 72.0388C541.524 71.9936 541.342 71.8771 541.216 71.7108C541.09 71.5445 541.028 71.3395 541.043 71.133C541.141 69.9059 541.54 68.7615 542.241 67.6998C542.494 67.3103 542.397 67.1349 541.949 67.1739C535.715 67.7778 529.501 68.5082 523.307 69.3653C523.268 69.3653 521.851 69.75 519.055 70.5195C517.137 71.0454 515.262 70.797 513.431 69.7744C513.188 69.6373 512.942 69.5415 512.71 69.4936C512.478 69.4457 512.266 69.4468 512.087 69.4968C511.376 69.6818 510.923 70.1347 510.728 70.8555C510.623 71.2165 510.357 71.6005 509.968 71.9512L507.747 73.9088C507.559 74.0793 507.357 74.2102 507.16 74.2894C506.964 74.3685 506.779 74.3934 506.623 74.3617C503.272 73.6897 499.897 73.3342 496.498 73.2952C496.42 73.2952 494.954 73.1394 492.1 72.8277C490.386 72.6329 488.73 72.9495 487.133 73.7773C486.666 74.0306 486.208 74.1523 485.76 74.1426C480.783 74.1134 476.434 72.482 472.713 69.2484C472.341 68.9239 471.901 68.7114 471.442 68.6348C463.417 67.2713 455.547 65.2893 447.833 62.6888C440.226 60.1273 432.424 58.4424 424.428 57.634C403.741 55.5302 383.039 55.4328 362.322 57.3418C358.387 57.7022 355.251 57.7606 352.913 57.5171C352.649 57.4907 352.393 57.5176 352.174 57.5949C351.955 57.6721 351.781 57.7968 351.671 57.9554L349.904 60.5559C349.749 60.7919 349.556 60.9887 349.341 61.1307C349.125 61.2727 348.893 61.356 348.662 61.374C347.883 61.4324 347.094 61.5639 346.295 61.7684C345.457 61.973 344.688 62.0314 343.987 61.9438C340.208 61.4568 336.443 60.8967 332.693 60.2637C331.768 60.1078 330.385 59.7134 328.544 59.0803C327.151 58.6031 325.729 58.2865 324.278 58.1307C321.278 57.8288 319.17 57.5171 317.952 57.1957C306.235 54.1277 294.469 53.8015 282.655 56.2169C280.989 56.5578 278.998 56.6259 276.68 56.4214C274.946 56.2656 272.905 56.2364 270.558 56.3338C263.643 56.6162 256.732 56.8986 249.827 57.1811C246.389 57.3174 242.989 57.7119 239.629 58.3645C236.396 58.978 233.912 59.3287 232.178 59.4163C228.545 59.6014 226.028 59.5186 224.625 59.168C221.362 58.3596 218.051 57.8872 214.69 57.7509C213.483 57.7022 212.353 57.4635 211.301 57.035C210.23 56.587 209.153 56.1536 208.072 55.7348C206.524 55.1212 204.843 54.7608 203.032 54.6537C198.064 54.3517 193.122 53.8112 188.203 53.032C186.567 52.7788 184.799 52.8226 182.9 53.1635C181.117 53.4849 179.32 53.6797 177.509 53.7479C174.324 53.8648 171.679 54.1764 169.575 54.6829C164.423 55.9296 159.222 56.923 153.972 57.6632C153.29 57.7606 151.235 58.1648 147.807 58.8758C145.723 59.3043 143.619 59.4991 141.495 59.4602C137.707 59.4017 135.71 59.3725 135.506 59.3725C130.665 59.4699 124.09 59.28 115.782 58.8027C110.455 58.4911 104.966 59.1972 99.3171 60.9211C96.5218 61.7782 92.6161 63.7164 87.6001 66.7356C83.7042 69.0829 78.9755 71.6736 73.414 74.5078C68.7974 76.8648 65.6952 80.5074 64.1076 85.4356C62.6369 90.0132 61.7652 92.6283 61.4925 93.2809C59.1549 98.8422 57.4164 104.579 56.2768 110.491C56.2573 110.569 55.5804 113.573 54.246 119.505C53.4182 123.167 52.8971 127.496 52.6828 132.492C52.5172 136.427 52.8484 139.495 53.6763 141.696C53.6872 141.724 53.705 141.747 53.7285 141.766C53.7519 141.784 53.7803 141.796 53.8114 141.802C53.8425 141.808 53.8755 141.806 53.9078 141.798C53.9401 141.79 53.9709 141.775 53.9977 141.755L54.246 141.565C54.4227 141.433 54.5715 141.292 54.6806 141.153C54.7897 141.013 54.856 140.879 54.8743 140.761C55.2736 138.385 55.8482 136.062 56.5982 133.793C56.9488 132.712 57.0121 132.785 56.7881 134.012C56.457 135.833 56.4424 137.645 56.7443 139.446C56.8301 139.924 56.7845 140.405 56.6128 140.834C53.4571 148.499 52.8191 156.247 54.6989 164.078C55.2151 166.269 55.2151 168.329 54.6989 170.258C54.0658 172.585 53.7444 173.803 53.7347 173.91C52.1958 183.094 51.7867 191.505 52.5075 199.14C52.751 201.78 52.4783 204.039 51.6893 205.919C50.9881 207.575 50.6228 208.447 50.5936 208.534C49.7462 211.076 48.8258 213.594 47.8324 216.087C46.7805 218.717 46.1522 221.283 45.9477 223.786C44.8958 236.906 44.5208 250.054 44.8227 263.232C44.8714 265.608 45.0516 268.106 45.3633 270.726C45.6847 273.414 45.9769 275.908 46.2399 278.206C46.3957 279.472 46.7658 280.67 47.3502 281.8C49.5125 285.901 49.9069 289.509 48.5336 292.626C48.3338 293.072 48.2776 293.558 48.3729 294.014C49.4053 298.913 49.2982 303.709 48.0515 308.404C47.1457 311.803 46.6636 314.452 46.6051 316.351C46.3811 322.994 46.2837 329.641 46.3129 336.293C46.3422 342.527 47.097 347.791 48.5774 352.086C49.5612 354.949 49.8582 357.638 49.4686 360.15C49.0206 362.975 48.7966 364.441 48.7966 364.548C48.2317 372.096 47.2382 379.591 45.8162 387.032C45.1442 390.538 44.9688 395.203 45.2903 401.027C45.4851 404.485 45.1442 409.16 44.2676 415.052C44.1604 415.793 43.7319 417.609 42.9819 420.502C42.4462 422.586 42.2709 424.466 42.456 426.141C43.2059 432.627 43.3131 438.135 42.7774 442.664C41.6963 451.732 40.8294 460.819 40.1768 469.925C39.9431 473.052 40.1379 476.514 40.7612 480.312C41.3261 483.78 41.7498 487.262 42.0323 490.758C42.1199 491.791 42.042 494.235 41.7985 498.092C41.6427 500.556 41.8326 503.025 42.3683 505.499C42.7482 507.242 42.7384 508.981 42.3391 510.715C41.667 513.597 41.7596 516.49 42.6167 519.392C43.4251 522.12 43.6978 524.91 43.4348 527.764C43.0355 532.098 43.6247 536.266 45.2026 540.269C45.6409 541.409 46.0938 544.93 46.5613 550.832C46.6197 551.611 46.5954 553.276 46.4883 555.828C46.4103 557.533 46.5516 559.208 46.9119 560.854C47.4963 563.532 47.7301 565.626 47.6132 567.136C47.3405 570.652 47.0142 574.158 46.6344 577.655C46.2545 581.151 46.1279 584.662 46.2545 588.188C46.5175 595.483 46.4396 600.908 46.0207 604.463C43.7221 624.088 44.6766 643.543 48.8843 662.827C48.9286 663.035 49.0337 663.227 49.1883 663.384C49.3428 663.541 49.5408 663.657 49.7608 663.719C52.4685 664.468 53.5886 666.153 53.1211 668.773C53.1052 668.855 53.0698 668.931 53.0177 668.996C52.9656 669.061 52.8984 669.113 52.8214 669.147C52.7445 669.181 52.66 669.197 52.575 669.193C52.4899 669.189 52.4067 669.165 52.3322 669.124C49.0401 667.371 48.3193 668.457 50.1699 672.382C50.2671 672.576 50.4088 672.753 50.5868 672.901C50.7648 673.048 50.9756 673.165 51.2072 673.244C53.5448 674.003 55.2444 675.45 56.306 677.583C56.4213 677.809 56.5677 678.006 56.7362 678.162C56.9047 678.318 57.0915 678.429 57.2849 678.489L72.7128 683.178C72.9226 683.242 73.1157 683.354 73.2777 683.506C73.4397 683.658 73.5662 683.846 73.6478 684.055C73.94 684.824 74.3783 685.491 74.9627 686.056C75.104 686.198 75.2923 686.308 75.5144 686.379C75.7364 686.45 75.9869 686.479 76.2483 686.465C78.5956 686.329 79.8131 687.595 79.9008 690.264C79.9094 690.488 79.8553 690.71 79.7444 690.906C79.6335 691.102 79.4702 691.264 79.2725 691.374C78.133 692.017 78.0258 692.504 78.9511 692.835C79.7108 693.108 79.4479 693.337 78.1622 693.522L26.2976 693.639L6.88121 693.215C6.28708 651.335 6.16046 609.454 6.50135 567.574C6.54031 563.678 6.55492 559.783 6.54518 555.887C6.50622 496.836 6.30168 437.789 5.93157 378.748C5.87313 369.379 5.91209 359.639 6.04845 349.529C6.64258 302.292 6.81303 255.055 6.55979 207.818C6.2676 152.059 6.1702 96.3001 6.2676 40.541C6.62797 45.1576 6.81303 49.7839 6.82277 54.4199C6.83251 56.2023 6.96886 55.837 7.23184 53.3242C7.25457 53.105 7.32936 52.8915 7.45072 52.6994C7.57208 52.5072 7.73691 52.3414 7.93311 52.2139C10.4947 50.5971 12.2332 48.2889 13.1488 45.2891C14.3273 41.4614 16.5577 39.5378 19.8401 39.5184C22.8984 39.4989 24.5249 39.4794 24.7197 39.4599C28.5864 39.0314 32.4385 39.1921 36.276 39.942C36.7393 40.0271 37.2147 39.9496 37.6201 39.7229C38.6623 39.1483 39.7093 38.5931 40.7612 38.0574C41.7644 37.551 42.8748 37.137 44.0923 36.8156C47.735 35.8611 51.3338 34.7898 54.8889 33.6016C57.4115 32.764 59.5835 32.5253 61.4048 32.8857C63.6645 33.324 65.778 34.1518 67.7454 35.3693C68.9142 36.0803 70.0489 36.5721 71.1495 36.8448C72.1332 37.0981 73.1121 37.3708 74.0861 37.663C74.5439 37.8091 74.5293 37.8772 74.0423 37.8675C67.6237 37.6922 61.7749 39.2992 56.4959 42.6886C56.0674 42.9613 56.0966 43.161 56.5836 43.2876C59.6322 44.057 62.1986 44.1154 64.2829 43.4629C67.6334 42.411 70.5359 41.6952 72.9903 41.3153C76.0097 40.8478 78.2645 40.4241 79.7547 40.0443C81.2546 39.6645 82.7643 39.343 84.2837 39.0801C85.7739 38.8171 87.2251 38.3545 88.6374 37.6922C93.5171 35.4326 97.8172 34.4343 101.538 34.6973C106.437 35.0382 111.346 35.3109 116.264 35.5154C117.92 35.5836 121.178 35.379 126.038 34.9018C129.33 34.5804 132.632 34.6875 135.944 35.2232C138.983 35.7199 142.007 35.8271 145.016 35.5446C158.993 34.2395 167.511 33.7136 170.569 33.9668C174.514 34.2979 178.444 34.3126 182.359 34.0106C187.433 33.621 191.334 33.509 194.061 33.6746C198.659 33.9473 203.251 34.2298 207.838 34.522C213.001 34.8628 218.343 34.7557 223.865 34.2005C227.654 33.8304 231.448 33.4944 235.246 33.1925C239.181 32.8906 242.975 32.4377 246.627 31.8338C263.136 29.1262 279.699 26.7936 296.315 24.8359C296.466 24.8179 296.644 24.7445 296.836 24.6208C297.028 24.4971 297.229 24.3261 297.425 24.1201C297.698 23.8376 298.005 23.8133 298.346 24.047C298.594 24.2123 298.832 24.347 299.046 24.4426C299.26 24.5381 299.444 24.5925 299.588 24.6022C303.036 24.7678 306.483 24.87 309.931 24.909C312.444 24.9382 315.878 25.1671 320.231 25.5956C323.738 25.9268 327.244 26.029 330.75 25.9024C334.422 25.7661 337.67 25.917 340.495 26.3553C345.745 27.1734 349.003 27.5192 350.269 27.3926C356.493 26.7595 362.687 26.9007 368.853 27.8163C369.68 27.9429 373.372 28.5905 379.927 29.7593C382.391 30.1878 384.84 30.6748 387.275 31.2202C389.574 31.7267 392.028 31.9312 394.639 31.8338C399.187 31.6683 403.711 31.8777 408.211 32.462C415 33.3386 419.495 33.8304 421.696 33.9376C429.8 34.3466 438.526 34.8093 447.877 35.3255C448.383 35.3547 448.885 35.3498 449.382 35.3109C452.937 35.0868 456.058 34.9797 458.746 34.9895C459.272 34.9992 461.206 35.2086 464.546 35.6177C466.29 35.8319 468.252 35.8904 470.434 35.793C489.008 34.9846 500.331 34.7411 504.402 35.0625C508.064 35.3547 510.962 35.5057 513.095 35.5154C516.543 35.5349 518.296 35.5446 518.354 35.5446C527.802 35.8855 537.176 35.2816 546.478 33.733C549.195 33.2753 552.336 32.9831 555.901 32.8565C559.32 32.7396 562.476 32.3646 565.368 31.7316C568.183 31.118 571.017 30.9816 573.871 31.3225C576.53 31.6342 579.048 31.1813 581.424 29.9638C583.148 29.0775 586.114 28.313 590.322 27.6702C592.211 27.378 593.015 25.9462 592.732 23.375Z" fill="#F1DDC4"/>
<path d="M592.732 51.1328V87.291L592.338 140.542C592.328 142.276 591.749 142.5 590.599 141.214C589.742 140.26 588.306 139.583 586.29 139.184C585.812 139.096 585.389 138.896 585.019 138.585C578.785 133.413 571.5 130.769 563.162 130.652C560.63 130.613 558.38 129.79 556.413 128.183C554.065 126.254 551.046 124.701 547.355 123.522C544.9 122.743 541.593 122.242 537.435 122.017C531.503 121.686 525.576 121.272 519.655 120.776C516.547 120.513 512.734 119.758 508.215 118.511C504.154 117.391 499.201 116.266 493.357 115.136C488.643 114.231 482.015 112.385 473.473 109.6C472.431 109.259 470.454 108.338 467.541 106.838C465.759 105.913 463.68 105.119 461.303 104.457C452.829 102.09 445.086 100.225 438.074 98.8616C434.889 98.248 429.712 97.1816 422.543 95.6622C417.771 94.6395 412.546 93.7581 406.867 93.0179C405.718 92.8621 404.408 92.8961 402.937 93.1202L390.899 94.9756C390.694 95.0054 390.507 95.1019 390.368 95.2485C390.229 95.395 390.148 95.5826 390.139 95.7791L390.022 97.7952C390.013 98.0073 389.935 98.2097 389.799 98.369C389.664 98.5284 389.48 98.6351 389.277 98.6717C388.06 98.8957 386.847 98.959 385.639 98.8616C383.935 98.735 382.746 98.7155 382.074 98.8032C379.834 99.1149 377.657 99.6944 375.544 100.542C375.259 100.655 375.019 100.848 374.866 101.086C374.714 101.324 374.659 101.592 374.711 101.842L376.201 108.46C376.256 108.711 376.246 108.964 376.172 109.182C376.099 109.4 375.965 109.572 375.792 109.673C374.487 110.452 373.708 111.367 373.455 112.419C373.411 112.607 373.429 112.818 373.509 113.03C373.588 113.243 373.726 113.451 373.908 113.632C374.774 114.489 375.383 115.487 375.734 116.627C375.761 116.708 375.767 116.795 375.753 116.88C375.739 116.965 375.704 117.046 375.652 117.117C375.599 117.187 375.531 117.246 375.451 117.288C375.372 117.329 375.283 117.353 375.193 117.357L362.424 118.102C361.976 118.131 361.952 118.273 362.351 118.526L364.046 119.592C364.117 119.638 364.174 119.701 364.215 119.778C364.255 119.854 364.277 119.942 364.28 120.035C364.283 120.128 364.266 120.224 364.231 120.316C364.195 120.409 364.142 120.496 364.075 120.571C363.403 121.331 363.768 121.72 365.171 121.74C365.256 121.739 365.341 121.757 365.419 121.792C365.496 121.828 365.566 121.881 365.623 121.947C365.679 122.014 365.722 122.092 365.747 122.177C365.773 122.262 365.78 122.352 365.77 122.441L365.551 124.18C355.032 112.132 341.265 103.03 324.249 96.8748C309.892 91.6933 296.042 90.4466 282.699 93.1348C273.241 95.0437 263.721 98.4672 254.137 103.405C244.933 108.148 237.165 113.914 230.834 120.703C216.205 136.422 207.907 155.6 205.939 178.234C205.131 176.637 204.673 174.933 204.566 173.121C204.558 172.963 204.482 172.805 204.349 172.669C204.215 172.532 204.03 172.425 203.821 172.361C203.344 172.206 202.944 171.758 202.623 171.017C201.512 168.475 199.686 165.797 197.144 162.982C195.751 161.443 195.649 159.666 196.837 157.65C197.1 157.211 197.256 156.768 197.305 156.32C197.646 152.999 198.259 150.837 199.146 149.834C201.084 147.662 202.978 145.456 204.829 143.216C204.868 143.167 205.399 142.651 206.421 141.667C207.298 140.82 207.765 139.739 207.824 138.424C207.853 137.908 207.965 137.445 208.16 137.036C209.631 133.968 209.64 130.657 208.189 127.102C207.722 125.943 207.644 124.691 207.955 123.347C208.325 121.789 208.481 120.605 208.423 119.797C208.179 116.32 207.946 112.366 207.722 107.934C207.696 107.368 207.388 106.8 206.846 106.319C206.304 105.838 205.558 105.47 204.727 105.275L201.249 104.457C201.048 104.408 200.8 104.171 200.538 103.779C200.276 103.386 200.014 102.857 199.788 102.266C198.98 100.172 197.617 98.7253 195.698 97.9266C193.682 97.089 192.62 96.641 192.513 96.5826C185.49 92.7939 178.906 90.4272 172.76 89.4824C170.374 89.1123 162.967 88.4208 150.539 87.4079C150.442 87.4079 149.438 87.2521 147.529 86.9404C145.085 86.5508 142.825 87.0962 140.75 88.5766C140.361 88.852 139.902 89 139.436 89.0003C136.173 88.9419 133.265 89.9451 130.714 92.0098C130.675 92.0391 130.1 92.4043 128.99 93.1055C128.094 93.6704 127.68 94.5324 127.748 95.6914C127.757 95.9345 127.722 96.1697 127.647 96.3813C127.571 96.5929 127.456 96.7761 127.31 96.9186C123.482 100.6 119.878 104.491 116.498 108.591C115.144 110.228 113.187 112.064 110.625 114.099C107.616 116.495 105.069 119.354 102.984 122.675C101.747 124.633 100.949 126.717 100.588 128.928C100.13 131.655 99.6289 133.695 99.0835 135.049C97.5251 138.964 96.3953 143.011 95.694 147.189C95.4992 148.329 94.759 150.18 93.4733 152.741C93.2493 153.179 93.1519 153.642 93.1811 154.129C93.6292 162.33 93.3905 170.491 92.4652 178.614C92.1925 180.981 91.2916 184.789 89.7624 190.039C88.4963 194.392 87.795 198.614 87.6586 202.705C87.4833 208.081 87.2009 212.581 86.8113 216.204C86.6749 217.519 86.0759 219.277 85.0143 221.478C83.7968 223.981 83.2173 226.854 83.2757 230.098C83.4023 236.789 83.2367 245.871 82.779 257.344C82.6621 260.276 82.9007 264.001 83.4949 268.52C84.2253 274.062 84.2448 279.424 83.5533 284.605C82.9494 289.046 83.0273 293.244 83.787 297.199C84.3227 300.033 84.4591 302.385 84.1961 304.255C83.563 308.589 82.6475 312.865 81.4495 317.082C79.4723 324.026 78.5373 331.073 78.6444 338.222C78.6542 338.884 79.0973 342.244 79.9739 348.302C80.7141 353.367 80.4755 358.889 79.258 364.869C77.9626 371.258 77.8457 378.928 78.9074 387.879C79.3652 391.755 79.7304 395.641 80.0031 399.537C80.1784 401.943 80.68 405.819 81.5079 411.166C82.2384 415.832 82.4576 420.531 82.1654 425.264C81.8537 430.309 81.693 432.905 81.6832 433.051C81.5177 435.32 81.1963 437.916 80.719 440.838C80.1054 444.607 80.0762 448.819 80.6313 453.475C80.8554 455.306 80.7433 457.327 80.2953 459.538C79.6817 462.518 79.5892 465.537 80.0177 468.596C81.3131 477.8 81.5177 487.023 80.6313 496.266C80.4755 497.883 80.6411 499.607 81.1281 501.438C81.5761 503.152 81.8829 504.89 82.0485 506.653C82.4673 511.143 82.7351 513.753 82.852 514.484C84.2643 523.23 84.8974 532.044 84.7513 540.927C84.7415 541.384 84.6101 541.828 84.3568 542.256C82.3309 545.685 81.2157 549.347 81.0112 553.242C80.7774 557.596 80.6411 560.08 80.6021 560.693C80.3684 563.966 80.7726 566.625 81.8147 568.67C82.9056 570.813 83.2708 573.491 82.9105 576.705C82.2969 582.13 81.9803 588.48 81.9608 595.756C81.9413 602.622 81.7758 608.967 81.4641 614.792C81.1135 621.463 80.7141 630.774 80.2661 642.725C79.9155 652.192 80.2953 660.105 81.4057 666.465C81.4404 666.655 81.5473 666.825 81.7061 666.943C81.8649 667.062 82.0646 667.12 82.2676 667.108C83.7286 667.02 85.3113 667.415 87.0158 668.291C88.0287 668.807 89.441 669.241 91.2526 669.591C92.6357 669.854 93.9798 670.356 95.2849 671.096C98.2264 672.771 101.397 673.872 104.796 674.398C107.62 674.826 109.637 676.38 110.844 679.058C110.942 679.282 110.874 679.375 110.64 679.336L100.778 677.51C99.3854 677.247 99.2052 677.583 100.238 678.518C102.195 680.31 104.786 681.225 108.01 681.264C108.222 681.264 108.43 681.328 108.607 681.447C108.784 681.567 108.922 681.737 109.003 681.936C109.383 682.852 109.895 683.655 110.538 684.347C110.859 684.688 111.852 685.214 113.518 685.925C115.388 686.723 115.87 688.223 114.964 690.424C114.828 690.736 114.575 691.087 114.205 691.476C113.24 692.47 113.494 692.966 114.964 692.966C115.295 692.966 115.305 693.005 114.993 693.083L113.226 693.522H78.1623C79.4479 693.337 79.7109 693.108 78.9512 692.835C78.0259 692.504 78.1331 692.017 79.2726 691.374C79.4703 691.264 79.6336 691.102 79.7445 690.906C79.8554 690.71 79.9095 690.488 79.9008 690.264C79.8132 687.595 78.5957 686.329 76.2484 686.465C75.987 686.479 75.7365 686.45 75.5145 686.379C75.2924 686.308 75.1041 686.198 74.9628 686.056C74.3784 685.491 73.9401 684.824 73.6479 684.055C73.5663 683.846 73.4397 683.658 73.2778 683.506C73.1158 683.354 72.9227 683.242 72.7129 683.178L57.2849 678.489C57.0916 678.429 56.9047 678.318 56.7363 678.162C56.5678 678.006 56.4214 677.809 56.3061 677.583C55.2445 675.45 53.5449 674.003 51.2073 673.244C50.9757 673.165 50.7648 673.048 50.5869 672.901C50.4089 672.753 50.2672 672.576 50.17 672.382C48.3194 668.457 49.0402 667.371 52.3322 669.124C52.4068 669.165 52.49 669.189 52.5751 669.193C52.6601 669.197 52.7445 669.181 52.8215 669.147C52.8984 669.113 52.9657 669.061 53.0178 668.996C53.0699 668.931 53.1053 668.855 53.1212 668.773C53.5887 666.153 52.4686 664.468 49.7609 663.719C49.5409 663.657 49.3429 663.541 49.1883 663.384C49.0338 663.227 48.9287 663.035 48.8843 662.827C44.6767 643.543 43.7222 624.088 46.0208 604.463C46.4396 600.908 46.5176 595.483 46.2546 588.188C46.128 584.662 46.2546 581.151 46.6344 577.655C47.0143 574.158 47.3406 570.652 47.6133 567.136C47.7302 565.626 47.4964 563.532 46.912 560.854C46.5517 559.208 46.4104 557.533 46.4883 555.828C46.5955 553.276 46.6198 551.611 46.5614 550.832C46.0939 544.93 45.641 541.409 45.2027 540.269C43.6248 536.266 43.0356 532.098 43.4349 527.764C43.6979 524.91 43.4252 522.12 42.6168 519.392C41.7596 516.49 41.6671 513.597 42.3392 510.715C42.7385 508.981 42.7482 507.242 42.3684 505.499C41.8327 503.025 41.6428 500.556 41.7986 498.092C42.0421 494.235 42.12 491.791 42.0324 490.758C41.7499 487.262 41.3262 483.78 40.7613 480.312C40.138 476.514 39.9432 473.052 40.1769 469.925C40.8295 460.819 41.6963 451.732 42.7775 442.664C43.3132 438.135 43.206 432.627 42.456 426.141C42.271 424.466 42.4463 422.586 42.982 420.502C43.732 417.609 44.1605 415.793 44.2677 415.052C45.1442 409.16 45.4851 404.485 45.2903 401.027C44.9689 395.203 45.1442 390.538 45.8163 387.032C47.2383 379.591 48.2318 372.096 48.7967 364.548C48.7967 364.441 49.0207 362.975 49.4687 360.15C49.8583 357.638 49.5613 354.949 48.5775 352.086C47.0971 347.791 46.3422 342.527 46.313 336.293C46.2838 329.641 46.3812 322.994 46.6052 316.351C46.6637 314.452 47.1458 311.803 48.0516 308.404C49.2983 303.709 49.4054 298.913 48.373 294.014C48.2777 293.558 48.3339 293.072 48.5337 292.626C49.907 289.509 49.5126 285.901 47.3503 281.8C46.7659 280.67 46.3958 279.472 46.24 278.206C45.977 275.908 45.6848 273.414 45.3634 270.726C45.0517 268.106 44.8715 265.608 44.8228 263.232C44.5209 250.054 44.8959 236.906 45.9478 223.786C46.1523 221.283 46.7805 218.717 47.8324 216.087C48.8259 213.594 49.7463 211.076 50.5937 208.534C50.6229 208.447 50.9881 207.575 51.6894 205.919C52.4783 204.039 52.7511 201.78 52.5076 199.14C51.7868 191.505 52.1959 183.094 53.7348 173.91C53.7445 173.803 54.0659 172.585 54.699 170.258C55.2152 168.329 55.2152 166.269 54.699 164.078C52.8192 156.247 53.4572 148.499 56.6129 140.834C56.7846 140.405 56.8302 139.924 56.7444 139.446C56.4425 137.645 56.4571 135.833 56.7882 134.012C57.0122 132.785 56.9489 132.712 56.5983 133.793C55.8483 136.062 55.2737 138.385 54.8743 140.761C54.8561 140.879 54.7898 141.013 54.6807 141.153C54.5716 141.292 54.4228 141.433 54.2461 141.565L53.9978 141.755C53.971 141.775 53.9402 141.79 53.9079 141.798C53.8756 141.806 53.8426 141.808 53.8115 141.802C53.7804 141.796 53.752 141.784 53.7286 141.766C53.7051 141.747 53.6873 141.724 53.6763 141.696C52.8485 139.495 52.5173 136.427 52.6829 132.492C52.8972 127.496 53.4182 123.167 54.2461 119.505C55.5805 113.573 56.2574 110.569 56.2769 110.491C57.4164 104.579 59.155 98.8422 61.4926 93.2809C61.7653 92.6283 62.637 90.0132 64.1077 85.4356C65.6953 80.5074 68.7974 76.8648 73.4141 74.5078C78.9756 71.6736 83.7043 69.0829 87.6002 66.7356C92.6162 63.7164 96.5219 61.7782 99.3172 60.9211C104.966 59.1972 110.455 58.4911 115.782 58.8027C124.09 59.28 130.665 59.4699 135.506 59.3725C135.71 59.3725 137.707 59.4017 141.496 59.4602C143.619 59.4991 145.723 59.3043 147.807 58.8758C151.235 58.1648 153.291 57.7606 153.972 57.6632C159.222 56.923 164.423 55.9296 169.576 54.6829C171.679 54.1764 174.324 53.8648 177.509 53.7479C179.32 53.6797 181.117 53.4849 182.9 53.1635C184.799 52.8226 186.567 52.7788 188.203 53.032C193.122 53.8112 198.065 54.3517 203.032 54.6537C204.843 54.7608 206.524 55.1212 208.072 55.7348C209.153 56.1536 210.23 56.587 211.301 57.035C212.353 57.4635 213.483 57.7022 214.69 57.7509C218.051 57.8872 221.362 58.3596 224.625 59.168C226.028 59.5186 228.545 59.6014 232.178 59.4163C233.912 59.3287 236.396 58.978 239.629 58.3645C242.99 57.7119 246.389 57.3174 249.827 57.1811C256.732 56.8986 263.643 56.6162 270.558 56.3338C272.905 56.2364 274.946 56.2656 276.68 56.4214C278.998 56.6259 280.99 56.5578 282.655 56.2169C294.469 53.8015 306.235 54.1277 317.952 57.1957C319.17 57.5171 321.278 57.8288 324.278 58.1307C325.729 58.2865 327.151 58.6031 328.544 59.0803C330.385 59.7134 331.768 60.1078 332.693 60.2637C336.443 60.8967 340.208 61.4568 343.987 61.9438C344.688 62.0314 345.458 61.973 346.295 61.7684C347.094 61.5639 347.883 61.4324 348.662 61.374C348.893 61.356 349.125 61.2727 349.341 61.1307C349.556 60.9887 349.749 60.7919 349.904 60.5559L351.672 57.9554C351.781 57.7968 351.955 57.6721 352.174 57.5949C352.393 57.5176 352.649 57.4907 352.913 57.5171C355.251 57.7606 358.387 57.7022 362.322 57.3418C383.039 55.4328 403.741 55.5302 424.428 57.634C432.425 58.4424 440.226 60.1273 447.833 62.6888C455.547 65.2893 463.417 67.2713 471.442 68.6348C471.901 68.7114 472.341 68.9239 472.713 69.2484C476.434 72.482 480.783 74.1134 485.76 74.1426C486.208 74.1523 486.666 74.0306 487.133 73.7773C488.73 72.9495 490.386 72.6329 492.1 72.8277C494.954 73.1394 496.42 73.2952 496.498 73.2952C499.897 73.3342 503.272 73.6897 506.623 74.3617C506.779 74.3934 506.964 74.3685 507.161 74.2894C507.357 74.2102 507.559 74.0793 507.748 73.9088L509.968 71.9512C510.357 71.6005 510.623 71.2165 510.728 70.8555C510.923 70.1347 511.376 69.6818 512.087 69.4968C512.266 69.4468 512.479 69.4457 512.71 69.4936C512.942 69.5415 513.188 69.6373 513.431 69.7744C515.262 70.797 517.137 71.0454 519.055 70.5195C521.851 69.75 523.268 69.3653 523.307 69.3653C529.501 68.5082 535.716 67.7778 541.949 67.1739C542.397 67.1349 542.494 67.3103 542.241 67.6998C541.54 68.7615 541.141 69.9059 541.043 71.133C541.028 71.3395 541.09 71.5445 541.216 71.7108C541.342 71.8771 541.524 71.9936 541.73 72.0388C544.506 72.6914 547.184 72.4089 549.765 71.1915C550.212 70.9727 550.696 70.8912 551.153 70.9577C558.439 71.922 564.74 71.8586 570.058 70.7678C571.548 70.4561 572.829 69.3897 573.901 67.5684C574.015 67.3756 574.171 67.2094 574.357 67.0809C574.544 66.9524 574.757 66.8645 574.982 66.8233C577.173 66.4045 578.756 65.1676 579.73 63.1125C579.948 62.6573 580.266 62.3031 580.636 62.1045C583.782 60.4487 586.928 60.2539 590.074 61.5201C590.244 61.5864 590.429 61.6077 590.611 61.5817C590.792 61.5558 590.964 61.4835 591.109 61.3719C591.255 61.2603 591.369 61.1132 591.441 60.9447C591.513 60.7761 591.54 60.5919 591.52 60.4098C591.13 57.2639 591.091 55.126 591.403 53.9962C591.53 53.4995 591.569 53.0418 591.52 52.623C591.422 51.7854 591.827 51.2886 592.732 51.1328Z" fill="#F1DDC4"/>
<path d="M205.939 178.234C205.179 189.25 206.416 199.598 209.65 209.279C214.734 224.492 223.276 237.884 235.275 249.455L233.099 249.557C232.573 249.577 232.12 249.528 231.74 249.411C231.292 249.285 231.009 249.426 230.892 249.835C230.827 250.057 230.719 250.253 230.582 250.401C230.444 250.549 230.283 250.641 230.118 250.668C226.368 251.252 224.05 251.578 223.164 251.646C217.856 252.075 213.419 250.39 209.854 246.592C209.377 246.095 208.608 245.014 207.546 243.348C206.64 241.936 205.759 240.928 204.902 240.324C201.308 237.772 198.186 234.753 195.537 231.266C195.449 231.159 194.811 230.429 193.623 229.075C192.337 227.624 191.685 225.9 191.665 223.903C191.66 223.49 191.514 223.091 191.251 222.772C190.988 222.453 190.624 222.233 190.219 222.15C183.966 220.913 178.195 218.556 172.906 215.079C172.674 214.924 172.478 214.743 172.334 214.548C172.19 214.354 172.101 214.151 172.074 213.954L171.27 207.818C171.173 207.078 171.09 206.611 171.022 206.416C170.525 204.984 170.764 203.645 171.738 202.398C175.166 198.015 175.395 193.452 172.424 188.709C172.169 188.303 171.791 188.003 171.358 187.862C168.825 187.073 166.303 187.131 163.79 188.037C163.741 188.057 163.649 188.11 163.512 188.198C163.308 188.334 163.137 188.217 163.001 187.847C162.894 187.555 162.787 187.555 162.68 187.847C162.105 189.523 161.253 190.331 160.123 190.272C159.949 190.265 159.776 190.313 159.629 190.409C159.482 190.506 159.369 190.648 159.305 190.813C158.487 192.956 158.194 195.215 158.428 197.592C158.467 197.991 158.321 198.064 157.99 197.811C157.376 197.334 156.699 197.241 155.959 197.533C155.803 197.596 155.626 197.596 155.458 197.535C155.29 197.474 155.142 197.354 155.039 197.197C154.873 196.944 154.644 196.759 154.352 196.642C154.288 196.616 154.219 196.602 154.149 196.603C154.08 196.604 154.012 196.618 153.949 196.645C153.886 196.673 153.83 196.712 153.783 196.762C153.737 196.812 153.702 196.87 153.68 196.934C153.534 197.343 153.324 197.694 153.052 197.986C152.807 198.24 152.666 198.538 152.657 198.819C152.618 200.455 152.511 200.606 152.336 199.272C152.277 198.863 152.17 198.848 152.014 199.228C151.557 200.338 151.201 200.64 150.948 200.134C150.875 199.99 150.756 199.874 150.613 199.808C150.469 199.741 150.309 199.727 150.159 199.769C149.331 199.993 148.805 199.471 148.581 198.205C148.556 198.049 148.488 197.905 148.387 197.799C148.286 197.693 148.159 197.63 148.026 197.621L145.732 197.475C145.099 197.436 144.651 197.339 144.388 197.183C142.109 195.848 139.845 196.262 137.595 198.424C137.136 198.866 136.534 199.13 135.896 199.17C135.257 199.21 134.622 199.024 134.103 198.644L130.334 195.912C130.251 195.851 130.158 195.807 130.059 195.784C129.961 195.76 129.86 195.758 129.765 195.776C129.67 195.794 129.582 195.833 129.509 195.889C129.435 195.946 129.378 196.018 129.34 196.102L127.309 200.543C127.243 200.677 127.237 200.864 127.292 201.081C127.346 201.299 127.459 201.538 127.616 201.77C128.366 202.89 127.752 204.575 125.775 206.825C125.463 207.185 125.283 207.638 125.264 208.111C125.196 209.503 124.894 209.937 124.358 209.411C124.22 209.272 124.107 209.086 124.027 208.862C123.946 208.639 123.9 208.383 123.891 208.111C123.793 204.341 123.647 201.809 123.452 200.514C123.024 197.689 122.673 197.679 122.4 200.484C122.371 200.738 122.357 201.001 122.357 201.273C122.551 217.831 122.327 234.378 121.685 250.916C121.743 229.265 121.962 207.609 122.342 185.948C122.352 185.636 122.288 185.378 122.152 185.174C121.811 184.687 121.475 184.667 121.144 185.115C120.978 185.339 120.891 185.641 120.881 186.021C120.306 221.532 120.146 257.042 120.399 292.553C120.477 303.5 120.467 313.235 120.37 321.757C120.165 337.837 119.922 353.912 119.639 369.982C119.405 383.365 119.581 402.235 120.165 426.594C120.75 450.709 120.701 487.593 120.019 537.245C119.883 547.141 119.873 556.885 119.99 566.478C120.409 601.492 120.711 636.331 120.896 670.994C120.895 671.347 121.033 671.686 121.278 671.94C121.523 672.193 121.858 672.341 122.211 672.353C134.366 672.713 145.981 672.742 157.055 672.44C173.369 671.982 189.683 671.939 205.997 672.309C216.955 672.562 226.695 672.635 235.217 672.528C259.81 672.197 284.403 672.245 308.996 672.674C350.634 673.414 392.272 673.429 433.91 672.718C446.328 672.504 459.409 672.396 473.151 672.396C473.329 672.396 473.505 672.361 473.669 672.293C473.833 672.224 473.982 672.124 474.107 671.998C474.232 671.871 474.331 671.721 474.397 671.557C474.464 671.392 474.498 671.216 474.496 671.038C474.009 645.647 473.858 620.898 474.043 596.793C474.179 579.739 474.13 562.69 473.897 545.645C473.819 540.396 473.94 533.344 474.262 524.491C474.515 517.43 474.554 510.364 474.379 503.293C474.281 499.144 474.447 495.005 474.875 490.875C474.963 488.83 475.372 486.887 476.103 485.046C476.142 484.929 476.268 484.486 476.483 483.716C476.872 482.343 478.026 482.09 479.945 482.957C480.16 483.052 480.393 483.099 480.628 483.094C480.863 483.089 481.093 483.032 481.304 482.927C483.719 481.72 486.159 481.033 488.623 480.868C490.445 480.741 492.85 481.218 495.84 482.299C498.188 483.137 500.55 483.945 502.926 484.724C505.312 485.504 507.231 487.184 508.682 489.765C508.721 489.833 508.76 489.833 508.799 489.765C510.104 487.271 510.893 484.632 511.166 481.846C511.604 477.444 512.057 474.883 512.525 474.162C513.83 472.165 514.38 469.243 514.176 465.396C513.952 461.208 513.143 457.838 511.75 455.287C511.575 454.955 510.835 454.176 509.53 452.949C508.488 451.985 508.23 450.816 508.755 449.443C508.931 448.975 508.984 448.518 508.916 448.07C508.721 446.774 508.882 445.698 509.398 444.841C509.595 444.523 509.712 444.167 509.738 443.804C509.763 443.442 509.697 443.085 509.544 442.766L503.014 429.15C502.8 428.702 502.697 428.249 502.707 427.792C502.717 426.428 502.405 425.172 501.772 424.022C500.818 422.308 500.282 421.179 500.165 420.633C499.892 419.386 499.751 418.12 499.741 416.835C499.736 416.627 499.797 416.419 499.916 416.238C500.036 416.056 500.208 415.908 500.413 415.812C501.514 415.276 502.434 414.531 503.175 413.577C503.466 413.191 503.612 412.719 503.584 412.247L503.014 402.897C502.992 402.536 503.088 402.18 503.287 401.886C503.486 401.592 503.776 401.377 504.11 401.276C505.6 400.837 506.773 399.844 507.631 398.295C507.848 397.918 507.93 397.428 507.864 396.907C506.9 388.853 510.616 383.774 519.012 381.67C522.722 380.745 525.698 378.729 527.938 375.622C528.425 374.95 528.98 374.419 529.604 374.029C530.675 373.357 531.313 372.89 531.517 372.627C534.839 368.536 538.652 364.976 542.957 361.947C543.119 361.837 543.258 361.692 543.366 361.521C543.474 361.351 543.548 361.158 543.585 360.954C543.819 359.824 544.072 359.707 544.345 360.603C544.423 360.847 544.457 360.832 544.447 360.559C544.398 358.728 544.929 356.756 546.04 354.643C547.481 351.896 547.7 349.018 546.697 346.008C546.531 345.531 546.497 345.049 546.595 344.562C547.228 341.348 546.385 339.093 544.067 337.798C543.516 337.493 543.07 337.028 542.786 336.462C542.502 335.897 542.393 335.258 542.475 334.628C542.845 331.793 542.66 328.915 541.92 325.994C541.374 323.841 541.087 321.703 541.058 319.58C541.028 317.243 540.717 314.934 540.123 312.655C539.207 309.129 539.041 305.555 539.626 301.932C540.804 294.647 540.692 287.391 539.29 280.164C538.589 276.56 539.227 273.356 541.204 270.551C542.022 269.382 542.431 268.189 542.431 266.972C542.431 266.66 542.453 266.375 542.496 266.135C542.539 265.896 542.601 265.708 542.679 265.584L545.572 260.967C545.863 260.507 546.008 260.05 545.981 259.682C545.786 256.653 546.2 254.15 547.223 252.172C547.652 251.335 547.885 250.439 547.924 249.484C548.08 245.54 547.798 243.085 547.077 242.121C546.924 241.924 546.81 241.717 546.747 241.52C546.683 241.324 546.671 241.143 546.712 240.996C547.111 239.467 547.126 237.904 546.755 236.307C545.752 231.943 545.884 227.672 547.15 223.494C547.169 223.445 547.452 222.764 547.997 221.449C548.903 219.287 548.129 217.787 545.674 216.949C542.051 215.722 540.512 212.771 541.058 208.096C541.399 205.223 541.209 203.022 540.488 201.492C539.455 199.262 539.071 196.925 539.334 194.48C539.86 189.552 538.915 185.485 536.499 182.281C536.48 182.255 536.454 182.235 536.423 182.223C536.392 182.21 536.356 182.206 536.318 182.21C536.281 182.214 536.242 182.227 536.205 182.247C536.168 182.267 536.134 182.293 536.105 182.325C536.008 182.432 535.881 182.5 535.725 182.529C535.631 182.543 535.532 182.515 535.444 182.448C535.357 182.381 535.285 182.281 535.243 182.164C534.98 181.414 534.79 181.414 534.673 182.164C534.658 182.262 534.607 182.351 534.531 182.411C534.454 182.471 534.359 182.498 534.264 182.486C531.371 182.184 529.209 181.375 527.777 180.061C526.813 179.174 526.224 177.708 526.01 175.663C525.989 175.462 525.901 175.274 525.761 175.128C525.621 174.982 525.436 174.888 525.235 174.86C523.17 174.567 521.583 173.988 520.473 173.121C517.658 170.92 515.656 168.977 514.468 167.292C512.627 164.691 510.255 162.744 507.353 161.448C505.502 160.62 503.783 159.598 502.196 158.38C500.365 156.968 498.665 155.989 497.097 155.444C489.753 152.872 482.575 149.892 475.562 146.503C475.153 146.308 474.968 146.444 475.007 146.912C475.134 148.334 474.788 149.468 473.97 150.316C473.278 151.037 472.908 151.431 472.859 151.499C471.038 153.837 469.65 155.171 468.696 155.502C466.28 156.34 464.152 158.044 462.311 160.615C459.769 164.17 456.267 165.695 451.807 165.188C451.368 165.139 450.93 164.954 450.492 164.633C447.502 162.451 444.482 162.451 441.434 164.633C441.051 164.911 440.597 165.082 440.119 165.13C436.466 165.5 434.572 167.677 434.436 171.66C434.367 173.725 433.822 175.678 432.799 177.518C431.903 179.135 431.82 180.796 432.551 182.5C433.408 184.477 433.676 185.987 433.355 187.029C432.692 189.221 432.215 191.456 431.923 193.735C431.358 198.215 429.687 201.152 426.912 202.544C424.876 203.567 423.814 204.103 423.727 204.151C420.629 206.187 417.488 208.145 414.303 210.024C414.05 210.161 411.946 211.578 407.992 214.276C405.947 215.668 403.672 216.837 401.169 217.782C399.212 218.512 397.809 219.837 396.962 221.756C395.131 225.895 392.092 228.242 387.845 228.797C385.176 229.148 383.287 229.606 382.177 230.171C378.914 231.807 375.885 233.818 373.089 236.204C372.826 236.43 372.592 236.85 372.432 237.388C372.11 238.488 371.107 239.331 369.422 239.915C368.244 240.324 368.132 240.129 369.086 239.331C369.875 238.659 370.318 238.011 370.416 237.388C370.452 237.144 370.524 236.921 370.626 236.738C370.728 236.554 370.856 236.417 371 236.336C373.484 234.963 375.816 232.683 377.998 229.499C378.69 228.495 378.475 228.242 377.355 228.739C376.031 229.333 375.066 230.302 374.463 231.646C373.907 232.883 372.539 233.443 370.357 233.326C380.574 218.503 386.131 202.087 387.027 184.078C387.602 172.459 385.425 160.8 380.496 149.103C376.357 139.315 371.375 131.007 365.551 124.18L365.77 122.441C365.78 122.352 365.773 122.262 365.747 122.177C365.722 122.092 365.679 122.014 365.623 121.947C365.566 121.881 365.496 121.828 365.418 121.792C365.34 121.757 365.256 121.739 365.171 121.74C363.768 121.72 363.403 121.331 364.075 120.571C364.142 120.496 364.195 120.409 364.231 120.316C364.266 120.224 364.283 120.128 364.28 120.035C364.277 119.942 364.255 119.854 364.215 119.778C364.174 119.701 364.117 119.638 364.046 119.592L362.351 118.526C361.952 118.273 361.976 118.131 362.424 118.102L375.193 117.357C375.283 117.353 375.371 117.329 375.451 117.288C375.53 117.246 375.599 117.187 375.651 117.117C375.704 117.046 375.738 116.965 375.753 116.88C375.767 116.795 375.76 116.708 375.734 116.627C375.383 115.487 374.774 114.489 373.907 113.632C373.726 113.451 373.588 113.243 373.509 113.03C373.429 112.818 373.411 112.607 373.454 112.419C373.708 111.367 374.487 110.452 375.792 109.673C375.965 109.572 376.098 109.4 376.172 109.182C376.246 108.964 376.256 108.711 376.201 108.46L374.711 101.842C374.659 101.592 374.714 101.324 374.866 101.086C375.018 100.848 375.258 100.655 375.544 100.542C377.657 99.6943 379.834 99.1148 382.074 98.8032C382.746 98.7155 383.935 98.735 385.639 98.8616C386.847 98.959 388.059 98.8957 389.277 98.6717C389.479 98.6351 389.664 98.5283 389.799 98.369C389.934 98.2097 390.013 98.0073 390.022 97.7951L390.139 95.779C390.148 95.5826 390.229 95.395 390.368 95.2484C390.506 95.1018 390.694 95.0053 390.899 94.9755L402.937 93.1201C404.408 92.8961 405.718 92.862 406.867 93.0178C412.545 93.7581 417.771 94.6395 422.543 95.6622C429.712 97.1815 434.889 98.248 438.073 98.8616C445.086 100.225 452.829 102.09 461.303 104.457C463.68 105.119 465.759 105.913 467.541 106.838C470.454 108.338 472.431 109.259 473.473 109.599C482.015 112.385 488.643 114.231 493.357 115.136C499.201 116.266 504.153 117.391 508.215 118.511C512.734 119.758 516.547 120.513 519.654 120.776C525.576 121.272 531.503 121.686 537.434 122.017C541.593 122.241 544.9 122.743 547.354 123.522C551.046 124.701 554.065 126.254 556.413 128.183C558.38 129.79 560.63 130.613 563.162 130.652C571.5 130.768 578.785 133.413 585.018 138.584C585.389 138.896 585.812 139.096 586.289 139.183C588.306 139.583 589.742 140.26 590.599 141.214C591.749 142.5 592.328 142.276 592.338 140.542L592.732 87.291C592.927 141.346 592.859 195.4 592.528 249.455C592.46 259.341 592.484 269.085 592.601 278.688C592.766 293.58 592.927 308.467 593.083 323.349C593.102 324.849 592.986 329.149 592.732 336.249C592.606 340.048 592.625 344.353 592.791 349.164C593.229 361.787 593.21 394.292 592.732 446.682C591.729 447.149 591.291 447.86 591.417 448.815C591.426 448.88 591.419 448.947 591.396 449.009C591.374 449.071 591.336 449.126 591.288 449.171C591.239 449.215 591.18 449.248 591.116 449.264C591.052 449.281 590.985 449.282 590.921 449.267C589.859 449.014 589.46 449.735 589.723 451.43C589.849 452.228 589.791 452.253 589.547 451.503L587.254 444.578C587.059 443.984 586.767 443.911 586.377 444.359C584.273 446.842 581.756 448.966 578.824 450.728C577.003 451.819 575.21 452.949 573.447 454.118C571.792 455.209 570.642 456.397 570 457.682C569.23 459.231 568.777 460.887 568.641 462.65C568.593 463.148 568.432 463.606 568.173 463.979C566.712 466.015 565.446 468.153 564.375 470.393C563.566 472.097 563.055 474.469 562.841 477.507C562.402 483.799 560.493 489.658 557.114 495.082C556.866 495.482 556.749 495.962 556.778 496.456C556.963 499.329 556.339 502.007 554.908 504.491C553.953 506.147 553.393 507.871 553.228 509.663C552.955 512.526 552.731 514.269 552.556 514.893C550.228 523.035 547.238 530.934 543.585 538.589C542.007 541.891 540.902 545.348 540.269 548.962C539.986 550.579 539.553 552.147 538.968 553.666C538.355 555.302 537.941 556.846 537.727 558.297C537.259 561.56 536.417 564.716 535.199 567.764C533.524 571.962 532.633 574.884 532.526 576.53C532.34 579.325 532.555 582.417 533.168 585.807C533.402 587.073 533.353 588.329 533.022 589.576C530.743 598.147 534.522 605.223 544.359 610.803C544.628 610.958 544.842 611.192 544.973 611.474C545.104 611.757 545.145 612.073 545.09 612.381C544.096 618.098 543.035 623.976 541.905 630.015C541.603 631.67 541.467 633.891 541.496 636.677C541.535 638.926 541.345 641.162 540.926 643.382C540.576 645.242 540.434 647.317 540.502 649.606C540.561 651.739 540.332 653.857 539.816 655.961C539.076 658.922 538.574 661.844 538.311 664.727C538.283 665.026 538.186 665.325 538.025 665.604C537.864 665.882 537.644 666.136 537.376 666.348L530.875 671.52C530.658 671.693 530.427 671.82 530.207 671.889C529.986 671.959 529.783 671.967 529.618 671.914L522.956 669.796C522.727 669.726 522.493 669.714 522.292 669.762C522.09 669.809 521.933 669.914 521.846 670.059L519.041 674.573C518.998 674.64 518.942 674.696 518.876 674.739C518.81 674.781 518.735 674.808 518.658 674.818C518.581 674.828 518.503 674.82 518.43 674.795C518.357 674.771 518.291 674.73 518.237 674.675C516.046 672.445 514.083 672.508 512.349 674.865C511.074 676.599 509.876 677.865 508.755 678.664C508.385 678.927 508.424 679.078 508.872 679.117C513.148 679.506 513.138 680.393 508.843 681.776C508.395 681.909 507.989 682.178 507.674 682.55C506.369 684.079 505.127 685.048 503.949 685.457C501.193 686.392 500.555 687.902 502.035 689.986C502.085 690.058 502.12 690.139 502.136 690.225C502.153 690.31 502.15 690.397 502.129 690.48C502.108 690.563 502.069 690.639 502.015 690.703C501.961 690.766 501.893 690.816 501.816 690.848C499.79 691.656 497.394 692.173 494.628 692.397C492.855 692.533 491.102 693.293 489.368 694.676C479.453 694.793 467.541 694.671 453.633 694.31C436.013 693.853 417.386 693.76 397.751 694.033C387.972 694.179 378.237 694.223 368.546 694.164C353.127 694.077 332.425 694.125 306.44 694.31C283.035 694.476 218.63 694.213 113.226 693.522L114.993 693.083C115.305 693.005 115.295 692.966 114.964 692.966C113.493 692.966 113.24 692.47 114.204 691.476C114.574 691.087 114.828 690.736 114.964 690.424C115.87 688.223 115.388 686.723 113.518 685.925C111.852 685.214 110.859 684.688 110.537 684.347C109.895 683.655 109.383 682.852 109.003 681.936C108.922 681.737 108.784 681.567 108.607 681.447C108.43 681.328 108.222 681.264 108.01 681.264C104.786 681.225 102.195 680.31 100.237 678.518C99.205 677.583 99.3852 677.247 100.778 677.51L110.64 679.336C110.873 679.375 110.942 679.282 110.844 679.058C109.636 676.38 107.62 674.826 104.796 674.398C101.396 673.872 98.2262 672.771 95.2847 671.096C93.9796 670.356 92.6355 669.854 91.2525 669.591C89.4408 669.241 88.0286 668.807 87.0156 668.291C85.3112 667.415 83.7284 667.02 82.2675 667.108C82.0644 667.12 81.8647 667.062 81.7059 666.943C81.5471 666.825 81.4402 666.655 81.4055 666.465C80.2951 660.105 79.9153 652.192 80.2659 642.725C80.7139 630.774 81.1133 621.463 81.4639 614.792C81.7756 608.967 81.9412 602.622 81.9606 595.756C81.9801 588.48 82.2967 582.13 82.9103 576.705C83.2707 573.491 82.9054 570.813 81.8146 568.67C80.7724 566.625 80.3682 563.966 80.6019 560.693C80.6409 560.08 80.7773 557.596 81.011 553.242C81.2156 549.347 82.3308 545.684 84.3567 542.256C84.6099 541.828 84.7414 541.384 84.7511 540.927C84.8972 532.044 84.2641 523.23 82.8518 514.484C82.735 513.753 82.4671 511.143 82.0483 506.653C81.8827 504.89 81.5759 503.152 81.1279 501.438C80.6409 499.607 80.4753 497.883 80.6312 496.266C81.5175 487.023 81.313 477.8 80.0176 468.596C79.589 465.537 79.6815 462.518 80.2951 459.538C80.7432 457.327 80.8552 455.306 80.6312 453.475C80.076 448.819 80.1052 444.607 80.7188 440.838C81.1961 437.916 81.5175 435.32 81.6831 433.051C81.6928 432.905 81.8535 430.309 82.1652 425.264C82.4574 420.531 82.2382 415.831 81.5077 411.166C80.6799 405.819 80.1783 401.943 80.0029 399.537C79.7302 395.641 79.365 391.755 78.9072 387.879C77.8456 378.928 77.9624 371.258 79.2578 364.869C80.4753 358.889 80.714 353.367 79.9737 348.302C79.0971 342.244 78.654 338.884 78.6442 338.222C78.5371 331.073 79.4721 324.026 81.4493 317.082C82.6473 312.865 83.5629 308.589 84.1959 304.255C84.4589 302.385 84.3226 300.033 83.7869 297.198C83.0272 293.244 82.9492 289.046 83.5531 284.605C84.2446 279.424 84.2252 274.062 83.4947 268.52C82.9005 264.001 82.6619 260.276 82.7788 257.344C83.2366 245.871 83.4021 236.789 83.2755 230.098C83.2171 226.854 83.7966 223.981 85.0141 221.478C86.0757 219.277 86.6747 217.519 86.8111 216.204C87.2007 212.581 87.4831 208.081 87.6585 202.705C87.7948 198.614 88.4961 194.392 89.7623 190.039C91.2914 184.789 92.1923 180.981 92.4651 178.614C93.3903 170.491 93.629 162.33 93.1809 154.129C93.1517 153.642 93.2491 153.179 93.4731 152.741C94.7588 150.179 95.499 148.329 95.6938 147.189C96.3951 143.011 97.5249 138.964 99.0833 135.049C99.6287 133.695 100.13 131.655 100.588 128.928C100.948 126.717 101.747 124.633 102.984 122.675C105.068 119.354 107.615 116.495 110.625 114.099C113.187 112.064 115.144 110.228 116.498 108.591C119.878 104.491 123.482 100.6 127.309 96.9185C127.456 96.7761 127.571 96.5929 127.646 96.3813C127.722 96.1697 127.756 95.9345 127.748 95.6914C127.679 94.5324 128.093 93.6704 128.989 93.1055C130.1 92.4043 130.674 92.039 130.713 92.0098C133.265 89.945 136.173 88.9418 139.435 89.0003C139.902 89 140.361 88.852 140.75 88.5766C142.825 87.0962 145.085 86.5508 147.529 86.9403C149.438 87.252 150.441 87.4079 150.539 87.4079C162.967 88.4208 170.374 89.1123 172.76 89.4824C178.906 90.4271 185.49 92.7938 192.513 96.5825C192.62 96.641 193.681 97.089 195.698 97.9266C197.616 98.7252 198.98 100.172 199.788 102.266C200.014 102.857 200.276 103.386 200.538 103.779C200.799 104.171 201.048 104.408 201.249 104.457L204.726 105.275C205.558 105.47 206.304 105.838 206.846 106.319C207.388 106.8 207.696 107.368 207.721 107.934C207.945 112.366 208.179 116.32 208.423 119.797C208.481 120.605 208.325 121.789 207.955 123.347C207.644 124.691 207.721 125.943 208.189 127.102C209.64 130.656 209.63 133.968 208.16 137.036C207.965 137.445 207.853 137.908 207.824 138.424C207.765 139.739 207.298 140.82 206.421 141.667C205.398 142.651 204.868 143.167 204.829 143.216C202.978 145.456 201.084 147.662 199.146 149.834C198.259 150.837 197.646 152.999 197.305 156.32C197.256 156.768 197.1 157.211 196.837 157.65C195.649 159.666 195.751 161.443 197.144 162.982C199.686 165.797 201.512 168.475 202.623 171.017C202.944 171.758 203.343 172.206 203.821 172.361C204.03 172.425 204.215 172.532 204.349 172.669C204.482 172.805 204.558 172.963 204.566 173.121C204.673 174.933 205.131 176.637 205.939 178.234Z" fill="#F1DDC4"/>
<path d="M365.551 124.18C371.375 131.007 376.357 139.315 380.497 149.103C385.425 160.801 387.602 172.459 387.027 184.078C386.131 202.087 380.574 218.503 370.357 233.326C355.485 256.283 334.315 269.202 306.849 272.085C291.285 273.721 276.202 271.384 261.602 265.073C251.824 260.836 243.048 255.63 235.276 249.455C223.276 237.884 214.734 224.493 209.65 209.279C206.416 199.598 205.18 189.25 205.939 178.234C207.907 155.6 216.205 136.422 230.834 120.703C237.165 113.914 244.933 108.148 254.137 103.405C263.721 98.4672 273.241 95.0437 282.699 93.1348C296.042 90.4467 309.892 91.6933 324.249 96.8748C341.265 103.03 355.032 112.132 365.551 124.18Z" fill="#CAAD48"/>
<path d="M474.876 490.875C474.924 487.768 474.89 484.666 474.773 481.569C474.647 478.082 474.617 474.98 474.686 472.263C475.046 458.978 474.827 445.703 474.028 432.438C474.369 426.993 474.51 419.932 474.452 411.254C474.247 379.162 474.203 336.946 474.32 284.605C474.34 277.875 474.228 268.14 473.984 255.401C473.575 234.422 473.702 210.677 474.364 184.166C474.384 183.357 474.15 182.992 473.663 183.07C473.478 183.093 473.306 183.208 473.18 183.393C473.054 183.579 472.981 183.822 472.976 184.078C472.236 213.414 472.046 242.754 472.406 272.1C472.523 282.258 472.548 291.993 472.48 301.304C472.217 334.146 472.445 366.983 473.166 399.815C473.283 405.113 473.259 410.548 473.093 416.119C472.928 421.553 472.791 426.993 472.684 432.438C472.967 449.618 473.088 466.804 473.049 483.994C473.01 498.535 472.947 506.775 472.859 508.713C472.431 517.625 471.257 525.801 469.338 533.242C462.306 560.562 448.7 585.062 428.519 606.742C408.688 628.052 384.519 644.196 356.011 655.172C346.368 658.893 337.052 661.678 328.062 663.529C299.632 669.382 271.371 667.566 243.282 658.079C225.916 652.216 210.444 644.571 196.866 635.143C179.909 623.367 165.709 608.685 154.264 591.095C149.151 583.236 144.422 574.738 140.078 565.602C127.757 539.695 121.67 512.107 121.816 482.84C121.855 474.62 121.792 463.906 121.626 450.699C121.324 426.866 121.256 399.352 121.422 368.156C121.626 329.081 121.714 290.001 121.685 250.916C122.328 234.378 122.552 217.831 122.357 201.273C122.357 201.001 122.371 200.738 122.401 200.484C122.673 197.679 123.024 197.689 123.452 200.514C123.647 201.809 123.793 204.341 123.891 208.111C123.9 208.383 123.946 208.639 124.027 208.862C124.107 209.086 124.22 209.272 124.358 209.411C124.894 209.937 125.196 209.503 125.264 208.111C125.283 207.638 125.463 207.185 125.775 206.825C127.753 204.575 128.366 202.89 127.616 201.77C127.459 201.538 127.346 201.299 127.292 201.081C127.237 200.864 127.243 200.677 127.309 200.543L129.34 196.102C129.378 196.018 129.435 195.946 129.509 195.889C129.582 195.833 129.67 195.794 129.765 195.776C129.86 195.758 129.961 195.761 130.059 195.784C130.158 195.807 130.251 195.851 130.334 195.912L134.103 198.644C134.622 199.024 135.257 199.21 135.896 199.17C136.534 199.13 137.136 198.866 137.595 198.425C139.845 196.262 142.109 195.848 144.388 197.183C144.651 197.339 145.099 197.436 145.732 197.475L148.026 197.621C148.159 197.63 148.286 197.693 148.387 197.799C148.488 197.905 148.556 198.049 148.581 198.205C148.805 199.472 149.331 199.993 150.159 199.769C150.309 199.728 150.469 199.741 150.613 199.808C150.756 199.875 150.875 199.99 150.948 200.134C151.201 200.64 151.557 200.338 152.015 199.228C152.17 198.848 152.278 198.863 152.336 199.272C152.511 200.606 152.618 200.455 152.657 198.819C152.666 198.538 152.808 198.24 153.052 197.986C153.325 197.694 153.534 197.343 153.68 196.934C153.702 196.87 153.737 196.812 153.783 196.762C153.83 196.712 153.886 196.673 153.949 196.645C154.012 196.618 154.08 196.604 154.149 196.603C154.219 196.602 154.288 196.616 154.352 196.642C154.644 196.759 154.873 196.944 155.039 197.197C155.142 197.354 155.29 197.474 155.458 197.535C155.626 197.596 155.803 197.596 155.959 197.533C156.699 197.241 157.376 197.334 157.99 197.811C158.321 198.064 158.467 197.991 158.428 197.592C158.194 195.215 158.487 192.956 159.305 190.813C159.369 190.648 159.482 190.507 159.629 190.41C159.776 190.313 159.949 190.265 160.123 190.273C161.253 190.331 162.105 189.523 162.68 187.847C162.787 187.555 162.894 187.555 163.001 187.847C163.137 188.217 163.308 188.334 163.512 188.198C163.649 188.11 163.741 188.057 163.79 188.037C166.303 187.131 168.825 187.073 171.358 187.862C171.791 188.003 172.169 188.303 172.424 188.709C175.395 193.452 175.166 198.015 171.738 202.398C170.764 203.645 170.525 204.984 171.022 206.416C171.09 206.611 171.173 207.078 171.27 207.818L172.074 213.954C172.101 214.151 172.19 214.354 172.334 214.548C172.478 214.743 172.674 214.924 172.906 215.079C178.195 218.556 183.966 220.913 190.219 222.15C190.624 222.233 190.988 222.453 191.251 222.772C191.514 223.091 191.661 223.49 191.665 223.903C191.685 225.9 192.337 227.624 193.623 229.075C194.811 230.429 195.449 231.159 195.537 231.266C198.186 234.753 201.308 237.772 204.902 240.324C205.759 240.928 206.64 241.936 207.546 243.348C208.608 245.014 209.377 246.095 209.855 246.592C213.419 250.39 217.856 252.075 223.164 251.646C224.05 251.578 226.368 251.252 230.118 250.668C230.283 250.642 230.444 250.549 230.582 250.401C230.719 250.253 230.827 250.057 230.893 249.835C231.009 249.426 231.292 249.285 231.74 249.411C232.12 249.528 232.573 249.577 233.099 249.557L235.276 249.455C243.048 255.63 251.824 260.836 261.602 265.073C276.202 271.384 291.284 273.721 306.849 272.085C334.315 269.202 355.485 256.283 370.357 233.326C372.539 233.443 373.908 232.883 374.463 231.646C375.067 230.302 376.031 229.333 377.355 228.739C378.476 228.242 378.69 228.495 377.998 229.499C375.817 232.684 373.484 234.963 371 236.336C370.856 236.417 370.728 236.554 370.626 236.738C370.524 236.921 370.452 237.144 370.416 237.388C370.318 238.011 369.875 238.659 369.086 239.331C368.132 240.129 368.244 240.324 369.422 239.915C371.107 239.331 372.111 238.488 372.432 237.388C372.592 236.85 372.826 236.43 373.089 236.204C375.885 233.818 378.914 231.807 382.177 230.171C383.287 229.606 385.177 229.148 387.845 228.797C392.092 228.242 395.131 225.895 396.962 221.756C397.809 219.837 399.212 218.512 401.169 217.782C403.672 216.837 405.947 215.668 407.992 214.276C411.946 211.578 414.05 210.161 414.303 210.024C417.488 208.145 420.63 206.187 423.727 204.151C423.814 204.103 424.876 203.567 426.912 202.544C429.688 201.152 431.358 198.215 431.923 193.735C432.215 191.456 432.692 189.221 433.355 187.029C433.676 185.987 433.408 184.477 432.551 182.5C431.821 180.796 431.903 179.135 432.799 177.519C433.822 175.678 434.368 173.725 434.436 171.66C434.572 167.677 436.466 165.5 440.119 165.13C440.597 165.082 441.051 164.911 441.434 164.633C444.482 162.451 447.502 162.451 450.492 164.633C450.93 164.954 451.368 165.14 451.807 165.188C456.268 165.695 459.769 164.17 462.311 160.615C464.152 158.044 466.28 156.34 468.696 155.502C469.65 155.171 471.038 153.837 472.859 151.499C472.908 151.431 473.278 151.037 473.97 150.316C474.788 149.469 475.134 148.334 475.007 146.912C474.968 146.444 475.153 146.308 475.562 146.503C482.575 149.892 489.753 152.872 497.097 155.444C498.665 155.989 500.365 156.968 502.196 158.38C503.783 159.598 505.502 160.62 507.353 161.448C510.255 162.744 512.627 164.691 514.468 167.292C515.656 168.977 517.658 170.92 520.473 173.121C521.583 173.988 523.171 174.567 525.235 174.86C525.436 174.888 525.621 174.982 525.761 175.128C525.901 175.274 525.989 175.462 526.01 175.663C526.224 177.708 526.813 179.174 527.777 180.061C529.209 181.375 531.371 182.184 534.264 182.486C534.359 182.498 534.454 182.471 534.531 182.411C534.607 182.351 534.658 182.262 534.673 182.164C534.79 181.414 534.98 181.414 535.243 182.164C535.285 182.281 535.357 182.381 535.444 182.448C535.532 182.515 535.632 182.543 535.725 182.53C535.881 182.5 536.008 182.432 536.105 182.325C536.134 182.293 536.168 182.267 536.205 182.247C536.242 182.227 536.281 182.215 536.318 182.21C536.356 182.206 536.392 182.21 536.423 182.223C536.454 182.235 536.481 182.255 536.499 182.281C538.915 185.485 539.86 189.552 539.334 194.48C539.071 196.925 539.456 199.262 540.488 201.492C541.209 203.022 541.399 205.223 541.058 208.096C540.512 212.771 542.051 215.722 545.674 216.949C548.129 217.787 548.903 219.287 547.997 221.449C547.452 222.764 547.169 223.446 547.15 223.494C545.884 227.672 545.752 231.943 546.756 236.307C547.126 237.904 547.111 239.467 546.712 240.996C546.671 241.143 546.683 241.324 546.747 241.52C546.81 241.717 546.924 241.924 547.077 242.121C547.798 243.085 548.08 245.54 547.924 249.484C547.885 250.439 547.652 251.335 547.223 252.172C546.2 254.15 545.786 256.653 545.981 259.682C546.008 260.05 545.863 260.507 545.572 260.967L542.679 265.584C542.602 265.708 542.539 265.896 542.496 266.135C542.453 266.375 542.431 266.66 542.431 266.972C542.431 268.189 542.022 269.382 541.204 270.551C539.227 273.356 538.589 276.56 539.29 280.164C540.692 287.391 540.804 294.647 539.626 301.932C539.042 305.555 539.207 309.129 540.123 312.655C540.717 314.934 541.029 317.243 541.058 319.58C541.087 321.703 541.374 323.841 541.92 325.994C542.66 328.915 542.845 331.794 542.475 334.628C542.393 335.258 542.502 335.897 542.786 336.462C543.07 337.028 543.516 337.493 544.067 337.798C546.385 339.093 547.228 341.348 546.595 344.562C546.497 345.049 546.532 345.531 546.697 346.008C547.7 349.018 547.481 351.896 546.04 354.643C544.929 356.756 544.398 358.728 544.447 360.559C544.457 360.832 544.423 360.847 544.345 360.603C544.072 359.707 543.819 359.824 543.585 360.954C543.548 361.158 543.474 361.351 543.366 361.521C543.258 361.692 543.119 361.837 542.957 361.947C538.652 364.976 534.839 368.536 531.518 372.627C531.313 372.89 530.675 373.357 529.604 374.029C528.98 374.419 528.425 374.95 527.938 375.622C525.698 378.729 522.722 380.745 519.012 381.67C510.616 383.774 506.9 388.853 507.864 396.907C507.93 397.428 507.848 397.918 507.631 398.295C506.773 399.844 505.6 400.837 504.11 401.276C503.776 401.377 503.486 401.592 503.287 401.886C503.089 402.18 502.992 402.537 503.014 402.897L503.584 412.247C503.612 412.719 503.467 413.191 503.175 413.577C502.434 414.531 501.514 415.276 500.413 415.812C500.208 415.908 500.036 416.056 499.916 416.238C499.797 416.419 499.736 416.627 499.741 416.835C499.751 418.12 499.892 419.386 500.165 420.633C500.282 421.179 500.818 422.308 501.772 424.022C502.405 425.172 502.717 426.428 502.707 427.792C502.697 428.249 502.8 428.702 503.014 429.15L509.544 442.766C509.697 443.085 509.763 443.442 509.738 443.804C509.712 444.167 509.595 444.523 509.398 444.841C508.882 445.698 508.721 446.774 508.916 448.07C508.984 448.518 508.931 448.975 508.756 449.443C508.23 450.816 508.488 451.985 509.53 452.949C510.835 454.176 511.575 454.955 511.751 455.287C513.143 457.838 513.952 461.208 514.176 465.396C514.38 469.243 513.83 472.165 512.525 474.162C512.057 474.883 511.604 477.444 511.166 481.846C510.893 484.632 510.105 487.271 508.799 489.765C508.76 489.833 508.721 489.833 508.682 489.765C507.231 487.184 505.312 485.504 502.926 484.724C500.55 483.945 498.188 483.137 495.841 482.299C492.85 481.218 490.445 480.741 488.623 480.868C486.159 481.033 483.719 481.72 481.304 482.927C481.094 483.032 480.863 483.089 480.628 483.094C480.393 483.099 480.16 483.052 479.945 482.957C478.026 482.09 476.872 482.343 476.483 483.716C476.268 484.486 476.142 484.929 476.103 485.046C475.372 486.887 474.963 488.83 474.876 490.875Z" fill="#F1DDC4"/>
<path d="M474.028 432.438C473.531 432.71 473.083 432.71 472.684 432.438C472.791 426.993 472.928 421.554 473.093 416.119C473.259 410.548 473.283 405.113 473.166 399.815C472.445 366.983 472.217 334.146 472.48 301.304C472.548 291.993 472.523 282.258 472.406 272.1C472.046 242.754 472.236 213.414 472.976 184.078C472.981 183.822 473.054 183.579 473.18 183.393C473.306 183.208 473.478 183.093 473.663 183.07C474.15 182.992 474.384 183.357 474.364 184.166C473.702 210.677 473.575 234.422 473.984 255.401C474.228 268.14 474.34 277.875 474.32 284.605C474.203 336.946 474.247 379.162 474.452 411.254C474.51 419.932 474.369 426.993 474.028 432.438Z" fill="#010102"/>
<path d="M121.685 250.916C121.714 290.001 121.626 329.081 121.422 368.156C121.256 399.352 121.324 426.866 121.626 450.699C121.792 463.906 121.855 474.62 121.816 482.84C121.67 512.107 127.757 539.695 140.078 565.602C144.422 574.738 149.151 583.235 154.264 591.095C165.709 608.685 179.909 623.367 196.866 635.143C210.444 644.57 225.915 652.216 243.282 658.079C271.371 667.566 299.631 669.382 328.062 663.529C337.052 661.678 346.368 658.892 356.01 655.172C384.519 644.195 408.688 628.052 428.519 606.742C448.7 585.062 462.306 560.562 469.338 533.242C471.257 525.801 472.431 517.625 472.859 508.713C472.947 506.775 473.01 498.535 473.049 483.994C473.088 466.804 472.966 449.618 472.684 432.437C473.083 432.71 473.531 432.71 474.028 432.437C474.827 445.703 475.046 458.978 474.686 472.263C474.617 474.98 474.647 478.082 474.773 481.569C474.89 484.666 474.924 487.768 474.875 490.875C474.447 495.005 474.281 499.144 474.379 503.293C474.554 510.364 474.515 517.43 474.262 524.491C473.94 533.344 473.819 540.396 473.897 545.646C474.13 562.69 474.179 579.739 474.043 596.793C473.858 620.898 474.009 645.647 474.496 671.038C474.498 671.215 474.464 671.392 474.398 671.557C474.331 671.721 474.232 671.871 474.107 671.998C473.982 672.124 473.833 672.224 473.669 672.293C473.505 672.361 473.329 672.396 473.151 672.396C459.409 672.396 446.328 672.504 433.91 672.718C392.272 673.429 350.634 673.414 308.996 672.674C284.403 672.245 259.81 672.197 235.217 672.528C226.695 672.635 216.955 672.562 205.998 672.309C189.683 671.939 173.369 671.982 157.055 672.44C145.981 672.742 134.366 672.713 122.211 672.353C121.858 672.341 121.523 672.193 121.278 671.939C121.033 671.686 120.895 671.347 120.896 670.994C120.711 636.331 120.409 601.492 119.99 566.478C119.873 556.885 119.883 547.141 120.019 537.245C120.701 487.593 120.75 450.709 120.165 426.594C119.581 402.235 119.405 383.365 119.639 369.982C119.922 353.912 120.165 337.837 120.37 321.757C120.467 313.235 120.477 303.5 120.399 292.553C120.146 257.042 120.306 221.532 120.881 186.021C120.891 185.641 120.978 185.339 121.144 185.115C121.475 184.667 121.811 184.687 122.152 185.174C122.288 185.378 122.352 185.636 122.342 185.948C121.962 207.609 121.743 229.265 121.685 250.916Z" fill="#1D1A20"/>
<path d="M592.732 446.682C592.84 451.425 592.903 456.173 592.922 460.926C593.146 521.185 593.375 581.448 593.609 641.717C593.648 651.71 593.463 661.698 593.054 671.681C592.917 675.089 592.966 678.976 593.2 683.339C593.414 687.235 593.502 691.135 593.463 695.041C591.525 695.616 588.866 695.859 585.486 695.771C561.341 695.148 530.052 694.905 491.618 695.041C490.498 695.041 489.748 694.919 489.368 694.676C491.102 693.293 492.855 692.533 494.628 692.397C497.394 692.173 499.79 691.656 501.816 690.848C501.893 690.816 501.961 690.766 502.015 690.703C502.069 690.639 502.108 690.563 502.129 690.48C502.15 690.397 502.153 690.31 502.136 690.225C502.12 690.139 502.086 690.058 502.035 689.986C500.555 687.902 501.193 686.392 503.949 685.457C505.127 685.048 506.369 684.079 507.674 682.55C507.989 682.178 508.396 681.909 508.843 681.776C513.139 680.393 513.148 679.506 508.872 679.117C508.424 679.078 508.385 678.927 508.756 678.664C509.876 677.865 511.074 676.599 512.35 674.865C514.083 672.508 516.046 672.445 518.237 674.676C518.291 674.73 518.357 674.771 518.43 674.796C518.503 674.82 518.581 674.828 518.658 674.818C518.735 674.808 518.81 674.781 518.876 674.739C518.942 674.696 518.999 674.64 519.041 674.573L521.846 670.059C521.933 669.914 522.09 669.809 522.292 669.762C522.493 669.714 522.727 669.726 522.956 669.796L529.618 671.914C529.783 671.967 529.986 671.959 530.207 671.889C530.428 671.82 530.658 671.693 530.875 671.52L537.376 666.348C537.644 666.136 537.865 665.882 538.025 665.604C538.186 665.325 538.283 665.026 538.311 664.727C538.574 661.844 539.076 658.922 539.816 655.961C540.332 653.857 540.561 651.739 540.503 649.606C540.434 647.317 540.576 645.243 540.926 643.382C541.345 641.162 541.535 638.926 541.496 636.677C541.467 633.891 541.603 631.67 541.905 630.015C543.035 623.976 544.097 618.098 545.09 612.381C545.145 612.073 545.104 611.757 544.973 611.474C544.842 611.192 544.628 610.958 544.36 610.803C534.522 605.223 530.743 598.147 533.022 589.576C533.354 588.329 533.402 587.073 533.168 585.807C532.555 582.417 532.341 579.325 532.526 576.53C532.633 574.884 533.524 571.962 535.199 567.764C536.417 564.716 537.259 561.56 537.727 558.297C537.941 556.846 538.355 555.302 538.969 553.666C539.553 552.147 539.986 550.579 540.269 548.962C540.902 545.348 542.007 541.891 543.585 538.589C547.238 530.934 550.228 523.035 552.556 514.893C552.731 514.269 552.955 512.526 553.228 509.663C553.393 507.871 553.953 506.147 554.908 504.491C556.34 502.007 556.963 499.329 556.778 496.456C556.749 495.962 556.867 495.482 557.114 495.082C560.494 489.658 562.403 483.799 562.841 477.507C563.055 474.469 563.566 472.097 564.375 470.393C565.446 468.153 566.712 466.015 568.173 463.979C568.432 463.606 568.593 463.148 568.641 462.65C568.777 460.887 569.23 459.231 570 457.682C570.642 456.397 571.792 455.209 573.448 454.118C575.21 452.949 577.003 451.819 578.824 450.728C581.756 448.966 584.273 446.842 586.377 444.359C586.767 443.911 587.059 443.984 587.254 444.578L589.548 451.503C589.791 452.253 589.849 452.228 589.723 451.43C589.46 449.735 589.859 449.014 590.921 449.267C590.985 449.282 591.052 449.281 591.116 449.264C591.18 449.248 591.239 449.215 591.288 449.171C591.337 449.126 591.374 449.071 591.396 449.009C591.419 448.947 591.426 448.88 591.418 448.815C591.291 447.86 591.729 447.149 592.732 446.682Z" fill="#F1DDC4"/>
<path d="M26.2975 693.639C24.1353 694.866 21.8659 695.362 19.4894 695.129C17.1129 694.895 15.5545 694.802 14.8143 694.851C13.441 694.939 11.8631 695.031 10.0807 695.129C9.77952 695.145 9.49424 695.269 9.27697 695.478C9.0597 695.687 8.92494 695.968 8.89733 696.268C8.42007 702.141 8.18632 707.454 8.19606 712.207C8.33241 772.836 8.32267 833.465 8.16684 894.094C8.1571 898.983 7.84542 900.459 7.23181 898.52C7.03702 897.878 6.94449 897.113 6.95423 896.227C7.08085 885.65 6.97371 875.077 6.63281 864.51L6.88118 693.215L26.2975 693.639Z" fill="#010102"/>
<path d="M26.2975 693.638L78.1622 693.521H113.226C218.63 694.213 283.035 694.476 306.44 694.31C332.426 694.125 353.128 694.077 368.546 694.164C378.237 694.223 387.972 694.179 397.751 694.033C417.386 693.76 436.014 693.853 453.633 694.31C467.541 694.671 479.453 694.793 489.368 694.676C489.748 694.919 490.498 695.041 491.618 695.041C530.052 694.905 561.341 695.148 585.486 695.771C588.866 695.859 591.525 695.616 593.463 695.041C593.521 769.218 593.658 843.399 593.872 917.586C593.872 917.683 593.989 919.543 594.223 923.166C594.339 925.017 594.242 926.867 593.93 928.718C593.899 928.918 593.793 929.1 593.633 929.231C593.472 929.362 593.266 929.434 593.054 929.434C554.25 929.541 515.447 929.57 476.643 929.521C475.601 929.521 474.851 929.278 474.393 928.791C473.702 896.894 473.536 864.992 473.897 833.085C474.004 823.034 473.984 813.299 473.838 803.881C473.39 776.152 473.2 748.424 473.268 720.695C473.269 720.493 473.194 720.297 473.057 720.144C472.92 719.991 472.73 719.891 472.523 719.862C470.205 719.56 467.317 719.443 463.86 719.512C446.679 719.833 425.86 719.857 401.403 719.585C380.014 719.351 358.631 719.21 337.252 719.161C335.878 719.151 333.604 719.229 330.429 719.395C328.15 719.521 325.871 719.546 323.591 719.468C317.339 719.244 314.183 719.132 314.124 719.132C292.2 719.025 270.276 718.844 248.351 718.591C240.832 718.504 231.097 718.577 219.146 718.81C208.199 719.025 197.241 719.044 186.274 718.869C166.356 718.557 146.443 718.64 126.535 719.117C125.999 719.127 125.181 718.991 124.081 718.708C122.464 718.289 121.724 718.981 121.86 720.783C121.948 721.932 121.991 722.545 121.991 722.623C122.118 749.836 122.05 777.043 121.787 804.246C121.69 814.083 121.704 823.818 121.831 833.45C122.172 858.237 122.376 883.029 122.444 907.826C122.444 907.914 122.634 911.104 123.014 917.396C123.228 920.824 123.009 924.238 122.357 927.637L122.108 927.768C121.865 927.905 121.704 927.973 121.626 927.973L9.3064 927.315C8.60375 927.311 7.93119 927.031 7.43569 926.536C6.9402 926.04 6.66205 925.37 6.66203 924.671L6.63281 864.51C6.97371 875.077 7.08085 885.649 6.95423 896.227C6.94449 897.113 7.03702 897.877 7.23181 898.52C7.84542 900.458 8.1571 898.983 8.16684 894.094C8.32267 833.465 8.33241 772.836 8.19606 712.207C8.18632 707.454 8.42007 702.141 8.89733 696.268C8.92494 695.968 9.0597 695.687 9.27697 695.478C9.49424 695.269 9.77952 695.145 10.0807 695.129C11.8631 695.031 13.441 694.939 14.8143 694.851C15.5545 694.802 17.1129 694.895 19.4894 695.129C21.8659 695.362 24.1353 694.866 26.2975 693.638Z" fill="#1C1920"/>
<path d="M474.393 928.791H473.049C472.494 911.941 472.124 895.087 471.939 878.228C471.939 878.16 471.988 875.588 472.085 870.514C472.182 865.868 471.754 861.554 470.799 857.57C457.261 801.013 424.905 760.321 373.732 735.494C362.229 729.914 349.49 725.867 335.513 723.354C327.614 721.932 317.923 721.158 306.44 721.031C292.258 720.865 280.692 721.211 271.741 722.068C255.271 723.636 238.441 728.964 221.25 738.051C204.507 746.895 189.956 757.486 177.596 769.826C170.798 776.615 164.394 783.944 158.384 791.813C147.661 805.877 139.343 821.378 133.431 838.315C130.08 847.918 128.093 853.85 127.47 856.109C125.396 863.648 124.422 871.926 124.548 880.945C124.616 886.088 124.616 901.652 124.548 927.637H122.357C123.009 924.238 123.228 920.824 123.014 917.396C122.634 911.104 122.444 907.914 122.444 907.827C122.376 883.03 122.172 858.237 121.831 833.45C121.704 823.818 121.69 814.083 121.787 804.246C122.05 777.043 122.118 749.836 121.991 722.623C121.991 722.546 121.948 721.932 121.86 720.783C121.724 718.981 122.464 718.289 124.081 718.708C125.181 718.991 125.999 719.127 126.535 719.117C146.443 718.64 166.356 718.557 186.274 718.869C197.241 719.044 208.199 719.025 219.146 718.81C231.097 718.577 240.832 718.504 248.351 718.591C270.276 718.845 292.2 719.025 314.124 719.132C314.183 719.132 317.338 719.244 323.591 719.468C325.871 719.546 328.15 719.521 330.429 719.395C333.604 719.229 335.878 719.151 337.252 719.161C358.631 719.21 380.014 719.351 401.403 719.585C425.86 719.857 446.679 719.833 463.86 719.512C467.317 719.444 470.205 719.56 472.523 719.862C472.73 719.891 472.92 719.991 473.057 720.144C473.194 720.297 473.269 720.493 473.268 720.695C473.2 748.424 473.39 776.152 473.838 803.881C473.984 813.299 474.004 823.034 473.897 833.085C473.536 864.992 473.702 896.894 474.393 928.791Z" fill="#F1DDC4"/>
<path d="M473.049 928.791C472.582 929.278 471.588 929.522 470.069 929.522C440.119 929.541 410.169 929.434 380.219 929.2C295.336 928.548 210.449 928.168 125.556 928.061C125.352 928.061 125.172 928.022 125.016 927.944C124.86 927.856 124.704 927.754 124.548 927.637C124.616 901.652 124.616 886.088 124.548 880.945C124.422 871.927 125.396 863.648 127.47 856.109C128.094 853.85 130.081 847.918 133.431 838.315C139.343 821.378 147.661 805.878 158.384 791.814C164.394 783.944 170.798 776.615 177.596 769.826C189.956 757.486 204.507 746.895 221.25 738.051C238.441 728.964 255.272 723.637 271.742 722.068C280.692 721.211 292.259 720.866 306.44 721.031C317.923 721.158 327.614 721.932 335.513 723.354C349.49 725.867 362.23 729.914 373.732 735.494C424.905 760.321 457.261 801.013 470.799 857.57C471.754 861.554 472.183 865.868 472.085 870.514C471.988 875.589 471.939 878.16 471.939 878.228C472.124 895.087 472.494 911.942 473.049 928.791Z" fill="#1A171E"/>
</g>
<defs>
<clipPath id="clip0_4_1450">
<rect width="599" height="935" fill="white"/>
</clipPath>
</defs>
</svg>
